<?xml version="1.0" encoding="utf-8"?>
<!-- Generator: Adobe Illustrator 26.0.2, SVG Export Plug-In . SVG Version: 6.00 Build 0)  -->
<svg version="1.1" xmlns="http://www.w3.org/2000/svg" viewBox="0 0 2507 2476" xml:space="preserve">
<style type="text/css">
	.st0{fill:none;stroke:#FFFFFF;stroke-width:4.5833;stroke-miterlimit:8;}
	.st1{fill:#FFFFFF;font-family:'sans-serif';font-size:46px;}
</style>
    <path class="st0" d="M1967.5,850.5v1559.6h38.1"/>
    <path class="st0" d="M1967.5,850.5v1379.3h38.1"/>
    <path class="st0" d="M1967.5,850.5v1198.9h38.1"/>
    <path class="st0" d="M1967.5,850.5v1018.6h38.1"/>
    <path class="st0" d="M1967.5,850.5v838.2h38.1"/>
    <path class="st0" d="M1967.5,850.5v657.9h38.1"/>
    <path class="st0" d="M1967.5,850.5v477.6h38.1"/>
    <path class="st0" d="M1967.5,850.5v297.2h38.1"/>
    <path class="st0" d="M1967.5,850.5v116.8h38.1"/>
    <path class="st0" d="M1904.5,489.5v297.2h38.1"/>
    <path class="st0" d="M1904.5,489.5v116.8h38.1"/>
    <path class="st0" d="M2006,309.5v53.3"/>
    <path class="st0" d="M1321.5,129.5v26.7h684.2v26.7"/>
    <path class="st0" d="M1596.5,850.5v1198.9h38.1"/>
    <path class="st0" d="M1596.5,850.5v1018.6h38.1"/>
    <path class="st0" d="M1596.5,850.5v838.2h38.1"/>
    <path class="st0" d="M1596.5,850.5v657.9h38.1"/>
    <path class="st0" d="M1596.5,850.5v477.6h38.1"/>
    <path class="st0" d="M1596.5,850.5v297.2h38.1"/>
    <path class="st0" d="M1596.5,850.5v116.8h38.1"/>
    <path class="st0" d="M1533.5,309.5V787h38.1"/>
    <path class="st0" d="M1533.5,309.5v297.2h38.1"/>
    <path class="st0" d="M1533.5,309.5v116.8h38.1"/>
    <path class="st0" d="M1321.5,129.5v26.7h313.3v26.7"/>
    <path class="st0" d="M1226.5,309.5V787h38.1"/>
    <path class="st0" d="M1226.5,309.5v297.2h38.1"/>
    <path class="st0" d="M1226.5,309.5v116.8h38.1"/>
    <path class="st0" d="M1322,129.5v26.7h5.9v26.7"/>
    <path class="st0" d="M899.7,489.5v1018.6H873"/>
    <path class="st0" d="M900,489.5v838.2h26.7"/>
    <path class="st0" d="M899.7,489.5v838.2H873"/>
    <path class="st0" d="M900,489.5v657.9h26.7"/>
    <path class="st0" d="M899.7,489.5v657.9H873"/>
    <path class="st0" d="M900,489.5V967h26.7"/>
    <path class="st0" d="M899.7,489.5V967H873"/>
    <path class="st0" d="M900,489.5v297.2h26.7"/>
    <path class="st0" d="M899.7,489.5v297.2H873"/>
    <path class="st0" d="M900,489.5v116.8h26.7"/>
    <path class="st0" d="M899.7,489.5v116.8H873"/>
    <path class="st0" d="M637.5,309.5v26.7h262.3v26.7"/>
    <path class="st0" d="M273.5,489.5v297.2h38.1"/>
    <path class="st0" d="M273.5,489.5v116.8h38.1"/>
    <path class="st0" d="M637.8,309.5v26.7H375.5v26.7"/>
    <path class="st0" d="M1321.7,129.5v26.7H637.5v26.7"/>
    <rect x="1075.5" y="2.5" class="st0" width="493" height="127"/>
    <text transform="matrix(1 0 0 1 1092.01 77)" class="st1">国立北京女子师范大学</text>
    <rect x="510.5" y="182.5" class="st0" width="254" height="127"/>
    <text transform="matrix(1 0 0 1 591.176 257)" class="st1">学制</text>
    <rect x="248.5" y="362.5" class="st0" width="254" height="127"/>
    <text transform="matrix(1 0 0 1 328.908 437)" class="st1">预科</text>
    <rect x="311.5" y="543.5" class="st0" width="254" height="127"/>
    <text transform="matrix(1 0 0 1 392.411 618)" class="st1">甲部</text>
    <rect x="311.5" y="723.5" class="st0" width="254" height="127"/>
    <text transform="matrix(1 0 0 1 392.411 798)" class="st1">乙部</text>
    <rect x="772.5" y="362.5" class="st0" width="254" height="127"/>
    <text transform="matrix(1 0 0 1 853.445 437)" class="st1">本科</text>
    <rect x="619.5" y="543.5" class="st0" width="254" height="127"/>
    <text transform="matrix(1 0 0 1 676.851 618)" class="st1">数学系</text>
    <rect x="926.5" y="543.5" class="st0" width="254" height="127"/>
    <text transform="matrix(1 0 0 1 961.29 618)" class="st1">物理学系</text>
    <rect x="619.5" y="723.5" class="st0" width="254" height="127"/>
    <text transform="matrix(1 0 0 1 676.851 798)" class="st1">化学系</text>
    <rect x="926.5" y="723.5" class="st0" width="284" height="127"/>
    <text transform="matrix(1 0 0 1 930.611 798)" class="st1">生物地质学系</text>
    <rect x="619.5" y="903.5" class="st0" width="254" height="127"/>
    <text transform="matrix(1 0 0 1 653.934 978)" class="st1">教育学系</text>
    <rect x="926.5" y="903.5" class="st0" width="254" height="127"/>
    <text transform="matrix(1 0 0 1 984.207 978)" class="st1">哲学系</text>
    <rect x="619.5" y="1084.5" class="st0" width="254" height="127"/>
    <text transform="matrix(1 0 0 1 676.851 1159)" class="st1">史学系</text>
    <rect x="926.5" y="1084.5" class="st0" width="254" height="127"/>
    <text transform="matrix(1 0 0 1 961.29 1159)" class="st1">国文学系</text>
    <rect x="619.5" y="1264.5" class="st0" width="254" height="127"/>
    <text transform="matrix(1 0 0 1 653.934 1339)" class="st1">英文学系</text>
    <rect x="926.5" y="1264.5" class="st0" width="254" height="127"/>
    <text transform="matrix(1 0 0 1 984.207 1339)" class="st1">音乐系</text>
    <rect x="619.5" y="1445.5" class="st0" width="254" height="127"/>
    <text transform="matrix(1 0 0 1 676.851 1519)" class="st1">体育系</text>
    <rect x="1200.5" y="182.5" class="st0" width="254" height="127"/>
    <text transform="matrix(1 0 0 1 1235.45 257)" class="st1">附属学校</text>
    <rect x="1264.5" y="362.5" class="st0" width="254" height="127"/>
    <text transform="matrix(1 0 0 1 1276.04 437)" class="st1">附属蒙养院</text>
    <rect x="1264.5" y="543.5" class="st0" width="254" height="127"/>
    <text transform="matrix(1 0 0 1 1298.96 618)" class="st1">附属小学</text>
    <rect x="1264.5" y="723.5" class="st0" width="254" height="127"/>
    <text transform="matrix(1 0 0 1 1298.96 798)" class="st1">附属中学</text>
    <rect x="1507.5" y="182.5" class="st0" width="254" height="127"/>
    <text transform="matrix(1 0 0 1 1588.64 257)" class="st1">会议</text>
    <rect x="1571.5" y="362.5" class="st0" width="254" height="127"/>
    <text transform="matrix(1 0 0 1 1629.23 437)" class="st1">评议会</text>
    <rect x="1571.5" y="543.5" class="st0" width="254" height="127"/>
    <text transform="matrix(1 0 0 1 1606.3101 618)" class="st1">教务会议</text>
    <rect x="1571.5" y="723.5" class="st0" width="254" height="127"/>
    <text transform="matrix(1 0 0 1 1606.3101 798)" class="st1">行政会议</text>
    <rect x="1634.5" y="903.5" class="st0" width="254" height="127"/>
    <text transform="matrix(1 0 0 1 1646.9 978)" class="st1">组织委员会</text>
    <rect x="1634.5" y="1084.5" class="st0" width="254" height="127"/>
    <text transform="matrix(1 0 0 1 1646.9 1159)" class="st1">聘任委员会</text>
    <rect x="1634.5" y="1264.5" class="st0" width="254" height="127"/>
    <text transform="matrix(1 0 0 1 1646.9 1339)" class="st1">财务委员会</text>
    <rect x="1634.5" y="1445.5" class="st0" width="254" height="127"/>
    <text transform="matrix(1 0 0 1 1646.9 1519)" class="st1">图书委员会</text>
    <rect x="1634.5" y="1625.5" class="st0" width="254" height="127"/>
    <text transform="matrix(1 0 0 1 1646.9 1700)" class="st1">仪器委员会</text>
    <rect x="1634.5" y="1805.5" class="st0" width="254" height="127"/>
    <text transform="matrix(1 0 0 1 1646.9 1852)" class="st1">学生事业委</text>
    <text transform="matrix(1 0 0 1 1715.65 1908)" class="st1">员会</text>
    <rect x="1634.5" y="1986.5" class="st0" width="254" height="127"/>
    <text transform="matrix(1 0 0 1 1646.9 2032)" class="st1">教生实习指</text>
    <text transform="matrix(1 0 0 1 1669.8167 2088)" class="st1">导委员会</text>
    <rect x="1878.5" y="182.5" class="st0" width="254" height="127"/>
    <text transform="matrix(1 0 0 1 1913.67 257)" class="st1">行政组织</text>
    <rect x="1878.5" y="362.5" class="st0" width="254" height="127"/>
    <text transform="matrix(1 0 0 1 1959.5 437)" class="st1">校长</text>
    <rect x="1942.5" y="543.5" class="st0" width="254" height="127"/>
    <text transform="matrix(1 0 0 1 2000.09 618)" class="st1">教务处</text>
    <rect x="1942.5" y="723.5" class="st0" width="254" height="127"/>
    <text transform="matrix(1 0 0 1 2000.09 798)" class="st1">总务处</text>
    <rect x="2005.5" y="903.5" class="st0" width="254" height="127"/>
    <text transform="matrix(1 0 0 1 2063.5901 978)" class="st1">注册部</text>
    <rect x="2005.5" y="1084.5" class="st0" width="254" height="127"/>
    <text transform="matrix(1 0 0 1 2063.5901 1159)" class="st1">文牍部</text>
    <rect x="2005.5" y="1264.5" class="st0" width="254" height="127"/>
    <text transform="matrix(1 0 0 1 2063.5901 1339)" class="st1">出版部</text>
    <rect x="2005.5" y="1445.5" class="st0" width="254" height="127"/>
    <text transform="matrix(1 0 0 1 2063.5901 1519)" class="st1">庶务部</text>
    <rect x="2005.5" y="1625.5" class="st0" width="254" height="127"/>
    <text transform="matrix(1 0 0 1 2063.5901 1700)" class="st1">会计部</text>
    <rect x="2005.5" y="1805.5" class="st0" width="254" height="127"/>
    <text transform="matrix(1 0 0 1 2063.5901 1880)" class="st1">舍务部</text>
    <rect x="2005.5" y="1986.5" class="st0" width="254" height="127"/>
    <text transform="matrix(1 0 0 1 2063.5901 2060)" class="st1">卫生部</text>
    <rect x="2005.5" y="2166.5" class="st0" width="254" height="127"/>
    <text transform="matrix(1 0 0 1 2063.5901 2241)" class="st1">图书部</text>
    <rect x="2005.5" y="2346.5" class="st0" width="254" height="127"/>
    <text transform="matrix(1 0 0 1 2063.5901 2421)" class="st1">仪器部</text>
</svg>
