<?xml version="1.0" encoding="utf-8"?>
<!-- Generator: Adobe Illustrator 26.0.2, SVG Export Plug-In . SVG Version: 6.00 Build 0)  -->
<svg version="1.1" xmlns="http://www.w3.org/2000/svg" viewBox="0 0 1997 1742" xml:space="preserve">
<style type="text/css">
	.st0{fill:none;stroke:black;stroke-width:3;stroke-miterlimit:8;}
	.st1{fill:black;font-family:sans-serif;font-size:37px;}
</style>
    <path class="st0" d="M1539.9,403.5v838.3H1518"/>
    <path class="st0" d="M1540,403.5v689.9h21.9"/>
    <path class="st0" d="M1539.9,403.5v689.9H1518"/>
    <path class="st0" d="M1540,403.5V945h21.9"/>
    <path class="st0" d="M1539.9,403.5V945H1518"/>
    <path class="st0" d="M1540,403.5v393h21.9"/>
    <path class="st0" d="M1539.9,403.5v393H1518"/>
    <path class="st0" d="M1540,403.5v244.6h21.9"/>
    <path class="st0" d="M1539.9,403.5v244.6H1518"/>
    <path class="st0" d="M1540,403.5v96.2h21.9"/>
    <path class="st0" d="M1539.9,403.5v96.2H1518"/>
    <path class="st0" d="M1540,255.5v43.9"/>
    <path class="st0" d="M970.5,107.5v22h569.2v22"/>
    <path class="st0" d="M1017.5,255.5v986.7h38"/>
    <path class="st0" d="M1017.5,255.5v838.3h38"/>
    <path class="st0" d="M1017.5,255.5v689.9h38"/>
    <path class="st0" d="M1017.5,255.5V797h38"/>
    <path class="st0" d="M1017.5,255.5v393h38"/>
    <path class="st0" d="M1017.5,255.5v244.6h38"/>
    <path class="st0" d="M1017.5,255.5v96.2h38"/>
    <path class="st0" d="M970.5,107.5v22h148.6v22"/>
    <path class="st0" d="M654.5,255.5v22h253v22"/>
    <path class="st0" d="M655,255.5v43.9"/>
    <path class="st0" d="M528,700.5v986.8h22"/>
    <path class="st0" d="M528,700.5v986.8h-22"/>
    <path class="st0" d="M528,700.5v838.3h22"/>
    <path class="st0" d="M528,700.5v838.3h-22"/>
    <path class="st0" d="M528,700.5v689.9h22"/>
    <path class="st0" d="M528,700.5v689.9h-22"/>
    <path class="st0" d="M528,700.5V1242h22"/>
    <path class="st0" d="M528,700.5V1242h-22"/>
    <path class="st0" d="M528,700.5v393h22"/>
    <path class="st0" d="M528,700.5v393h-22"/>
    <path class="st0" d="M528,700.5v244.6h22"/>
    <path class="st0" d="M528,700.5v244.6h-22"/>
    <path class="st0" d="M528,700.5v96.2h22"/>
    <path class="st0" d="M528,700.5v96.2h-22"/>
    <path class="st0" d="M528,552.5v43.9"/>
    <path class="st0" d="M401.5,403.5v22H528v22"/>
    <path class="st0" d="M402,403.5v22H275.5v22"/>
    <path class="st0" d="M654.5,255.5v22h-253v22"/>
    <path class="st0" d="M970.7,107.5v22H654.5v22"/>
    <path class="st0" d="M970.7,107.5v22H401.5v22"/>
    <rect x="866.5" y="2.5" class="st0" width="209" height="105"/>
    <text transform="matrix(1 0 0 1 878.587 63)" class="st1">京师大学堂</text>
    <rect x="297.5" y="150.5" class="st0" width="209" height="105"/>
    <text transform="matrix(1 0 0 1 346.098 212)" class="st1">大学院</text>
    <rect x="550.5" y="150.5" class="st0" width="209" height="105"/>
    <text transform="matrix(1 0 0 1 562.389 212)" class="st1">大学预备科</text>
    <rect x="297.5" y="299.5" class="st0" width="209" height="104"/>
    <text transform="matrix(1 0 0 1 309.431 360)" class="st1">附设速成科</text>
    <rect x="170.5" y="447.5" class="st0" width="209" height="105"/>
    <text transform="matrix(1 0 0 1 219.619 509)" class="st1">仕学馆</text>
    <rect x="423.5" y="447.5" class="st0" width="209" height="105"/>
    <text transform="matrix(1 0 0 1 472.577 509)" class="st1">师范馆</text>
    <rect x="423.5" y="596.5" class="st0" width="209" height="104"/>
    <text transform="matrix(1 0 0 1 454.244 657)" class="st1">学科课程</text>
    <rect x="297.5" y="744.5" class="st0" width="209" height="105"/>
    <text transform="matrix(1 0 0 1 364.431 806)" class="st1">伦理</text>
    <rect x="550.5" y="744.5" class="st0" width="209" height="105"/>
    <text transform="matrix(1 0 0 1 617.389 806)" class="st1">经学</text>
    <rect x="297.5" y="893.5" class="st0" width="209" height="104"/>
    <text transform="matrix(1 0 0 1 346.098 954)" class="st1">教育学</text>
    <rect x="550.5" y="893.5" class="st0" width="209" height="104"/>
    <text transform="matrix(1 0 0 1 617.389 954)" class="st1">习字</text>
    <rect x="297.5" y="1041.5" class="st0" width="209" height="105"/>
    <text transform="matrix(1 0 0 1 364.431 1102)" class="st1">作文</text>
    <rect x="550.5" y="1041.5" class="st0" width="209" height="105"/>
    <text transform="matrix(1 0 0 1 617.389 1102)" class="st1">算学</text>
    <rect x="297.5" y="1189.5" class="st0" width="209" height="105"/>
    <text transform="matrix(1 0 0 1 327.765 1251)" class="st1">中外史学</text>
    <rect x="550.5" y="1189.5" class="st0" width="209" height="105"/>
    <text transform="matrix(1 0 0 1 580.723 1251)" class="st1">中外舆地</text>
    <rect x="297.5" y="1338.5" class="st0" width="209" height="104"/>
    <text transform="matrix(1 0 0 1 364.431 1399)" class="st1">博物</text>
    <rect x="550.5" y="1338.5" class="st0" width="209" height="104"/>
    <text transform="matrix(1 0 0 1 617.389 1399)" class="st1">物理</text>
    <rect x="297.5" y="1486.5" class="st0" width="209" height="105"/>
    <text transform="matrix(1 0 0 1 364.431 1548)" class="st1">化学</text>
    <rect x="550.5" y="1486.5" class="st0" width="209" height="105"/>
    <text transform="matrix(1 0 0 1 599.056 1548)" class="st1">外国文</text>
    <rect x="297.5" y="1635.5" class="st0" width="209" height="104"/>
    <text transform="matrix(1 0 0 1 364.431 1696)" class="st1">图画</text>
    <rect x="550.5" y="1635.5" class="st0" width="209" height="104"/>
    <text transform="matrix(1 0 0 1 617.389 1696)" class="st1">体操</text>
    <rect x="550.5" y="299.5" class="st0" width="209" height="104"/>
    <text transform="matrix(1 0 0 1 617.389 360)" class="st1">政科</text>
    <rect x="802.5" y="299.5" class="st0" width="210" height="104"/>
    <text transform="matrix(1 0 0 1 870.348 360)" class="st1">艺科</text>
    <rect x="992.5" y="150.5" class="st0" width="254" height="105"/>
    <text transform="matrix(1 0 0 1 1008.82 212)" class="st1">大学专门分科</text>
    <rect x="1055.5" y="299.5" class="st0" width="210" height="104"/>
    <text transform="matrix(1 0 0 1 1104.97 360)" class="st1">政治科</text>
    <rect x="1055.5" y="447.5" class="st0" width="210" height="105"/>
    <text transform="matrix(1 0 0 1 1104.97 509)" class="st1">文学科</text>
    <rect x="1055.5" y="596.5" class="st0" width="210" height="104"/>
    <text transform="matrix(1 0 0 1 1104.97 657)" class="st1">格致科</text>
    <rect x="1055.5" y="744.5" class="st0" width="210" height="105"/>
    <text transform="matrix(1 0 0 1 1104.97 806)" class="st1">农业科</text>
    <rect x="1055.5" y="893.5" class="st0" width="210" height="104"/>
    <text transform="matrix(1 0 0 1 1104.97 954)" class="st1">工艺科</text>
    <rect x="1055.5" y="1041.5" class="st0" width="210" height="105"/>
    <text transform="matrix(1 0 0 1 1104.97 1102)" class="st1">商务科</text>
    <rect x="1055.5" y="1189.5" class="st0" width="210" height="105"/>
    <text transform="matrix(1 0 0 1 1104.97 1251)" class="st1">医术科</text>
    <rect x="1435.5" y="150.5" class="st0" width="209" height="105"/>
    <text transform="matrix(1 0 0 1 1502.74 212)" class="st1">设官</text>
    <rect x="1435.5" y="299.5" class="st0" width="209" height="104"/>
    <text transform="matrix(1 0 0 1 1466.08 360)" class="st1">管学大臣</text>
    <rect x="1308.5" y="447.5" class="st0" width="209" height="105"/>
    <text transform="matrix(1 0 0 1 1376.26 509)" class="st1">总办</text>
    <rect x="1561.5" y="447.5" class="st0" width="209" height="105"/>
    <text transform="matrix(1 0 0 1 1610.89 509)" class="st1">副总办</text>
    <rect x="1308.5" y="596.5" class="st0" width="209" height="104"/>
    <text transform="matrix(1 0 0 1 1357.9301 657)" class="st1">堂提调</text>
    <rect x="1561.5" y="596.5" class="st0" width="209" height="104"/>
    <text transform="matrix(1 0 0 1 1592.55 657)" class="st1">文案提调</text>
    <rect x="1308.5" y="744.5" class="st0" width="209" height="105"/>
    <text transform="matrix(1 0 0 1 1339.6 806)" class="st1">支应提调</text>
    <rect x="1561.5" y="744.5" class="st0" width="209" height="105"/>
    <text transform="matrix(1 0 0 1 1592.55 806)" class="st1">杂物提调</text>
    <rect x="1308.5" y="893.5" class="st0" width="209" height="104"/>
    <text transform="matrix(1 0 0 1 1321.26 954)" class="st1">藏书楼提调</text>
    <rect x="1561.5" y="893.5" class="st0" width="209" height="104"/>
    <text transform="matrix(1 0 0 1 1574.22 954)" class="st1">博物院提调</text>
    <rect x="1308.5" y="1041.5" class="st0" width="209" height="105"/>
    <text transform="matrix(1 0 0 1 1339.6 1102)" class="st1">医学提调</text>
    <rect x="1561.5" y="1041.5" class="st0" width="266" height="105"/>
    <text transform="matrix(1 0 0 1 1584.23 1102)" class="st1">收掌供事书手</text>
    <rect x="1308.5" y="1189.5" class="st0" width="209" height="105"/>
    <text transform="matrix(1 0 0 1 1376.26 1251)" class="st1">襄办</text>
</svg>
