<?xml version="1.0" encoding="utf-8"?>
<!-- Generator: Adobe Illustrator 26.0.2, SVG Export Plug-In . SVG Version: 6.00 Build 0)  -->
<svg version="1.1" xmlns="http://www.w3.org/2000/svg" viewBox="0 0 1908 1767" xml:space="preserve">
<style type="text/css">
	.st0{fill:none;stroke:black;stroke-width:3;stroke-miterlimit:8;}
	.st1{fill:black;font-family:sans-serif;font-size:37px;}
</style>
    <path class="st0" d="M1651,532.5v1087.1h24.2"/>
    <path class="st0" d="M1651.2,532.5v1087.1H1627"/>
    <path class="st0" d="M1651,532.5v923.6h24.2"/>
    <path class="st0" d="M1651.2,532.5v923.6H1627"/>
    <path class="st0" d="M1651,532.5v760.1h24.2"/>
    <path class="st0" d="M1651.2,532.5v760.1H1627"/>
    <path class="st0" d="M1651,532.5V1129h24.2"/>
    <path class="st0" d="M1651.2,532.5V1129H1627"/>
    <path class="st0" d="M1651,532.5v433h24.2"/>
    <path class="st0" d="M1651.2,532.5v433H1627"/>
    <path class="st0" d="M1651,532.5V802h24.2"/>
    <path class="st0" d="M1651.2,532.5V802H1627"/>
    <path class="st0" d="M1651,532.5v105.9h24.2"/>
    <path class="st0" d="M1651.2,532.5v105.9H1627"/>
    <path class="st0" d="M1651,369.5v48.4"/>
    <path class="st0" d="M1093.5,205.5v24.2h557.4v24.2"/>
    <path class="st0" d="M1083.5,369.5V639h34.6"/>
    <path class="st0" d="M1083.5,369.5v105.9h34.6"/>
    <path class="st0" d="M1093.5,205.5v24.2h81.8v24.2"/>
    <path class="st0" d="M815,532.5V802h24.2"/>
    <path class="st0" d="M815.2,532.5V802H791"/>
    <path class="st0" d="M815,532.5v105.9h24.2"/>
    <path class="st0" d="M815.2,532.5v105.9H791"/>
    <path class="st0" d="M536.5,369.5v105.9h134.2"/>
    <path class="st0" d="M258,532.5V1129h24.2"/>
    <path class="st0" d="M257.2,532.5V1129H233"/>
    <path class="st0" d="M258,532.5v433h24.2"/>
    <path class="st0" d="M257.2,532.5v433H233"/>
    <path class="st0" d="M258,532.5V802h24.2"/>
    <path class="st0" d="M257.2,532.5V802H233"/>
    <path class="st0" d="M258,532.5v105.9h24.2"/>
    <path class="st0" d="M257.2,532.5v105.9H233"/>
    <path class="st0" d="M536,369.5v105.9H372.5"/>
    <path class="st0" d="M1093.9,205.5v24.2H536.5v24.2"/>
    <rect x="932.5" y="90.5" class="st0" width="322" height="115"/>
    <text transform="matrix(1 0 0 1 983.074 157)" class="st1">优级师范学堂</text>
    <rect x="421.5" y="254.5" class="st0" width="230" height="115"/>
    <text transform="matrix(1 0 0 1 462.36 320)" class="st1">学科程度</text>
    <rect x="142.5" y="417.5" class="st0" width="230" height="115"/>
    <text transform="matrix(1 0 0 1 165.336 484)" class="st1">公共科学科</text>
    <rect x="2.5" y="581.5" class="st0" width="231" height="115"/>
    <text transform="matrix(1 0 0 1 44.3244 647)" class="st1">人伦道德</text>
    <rect x="281.5" y="581.5" class="st0" width="231" height="115"/>
    <text transform="matrix(1 0 0 1 323.014 647)" class="st1">群经源流</text>
    <rect x="2.5" y="744.5" class="st0" width="231" height="115"/>
    <text transform="matrix(1 0 0 1 44.3244 811)" class="st1">中国文学</text>
    <rect x="281.5" y="744.5" class="st0" width="231" height="115"/>
    <text transform="matrix(1 0 0 1 359.681 811)" class="st1">东语</text>
    <rect x="2.5" y="908.5" class="st0" width="231" height="115"/>
    <text transform="matrix(1 0 0 1 80.991 974)" class="st1">英语</text>
    <rect x="281.5" y="908.5" class="st0" width="231" height="115"/>
    <text transform="matrix(1 0 0 1 359.681 974)" class="st1">辨学</text>
    <rect x="2.5" y="1071.5" class="st0" width="231" height="115"/>
    <text transform="matrix(1 0 0 1 80.991 1138)" class="st1">算学</text>
    <rect x="281.5" y="1071.5" class="st0" width="231" height="115"/>
    <text transform="matrix(1 0 0 1 359.681 1138)" class="st1">体操</text>
    <rect x="670.5" y="417.5" class="st0" width="289" height="115"/>
    <text transform="matrix(1 0 0 1 686.05 484)" class="st1">分类科学科分类</text>
    <rect x="560.5" y="581.5" class="st0" width="230" height="115"/>
    <text transform="matrix(1 0 0 1 601.705 627)" class="st1">中国文学</text>
    <text transform="matrix(1 0 0 1 620.0383 675)" class="st1">外国语</text>
    <rect x="839.5" y="581.5" class="st0" width="230" height="115"/>
    <text transform="matrix(1 0 0 1 880.395 647)" class="st1">地理历史</text>
    <rect x="560.5" y="744.5" class="st0" width="230" height="115"/>
    <text transform="matrix(1 0 0 1 565.038 811)" class="st1">算学物理化学</text>
    <rect x="839.5" y="744.5" class="st0" width="230" height="115"/>
    <text transform="matrix(1 0 0 1 880.395 791)" class="st1">植物动物</text>
    <text transform="matrix(1 0 0 1 862.0616 838)" class="st1">矿物生理学</text>
    <rect x="1060.5" y="254.5" class="st0" width="230" height="115"/>
    <text transform="matrix(1 0 0 1 1101.51 320)" class="st1">附属学堂</text>
    <rect x="1117.5" y="417.5" class="st0" width="231" height="115"/>
    <text transform="matrix(1 0 0 1 1159.09 484)" class="st1">附属中学</text>
    <rect x="1117.5" y="581.5" class="st0" width="231" height="115"/>
    <text transform="matrix(1 0 0 1 1159.09 647)" class="st1">附属小学</text>
    <rect x="1535.5" y="254.5" class="st0" width="231" height="115"/>
    <text transform="matrix(1 0 0 1 1558.79 320)" class="st1">教员管理员</text>
    <rect x="1535.5" y="417.5" class="st0" width="231" height="115"/>
    <text transform="matrix(1 0 0 1 1613.79 484)" class="st1">监督</text>
    <rect x="1396.5" y="581.5" class="st0" width="230" height="115"/>
    <text transform="matrix(1 0 0 1 1456.11 647)" class="st1">教务长</text>
    <rect x="1675.5" y="581.5" class="st0" width="230" height="115"/>
    <text transform="matrix(1 0 0 1 1716.47 647)" class="st1">正副教员</text>
    <rect x="1396.5" y="744.5" class="st0" width="230" height="115"/>
    <text transform="matrix(1 0 0 1 1474.4399 811)" class="st1">管书</text>
    <rect x="1675.5" y="744.5" class="st0" width="230" height="115"/>
    <text transform="matrix(1 0 0 1 1734.8 811)" class="st1">庶务长</text>
    <rect x="1396.5" y="908.5" class="st0" width="230" height="115"/>
    <text transform="matrix(1 0 0 1 1456.11 974)" class="st1">文案官</text>
    <rect x="1675.5" y="908.5" class="st0" width="230" height="115"/>
    <text transform="matrix(1 0 0 1 1734.8 974)" class="st1">会计官</text>
    <rect x="1396.5" y="1071.5" class="st0" width="230" height="115"/>
    <text transform="matrix(1 0 0 1 1456.11 1138)" class="st1">杂物官</text>
    <rect x="1675.5" y="1071.5" class="st0" width="230" height="115"/>
    <text transform="matrix(1 0 0 1 1734.8 1138)" class="st1">斋务长</text>
    <rect x="1396.5" y="1235.5" class="st0" width="230" height="115"/>
    <text transform="matrix(1 0 0 1 1456.11 1301)" class="st1">监学官</text>
    <rect x="1675.5" y="1235.5" class="st0" width="230" height="115"/>
    <text transform="matrix(1 0 0 1 1734.8 1301)" class="st1">检察官</text>
    <rect x="1396.5" y="1398.5" class="st0" width="230" height="115"/>
    <text transform="matrix(1 0 0 1 1419.4399 1465)" class="st1">中学办事官</text>
    <rect x="1675.5" y="1398.5" class="st0" width="230" height="115"/>
    <text transform="matrix(1 0 0 1 1716.47 1465)" class="st1">中学教员</text>
    <rect x="1396.5" y="1562.5" class="st0" width="230" height="115"/>
    <text transform="matrix(1 0 0 1 1419.4399 1628)" class="st1">小学办事官</text>
    <rect x="1675.5" y="1562.5" class="st0" width="230" height="115"/>
    <text transform="matrix(1 0 0 1 1716.47 1628)" class="st1">小学教员</text>
</svg>
