<?xml version="1.0" encoding="utf-8"?>
<!-- Generator: Adobe Illustrator 26.0.2, SVG Export Plug-In . SVG Version: 6.00 Build 0)  -->
<svg version="1.1" id="图层_1" xmlns="http://www.w3.org/2000/svg" viewBox="0 0 2552 2310" xml:space="preserve">
<style type="text/css">
	.st0{fill:none;stroke:black;stroke-width:2;stroke-miterlimit:8;}
	.st1{fill:black;font-family:sans-serif;font-size:41px;}
</style>
    <path class="st0" d="M2280,672.5v253.1h32.4"/>
    <path class="st0" d="M2280,672.5V772h32.4"/>
    <path class="st0" d="M1947.5,518.5v22.7h419.6v22.7"/>
    <path class="st0" d="M2019,672.5v253.1h32.4"/>
    <path class="st0" d="M2019,672.5V772h32.4"/>
    <path class="st0" d="M1947.5,518.5v22.7h157.9v22.7"/>
    <path class="st0" d="M1703,672.5v867.3h32.4"/>
    <path class="st0" d="M1757,825.5v560.2h32.4"/>
    <path class="st0" d="M1757,825.5v406.6h32.4"/>
    <path class="st0" d="M1757,825.5v253.1h32.4"/>
    <path class="st0" d="M1757,825.5V925h32.4"/>
    <path class="st0" d="M1703,672.5V772h32.4"/>
    <path class="st0" d="M1947.4,518.5v22.7h-157.9v22.7"/>
    <path class="st0" d="M1441,672.5v253.1h32.4"/>
    <path class="st0" d="M1441,672.5V772h32.4"/>
    <path class="st0" d="M1947.1,518.5v22.7h-419.6v22.7"/>
    <path class="st0" d="M1947,364.5v45.4"/>
    <path class="st0" d="M1107.5,211.5v22.7h839.2v22.7"/>
    <path class="st0" d="M1125,364.5v1788.8h32.4"/>
    <path class="st0" d="M1125,364.5v1635.2h32.4"/>
    <path class="st0" d="M1125,364.5v1481.6h32.4"/>
    <path class="st0" d="M1125,364.5v1328.1h32.4"/>
    <path class="st0" d="M1125,364.5V1539h32.4"/>
    <path class="st0" d="M1125,364.5v1020.9h32.4"/>
    <path class="st0" d="M1125,364.5v867.3h32.4"/>
    <path class="st0" d="M1125,364.5v713.8h32.4"/>
    <path class="st0" d="M1125,364.5v560.2h32.4"/>
    <path class="st0" d="M1125,364.5v406.6h32.4"/>
    <path class="st0" d="M1125,364.5v253.1h32.4"/>
    <path class="st0" d="M1125,364.5V464h32.4"/>
    <path class="st0" d="M1107.5,211.5v22.7h103.8v22.7"/>
    <path class="st0" d="M873.7,364.5v1328.1H851"/>
    <path class="st0" d="M873,364.5V1539h22.7"/>
    <path class="st0" d="M873.7,364.5V1539H851"/>
    <path class="st0" d="M873,364.5v1020.9h22.7"/>
    <path class="st0" d="M873.7,364.5v1020.9H851"/>
    <path class="st0" d="M873,364.5v867.3h22.7"/>
    <path class="st0" d="M873.7,364.5v867.3H851"/>
    <path class="st0" d="M873,364.5v713.8h22.7"/>
    <path class="st0" d="M873.7,364.5v713.8H851"/>
    <path class="st0" d="M873,364.5v560.2h22.7"/>
    <path class="st0" d="M873.7,364.5v560.2H851"/>
    <path class="st0" d="M873,364.5v406.6h22.7"/>
    <path class="st0" d="M873.7,364.5v406.6H851"/>
    <path class="st0" d="M873,364.5v253.1h22.7"/>
    <path class="st0" d="M873.7,364.5v253.1H851"/>
    <path class="st0" d="M873,364.5V464h22.7"/>
    <path class="st0" d="M873.7,364.5V464H851"/>
    <path class="st0" d="M1108.2,211.5v22.7H873.5v22.7"/>
    <path class="st0" d="M340,518.5v1635.2h32.4"/>
    <path class="st0" d="M340,518.5v1481.6h32.4"/>
    <path class="st0" d="M340,518.5v1328.1h32.4"/>
    <path class="st0" d="M340,518.5V1693h32.4"/>
    <path class="st0" d="M340,518.5v1020.9h32.4"/>
    <path class="st0" d="M340,518.5v867.3h32.4"/>
    <path class="st0" d="M340,518.5v713.8h32.4"/>
    <path class="st0" d="M340,518.5v560.2h32.4"/>
    <path class="st0" d="M340,518.5v406.6h32.4"/>
    <path class="st0" d="M340,518.5v253.1h32.4"/>
    <path class="st0" d="M340,518.5V618h32.4"/>
    <path class="st0" d="M268.5,364.5v22.7h157.9v22.7"/>
    <path class="st0" d="M24,518.5v713.8h32.4"/>
    <path class="st0" d="M78,825.5v253.1h32.4"/>
    <path class="st0" d="M78,825.5V925h32.4"/>
    <path class="st0" d="M24,518.5v253.1h32.4"/>
    <path class="st0" d="M24,518.5V618h32.4"/>
    <path class="st0" d="M268.4,364.5v22.7H110.5v22.7"/>
    <path class="st0" d="M1107.7,211.5v22.7H268.5v22.7"/>
    <rect x="912.5" y="103.5" class="st0" width="391" height="108"/>
    <text transform="matrix(1 0 0 1 943.498 172)" class="st1">国立西北师范学院</text>
    <rect x="160.5" y="256.5" class="st0" width="216" height="108"/>
    <text transform="matrix(1 0 0 1 186.762 326)" class="st1">机构系科</text>
    <rect x="2.5" y="410.5" class="st0" width="217" height="108"/>
    <text transform="matrix(1 0 0 1 70.1144 479)" class="st1">机构</text>
    <rect x="56.5" y="563.5" class="st0" width="217" height="109"/>
    <text transform="matrix(1 0 0 1 103.564 633)" class="st1">研究所</text>
    <rect x="56.5" y="717.5" class="st0" width="217" height="108"/>
    <text transform="matrix(1 0 0 1 82.9387 786)" class="st1">附属中学</text>
    <rect x="110.5" y="871.5" class="st0" width="217" height="108"/>
    <text transform="matrix(1 0 0 1 157.638 940)" class="st1">师范部</text>
    <rect x="110.5" y="1024.5" class="st0" width="217" height="108"/>
    <text transform="matrix(1 0 0 1 157.638 1093)" class="st1">中学部</text>
    <rect x="56.5" y="1178.5" class="st0" width="217" height="108"/>
    <text transform="matrix(1 0 0 1 82.9387 1247)" class="st1">附属小学</text>
    <rect x="318.5" y="410.5" class="st0" width="216" height="108"/>
    <text transform="matrix(1 0 0 1 385.909 479)" class="st1">系科</text>
    <rect x="372.5" y="563.5" class="st0" width="216" height="109"/>
    <text transform="matrix(1 0 0 1 419.359 633)" class="st1">国文系</text>
    <rect x="372.5" y="717.5" class="st0" width="216" height="108"/>
    <text transform="matrix(1 0 0 1 419.359 786)" class="st1">英语系</text>
    <rect x="372.5" y="871.5" class="st0" width="216" height="108"/>
    <text transform="matrix(1 0 0 1 419.359 940)" class="st1">史地系</text>
    <rect x="372.5" y="1024.5" class="st0" width="216" height="108"/>
    <text transform="matrix(1 0 0 1 378.109 1093)" class="st1">公民训育系</text>
    <rect x="372.5" y="1178.5" class="st0" width="216" height="108"/>
    <text transform="matrix(1 0 0 1 419.359 1247)" class="st1">数学系</text>
    <rect x="372.5" y="1331.5" class="st0" width="216" height="108"/>
    <text transform="matrix(1 0 0 1 419.359 1401)" class="st1">理化系</text>
    <rect x="372.5" y="1485.5" class="st0" width="216" height="108"/>
    <text transform="matrix(1 0 0 1 419.359 1554)" class="st1">博物系</text>
    <rect x="372.5" y="1638.5" class="st0" width="216" height="109"/>
    <text transform="matrix(1 0 0 1 419.359 1708)" class="st1">教育系</text>
    <rect x="372.5" y="1792.5" class="st0" width="216" height="108"/>
    <text transform="matrix(1 0 0 1 419.359 1861)" class="st1">体育系</text>
    <rect x="372.5" y="1946.5" class="st0" width="216" height="108"/>
    <text transform="matrix(1 0 0 1 419.359 2015)" class="st1">家政系</text>
    <rect x="372.5" y="2099.5" class="st0" width="216" height="108"/>
    <text transform="matrix(1 0 0 1 378.109 2168)" class="st1">劳作专修科</text>
    <rect x="741.5" y="256.5" class="st0" width="264" height="108"/>
    <text transform="matrix(1 0 0 1 750.065 326)" class="st1">共同必修科目</text>
    <rect x="634.5" y="410.5" class="st0" width="216" height="108"/>
    <text transform="matrix(1 0 0 1 701.704 479)" class="st1">国文</text>
    <rect x="896.5" y="410.5" class="st0" width="216" height="108"/>
    <text transform="matrix(1 0 0 1 942.8 479)" class="st1">外国文</text>
    <rect x="634.5" y="563.5" class="st0" width="216" height="109"/>
    <text transform="matrix(1 0 0 1 660.454 633)" class="st1">社会科学</text>
    <rect x="896.5" y="563.5" class="st0" width="216" height="109"/>
    <text transform="matrix(1 0 0 1 922.175 633)" class="st1">自然科学</text>
    <rect x="634.5" y="717.5" class="st0" width="216" height="108"/>
    <text transform="matrix(1 0 0 1 660.454 786)" class="st1">哲学概论</text>
    <rect x="896.5" y="717.5" class="st0" width="216" height="108"/>
    <text transform="matrix(1 0 0 1 901.55 786)" class="st1">本国文化史</text>
    <rect x="634.5" y="871.5" class="st0" width="216" height="108"/>
    <text transform="matrix(1 0 0 1 639.829 940)" class="st1">西洋文化史</text>
    <rect x="896.5" y="871.5" class="st0" width="216" height="108"/>
    <text transform="matrix(1 0 0 1 922.175 940)" class="st1">卫生概要</text>
    <rect x="634.5" y="1024.5" class="st0" width="216" height="108"/>
    <text transform="matrix(1 0 0 1 660.454 1093)" class="st1">英文复习</text>
    <rect x="896.5" y="1024.5" class="st0" width="216" height="108"/>
    <text transform="matrix(1 0 0 1 922.175 1093)" class="st1">教育概论</text>
    <rect x="634.5" y="1178.5" class="st0" width="216" height="108"/>
    <text transform="matrix(1 0 0 1 660.454 1247)" class="st1">教育心理</text>
    <rect x="896.5" y="1178.5" class="st0" width="216" height="108"/>
    <text transform="matrix(1 0 0 1 922.175 1247)" class="st1">中等教育</text>
    <rect x="634.5" y="1331.5" class="st0" width="216" height="108"/>
    <text transform="matrix(1 0 0 1 639.829 1401)" class="st1">普通教学法</text>
    <rect x="896.5" y="1331.5" class="st0" width="216" height="108"/>
    <text transform="matrix(1 0 0 1 922.175 1401)" class="st1">三民主义</text>
    <rect x="634.5" y="1485.5" class="st0" width="216" height="108"/>
    <text transform="matrix(1 0 0 1 701.704 1554)" class="st1">音乐</text>
    <rect x="896.5" y="1485.5" class="st0" width="216" height="108"/>
    <text transform="matrix(1 0 0 1 963.425 1554)" class="st1">体育</text>
    <rect x="634.5" y="1638.5" class="st0" width="216" height="109"/>
    <text transform="matrix(1 0 0 1 701.704 1708)" class="st1">军训</text>
    <rect x="1103.5" y="256.5" class="st0" width="216" height="108"/>
    <text transform="matrix(1 0 0 1 1150.45 326)" class="st1">委员会</text>
    <rect x="1157.5" y="410.5" class="st0" width="217" height="108"/>
    <text transform="matrix(1 0 0 1 1163.27 454)" class="st1">教育研究委</text>
    <text transform="matrix(1 0 0 1 1225.145 504)" class="st1">员会</text>
    <rect x="1157.5" y="563.5" class="st0" width="217" height="109"/>
    <text transform="matrix(1 0 0 1 1163.27 608)" class="st1">学生生活指</text>
    <text transform="matrix(1 0 0 1 1183.895 658)" class="st1">导委员会</text>
    <rect x="1157.5" y="717.5" class="st0" width="217" height="108"/>
    <text transform="matrix(1 0 0 1 1163.27 761)" class="st1">校舍建筑委</text>
    <text transform="matrix(1 0 0 1 1225.145 811)" class="st1">员会</text>
    <rect x="1157.5" y="871.5" class="st0" width="217" height="108"/>
    <text transform="matrix(1 0 0 1 1163.27 915)" class="st1">图书仪器委</text>
    <text transform="matrix(1 0 0 1 1225.145 965)" class="st1">员会</text>
    <rect x="1157.5" y="1024.5" class="st0" width="217" height="108"/>
    <text transform="matrix(1 0 0 1 1163.27 1093)" class="st1">出版委员会</text>
    <rect x="1157.5" y="1178.5" class="st0" width="217" height="108"/>
    <text transform="matrix(1 0 0 1 1163.27 1222)" class="st1">社会教育推</text>
    <text transform="matrix(1 0 0 1 1183.895 1272)" class="st1">行委员会</text>
    <rect x="1157.5" y="1331.5" class="st0" width="217" height="108"/>
    <text transform="matrix(1 0 0 1 1163.27 1375)" class="st1">公费及贷金</text>
    <text transform="matrix(1 0 0 1 1163.27 1425)" class="st1">审查委员会</text>
    <rect x="1157.5" y="1485.5" class="st0" width="217" height="108"/>
    <text transform="matrix(1 0 0 1 1163.27 1554)" class="st1">卫生委员会</text>
    <rect x="1157.5" y="1638.5" class="st0" width="217" height="109"/>
    <text transform="matrix(1 0 0 1 1163.27 1683)" class="st1">军事管理委</text>
    <text transform="matrix(1 0 0 1 1225.145 1733)" class="st1">员会</text>
    <rect x="1157.5" y="1792.5" class="st0" width="217" height="108"/>
    <text transform="matrix(1 0 0 1 1163.27 1836)" class="st1">地方教育辅</text>
    <text transform="matrix(1 0 0 1 1183.895 1886)" class="st1">导委员会</text>
    <rect x="1157.5" y="1946.5" class="st0" width="217" height="108"/>
    <text transform="matrix(1 0 0 1 1163.27 1990)" class="st1">物价查报委</text>
    <text transform="matrix(1 0 0 1 1225.145 2040)" class="st1">员会</text>
    <rect x="1157.5" y="2099.5" class="st0" width="217" height="108"/>
    <text transform="matrix(1 0 0 1 1163.27 2143)" class="st1">劳动生产指</text>
    <text transform="matrix(1 0 0 1 1183.895 2193)" class="st1">导委员会</text>
    <rect x="1839.5" y="256.5" class="st0" width="216" height="108"/>
    <text transform="matrix(1 0 0 1 1865.23 326)" class="st1">行政组织</text>
    <rect x="1839.5" y="410.5" class="st0" width="216" height="108"/>
    <text transform="matrix(1 0 0 1 1906.48 479)" class="st1">院长</text>
    <rect x="1419.5" y="563.5" class="st0" width="216" height="109"/>
    <text transform="matrix(1 0 0 1 1424.99 633)" class="st1">院长办公室</text>
    <rect x="1473.5" y="717.5" class="st0" width="216" height="108"/>
    <text transform="matrix(1 0 0 1 1520.3199 786)" class="st1">文书组</text>
    <rect x="1473.5" y="871.5" class="st0" width="216" height="108"/>
    <text transform="matrix(1 0 0 1 1520.3199 940)" class="st1">会计室</text>
    <rect x="1681.5" y="563.5" class="st0" width="216" height="109"/>
    <text transform="matrix(1 0 0 1 1727.96 633)" class="st1">事务处</text>
    <rect x="1735.5" y="717.5" class="st0" width="216" height="108"/>
    <text transform="matrix(1 0 0 1 1782.04 786)" class="st1">斋务组</text>
    <rect x="1789.5" y="871.5" class="st0" width="216" height="108"/>
    <text transform="matrix(1 0 0 1 1836.11 940)" class="st1">斋舍股</text>
    <rect x="1789.5" y="1024.5" class="st0" width="216" height="108"/>
    <text transform="matrix(1 0 0 1 1836.11 1093)" class="st1">印刷股</text>
    <rect x="1789.5" y="1178.5" class="st0" width="216" height="108"/>
    <text transform="matrix(1 0 0 1 1836.11 1247)" class="st1">保管股</text>
    <rect x="1789.5" y="1331.5" class="st0" width="216" height="108"/>
    <text transform="matrix(1 0 0 1 1836.11 1401)" class="st1">杂务股</text>
    <rect x="1735.5" y="1485.5" class="st0" width="216" height="108"/>
    <text transform="matrix(1 0 0 1 1782.04 1554)" class="st1">出纳室</text>
    <rect x="1996.5" y="563.5" class="st0" width="217" height="109"/>
    <text transform="matrix(1 0 0 1 2043.76 633)" class="st1">教务处</text>
    <rect x="2051.5" y="717.5" class="st0" width="216" height="108"/>
    <text transform="matrix(1 0 0 1 2097.8301 786)" class="st1">注册组</text>
    <rect x="2051.5" y="871.5" class="st0" width="216" height="108"/>
    <text transform="matrix(1 0 0 1 2097.8301 940)" class="st1">图书组</text>
    <rect x="2258.5" y="563.5" class="st0" width="217" height="109"/>
    <text transform="matrix(1 0 0 1 2305.48 633)" class="st1">训导处</text>
    <rect x="2312.5" y="717.5" class="st0" width="217" height="108"/>
    <text transform="matrix(1 0 0 1 2359.55 786)" class="st1">卫生组</text>
    <rect x="2312.5" y="871.5" class="st0" width="217" height="108"/>
    <text transform="matrix(1 0 0 1 2318.3 940)" class="st1">军事管理组</text>
</svg>
