<?xml version="1.0" encoding="utf-8"?>
<!-- Generator: Adobe Illustrator 26.0.2, SVG Export Plug-In . SVG Version: 6.00 Build 0)  -->
<svg version="1.1" xmlns="http://www.w3.org/2000/svg" viewBox="0 0 1888 2994" xml:space="preserve">
<style type="text/css">
	.st0{fill:none;stroke:black;stroke-width:4.5833;stroke-miterlimit:8;}
	.st1{fill:black;font-family:'sans-serif';font-size:28px;}
</style>
    <path class="st0" d="M834.5,1520.5h24.7v1433.3h24.7"/>
    <path class="st0" d="M834.5,1520.5h24.7v1339.3h24.7"/>
    <path class="st0" d="M834.5,1520.5h24.7v1245.3h24.7"/>
    <path class="st0" d="M834.5,1520.5h24.7v1151.3h24.7"/>
    <path class="st0" d="M834.5,1520.5h24.7v1057.4h24.7"/>
    <path class="st0" d="M1130.5,2483.5h24.7v47h24.7"/>
    <path class="st0" d="M1130.5,2483.5h24.7v-47h24.7"/>
    <path class="st0" d="M834.5,1520.5h24.7v963.4h24.7"/>
    <path class="st0" d="M1130.5,2248.5h24.7v94h24.7"/>
    <path class="st0" d="M1130.5,2249h49.3"/>
    <path class="st0" d="M1130.5,2248.5h24.7v-94h24.7"/>
    <path class="st0" d="M834.5,1520.5h24.7v728.4h24.7"/>
    <path class="st0" d="M1130.5,1966.5h24.7v94h24.7"/>
    <path class="st0" d="M1130.5,1967h49.3"/>
    <path class="st0" d="M1130.5,1966.5h24.7v-94h24.7"/>
    <path class="st0" d="M834.5,1520.5h24.7v446.4h24.7"/>
    <path class="st0" d="M834.5,1520.5h24.7v352.4h24.7"/>
    <path class="st0" d="M834.5,1520.5h24.7V1779h24.7"/>
    <path class="st0" d="M1130.5,1684.5h24.7v47h24.7"/>
    <path class="st0" d="M1130.5,1684.5h24.7v-47h24.7"/>
    <path class="st0" d="M834.5,1520.5h24.7V1685h24.7"/>
    <path class="st0" d="M1130.5,1496.5h24.7v47h24.7"/>
    <path class="st0" d="M1130.5,1496.5h24.7v-47h24.7"/>
    <path class="st0" d="M834.5,1520.5h24.7V1497h24.7"/>
    <path class="st0" d="M1130.5,1214.5h24.7v141h24.7"/>
    <path class="st0" d="M1130.5,1214.5h24.7v47h24.7"/>
    <path class="st0" d="M1426.5,1167.5h24.7v47h24.7"/>
    <path class="st0" d="M1426.5,1167.5h24.7v-47h24.7"/>
    <path class="st0" d="M1130.5,1214.5h24.7v-47h24.7"/>
    <path class="st0" d="M1130.5,1214.5h24.7v-141h24.7"/>
    <path class="st0" d="M834.5,1520h24.7v-305.5h24.7"/>
    <path class="st0" d="M1426.5,979.5h24.7v47h24.7"/>
    <path class="st0" d="M1426.5,979.5h24.7v-47h24.7"/>
    <path class="st0" d="M1130.5,885.5h24.7v94h24.7"/>
    <path class="st0" d="M1130.5,886h49.3"/>
    <path class="st0" d="M1426.5,791.5h24.7v47h24.7"/>
    <path class="st0" d="M1426.5,791.5h24.7v-47h24.7"/>
    <path class="st0" d="M1130.5,885.5h24.7v-94h24.7"/>
    <path class="st0" d="M834.5,1519.9h24.7V885.5h24.7"/>
    <path class="st0" d="M1130.5,462.5h24.7v188h24.7"/>
    <path class="st0" d="M1426.5,556.5h24.7v47h24.7"/>
    <path class="st0" d="M1426.5,556.5h24.7v-47h24.7"/>
    <path class="st0" d="M1130.5,462.5h24.7v94h24.7"/>
    <path class="st0" d="M1130.5,463h49.3"/>
    <path class="st0" d="M1130.5,462.5h24.7v-94h24.7"/>
    <path class="st0" d="M1426.5,274.5h24.7v47h24.7"/>
    <path class="st0" d="M1426.5,274.5h24.7v-47h24.7"/>
    <path class="st0" d="M1130.5,462.5h24.7v-188h24.7"/>
    <path class="st0" d="M834.5,1519.8h24.7V462.5h24.7"/>
    <path class="st0" d="M834.5,1520.8h24.7V181.5h24.7"/>
    <path class="st0" d="M1130.5,87.5h24.7v47h24.7"/>
    <path class="st0" d="M1130.5,87.5h24.7v-47h24.7"/>
    <path class="st0" d="M834.5,1520.8h24.7V87.5h24.7"/>
    <path class="st0" d="M538.5,1473.5h24.7v47h24.7"/>
    <path class="st0" d="M538.5,1473.5h24.7v-47h24.7"/>
    <path class="st0" d="M242.5,1473h49.3"/>
    <rect x="167.5" y="1275.5" class="st0" width="75" height="396"/>
    <g>
	<text transform="matrix(-1.836970e-16 -1 1 -1.836970e-16 217.8611 1514.5)" class="st1">校务长</text>
</g>
    <rect x="291.5" y="1435.5" class="st0" width="247" height="75"/>
    <text transform="matrix(1 0 0 1 387.034 1480)" class="st1">校长</text>
    <rect x="587.5" y="1388.5" class="st0" width="247" height="75"/>
    <text transform="matrix(1 0 0 1 669.229 1433)" class="st1">秘书长</text>
    <rect x="587.5" y="1482.5" class="st0" width="247" height="75"/>
    <text transform="matrix(1 0 0 1 641.729 1527)" class="st1">校长办公室</text>
    <rect x="883.5" y="49.5" class="st0" width="247" height="75"/>
    <text transform="matrix(1 0 0 1 951.423 93)" class="st1">校务会议</text>
    <rect x="1179.5" y="2.5" class="st0" width="247" height="75"/>
    <text transform="matrix(1 0 0 1 1247.37 46)" class="st1">行政会议</text>
    <rect x="1179.5" y="96.5" class="st0" width="247" height="75"/>
    <text transform="matrix(1 0 0 1 1247.37 140)" class="st1">教务会议</text>
    <rect x="883.5" y="143.5" class="st0" width="247" height="75"/>
    <text transform="matrix(1 0 0 1 965.173 187)" class="st1">研究所</text>
    <rect x="883.5" y="425.5" class="st0" width="247" height="75"/>
    <text transform="matrix(1 0 0 1 965.173 469)" class="st1">文学院</text>
    <rect x="1179.5" y="237.5" class="st0" width="247" height="75"/>
    <text transform="matrix(1 0 0 1 1247.37 281)" class="st1">国文学系</text>
    <rect x="1475.5" y="190.5" class="st0" width="247" height="75"/>
    <text transform="matrix(1 0 0 1 1515.8101 234)" class="st1">语言文字学组</text>
    <rect x="1475.5" y="284.5" class="st0" width="247" height="75"/>
    <text transform="matrix(1 0 0 1 1557.0601 328)" class="st1">文学组</text>
    <rect x="1179.5" y="331.5" class="st0" width="247" height="75"/>
    <text transform="matrix(1 0 0 1 1206.12 375)" class="st1">西洋语言文学系</text>
    <rect x="1179.5" y="425.5" class="st0" width="247" height="75"/>
    <text transform="matrix(1 0 0 1 1261.12 469)" class="st1">史学系</text>
    <rect x="1179.5" y="519.5" class="st0" width="247" height="75"/>
    <text transform="matrix(1 0 0 1 1219.87 563)" class="st1">社会经济学系</text>
    <rect x="1475.5" y="472.5" class="st0" width="247" height="75"/>
    <text transform="matrix(1 0 0 1 1543.3101 516)" class="st1">社会学组</text>
    <rect x="1475.5" y="566.5" class="st0" width="247" height="75"/>
    <text transform="matrix(1 0 0 1 1543.3101 610)" class="st1">经济学组</text>
    <rect x="1179.5" y="613.5" class="st0" width="247" height="75"/>
    <text transform="matrix(1 0 0 1 1206.12 640)" class="st1">日本语言文学系</text>
    <text transform="matrix(1 0 0 1 1204.6533 673)" class="st1">（</text>
    <text transform="matrix(1 0 0 1 1232.1533 673)" class="st1">1942</text>
    <text transform="matrix(1 0 0 1 1290.0867 673)" class="st1">年创立）</text>
    <rect x="883.5" y="848.5" class="st0" width="247" height="75"/>
    <text transform="matrix(1 0 0 1 965.173 892)" class="st1">理学院</text>
    <rect x="1179.5" y="754.5" class="st0" width="247" height="75"/>
    <text transform="matrix(1 0 0 1 1247.37 798)" class="st1">数理学系</text>
    <rect x="1475.5" y="707.5" class="st0" width="247" height="75"/>
    <text transform="matrix(1 0 0 1 1557.0601 751)" class="st1">数学组</text>
    <rect x="1475.5" y="801.5" class="st0" width="247" height="75"/>
    <text transform="matrix(1 0 0 1 1543.3101 845)" class="st1">物理学组</text>
    <rect x="1179.5" y="848.5" class="st0" width="247" height="75"/>
    <text transform="matrix(1 0 0 1 1261.12 892)" class="st1">化学系</text>
    <rect x="1179.5" y="942.5" class="st0" width="247" height="75"/>
    <text transform="matrix(1 0 0 1 1247.37 986)" class="st1">生物学系</text>
    <rect x="1475.5" y="895.5" class="st0" width="247" height="75"/>
    <text transform="matrix(1 0 0 1 1543.3101 939)" class="st1">植物学组</text>
    <rect x="1475.5" y="989.5" class="st0" width="247" height="75"/>
    <text transform="matrix(1 0 0 1 1543.3101 1033)" class="st1">动物学组</text>
    <rect x="883.5" y="1177.5" class="st0" width="247" height="75"/>
    <text transform="matrix(1 0 0 1 951.423 1221)" class="st1">教育学院</text>
    <rect x="1179.5" y="1036.5" class="st0" width="247" height="75"/>
    <text transform="matrix(1 0 0 1 1247.37 1080)" class="st1">教育学系</text>
    <rect x="1179.5" y="1130.5" class="st0" width="247" height="75"/>
    <text transform="matrix(1 0 0 1 1219.87 1174)" class="st1">哲学心理学系</text>
    <rect x="1475.5" y="1083.5" class="st0" width="247" height="75"/>
    <text transform="matrix(1 0 0 1 1557.0601 1127)" class="st1">哲学组</text>
    <rect x="1475.5" y="1177.5" class="st0" width="247" height="75"/>
    <text transform="matrix(1 0 0 1 1543.3101 1221)" class="st1">心理学组</text>
    <rect x="1179.5" y="1224.5" class="st0" width="247" height="75"/>
    <text transform="matrix(1 0 0 1 1247.37 1268)" class="st1">美术学系</text>
    <rect x="1179.5" y="1318.5" class="st0" width="247" height="75"/>
    <text transform="matrix(1 0 0 1 1247.37 1362)" class="st1">家政学系</text>
    <rect x="883.5" y="1459.5" class="st0" width="247" height="75"/>
    <text transform="matrix(1 0 0 1 965.173 1503)" class="st1">图书馆</text>
    <rect x="1179.5" y="1412.5" class="st0" width="247" height="75"/>
    <text transform="matrix(1 0 0 1 1233.62 1456)" class="st1">中文图书课</text>
    <rect x="1179.5" y="1506.5" class="st0" width="247" height="75"/>
    <text transform="matrix(1 0 0 1 1233.62 1550)" class="st1">西文图书课</text>
    <rect x="883.5" y="1647.5" class="st0" width="247" height="75"/>
    <text transform="matrix(1 0 0 1 951.423 1691)" class="st1">附属中学</text>
    <rect x="1179.5" y="1600.5" class="st0" width="247" height="75"/>
    <text transform="matrix(1 0 0 1 1261.12 1644)" class="st1">男中部</text>
    <rect x="1179.5" y="1694.5" class="st0" width="247" height="75"/>
    <text transform="matrix(1 0 0 1 1261.12 1738)" class="st1">女中部</text>
    <rect x="883.5" y="1741.5" class="st0" width="247" height="75"/>
    <text transform="matrix(1 0 0 1 951.423 1785)" class="st1">附属小学</text>
    <rect x="883.5" y="1835.5" class="st0" width="247" height="75"/>
    <text transform="matrix(1 0 0 1 965.173 1879)" class="st1">幼稚园</text>
    <rect x="883.5" y="1929.5" class="st0" width="247" height="75"/>
    <text transform="matrix(1 0 0 1 965.173 1973)" class="st1">教务处</text>
    <rect x="1179.5" y="1835.5" class="st0" width="247" height="75"/>
    <text transform="matrix(1 0 0 1 1261.12 1879)" class="st1">教务课</text>
    <rect x="1179.5" y="1929.5" class="st0" width="247" height="75"/>
    <text transform="matrix(1 0 0 1 1261.12 1973)" class="st1">注册课</text>
    <rect x="1179.5" y="2023.5" class="st0" width="247" height="75"/>
    <text transform="matrix(1 0 0 1 1261.12 2067)" class="st1">文牍课</text>
    <rect x="883.5" y="2211.5" class="st0" width="247" height="75"/>
    <text transform="matrix(1 0 0 1 965.173 2255)" class="st1">训育处</text>
    <rect x="1179.5" y="2117.5" class="st0" width="247" height="75"/>
    <text transform="matrix(1 0 0 1 1261.12 2161)" class="st1">训育课</text>
    <rect x="1179.5" y="2211.5" class="st0" width="247" height="75"/>
    <text transform="matrix(1 0 0 1 1261.12 2255)" class="st1">卫生课</text>
    <rect x="1179.5" y="2305.5" class="st0" width="247" height="75"/>
    <text transform="matrix(1 0 0 1 1261.12 2349)" class="st1">体育课</text>
    <rect x="883.5" y="2446.5" class="st0" width="247" height="75"/>
    <text transform="matrix(1 0 0 1 965.173 2490)" class="st1">事务处</text>
    <rect x="1179.5" y="2399.5" class="st0" width="247" height="75"/>
    <text transform="matrix(1 0 0 1 1261.12 2443)" class="st1">会计课</text>
    <rect x="1179.5" y="2493.5" class="st0" width="247" height="75"/>
    <text transform="matrix(1 0 0 1 1261.12 2537)" class="st1">庶务课</text>
    <rect x="883.5" y="2540.5" class="st0" width="247" height="75"/>
    <text transform="matrix(1 0 0 1 937.673 2584)" class="st1">招考委员会</text>
    <rect x="883.5" y="2634.5" class="st0" width="247" height="75"/>
    <text transform="matrix(1 0 0 1 937.673 2678)" class="st1">图书委员会</text>
    <rect x="883.5" y="2728.5" class="st0" width="247" height="75"/>
    <text transform="matrix(1 0 0 1 937.673 2772)" class="st1">仪器委员会</text>
    <rect x="883.5" y="2822.5" class="st0" width="247" height="75"/>
    <text transform="matrix(1 0 0 1 937.673 2866)" class="st1">编辑委员会</text>
    <rect x="883.5" y="2916.5" class="st0" width="247" height="75"/>
    <text transform="matrix(1 0 0 1 937.673 2960)" class="st1">建筑委员会</text>
</svg>
