<?xml version="1.0" encoding="utf-8"?>
<!-- Generator: Adobe Illustrator 26.0.2, SVG Export Plug-In . SVG Version: 6.00 Build 0)  -->
<svg version="1.1" xmlns="http://www.w3.org/2000/svg" viewBox="0 0 1903 1114" xml:space="preserve">
<style type="text/css">
	.st0{fill:none;stroke:black;stroke-width:4.5833;stroke-miterlimit:8;}
	.st1{fill:black;font-family:'sans-serif';font-size:32px;}
</style>
    <path class="st0" d="M1626,474.5V812h18.8"/>
    <path class="st0" d="M1625.8,474.5V812H1607"/>
    <path class="st0" d="M1626,474.5v210h18.8"/>
    <path class="st0" d="M1625.8,474.5v210H1607"/>
    <path class="st0" d="M1626,474.5v82.6h18.8"/>
    <path class="st0" d="M1625.8,474.5v82.6H1607"/>
    <path class="st0" d="M1409.5,346.5v82.6h127.4"/>
    <path class="st0" d="M1191.8,474.5v464.9H1173"/>
    <path class="st0" d="M1192,474.5V812h18.8"/>
    <path class="st0" d="M1191.8,474.5V812H1173"/>
    <path class="st0" d="M1192,474.5v210h18.8"/>
    <path class="st0" d="M1191.8,474.5v210H1173"/>
    <path class="st0" d="M1192,474.5v82.6h18.8"/>
    <path class="st0" d="M1191.8,474.5v82.6H1173"/>
    <path class="st0" d="M1408.9,346.5v82.6h-127.4"/>
    <path class="st0" d="M1409,219.5v37.7"/>
    <path class="st0" d="M843.5,91.5v18.8h565.4v18.8"/>
    <path class="st0" d="M749,346.5v210h26.9"/>
    <path class="st0" d="M749,346.5v82.6h26.9"/>
    <path class="st0" d="M712.5,219.5v18.8h108.6v18.8"/>
    <path class="st0" d="M713.1,219.5v18.8H604.5v18.8"/>
    <path class="st0" d="M843.5,91.5v18.8h-131v18.8"/>
    <path class="st0" d="M277.8,219.5v847.2H259"/>
    <path class="st0" d="M278,219.5v719.8h18.8"/>
    <path class="st0" d="M277.8,219.5v719.8H259"/>
    <path class="st0" d="M278,219.5v592.3h18.8"/>
    <path class="st0" d="M277.8,219.5v592.3H259"/>
    <path class="st0" d="M278,219.5v464.9h18.8"/>
    <path class="st0" d="M277.8,219.5v464.9H259"/>
    <path class="st0" d="M278,219.5V557h18.8"/>
    <path class="st0" d="M277.8,219.5V557H259"/>
    <path class="st0" d="M278,219.5v210h18.8"/>
    <path class="st0" d="M277.8,219.5v210H259"/>
    <path class="st0" d="M278,219.5v82.6h18.8"/>
    <path class="st0" d="M277.8,219.5v82.6H259"/>
    <path class="st0" d="M843.9,91.5v18.8H278.5v18.8"/>
    <rect x="628.5" y="2.5" class="st0" width="431" height="89"/>
    <text transform="matrix(1 0 0 1 714.801 54)" class="st1">京师女子师范学堂</text>
    <rect x="188.5" y="129.5" class="st0" width="179" height="90"/>
    <text transform="matrix(1 0 0 1 213.559 182)" class="st1">学科课程</text>
    <rect x="79.5" y="256.5" class="st0" width="180" height="90"/>
    <text transform="matrix(1 0 0 1 137.048 309)" class="st1">修身</text>
    <rect x="297.5" y="256.5" class="st0" width="179" height="90"/>
    <text transform="matrix(1 0 0 1 354.237 309)" class="st1">教育</text>
    <rect x="79.5" y="384.5" class="st0" width="180" height="90"/>
    <text transform="matrix(1 0 0 1 137.048 437)" class="st1">国文</text>
    <rect x="297.5" y="384.5" class="st0" width="179" height="90"/>
    <text transform="matrix(1 0 0 1 354.237 437)" class="st1">历史</text>
    <rect x="79.5" y="511.5" class="st0" width="180" height="90"/>
    <text transform="matrix(1 0 0 1 137.048 564)" class="st1">地理</text>
    <rect x="297.5" y="511.5" class="st0" width="179" height="90"/>
    <text transform="matrix(1 0 0 1 354.237 564)" class="st1">算学</text>
    <rect x="79.5" y="639.5" class="st0" width="180" height="89"/>
    <text transform="matrix(1 0 0 1 137.048 692)" class="st1">格致</text>
    <rect x="297.5" y="639.5" class="st0" width="179" height="89"/>
    <text transform="matrix(1 0 0 1 354.237 692)" class="st1">图画</text>
    <rect x="79.5" y="766.5" class="st0" width="180" height="90"/>
    <text transform="matrix(1 0 0 1 137.048 819)" class="st1">家事</text>
    <rect x="297.5" y="766.5" class="st0" width="179" height="90"/>
    <text transform="matrix(1 0 0 1 354.237 819)" class="st1">裁缝</text>
    <rect x="79.5" y="894.5" class="st0" width="180" height="89"/>
    <text transform="matrix(1 0 0 1 137.048 946)" class="st1">手艺</text>
    <rect x="297.5" y="894.5" class="st0" width="179" height="89"/>
    <text transform="matrix(1 0 0 1 354.237 946)" class="st1">音乐</text>
    <rect x="79.5" y="1021.5" class="st0" width="180" height="90"/>
    <text transform="matrix(1 0 0 1 137.048 1074)" class="st1">体操</text>
    <rect x="622.5" y="129.5" class="st0" width="180" height="90"/>
    <text transform="matrix(1 0 0 1 647.937 182)" class="st1">学生类别</text>
    <rect x="514.5" y="256.5" class="st0" width="179" height="90"/>
    <text transform="matrix(1 0 0 1 555.384 309)" class="st1">选科生</text>
    <rect x="731.5" y="256.5" class="st0" width="179" height="90"/>
    <text transform="matrix(1 0 0 1 772.573 309)" class="st1">简易科</text>
    <rect x="776.5" y="384.5" class="st0" width="179" height="90"/>
    <text transform="matrix(1 0 0 1 817.446 437)" class="st1">官费生</text>
    <rect x="776.5" y="511.5" class="st0" width="179" height="90"/>
    <text transform="matrix(1 0 0 1 817.446 564)" class="st1">自费生</text>
    <rect x="1319.5" y="129.5" class="st0" width="179" height="90"/>
    <text transform="matrix(1 0 0 1 1328.33 182)" class="st1">教员管理员</text>
    <rect x="1319.5" y="256.5" class="st0" width="179" height="90"/>
    <text transform="matrix(1 0 0 1 1376.46 309)" class="st1">总理</text>
    <rect x="1102.5" y="384.5" class="st0" width="179" height="90"/>
    <text transform="matrix(1 0 0 1 1111.15 437)" class="st1">外堂男职员</text>
    <rect x="993.5" y="511.5" class="st0" width="180" height="90"/>
    <text transform="matrix(1 0 0 1 1034.63 564)" class="st1">教务长</text>
    <rect x="1210.5" y="511.5" class="st0" width="180" height="90"/>
    <text transform="matrix(1 0 0 1 1251.8199 564)" class="st1">庶务长</text>
    <rect x="993.5" y="639.5" class="st0" width="180" height="89"/>
    <text transform="matrix(1 0 0 1 1034.63 692)" class="st1">男教习</text>
    <rect x="1210.5" y="639.5" class="st0" width="180" height="89"/>
    <text transform="matrix(1 0 0 1 1267.87 692)" class="st1">书记</text>
    <rect x="993.5" y="766.5" class="st0" width="180" height="90"/>
    <text transform="matrix(1 0 0 1 1018.59 819)" class="st1">收支司事</text>
    <rect x="1210.5" y="766.5" class="st0" width="180" height="90"/>
    <text transform="matrix(1 0 0 1 1235.78 819)" class="st1">杂物司事</text>
    <rect x="993.5" y="894.5" class="st0" width="180" height="89"/>
    <text transform="matrix(1 0 0 1 1034.63 946)" class="st1">书记生</text>
    <rect x="1536.5" y="384.5" class="st0" width="179" height="90"/>
    <text transform="matrix(1 0 0 1 1545.52 437)" class="st1">内堂女职员</text>
    <rect x="1427.5" y="511.5" class="st0" width="180" height="90"/>
    <text transform="matrix(1 0 0 1 1469.01 564)" class="st1">斋务长</text>
    <rect x="1645.5" y="511.5" class="st0" width="179" height="90"/>
    <text transform="matrix(1 0 0 1 1670.16 564)" class="st1">内庶务长</text>
    <rect x="1427.5" y="639.5" class="st0" width="180" height="89"/>
    <text transform="matrix(1 0 0 1 1469.01 692)" class="st1">女教习</text>
    <rect x="1645.5" y="639.5" class="st0" width="179" height="89"/>
    <text transform="matrix(1 0 0 1 1686.2 692)" class="st1">正监学</text>
    <rect x="1427.5" y="766.5" class="st0" width="180" height="90"/>
    <text transform="matrix(1 0 0 1 1469.01 819)" class="st1">副监学</text>
    <rect x="1645.5" y="766.5" class="st0" width="179" height="90"/>
    <text transform="matrix(1 0 0 1 1686.2 819)" class="st1">内司事</text>
</svg>
