<svg width="1903" height="1142" xmlns="http://www.w3.org/2000/svg" xmlns:xlink="http://www.w3.org/1999/xlink" xml:space="preserve" overflow="hidden"><defs><clipPath id="clip0"><rect x="0" y="-7" width="1903" height="1142"/></clipPath></defs><g clip-path="url(#clip0)" transform="matrix(1 0 0 1 0 7)"><path d="M727.5 555.5 777.706 555.5 777.706 1033.84 827.913 1033.84" stroke="#000000" stroke-width="4.58333" stroke-miterlimit="8" fill="none" fill-rule="evenodd"/><path d="M727.5 555.5 777.706 555.5 777.706 842.504 827.913 842.504" stroke="#000000" stroke-width="4.58333" stroke-miterlimit="8" fill="none" fill-rule="evenodd"/><path d="M727.5 555.5 777.706 555.5 777.706 651.168 827.913 651.168" stroke="#000000" stroke-width="4.58333" stroke-miterlimit="8" fill="none" fill-rule="evenodd"/><path d="M727.5 555.168 777.706 555.168 777.706 459.5 827.913 459.5" stroke="#000000" stroke-width="4.58333" stroke-miterlimit="8" fill="none" fill-rule="evenodd"/><path d="M727.5 555.504 777.706 555.504 777.706 268.5 827.913 268.5" stroke="#000000" stroke-width="4.58333" stroke-miterlimit="8" fill="none" fill-rule="evenodd"/><path d="M727.5 555.841 777.706 555.841 777.706 77.4998 827.913 77.4998" stroke="#000000" stroke-width="4.58333" stroke-miterlimit="8" fill="none" fill-rule="evenodd"/><rect x="574.5" y="152.5" width="153" height="806" stroke="#000000" stroke-width="4.58333" stroke-miterlimit="8" fill="#FFFFFF"/><text font-family="DengXian,DengXian_MSFontService,sans-serif" font-weight="400" font-size="110" transform="matrix(-1.83697e-16 -1 1 -1.83697e-16 676.579 665)">校长</text><rect x="827.5" y="0.499836" width="503" height="153" stroke="#000000" stroke-width="4.58333" stroke-miterlimit="8" fill="#FFFFFF"/><text font-family="DengXian,DengXian_MSFontService,sans-serif" font-weight="400" font-size="78" transform="matrix(1 0 0 1 961.595 95)">副校长</text><rect x="827.5" y="192.5" width="503" height="153" stroke="#000000" stroke-width="4.58333" stroke-miterlimit="8" fill="#FFFFFF"/><text font-family="DengXian,DengXian_MSFontService,sans-serif" font-weight="400" font-size="78" transform="matrix(1 0 0 1 883.678 286)">辅仁社社长</text><rect x="827.5" y="383.5" width="503" height="153" stroke="#000000" stroke-width="4.58333" stroke-miterlimit="8" fill="#FFFFFF"/><text font-family="DengXian,DengXian_MSFontService,sans-serif" font-weight="400" font-size="78" transform="matrix(1 0 0 1 844.72 478)">辅仁社庶务长</text><rect x="827.5" y="574.5" width="503" height="153" stroke="#000000" stroke-width="4.58333" stroke-miterlimit="8" fill="#FFFFFF"/><text font-family="DengXian,DengXian_MSFontService,sans-serif" font-weight="400" font-size="78" transform="matrix(1 0 0 1 883.678 669)">注册部主任</text><rect x="827.5" y="766.5" width="503" height="153" stroke="#000000" stroke-width="4.58333" stroke-miterlimit="8" fill="#FFFFFF"/><text font-family="DengXian,DengXian_MSFontService,sans-serif" font-weight="400" font-size="78" transform="matrix(1 0 0 1 883.678 860)">图书馆馆长</text><rect x="827.5" y="957.5" width="503" height="153" stroke="#000000" stroke-width="4.58333" stroke-miterlimit="8" fill="#FFFFFF"/><text font-family="DengXian,DengXian_MSFontService,sans-serif" font-weight="400" font-size="78" transform="matrix(1 0 0 1 922.637 1052)">学监主任</text></g></svg>