<?xml version="1.0" encoding="utf-8"?>
<!-- Generator: Adobe Illustrator 26.0.2, SVG Export Plug-In . SVG Version: 6.00 Build 0)  -->
<svg version="1.1" id="图层_1" xmlns="http://www.w3.org/2000/svg" viewBox="0 0 1903 1142" xml:space="preserve">
<style type="text/css">
	.st0{fill:none;stroke:#FFFFFF;stroke-width:4.5833;stroke-miterlimit:8;}
	.st1{fill:#FFFFFF;font-family:'sans-serif';font-size:78px;}
</style>
    <path class="st0" d="M727.5,562.5h50.2v478.3h50.2"/>
    <path class="st0" d="M727.5,562.5h50.2v287h50.2"/>
    <path class="st0" d="M727.5,562.5h50.2v95.7h50.2"/>
    <path class="st0" d="M727.5,562.2h50.2v-95.7h50.2"/>
    <path class="st0" d="M727.5,562.5h50.2v-287h50.2"/>
    <path class="st0" d="M727.5,562.8h50.2V84.5h50.2"/>
    <rect x="574.5" y="159.5" class="st0" width="153" height="806"/>
    <text transform="matrix(-1.836970e-16 -1 1 -1.836970e-16 681 645)" class="st1">校长</text>
    <rect x="827.5" y="7.5" class="st0" width="503" height="153"/>
    <text transform="matrix(1 0 0 1 961.595 102)" class="st1">副校长</text>
    <rect x="827.5" y="199.5" class="st0" width="503" height="153"/>
    <text transform="matrix(1 0 0 1 883.678 293)" class="st1">辅仁社社长</text>
    <rect x="827.5" y="390.5" class="st0" width="503" height="153"/>
    <text transform="matrix(1 0 0 1 844.72 485)" class="st1">辅仁社庶务长</text>
    <rect x="827.5" y="581.5" class="st0" width="503" height="153"/>
    <text transform="matrix(1 0 0 1 883.678 676)" class="st1">注册部主任</text>
    <rect x="827.5" y="773.5" class="st0" width="503" height="153"/>
    <text transform="matrix(1 0 0 1 883.678 867)" class="st1">图书馆馆长</text>
    <rect x="827.5" y="964.5" class="st0" width="503" height="153"/>
    <text transform="matrix(1 0 0 1 922.637 1059)" class="st1">学监主任</text>
</svg>
