<svg width="1875" height="1721" xmlns="http://www.w3.org/2000/svg" xmlns:xlink="http://www.w3.org/1999/xlink" xml:space="preserve" overflow="hidden"><defs><clipPath id="clip0"><rect x="0" y="-2" width="1875" height="1721"/></clipPath></defs><g clip-path="url(#clip0)" transform="matrix(1 0 0 1 0 2)"><path d="M419.5 828.5 450.987 828.5 450.987 948.496 482.474 948.496" stroke="#000000" stroke-width="4.58333" stroke-miterlimit="8" fill="none" fill-rule="evenodd"/><path d="M797.5 828.5 828.987 828.5 828.987 1608.48 860.474 1608.48" stroke="#000000" stroke-width="4.58333" stroke-miterlimit="8" fill="none" fill-rule="evenodd"/><path d="M797.5 828.5 828.987 828.5 828.987 1488.48 860.474 1488.48" stroke="#000000" stroke-width="4.58333" stroke-miterlimit="8" fill="none" fill-rule="evenodd"/><path d="M1175.5 1368.5 1206.99 1368.5 1206.99 1668.49 1238.47 1668.49" stroke="#000000" stroke-width="4.58333" stroke-miterlimit="8" fill="none" fill-rule="evenodd"/><path d="M1175.5 1368.5 1206.99 1368.5 1206.99 1548.49 1238.47 1548.49" stroke="#000000" stroke-width="4.58333" stroke-miterlimit="8" fill="none" fill-rule="evenodd"/><path d="M1175.5 1368.5 1206.99 1368.5 1206.99 1428.5 1238.47 1428.5" stroke="#000000" stroke-width="4.58333" stroke-miterlimit="8" fill="none" fill-rule="evenodd"/><path d="M1175.5 1368.5 1206.99 1368.5 1206.99 1308.5 1238.47 1308.5" stroke="#000000" stroke-width="4.58333" stroke-miterlimit="8" fill="none" fill-rule="evenodd"/><path d="M1175.5 1368.49 1206.99 1368.49 1206.99 1188.5 1238.47 1188.5" stroke="#000000" stroke-width="4.58333" stroke-miterlimit="8" fill="none" fill-rule="evenodd"/><path d="M1175.5 1368.49 1206.99 1368.49 1206.99 1068.5 1238.47 1068.5" stroke="#000000" stroke-width="4.58333" stroke-miterlimit="8" fill="none" fill-rule="evenodd"/><path d="M797.5 828.5 828.987 828.5 828.987 1368.48 860.474 1368.48" stroke="#000000" stroke-width="4.58333" stroke-miterlimit="8" fill="none" fill-rule="evenodd"/><path d="M797.5 828.5 828.987 828.5 828.987 1248.49 860.474 1248.49" stroke="#000000" stroke-width="4.58333" stroke-miterlimit="8" fill="none" fill-rule="evenodd"/><path d="M797.5 828.5 828.987 828.5 828.987 1128.49 860.474 1128.49" stroke="#000000" stroke-width="4.58333" stroke-miterlimit="8" fill="none" fill-rule="evenodd"/><path d="M797.5 828.5 828.987 828.5 828.987 1008.49 860.474 1008.49" stroke="#000000" stroke-width="4.58333" stroke-miterlimit="8" fill="none" fill-rule="evenodd"/><path d="M797.5 828.5 828.987 828.5 828.987 888.498 860.474 888.498" stroke="#000000" stroke-width="4.58333" stroke-miterlimit="8" fill="none" fill-rule="evenodd"/><path d="M1175.5 769 1238.47 769" stroke="#000000" stroke-width="4.58333" stroke-miterlimit="8" fill="none" fill-rule="evenodd"/><path d="M797.5 828.498 828.987 828.498 828.987 768.5 860.474 768.5" stroke="#000000" stroke-width="4.58333" stroke-miterlimit="8" fill="none" fill-rule="evenodd"/><path d="M1175.5 649 1238.47 649" stroke="#000000" stroke-width="4.58333" stroke-miterlimit="8" fill="none" fill-rule="evenodd"/><path d="M797.5 828.495 828.987 828.495 828.987 648.5 860.474 648.5" stroke="#000000" stroke-width="4.58333" stroke-miterlimit="8" fill="none" fill-rule="evenodd"/><path d="M1175.5 348.5 1206.99 348.5 1206.99 528.494 1238.47 528.494" stroke="#000000" stroke-width="4.58333" stroke-miterlimit="8" fill="none" fill-rule="evenodd"/><path d="M1175.5 348.5 1206.99 348.5 1206.99 408.498 1238.47 408.498" stroke="#000000" stroke-width="4.58333" stroke-miterlimit="8" fill="none" fill-rule="evenodd"/><path d="M1175.5 348.498 1206.99 348.498 1206.99 288.5 1238.47 288.5" stroke="#000000" stroke-width="4.58333" stroke-miterlimit="8" fill="none" fill-rule="evenodd"/><path d="M1175.5 348.494 1206.99 348.494 1206.99 168.5 1238.47 168.5" stroke="#000000" stroke-width="4.58333" stroke-miterlimit="8" fill="none" fill-rule="evenodd"/><path d="M797.5 828.485 828.987 828.485 828.987 348.5 860.474 348.5" stroke="#000000" stroke-width="4.58333" stroke-miterlimit="8" fill="none" fill-rule="evenodd"/><path d="M1175.5 49.0002 1238.47 49.0002" stroke="#000000" stroke-width="4.58333" stroke-miterlimit="8" fill="none" fill-rule="evenodd"/><path d="M797.5 828.476 828.987 828.476 828.987 48.5 860.474 48.5" stroke="#000000" stroke-width="4.58333" stroke-miterlimit="8" fill="none" fill-rule="evenodd"/><path d="M419.5 829 482.474 829" stroke="#000000" stroke-width="4.58333" stroke-miterlimit="8" fill="none" fill-rule="evenodd"/><path d="M419.5 828.496 450.987 828.496 450.987 708.5 482.474 708.5" stroke="#000000" stroke-width="4.58333" stroke-miterlimit="8" fill="none" fill-rule="evenodd"/><rect x="323.5" y="575.5" width="95.9999" height="506" stroke="#000000" stroke-width="4.58333" stroke-miterlimit="8" fill="#FFFFFF"/><text font-family="DengXian,DengXian_MSFontService,sans-serif" font-weight="400" font-size="69" transform="matrix(-1.83697e-16 -1 1 -1.83697e-16 386.921 931)">董事会</text><rect x="482.5" y="660.5" width="315" height="96.0002" stroke="#000000" stroke-width="4.58333" stroke-miterlimit="8" fill="#FFFFFF"/><text font-family="DengXian,DengXian_MSFontService,sans-serif" font-weight="400" font-size="37" transform="matrix(1 0 0 1 547.724 717)">行政委员会</text><rect x="482.5" y="780.5" width="315" height="95.9999" stroke="#000000" stroke-width="4.58333" stroke-miterlimit="8" fill="#FFFFFF"/><text font-family="DengXian,DengXian_MSFontService,sans-serif" font-weight="400" font-size="37" transform="matrix(1 0 0 1 602.724 837)">校长</text><rect x="860.5" y="0.499836" width="315" height="96.0003" stroke="#000000" stroke-width="4.58333" stroke-miterlimit="8" fill="#FFFFFF"/><text font-family="DengXian,DengXian_MSFontService,sans-serif" font-weight="400" font-size="37" transform="matrix(1 0 0 1 962.235 57)">副校长</text><rect x="1238.5" y="0.499836" width="315" height="96.0003" stroke="#000000" stroke-width="4.58333" stroke-miterlimit="8" fill="#FFFFFF"/><text font-family="DengXian,DengXian_MSFontService,sans-serif" font-weight="400" font-size="37" transform="matrix(1 0 0 1 1340.08 57)">秘书长</text><rect x="860.5" y="300.5" width="315" height="95.9999" stroke="#000000" stroke-width="4.58333" stroke-miterlimit="8" fill="#FFFFFF"/><text font-family="DengXian,DengXian_MSFontService,sans-serif" font-weight="400" font-size="37" transform="matrix(1 0 0 1 980.569 357)">本科</text><rect x="1238.5" y="120.5" width="315" height="95.9999" stroke="#000000" stroke-width="4.58333" stroke-miterlimit="8" fill="#FFFFFF"/><text font-family="DengXian,DengXian_MSFontService,sans-serif" font-weight="400" font-size="37" transform="matrix(1 0 0 1 1303.41 177)">中国文学系</text><rect x="1238.5" y="240.5" width="315" height="95.9999" stroke="#000000" stroke-width="4.58333" stroke-miterlimit="8" fill="#FFFFFF"/><text font-family="DengXian,DengXian_MSFontService,sans-serif" font-weight="400" font-size="37" transform="matrix(1 0 0 1 1248.41 297)">史学系、附考古系</text><rect x="1238.5" y="360.5" width="315" height="95.9999" stroke="#000000" stroke-width="4.58333" stroke-miterlimit="8" fill="#FFFFFF"/><text font-family="DengXian,DengXian_MSFontService,sans-serif" font-weight="400" font-size="37" transform="matrix(1 0 0 1 1321.75 417)">英文学系</text><rect x="1238.5" y="480.5" width="315" height="95.9999" stroke="#000000" stroke-width="4.58333" stroke-miterlimit="8" fill="#FFFFFF"/><text font-family="DengXian,DengXian_MSFontService,sans-serif" font-weight="400" font-size="37" transform="matrix(1 0 0 1 1340.08 537)">哲学系</text><rect x="860.5" y="600.5" width="315" height="95.9999" stroke="#000000" stroke-width="4.58333" stroke-miterlimit="8" fill="#FFFFFF"/><text font-family="DengXian,DengXian_MSFontService,sans-serif" font-weight="400" font-size="37" transform="matrix(1 0 0 1 907.235 657)">中国文科主任</text><rect x="1238.5" y="600.5" width="315" height="95.9999" stroke="#000000" stroke-width="4.58333" stroke-miterlimit="8" fill="#FFFFFF"/><text font-family="DengXian,DengXian_MSFontService,sans-serif" font-weight="400" font-size="37" transform="matrix(1 0 0 1 1248.41 635)">中国文科学务委员<tspan font-size="37" x="128.333" y="44">会</tspan></text><rect x="860.5" y="720.5" width="315" height="95.9999" stroke="#000000" stroke-width="4.58333" stroke-miterlimit="8" fill="#FFFFFF"/><text font-family="DengXian,DengXian_MSFontService,sans-serif" font-weight="400" font-size="37" transform="matrix(1 0 0 1 907.235 777)">外国文科主任</text><rect x="1238.5" y="720.5" width="315" height="95.9999" stroke="#000000" stroke-width="4.58333" stroke-miterlimit="8" fill="#FFFFFF"/><text font-family="DengXian,DengXian_MSFontService,sans-serif" font-weight="400" font-size="37" transform="matrix(1 0 0 1 1248.41 755)">外国文科学务委员<tspan font-size="37" x="128.333" y="44">会</tspan></text><rect x="860.5" y="840.5" width="315" height="95.9999" stroke="#000000" stroke-width="4.58333" stroke-miterlimit="8" fill="#FFFFFF"/><text font-family="DengXian,DengXian_MSFontService,sans-serif" font-weight="400" font-size="37" transform="matrix(1 0 0 1 980.569 897)">预科</text><rect x="860.5" y="960.5" width="315" height="95.9999" stroke="#000000" stroke-width="4.58333" stroke-miterlimit="8" fill="#FFFFFF"/><text font-family="DengXian,DengXian_MSFontService,sans-serif" font-weight="400" font-size="37" transform="matrix(1 0 0 1 962.235 1017)">总务长</text><rect x="860.5" y="1080.5" width="315" height="96.0002" stroke="#000000" stroke-width="4.58333" stroke-miterlimit="8" fill="#FFFFFF"/><text font-family="DengXian,DengXian_MSFontService,sans-serif" font-weight="400" font-size="37" transform="matrix(1 0 0 1 962.235 1137)">教务长</text><rect x="860.5" y="1200.5" width="315" height="96.0002" stroke="#000000" stroke-width="4.58333" stroke-miterlimit="8" fill="#FFFFFF"/><text font-family="DengXian,DengXian_MSFontService,sans-serif" font-weight="400" font-size="37" transform="matrix(1 0 0 1 925.569 1257)">训育部主任</text><rect x="860.5" y="1320.5" width="315" height="96.0002" stroke="#000000" stroke-width="4.58333" stroke-miterlimit="8" fill="#FFFFFF"/><text font-family="DengXian,DengXian_MSFontService,sans-serif" font-weight="400" font-size="37" transform="matrix(1 0 0 1 925.569 1377)">注册部主任</text><rect x="1238.5" y="1020.5" width="315" height="95.9999" stroke="#000000" stroke-width="4.58333" stroke-miterlimit="8" fill="#FFFFFF"/><text font-family="DengXian,DengXian_MSFontService,sans-serif" font-weight="400" font-size="37" transform="matrix(1 0 0 1 1340.08 1077)">注册课</text><rect x="1238.5" y="1140.5" width="315" height="95.9999" stroke="#000000" stroke-width="4.58333" stroke-miterlimit="8" fill="#FFFFFF"/><text font-family="DengXian,DengXian_MSFontService,sans-serif" font-weight="400" font-size="37" transform="matrix(1 0 0 1 1340.08 1197)">宣传课</text><rect x="1238.5" y="1260.5" width="315" height="95.9999" stroke="#000000" stroke-width="4.58333" stroke-miterlimit="8" fill="#FFFFFF"/><text font-family="DengXian,DengXian_MSFontService,sans-serif" font-weight="400" font-size="37" transform="matrix(1 0 0 1 1340.08 1317)">通信课</text><rect x="1238.5" y="1380.5" width="315" height="95.9999" stroke="#000000" stroke-width="4.58333" stroke-miterlimit="8" fill="#FFFFFF"/><text font-family="DengXian,DengXian_MSFontService,sans-serif" font-weight="400" font-size="37" transform="matrix(1 0 0 1 1340.08 1437)">出纳课</text><rect x="1238.5" y="1500.5" width="315" height="95.9999" stroke="#000000" stroke-width="4.58333" stroke-miterlimit="8" fill="#FFFFFF"/><text font-family="DengXian,DengXian_MSFontService,sans-serif" font-weight="400" font-size="37" transform="matrix(1 0 0 1 1340.08 1557)">杂务课</text><rect x="1238.5" y="1620.5" width="315" height="95.9999" stroke="#000000" stroke-width="4.58333" stroke-miterlimit="8" fill="#FFFFFF"/><text font-family="DengXian,DengXian_MSFontService,sans-serif" font-weight="400" font-size="37" transform="matrix(1 0 0 1 1340.08 1677)">保管课</text><rect x="860.5" y="1440.5" width="315" height="95.9999" stroke="#000000" stroke-width="4.58333" stroke-miterlimit="8" fill="#FFFFFF"/><text font-family="DengXian,DengXian_MSFontService,sans-serif" font-weight="400" font-size="37" transform="matrix(1 0 0 1 925.569 1497)">会计部主任</text><rect x="860.5" y="1560.5" width="315" height="95.9999" stroke="#000000" stroke-width="4.58333" stroke-miterlimit="8" fill="#FFFFFF"/><text font-family="DengXian,DengXian_MSFontService,sans-serif" font-weight="400" font-size="37" transform="matrix(1 0 0 1 925.569 1617)">图书馆馆长</text><rect x="482.5" y="900.5" width="315" height="95.9999" stroke="#000000" stroke-width="4.58333" stroke-miterlimit="8" fill="#FFFFFF"/><text font-family="DengXian,DengXian_MSFontService,sans-serif" font-weight="400" font-size="37" transform="matrix(1 0 0 1 547.724 957)">财政委员会</text></g></svg>