<?xml version="1.0" encoding="utf-8"?>
<!-- Generator: Adobe Illustrator 26.0.2, SVG Export Plug-In . SVG Version: 6.00 Build 0)  -->
<svg version="1.1" id="图层_1" xmlns="http://www.w3.org/2000/svg" viewBox="0 0 1875 1721" xml:space="preserve">
<style type="text/css">
	.st0{fill:none;stroke:#FFFFFF;stroke-width:4.5833;stroke-miterlimit:8;}
	.st1{fill:#FFFFFF;font-family:'sans-serif';font-size:37px;}
</style>
    <path class="st0" d="M419.5,830.5H451v120h31.5"/>
    <path class="st0" d="M797.5,830.5H829v780h31.5"/>
    <path class="st0" d="M797.5,830.5H829v660h31.5"/>
    <path class="st0" d="M1175.5,1370.5h31.5v300h31.5"/>
    <path class="st0" d="M1175.5,1370.5h31.5v180h31.5"/>
    <path class="st0" d="M1175.5,1370.5h31.5v60h31.5"/>
    <path class="st0" d="M1175.5,1370.5h31.5v-60h31.5"/>
    <path class="st0" d="M1175.5,1370.5h31.5v-180h31.5"/>
    <path class="st0" d="M1175.5,1370.5h31.5v-300h31.5"/>
    <path class="st0" d="M797.5,830.5H829v540h31.5"/>
    <path class="st0" d="M797.5,830.5H829v420h31.5"/>
    <path class="st0" d="M797.5,830.5H829v300h31.5"/>
    <path class="st0" d="M797.5,830.5H829v180h31.5"/>
    <path class="st0" d="M797.5,830.5H829v60h31.5"/>
    <path class="st0" d="M1175.5,771h63"/>
    <path class="st0" d="M797.5,830.5H829v-60h31.5"/>
    <path class="st0" d="M1175.5,651h63"/>
    <path class="st0" d="M797.5,830.5H829v-180h31.5"/>
    <path class="st0" d="M1175.5,350.5h31.5v180h31.5"/>
    <path class="st0" d="M1175.5,350.5h31.5v60h31.5"/>
    <path class="st0" d="M1175.5,350.5h31.5v-60h31.5"/>
    <path class="st0" d="M1175.5,350.5h31.5v-180h31.5"/>
    <path class="st0" d="M797.5,830.5H829v-480h31.5"/>
    <path class="st0" d="M1175.5,51h63"/>
    <path class="st0" d="M797.5,830.5H829v-780h31.5"/>
    <path class="st0" d="M419.5,831h63"/>
    <path class="st0" d="M419.5,830.5H451v-120h31.5"/>
    <rect x="323.5" y="577.5" class="st0" width="96" height="506"/>
    <g>
	<text transform="matrix(-1.836970e-16 -1 1 -1.836970e-16 386.921 886.2764)" class="st1">董事会</text>
</g>
    <rect x="482.5" y="662.5" class="st0" width="315" height="96"/>
    <text transform="matrix(1 0 0 1 547.724 719)" class="st1">行政委员会</text>
    <rect x="482.5" y="782.5" class="st0" width="315" height="96"/>
    <text transform="matrix(1 0 0 1 602.724 839)" class="st1">校长</text>
    <rect x="860.5" y="2.5" class="st0" width="315" height="96"/>
    <text transform="matrix(1 0 0 1 962.235 59)" class="st1">副校长</text>
    <rect x="1238.5" y="2.5" class="st0" width="315" height="96"/>
    <text transform="matrix(1 0 0 1 1340.08 59)" class="st1">秘书长</text>
    <rect x="860.5" y="302.5" class="st0" width="315" height="96"/>
    <text transform="matrix(1 0 0 1 980.569 359)" class="st1">本科</text>
    <rect x="1238.5" y="122.5" class="st0" width="315" height="96"/>
    <text transform="matrix(1 0 0 1 1303.41 179)" class="st1">中国文学系</text>
    <rect x="1238.5" y="242.5" class="st0" width="315" height="96"/>
    <text transform="matrix(1 0 0 1 1248.41 299)" class="st1">史学系、附考古系</text>
    <rect x="1238.5" y="362.5" class="st0" width="315" height="96"/>
    <text transform="matrix(1 0 0 1 1321.75 419)" class="st1">英文学系</text>
    <rect x="1238.5" y="482.5" class="st0" width="315" height="96"/>
    <text transform="matrix(1 0 0 1 1340.08 539)" class="st1">哲学系</text>
    <rect x="860.5" y="602.5" class="st0" width="315" height="96"/>
    <text transform="matrix(1 0 0 1 907.235 659)" class="st1">中国文科主任</text>
    <rect x="1238.5" y="602.5" class="st0" width="315" height="96"/>
    <text transform="matrix(1 0 0 1 1248.41 637)" class="st1">中国文科学务委员</text>
    <text transform="matrix(1 0 0 1 1376.743 681)" class="st1">会</text>
    <rect x="860.5" y="722.5" class="st0" width="315" height="96"/>
    <text transform="matrix(1 0 0 1 907.235 779)" class="st1">外国文科主任</text>
    <rect x="1238.5" y="722.5" class="st0" width="315" height="96"/>
    <text transform="matrix(1 0 0 1 1248.41 757)" class="st1">外国文科学务委员</text>
    <text transform="matrix(1 0 0 1 1376.743 801)" class="st1">会</text>
    <rect x="860.5" y="842.5" class="st0" width="315" height="96"/>
    <text transform="matrix(1 0 0 1 980.569 899)" class="st1">预科</text>
    <rect x="860.5" y="962.5" class="st0" width="315" height="96"/>
    <text transform="matrix(1 0 0 1 962.235 1019)" class="st1">总务长</text>
    <rect x="860.5" y="1082.5" class="st0" width="315" height="96"/>
    <text transform="matrix(1 0 0 1 962.235 1139)" class="st1">教务长</text>
    <rect x="860.5" y="1202.5" class="st0" width="315" height="96"/>
    <text transform="matrix(1 0 0 1 925.569 1259)" class="st1">训育部主任</text>
    <rect x="860.5" y="1322.5" class="st0" width="315" height="96"/>
    <text transform="matrix(1 0 0 1 925.569 1379)" class="st1">注册部主任</text>
    <rect x="1238.5" y="1022.5" class="st0" width="315" height="96"/>
    <text transform="matrix(1 0 0 1 1340.08 1079)" class="st1">注册课</text>
    <rect x="1238.5" y="1142.5" class="st0" width="315" height="96"/>
    <text transform="matrix(1 0 0 1 1340.08 1199)" class="st1">宣传课</text>
    <rect x="1238.5" y="1262.5" class="st0" width="315" height="96"/>
    <text transform="matrix(1 0 0 1 1340.08 1319)" class="st1">通信课</text>
    <rect x="1238.5" y="1382.5" class="st0" width="315" height="96"/>
    <text transform="matrix(1 0 0 1 1340.08 1439)" class="st1">出纳课</text>
    <rect x="1238.5" y="1502.5" class="st0" width="315" height="96"/>
    <text transform="matrix(1 0 0 1 1340.08 1559)" class="st1">杂务课</text>
    <rect x="1238.5" y="1622.5" class="st0" width="315" height="96"/>
    <text transform="matrix(1 0 0 1 1340.08 1679)" class="st1">保管课</text>
    <rect x="860.5" y="1442.5" class="st0" width="315" height="96"/>
    <text transform="matrix(1 0 0 1 925.569 1499)" class="st1">会计部主任</text>
    <rect x="860.5" y="1562.5" class="st0" width="315" height="96"/>
    <text transform="matrix(1 0 0 1 925.569 1619)" class="st1">图书馆馆长</text>
    <rect x="482.5" y="902.5" class="st0" width="315" height="96"/>
    <text transform="matrix(1 0 0 1 547.724 959)" class="st1">财政委员会</text>
</svg>
