<svg width="1903" height="2957" xmlns="http://www.w3.org/2000/svg" xmlns:xlink="http://www.w3.org/1999/xlink" xml:space="preserve" overflow="hidden"><defs><clipPath id="clip0"><rect x="0" y="0" width="1903" height="2957"/></clipPath></defs><g clip-path="url(#clip0)"><path d="M618.5 2723.5 650.382 2723.5 650.382 2905.76 682.265 2905.76" stroke="#000000" stroke-width="4.58333" stroke-miterlimit="8" fill="none" fill-rule="evenodd"/><path d="M618.5 2723.5 650.382 2723.5 650.382 2784.25 682.265 2784.25" stroke="#000000" stroke-width="4.58333" stroke-miterlimit="8" fill="none" fill-rule="evenodd"/><path d="M618.5 2723.25 650.382 2723.25 650.382 2662.5 682.265 2662.5" stroke="#000000" stroke-width="4.58333" stroke-miterlimit="8" fill="none" fill-rule="evenodd"/><path d="M618.5 2723.76 650.382 2723.76 650.382 2541.5 682.265 2541.5" stroke="#000000" stroke-width="4.58333" stroke-miterlimit="8" fill="none" fill-rule="evenodd"/><path d="M235.5 2154.5 267.382 2154.5 267.382 2724.05 299.265 2724.05" stroke="#000000" stroke-width="4.58333" stroke-miterlimit="8" fill="none" fill-rule="evenodd"/><path d="M235.5 2154.04 267.382 2154.04 267.382 1827.5 299.265 1827.5" stroke="#000000" stroke-width="4.58333" stroke-miterlimit="8" fill="none" fill-rule="evenodd"/><path d="M1000.5 2419.5 1032.38 2419.5 1032.38 2905.52 1064.27 2905.52" stroke="#000000" stroke-width="4.58333" stroke-miterlimit="8" fill="none" fill-rule="evenodd"/><path d="M1000.5 2419.5 1032.38 2419.5 1032.38 2784.01 1064.27 2784.01" stroke="#000000" stroke-width="4.58333" stroke-miterlimit="8" fill="none" fill-rule="evenodd"/><path d="M1000.5 2419.5 1032.38 2419.5 1032.38 2662.51 1064.27 2662.51" stroke="#000000" stroke-width="4.58333" stroke-miterlimit="8" fill="none" fill-rule="evenodd"/><path d="M1000.5 2419.5 1032.38 2419.5 1032.38 2541 1064.27 2541" stroke="#000000" stroke-width="4.58333" stroke-miterlimit="8" fill="none" fill-rule="evenodd"/><path d="M1000.5 2420 1064.27 2420" stroke="#000000" stroke-width="4.58333" stroke-miterlimit="8" fill="none" fill-rule="evenodd"/><path d="M1000.5 2420 1032.38 2420 1032.38 2298.5 1064.27 2298.5" stroke="#000000" stroke-width="4.58333" stroke-miterlimit="8" fill="none" fill-rule="evenodd"/><path d="M1000.5 2419.51 1032.38 2419.51 1032.38 2176.5 1064.27 2176.5" stroke="#000000" stroke-width="4.58333" stroke-miterlimit="8" fill="none" fill-rule="evenodd"/><path d="M1000.5 2420.01 1032.38 2420.01 1032.38 2055.5 1064.27 2055.5" stroke="#000000" stroke-width="4.58333" stroke-miterlimit="8" fill="none" fill-rule="evenodd"/><path d="M1000.5 2419.52 1032.38 2419.52 1032.38 1933.5 1064.27 1933.5" stroke="#000000" stroke-width="4.58333" stroke-miterlimit="8" fill="none" fill-rule="evenodd"/><path d="M618.5 1706.5 650.382 1706.5 650.382 2420.33 682.265 2420.33" stroke="#000000" stroke-width="4.58333" stroke-miterlimit="8" fill="none" fill-rule="evenodd"/><path d="M1383.5 1812.5 1415.38 1812.5 1415.38 1873.25 1447.27 1873.25" stroke="#000000" stroke-width="4.58333" stroke-miterlimit="8" fill="none" fill-rule="evenodd"/><path d="M1383.5 1812.25 1415.38 1812.25 1415.38 1751.5 1447.27 1751.5" stroke="#000000" stroke-width="4.58333" stroke-miterlimit="8" fill="none" fill-rule="evenodd"/><path d="M1000.5 992.5 1032.38 992.5 1032.38 1812.65 1064.27 1812.65" stroke="#000000" stroke-width="4.58333" stroke-miterlimit="8" fill="none" fill-rule="evenodd"/><path d="M1383.5 1508.5 1415.38 1508.5 1415.38 1630 1447.27 1630" stroke="#000000" stroke-width="4.58333" stroke-miterlimit="8" fill="none" fill-rule="evenodd"/><path d="M1383.5 1509 1447.27 1509" stroke="#000000" stroke-width="4.58333" stroke-miterlimit="8" fill="none" fill-rule="evenodd"/><path d="M1383.5 1509 1415.38 1509 1415.38 1387.5 1447.27 1387.5" stroke="#000000" stroke-width="4.58333" stroke-miterlimit="8" fill="none" fill-rule="evenodd"/><path d="M1000.5 992.5 1032.38 992.5 1032.38 1508.89 1064.27 1508.89" stroke="#000000" stroke-width="4.58333" stroke-miterlimit="8" fill="none" fill-rule="evenodd"/><path d="M1383.5 961.5 1415.38 961.5 1415.38 1265.26 1447.27 1265.26" stroke="#000000" stroke-width="4.58333" stroke-miterlimit="8" fill="none" fill-rule="evenodd"/><path d="M1383.5 961.5 1415.38 961.5 1415.38 1143.76 1447.27 1143.76" stroke="#000000" stroke-width="4.58333" stroke-miterlimit="8" fill="none" fill-rule="evenodd"/><path d="M1383.5 961.5 1415.38 961.5 1415.38 1022.25 1447.27 1022.25" stroke="#000000" stroke-width="4.58333" stroke-miterlimit="8" fill="none" fill-rule="evenodd"/><path d="M1383.5 962.252 1415.38 962.252 1415.38 901.5 1447.27 901.5" stroke="#000000" stroke-width="4.58333" stroke-miterlimit="8" fill="none" fill-rule="evenodd"/><path d="M1383.5 961.756 1415.38 961.756 1415.38 779.5 1447.27 779.5" stroke="#000000" stroke-width="4.58333" stroke-miterlimit="8" fill="none" fill-rule="evenodd"/><path d="M1383.5 962.26 1415.38 962.26 1415.38 658.5 1447.27 658.5" stroke="#000000" stroke-width="4.58333" stroke-miterlimit="8" fill="none" fill-rule="evenodd"/><path d="M1000.5 992.376 1032.38 992.376 1032.38 962 1064.27 962" stroke="#000000" stroke-width="4.58333" stroke-miterlimit="8" fill="none" fill-rule="evenodd"/><path d="M1383.5 293.5 1415.38 293.5 1415.38 536.508 1447.27 536.508" stroke="#000000" stroke-width="4.58333" stroke-miterlimit="8" fill="none" fill-rule="evenodd"/><path d="M1383.5 293.5 1415.38 293.5 1415.38 415.004 1447.27 415.004" stroke="#000000" stroke-width="4.58333" stroke-miterlimit="8" fill="none" fill-rule="evenodd"/><path d="M1383.5 294 1447.27 294" stroke="#000000" stroke-width="4.58333" stroke-miterlimit="8" fill="none" fill-rule="evenodd"/><path d="M1383.5 294.004 1415.38 294.004 1415.38 172.5 1447.27 172.5" stroke="#000000" stroke-width="4.58333" stroke-miterlimit="8" fill="none" fill-rule="evenodd"/><path d="M1383.5 293.508 1415.38 293.508 1415.38 50.5 1447.27 50.5" stroke="#000000" stroke-width="4.58333" stroke-miterlimit="8" fill="none" fill-rule="evenodd"/><path d="M1000.5 992.147 1032.38 992.147 1032.38 293.5 1064.27 293.5" stroke="#000000" stroke-width="4.58333" stroke-miterlimit="8" fill="none" fill-rule="evenodd"/><path d="M1000.5 992.651 1032.38 992.651 1032.38 172.5 1064.27 172.5" stroke="#000000" stroke-width="4.58333" stroke-miterlimit="8" fill="none" fill-rule="evenodd"/><path d="M618.5 1706.33 650.382 1706.33 650.382 992.5 682.265 992.5" stroke="#000000" stroke-width="4.58333" stroke-miterlimit="8" fill="none" fill-rule="evenodd"/><path d="M235.5 2154.55 267.382 2154.55 267.382 1706.5 299.265 1706.5" stroke="#000000" stroke-width="4.58333" stroke-miterlimit="8" fill="none" fill-rule="evenodd"/><path d="M235.5 2154.05 267.382 2154.05 267.382 1584.5 299.265 1584.5" stroke="#000000" stroke-width="4.58333" stroke-miterlimit="8" fill="none" fill-rule="evenodd"/><rect x="138.5" y="1898.5" width="96.9999" height="511" stroke="#000000" stroke-width="4.58333" stroke-miterlimit="8" fill="#FFFFFF"/><text font-family="DengXian,DengXian_MSFontService,sans-serif" font-weight="400" font-size="69" transform="matrix(-1.83697e-16 -1 1 -1.83697e-16 202.485 2257)">董事会</text><rect x="299.5" y="1535.5" width="319" height="98" stroke="#000000" stroke-width="4.58333" stroke-miterlimit="8" fill="#FFFFFF"/><text font-family="DengXian,DengXian_MSFontService,sans-serif" font-weight="400" font-size="37" transform="matrix(1 0 0 1 403.326 1593)">校务长</text><rect x="299.5" y="1657.5" width="319" height="96.9999" stroke="#000000" stroke-width="4.58333" stroke-miterlimit="8" fill="#FFFFFF"/><text font-family="DengXian,DengXian_MSFontService,sans-serif" font-weight="400" font-size="37" transform="matrix(1 0 0 1 421.659 1715)">校长</text><rect x="682.5" y="943.5" width="318" height="96.9999" stroke="#000000" stroke-width="4.58333" stroke-miterlimit="8" fill="#FFFFFF"/><text font-family="DengXian,DengXian_MSFontService,sans-serif" font-weight="400" font-size="37" transform="matrix(1 0 0 1 785.917 1001)">教务长</text><rect x="1064.5" y="123.5" width="319" height="96.9999" stroke="#000000" stroke-width="4.58333" stroke-miterlimit="8" fill="#FFFFFF"/><text font-family="DengXian,DengXian_MSFontService,sans-serif" font-weight="400" font-size="37" transform="matrix(1 0 0 1 1150.18 181)">教务会议</text><rect x="1064.5" y="245.5" width="319" height="96.9999" stroke="#000000" stroke-width="4.58333" stroke-miterlimit="8" fill="#FFFFFF"/><text font-family="DengXian,DengXian_MSFontService,sans-serif" font-weight="400" font-size="37" transform="matrix(1 0 0 1 1168.51 302)">文学院</text><rect x="1447.5" y="2.4999" width="319" height="96.9999" stroke="#000000" stroke-width="4.58333" stroke-miterlimit="8" fill="#FFFFFF"/><text font-family="DengXian,DengXian_MSFontService,sans-serif" font-weight="400" font-size="37" transform="matrix(1 0 0 1 1496.1 59)">国文学系主任</text><rect x="1447.5" y="123.5" width="319" height="96.9999" stroke="#000000" stroke-width="4.58333" stroke-miterlimit="8" fill="#FFFFFF"/><text font-family="DengXian,DengXian_MSFontService,sans-serif" font-weight="400" font-size="37" transform="matrix(1 0 0 1 1514.43 181)">史学系主任</text><rect x="1447.5" y="245.5" width="319" height="96.9999" stroke="#000000" stroke-width="4.58333" stroke-miterlimit="8" fill="#FFFFFF"/><text font-family="DengXian,DengXian_MSFontService,sans-serif" font-weight="400" font-size="37" transform="matrix(1 0 0 1 1496.1 302)">英文学系主任</text><rect x="1447.5" y="366.5" width="319" height="96.9999" stroke="#000000" stroke-width="4.58333" stroke-miterlimit="8" fill="#FFFFFF"/><text font-family="DengXian,DengXian_MSFontService,sans-serif" font-weight="400" font-size="37" transform="matrix(1 0 0 1 1514.43 424)">哲学系主任</text><rect x="1447.5" y="488.5" width="319" height="96.9999" stroke="#000000" stroke-width="4.58333" stroke-miterlimit="8" fill="#FFFFFF"/><text font-family="DengXian,DengXian_MSFontService,sans-serif" font-weight="400" font-size="37" transform="matrix(1 0 0 1 1459.43 545)">社会经济学系主任</text><rect x="1064.5" y="913.5" width="319" height="97.0003" stroke="#000000" stroke-width="4.58333" stroke-miterlimit="8" fill="#FFFFFF"/><text font-family="DengXian,DengXian_MSFontService,sans-serif" font-weight="400" font-size="37" transform="matrix(1 0 0 1 1168.51 970)">理学院</text><rect x="1447.5" y="609.5" width="319" height="96.9999" stroke="#000000" stroke-width="4.58333" stroke-miterlimit="8" fill="#FFFFFF"/><text font-family="DengXian,DengXian_MSFontService,sans-serif" font-weight="400" font-size="37" transform="matrix(1 0 0 1 1514.43 667)">数学系主任</text><rect x="1447.5" y="731.5" width="319" height="96.9999" stroke="#000000" stroke-width="4.58333" stroke-miterlimit="8" fill="#FFFFFF"/><text font-family="DengXian,DengXian_MSFontService,sans-serif" font-weight="400" font-size="37" transform="matrix(1 0 0 1 1496.1 788)">物理学系主任</text><rect x="1447.5" y="852.5" width="319" height="96.9999" stroke="#000000" stroke-width="4.58333" stroke-miterlimit="8" fill="#FFFFFF"/><text font-family="DengXian,DengXian_MSFontService,sans-serif" font-weight="400" font-size="37" transform="matrix(1 0 0 1 1514.43 910)">化学系主任</text><rect x="1447.5" y="974.5" width="319" height="96.9999" stroke="#000000" stroke-width="4.58333" stroke-miterlimit="8" fill="#FFFFFF"/><text font-family="DengXian,DengXian_MSFontService,sans-serif" font-weight="400" font-size="37" transform="matrix(1 0 0 1 1496.1 1031)">生物学系主任</text><rect x="1447.5" y="1095.5" width="319" height="96.9999" stroke="#000000" stroke-width="4.58333" stroke-miterlimit="8" fill="#FFFFFF"/><text font-family="DengXian,DengXian_MSFontService,sans-serif" font-weight="400" font-size="37" transform="matrix(1 0 0 1 1496.1 1153)">药物学系主任</text><rect x="1447.5" y="1217.5" width="319" height="96.9999" stroke="#000000" stroke-width="4.58333" stroke-miterlimit="8" fill="#FFFFFF"/><text font-family="DengXian,DengXian_MSFontService,sans-serif" font-weight="400" font-size="37" transform="matrix(1 0 0 1 1512.23 1252)">医预科主任<tspan font-size="37" x="-65.9085" y="44">（</tspan><tspan font-size="37" x="-29.2417" y="44">1929</tspan><tspan font-size="37" x="48.0333" y="44">-</tspan><tspan font-size="37" x="66.3666" y="44">1932</tspan><tspan font-size="37" x="143.642" y="44">设立）</tspan></text><rect x="1064.5" y="1460.5" width="319" height="96.9999" stroke="#000000" stroke-width="4.58333" stroke-miterlimit="8" fill="#FFFFFF"/><text font-family="DengXian,DengXian_MSFontService,sans-serif" font-weight="400" font-size="37" transform="matrix(1 0 0 1 1150.18 1517)">教育学院</text><rect x="1447.5" y="1338.5" width="319" height="96.9999" stroke="#000000" stroke-width="4.58333" stroke-miterlimit="8" fill="#FFFFFF"/><text font-family="DengXian,DengXian_MSFontService,sans-serif" font-weight="400" font-size="37" transform="matrix(1 0 0 1 1496.1 1396)">教育学系主任</text><rect x="1447.5" y="1460.5" width="319" height="96.9999" stroke="#000000" stroke-width="4.58333" stroke-miterlimit="8" fill="#FFFFFF"/><text font-family="DengXian,DengXian_MSFontService,sans-serif" font-weight="400" font-size="37" transform="matrix(1 0 0 1 1496.1 1517)">心理学系主任</text><rect x="1447.5" y="1581.5" width="319" height="96.9999" stroke="#000000" stroke-width="4.58333" stroke-miterlimit="8" fill="#FFFFFF"/><text font-family="DengXian,DengXian_MSFontService,sans-serif" font-weight="400" font-size="37" transform="matrix(1 0 0 1 1477.77 1639)">美术专修科主任</text><rect x="1064.5" y="1763.5" width="319" height="98" stroke="#000000" stroke-width="4.58333" stroke-miterlimit="8" fill="#FFFFFF"/><text font-family="DengXian,DengXian_MSFontService,sans-serif" font-weight="400" font-size="37" transform="matrix(1 0 0 1 1150.18 1821)">附属中学</text><rect x="1447.5" y="1703.5" width="319" height="96.9999" stroke="#000000" stroke-width="4.58333" stroke-miterlimit="8" fill="#FFFFFF"/><text font-family="DengXian,DengXian_MSFontService,sans-serif" font-weight="400" font-size="37" transform="matrix(1 0 0 1 1551.1 1760)">男中部</text><rect x="1447.5" y="1824.5" width="319" height="96.9999" stroke="#000000" stroke-width="4.58333" stroke-miterlimit="8" fill="#FFFFFF"/><text font-family="DengXian,DengXian_MSFontService,sans-serif" font-weight="400" font-size="37" transform="matrix(1 0 0 1 1551.1 1882)">女中部</text><rect x="682.5" y="2371.5" width="318" height="97" stroke="#000000" stroke-width="4.58333" stroke-miterlimit="8" fill="#FFFFFF"/><text font-family="DengXian,DengXian_MSFontService,sans-serif" font-weight="400" font-size="37" transform="matrix(1 0 0 1 785.917 2428)">事务长</text><rect x="1064.5" y="1885.5" width="319" height="96.9999" stroke="#000000" stroke-width="4.58333" stroke-miterlimit="8" fill="#FFFFFF"/><text font-family="DengXian,DengXian_MSFontService,sans-serif" font-weight="400" font-size="37" transform="matrix(1 0 0 1 1131.84 1942)">注册部主任</text><rect x="1064.5" y="2006.5" width="319" height="98" stroke="#000000" stroke-width="4.58333" stroke-miterlimit="8" fill="#FFFFFF"/><text font-family="DengXian,DengXian_MSFontService,sans-serif" font-weight="400" font-size="37" transform="matrix(1 0 0 1 1131.84 2064)">训育部主任</text><rect x="1064.5" y="2128.5" width="319" height="97" stroke="#000000" stroke-width="4.58333" stroke-miterlimit="8" fill="#FFFFFF"/><text font-family="DengXian,DengXian_MSFontService,sans-serif" font-weight="400" font-size="37" transform="matrix(1 0 0 1 1131.84 2185)">图书部主任</text><rect x="1064.5" y="2249.5" width="319" height="98" stroke="#000000" stroke-width="4.58333" stroke-miterlimit="8" fill="#FFFFFF"/><text font-family="DengXian,DengXian_MSFontService,sans-serif" font-weight="400" font-size="37" transform="matrix(1 0 0 1 1131.84 2307)">仪器部主任</text><rect x="1064.5" y="2371.5" width="319" height="97" stroke="#000000" stroke-width="4.58333" stroke-miterlimit="8" fill="#FFFFFF"/><text font-family="DengXian,DengXian_MSFontService,sans-serif" font-weight="400" font-size="37" transform="matrix(1 0 0 1 1131.84 2428)">体育部主任</text><rect x="1064.5" y="2492.5" width="319" height="98" stroke="#000000" stroke-width="4.58333" stroke-miterlimit="8" fill="#FFFFFF"/><text font-family="DengXian,DengXian_MSFontService,sans-serif" font-weight="400" font-size="37" transform="matrix(1 0 0 1 1131.84 2550)">文牍部主任</text><rect x="1064.5" y="2614.5" width="319" height="97" stroke="#000000" stroke-width="4.58333" stroke-miterlimit="8" fill="#FFFFFF"/><text font-family="DengXian,DengXian_MSFontService,sans-serif" font-weight="400" font-size="37" transform="matrix(1 0 0 1 1131.84 2671)">会计部主任</text><rect x="1064.5" y="2735.5" width="319" height="98" stroke="#000000" stroke-width="4.58333" stroke-miterlimit="8" fill="#FFFFFF"/><text font-family="DengXian,DengXian_MSFontService,sans-serif" font-weight="400" font-size="37" transform="matrix(1 0 0 1 1131.84 2793)">庶务部主任</text><rect x="1064.5" y="2857.5" width="319" height="97" stroke="#000000" stroke-width="4.58333" stroke-miterlimit="8" fill="#FFFFFF"/><text font-family="DengXian,DengXian_MSFontService,sans-serif" font-weight="400" font-size="37" transform="matrix(1 0 0 1 1131.84 2914)">编译部主任</text><rect x="299.5" y="1779.5" width="319" height="96.9999" stroke="#000000" stroke-width="4.58333" stroke-miterlimit="8" fill="#FFFFFF"/><text font-family="DengXian,DengXian_MSFontService,sans-serif" font-weight="400" font-size="37" transform="matrix(1 0 0 1 403.326 1836)">秘书长</text><rect x="299.5" y="2675.5" width="319" height="97" stroke="#000000" stroke-width="4.58333" stroke-miterlimit="8" fill="#FFFFFF"/><text font-family="DengXian,DengXian_MSFontService,sans-serif" font-weight="400" font-size="37" transform="matrix(1 0 0 1 384.993 2732)">校务会议</text><rect x="682.5" y="2492.5" width="318" height="98" stroke="#000000" stroke-width="4.58333" stroke-miterlimit="8" fill="#FFFFFF"/><text font-family="DengXian,DengXian_MSFontService,sans-serif" font-weight="400" font-size="37" transform="matrix(1 0 0 1 749.251 2550)">考试委员会</text><rect x="682.5" y="2614.5" width="318" height="97" stroke="#000000" stroke-width="4.58333" stroke-miterlimit="8" fill="#FFFFFF"/><text font-family="DengXian,DengXian_MSFontService,sans-serif" font-weight="400" font-size="37" transform="matrix(1 0 0 1 749.251 2671)">图书委员会</text><rect x="682.5" y="2735.5" width="318" height="98" stroke="#000000" stroke-width="4.58333" stroke-miterlimit="8" fill="#FFFFFF"/><text font-family="DengXian,DengXian_MSFontService,sans-serif" font-weight="400" font-size="37" transform="matrix(1 0 0 1 749.251 2793)">仪器委员会</text><rect x="682.5" y="2857.5" width="318" height="97" stroke="#000000" stroke-width="4.58333" stroke-miterlimit="8" fill="#FFFFFF"/><text font-family="DengXian,DengXian_MSFontService,sans-serif" font-weight="400" font-size="37" transform="matrix(1 0 0 1 749.251 2914)">出版委员会</text></g></svg>