<?xml version="1.0" encoding="utf-8"?>
<!-- Generator: Adobe Illustrator 26.0.2, SVG Export Plug-In . SVG Version: 6.00 Build 0)  -->
<svg version="1.1" id="图层_1" xmlns="http://www.w3.org/2000/svg" viewBox="0 0 1903 2957" xml:space="preserve">
<style type="text/css">
	.st0{fill:none;stroke:#FFFFFF;stroke-width:4.5833;stroke-miterlimit:8;}
	.st1{fill:#FFFFFF;font-family:'sans-serif';font-size:37px;}
</style>
    <path class="st0" d="M618.5,2723.5h31.9v182.3h31.9"/>
    <path class="st0" d="M618.5,2723.5h31.9v60.8h31.9"/>
    <path class="st0" d="M618.5,2723.2h31.9v-60.8h31.9"/>
    <path class="st0" d="M618.5,2723.8h31.9v-182.3h31.9"/>
    <path class="st0" d="M235.5,2154.5h31.9v569.6h31.9"/>
    <path class="st0" d="M235.5,2154h31.9v-326.5h31.9"/>
    <path class="st0" d="M1000.5,2419.5h31.9v486h31.9"/>
    <path class="st0" d="M1000.5,2419.5h31.9V2784h31.9"/>
    <path class="st0" d="M1000.5,2419.5h31.9v243h31.9"/>
    <path class="st0" d="M1000.5,2419.5h31.9V2541h31.9"/>
    <path class="st0" d="M1000.5,2420h63.8"/>
    <path class="st0" d="M1000.5,2420h31.9v-121.5h31.9"/>
    <path class="st0" d="M1000.5,2419.5h31.9v-243h31.9"/>
    <path class="st0" d="M1000.5,2420h31.9v-364.5h31.9"/>
    <path class="st0" d="M1000.5,2419.5h31.9v-486h31.9"/>
    <path class="st0" d="M618.5,1706.5h31.9v713.8h31.9"/>
    <path class="st0" d="M1383.5,1812.5h31.9v60.8h31.9"/>
    <path class="st0" d="M1383.5,1812.2h31.9v-60.8h31.9"/>
    <path class="st0" d="M1000.5,992.5h31.9v820.2h31.9"/>
    <path class="st0" d="M1383.5,1508.5h31.9V1630h31.9"/>
    <path class="st0" d="M1383.5,1509h63.8"/>
    <path class="st0" d="M1383.5,1509h31.9v-121.5h31.9"/>
    <path class="st0" d="M1000.5,992.5h31.9v516.4h31.9"/>
    <path class="st0" d="M1383.5,961.5h31.9v303.8h31.9"/>
    <path class="st0" d="M1383.5,961.5h31.9v182.3h31.9"/>
    <path class="st0" d="M1383.5,961.5h31.9v60.8h31.9"/>
    <path class="st0" d="M1383.5,962.3h31.9v-60.8h31.9"/>
    <path class="st0" d="M1383.5,961.8h31.9V779.5h31.9"/>
    <path class="st0" d="M1383.5,962.3h31.9V658.5h31.9"/>
    <path class="st0" d="M1000.5,992.4h31.9V962h31.9"/>
    <path class="st0" d="M1383.5,293.5h31.9v243h31.9"/>
    <path class="st0" d="M1383.5,293.5h31.9V415h31.9"/>
    <path class="st0" d="M1383.5,294h63.8"/>
    <path class="st0" d="M1383.5,294h31.9V172.5h31.9"/>
    <path class="st0" d="M1383.5,293.5h31.9v-243h31.9"/>
    <path class="st0" d="M1000.5,992.1h31.9V293.5h31.9"/>
    <path class="st0" d="M1000.5,992.7h31.9V172.5h31.9"/>
    <path class="st0" d="M618.5,1706.3h31.9V992.5h31.9"/>
    <path class="st0" d="M235.5,2154.6h31.9v-448.1h31.9"/>
    <path class="st0" d="M235.5,2154.1h31.9v-569.6h31.9"/>
    <rect x="138.5" y="1898.5" class="st0" width="97" height="511"/>
    <g>
	<text transform="matrix(-1.836970e-16 -1 1 -1.836970e-16 201.3999 2208.0645)" class="st1">董事会</text>
</g>
    <rect x="299.5" y="1535.5" class="st0" width="319" height="98"/>
    <text transform="matrix(1 0 0 1 403.326 1593)" class="st1">校务长</text>
    <rect x="299.5" y="1657.5" class="st0" width="319" height="97"/>
    <text transform="matrix(1 0 0 1 421.659 1715)" class="st1">校长</text>
    <rect x="682.5" y="943.5" class="st0" width="318" height="97"/>
    <text transform="matrix(1 0 0 1 785.917 1001)" class="st1">教务长</text>
    <rect x="1064.5" y="123.5" class="st0" width="319" height="97"/>
    <text transform="matrix(1 0 0 1 1150.1801 181)" class="st1">教务会议</text>
    <rect x="1064.5" y="245.5" class="st0" width="319" height="97"/>
    <text transform="matrix(1 0 0 1 1168.51 302)" class="st1">文学院</text>
    <rect x="1447.5" y="2.5" class="st0" width="319" height="97"/>
    <text transform="matrix(1 0 0 1 1496.1 59)" class="st1">国文学系主任</text>
    <rect x="1447.5" y="123.5" class="st0" width="319" height="97"/>
    <text transform="matrix(1 0 0 1 1514.4301 181)" class="st1">史学系主任</text>
    <rect x="1447.5" y="245.5" class="st0" width="319" height="97"/>
    <text transform="matrix(1 0 0 1 1496.1 302)" class="st1">英文学系主任</text>
    <rect x="1447.5" y="366.5" class="st0" width="319" height="97"/>
    <text transform="matrix(1 0 0 1 1514.4301 424)" class="st1">哲学系主任</text>
    <rect x="1447.5" y="488.5" class="st0" width="319" height="97"/>
    <text transform="matrix(1 0 0 1 1459.4301 545)" class="st1">社会经济学系主任</text>
    <rect x="1064.5" y="913.5" class="st0" width="319" height="97"/>
    <text transform="matrix(1 0 0 1 1168.51 970)" class="st1">理学院</text>
    <rect x="1447.5" y="609.5" class="st0" width="319" height="97"/>
    <text transform="matrix(1 0 0 1 1514.4301 667)" class="st1">数学系主任</text>
    <rect x="1447.5" y="731.5" class="st0" width="319" height="97"/>
    <text transform="matrix(1 0 0 1 1496.1 788)" class="st1">物理学系主任</text>
    <rect x="1447.5" y="852.5" class="st0" width="319" height="97"/>
    <text transform="matrix(1 0 0 1 1514.4301 910)" class="st1">化学系主任</text>
    <rect x="1447.5" y="974.5" class="st0" width="319" height="97"/>
    <text transform="matrix(1 0 0 1 1496.1 1031)" class="st1">生物学系主任</text>
    <rect x="1447.5" y="1095.5" class="st0" width="319" height="97"/>
    <text transform="matrix(1 0 0 1 1496.1 1153)" class="st1">药物学系主任</text>
    <rect x="1447.5" y="1217.5" class="st0" width="319" height="97"/>
    <text transform="matrix(1 0 0 1 1512.23 1252)" class="st1">医预科主任</text>
    <text transform="matrix(1 0 0 1 1446.3215 1296)" class="st1">（</text>
    <text transform="matrix(1 0 0 1 1482.9883 1296)" class="st1">1929</text>
    <text transform="matrix(1 0 0 1 1560.2633 1296)" class="st1">-</text>
    <text transform="matrix(1 0 0 1 1578.5966 1296)" class="st1">1932</text>
    <text transform="matrix(1 0 0 1 1655.8719 1296)" class="st1">设立）</text>
    <rect x="1064.5" y="1460.5" class="st0" width="319" height="97"/>
    <text transform="matrix(1 0 0 1 1150.1801 1517)" class="st1">教育学院</text>
    <rect x="1447.5" y="1338.5" class="st0" width="319" height="97"/>
    <text transform="matrix(1 0 0 1 1496.1 1396)" class="st1">教育学系主任</text>
    <rect x="1447.5" y="1460.5" class="st0" width="319" height="97"/>
    <text transform="matrix(1 0 0 1 1496.1 1517)" class="st1">心理学系主任</text>
    <rect x="1447.5" y="1581.5" class="st0" width="319" height="97"/>
    <text transform="matrix(1 0 0 1 1477.77 1639)" class="st1">美术专修科主任</text>
    <rect x="1064.5" y="1763.5" class="st0" width="319" height="98"/>
    <text transform="matrix(1 0 0 1 1150.1801 1821)" class="st1">附属中学</text>
    <rect x="1447.5" y="1703.5" class="st0" width="319" height="97"/>
    <text transform="matrix(1 0 0 1 1551.1 1760)" class="st1">男中部</text>
    <rect x="1447.5" y="1824.5" class="st0" width="319" height="97"/>
    <text transform="matrix(1 0 0 1 1551.1 1882)" class="st1">女中部</text>
    <rect x="682.5" y="2371.5" class="st0" width="318" height="97"/>
    <text transform="matrix(1 0 0 1 785.917 2428)" class="st1">事务长</text>
    <rect x="1064.5" y="1885.5" class="st0" width="319" height="97"/>
    <text transform="matrix(1 0 0 1 1131.84 1942)" class="st1">注册部主任</text>
    <rect x="1064.5" y="2006.5" class="st0" width="319" height="98"/>
    <text transform="matrix(1 0 0 1 1131.84 2064)" class="st1">训育部主任</text>
    <rect x="1064.5" y="2128.5" class="st0" width="319" height="97"/>
    <text transform="matrix(1 0 0 1 1131.84 2185)" class="st1">图书部主任</text>
    <rect x="1064.5" y="2249.5" class="st0" width="319" height="98"/>
    <text transform="matrix(1 0 0 1 1131.84 2307)" class="st1">仪器部主任</text>
    <rect x="1064.5" y="2371.5" class="st0" width="319" height="97"/>
    <text transform="matrix(1 0 0 1 1131.84 2428)" class="st1">体育部主任</text>
    <rect x="1064.5" y="2492.5" class="st0" width="319" height="98"/>
    <text transform="matrix(1 0 0 1 1131.84 2550)" class="st1">文牍部主任</text>
    <rect x="1064.5" y="2614.5" class="st0" width="319" height="97"/>
    <text transform="matrix(1 0 0 1 1131.84 2671)" class="st1">会计部主任</text>
    <rect x="1064.5" y="2735.5" class="st0" width="319" height="98"/>
    <text transform="matrix(1 0 0 1 1131.84 2793)" class="st1">庶务部主任</text>
    <rect x="1064.5" y="2857.5" class="st0" width="319" height="97"/>
    <text transform="matrix(1 0 0 1 1131.84 2914)" class="st1">编译部主任</text>
    <rect x="299.5" y="1779.5" class="st0" width="319" height="97"/>
    <text transform="matrix(1 0 0 1 403.326 1836)" class="st1">秘书长</text>
    <rect x="299.5" y="2675.5" class="st0" width="319" height="97"/>
    <text transform="matrix(1 0 0 1 384.993 2732)" class="st1">校务会议</text>
    <rect x="682.5" y="2492.5" class="st0" width="318" height="98"/>
    <text transform="matrix(1 0 0 1 749.251 2550)" class="st1">考试委员会</text>
    <rect x="682.5" y="2614.5" class="st0" width="318" height="97"/>
    <text transform="matrix(1 0 0 1 749.251 2671)" class="st1">图书委员会</text>
    <rect x="682.5" y="2735.5" class="st0" width="318" height="98"/>
    <text transform="matrix(1 0 0 1 749.251 2793)" class="st1">仪器委员会</text>
    <rect x="682.5" y="2857.5" class="st0" width="318" height="97"/>
    <text transform="matrix(1 0 0 1 749.251 2914)" class="st1">出版委员会</text>
</svg>
