<svg width="1888" height="2994" xmlns="http://www.w3.org/2000/svg" xmlns:xlink="http://www.w3.org/1999/xlink" xml:space="preserve" overflow="hidden"><defs><clipPath id="clip0"><rect x="0" y="-1" width="1888" height="2994"/></clipPath></defs><g clip-path="url(#clip0)" transform="matrix(1 0 0 1 0 1)"><path d="M834.5 1519.5 859.162 1519.5 859.162 2952.79 883.824 2952.79" stroke="#000000" stroke-width="4.58333" stroke-miterlimit="8" fill="none" fill-rule="evenodd"/><path d="M834.5 1519.5 859.162 1519.5 859.162 2858.81 883.824 2858.81" stroke="#000000" stroke-width="4.58333" stroke-miterlimit="8" fill="none" fill-rule="evenodd"/><path d="M834.5 1519.5 859.162 1519.5 859.162 2764.82 883.824 2764.82" stroke="#000000" stroke-width="4.58333" stroke-miterlimit="8" fill="none" fill-rule="evenodd"/><path d="M834.5 1519.5 859.162 1519.5 859.162 2670.83 883.824 2670.83" stroke="#000000" stroke-width="4.58333" stroke-miterlimit="8" fill="none" fill-rule="evenodd"/><path d="M834.5 1519.5 859.162 1519.5 859.162 2576.85 883.824 2576.85" stroke="#000000" stroke-width="4.58333" stroke-miterlimit="8" fill="none" fill-rule="evenodd"/><path d="M1130.5 2482.5 1155.16 2482.5 1155.16 2529.49 1179.82 2529.49" stroke="#000000" stroke-width="4.58333" stroke-miterlimit="8" fill="none" fill-rule="evenodd"/><path d="M1130.5 2482.49 1155.16 2482.49 1155.16 2435.5 1179.82 2435.5" stroke="#000000" stroke-width="4.58333" stroke-miterlimit="8" fill="none" fill-rule="evenodd"/><path d="M834.5 1519.5 859.162 1519.5 859.162 2482.86 883.824 2482.86" stroke="#000000" stroke-width="4.58333" stroke-miterlimit="8" fill="none" fill-rule="evenodd"/><path d="M1130.5 2247.5 1155.16 2247.5 1155.16 2341.49 1179.82 2341.49" stroke="#000000" stroke-width="4.58333" stroke-miterlimit="8" fill="none" fill-rule="evenodd"/><path d="M1130.5 2248 1179.82 2248" stroke="#000000" stroke-width="4.58333" stroke-miterlimit="8" fill="none" fill-rule="evenodd"/><path d="M1130.5 2247.49 1155.16 2247.49 1155.16 2153.5 1179.82 2153.5" stroke="#000000" stroke-width="4.58333" stroke-miterlimit="8" fill="none" fill-rule="evenodd"/><path d="M834.5 1519.5 859.162 1519.5 859.162 2247.89 883.824 2247.89" stroke="#000000" stroke-width="4.58333" stroke-miterlimit="8" fill="none" fill-rule="evenodd"/><path d="M1130.5 1965.5 1155.16 1965.5 1155.16 2059.49 1179.82 2059.49" stroke="#000000" stroke-width="4.58333" stroke-miterlimit="8" fill="none" fill-rule="evenodd"/><path d="M1130.5 1966 1179.82 1966" stroke="#000000" stroke-width="4.58333" stroke-miterlimit="8" fill="none" fill-rule="evenodd"/><path d="M1130.5 1965.49 1155.16 1965.49 1155.16 1871.5 1179.82 1871.5" stroke="#000000" stroke-width="4.58333" stroke-miterlimit="8" fill="none" fill-rule="evenodd"/><path d="M834.5 1519.5 859.162 1519.5 859.162 1965.93 883.824 1965.93" stroke="#000000" stroke-width="4.58333" stroke-miterlimit="8" fill="none" fill-rule="evenodd"/><path d="M834.5 1519.5 859.162 1519.5 859.162 1871.95 883.824 1871.95" stroke="#000000" stroke-width="4.58333" stroke-miterlimit="8" fill="none" fill-rule="evenodd"/><path d="M834.5 1519.5 859.162 1519.5 859.162 1777.96 883.824 1777.96" stroke="#000000" stroke-width="4.58333" stroke-miterlimit="8" fill="none" fill-rule="evenodd"/><path d="M1130.5 1683.5 1155.16 1683.5 1155.16 1730.49 1179.82 1730.49" stroke="#000000" stroke-width="4.58333" stroke-miterlimit="8" fill="none" fill-rule="evenodd"/><path d="M1130.5 1683.49 1155.16 1683.49 1155.16 1636.5 1179.82 1636.5" stroke="#000000" stroke-width="4.58333" stroke-miterlimit="8" fill="none" fill-rule="evenodd"/><path d="M834.5 1519.5 859.162 1519.5 859.162 1683.98 883.824 1683.98" stroke="#000000" stroke-width="4.58333" stroke-miterlimit="8" fill="none" fill-rule="evenodd"/><path d="M1130.5 1495.5 1155.16 1495.5 1155.16 1542.49 1179.82 1542.49" stroke="#000000" stroke-width="4.58333" stroke-miterlimit="8" fill="none" fill-rule="evenodd"/><path d="M1130.5 1495.49 1155.16 1495.49 1155.16 1448.5 1179.82 1448.5" stroke="#000000" stroke-width="4.58333" stroke-miterlimit="8" fill="none" fill-rule="evenodd"/><path d="M834.5 1519.5 859.162 1519.5 859.162 1496 883.824 1496" stroke="#000000" stroke-width="4.58333" stroke-miterlimit="8" fill="none" fill-rule="evenodd"/><path d="M1130.5 1213.5 1155.16 1213.5 1155.16 1354.48 1179.82 1354.48" stroke="#000000" stroke-width="4.58333" stroke-miterlimit="8" fill="none" fill-rule="evenodd"/><path d="M1130.5 1213.5 1155.16 1213.5 1155.16 1260.49 1179.82 1260.49" stroke="#000000" stroke-width="4.58333" stroke-miterlimit="8" fill="none" fill-rule="evenodd"/><path d="M1426.5 1166.5 1451.16 1166.5 1451.16 1213.49 1475.82 1213.49" stroke="#000000" stroke-width="4.58333" stroke-miterlimit="8" fill="none" fill-rule="evenodd"/><path d="M1426.5 1166.49 1451.16 1166.49 1451.16 1119.5 1475.82 1119.5" stroke="#000000" stroke-width="4.58333" stroke-miterlimit="8" fill="none" fill-rule="evenodd"/><path d="M1130.5 1213.49 1155.16 1213.49 1155.16 1166.5 1179.82 1166.5" stroke="#000000" stroke-width="4.58333" stroke-miterlimit="8" fill="none" fill-rule="evenodd"/><path d="M1130.5 1213.48 1155.16 1213.48 1155.16 1072.5 1179.82 1072.5" stroke="#000000" stroke-width="4.58333" stroke-miterlimit="8" fill="none" fill-rule="evenodd"/><path d="M834.5 1518.96 859.162 1518.96 859.162 1213.5 883.824 1213.5" stroke="#000000" stroke-width="4.58333" stroke-miterlimit="8" fill="none" fill-rule="evenodd"/><path d="M1426.5 978.5 1451.16 978.5 1451.16 1025.49 1475.82 1025.49" stroke="#000000" stroke-width="4.58333" stroke-miterlimit="8" fill="none" fill-rule="evenodd"/><path d="M1426.5 978.493 1451.16 978.493 1451.16 931.5 1475.82 931.5" stroke="#000000" stroke-width="4.58333" stroke-miterlimit="8" fill="none" fill-rule="evenodd"/><path d="M1130.5 884.5 1155.16 884.5 1155.16 978.486 1179.82 978.486" stroke="#000000" stroke-width="4.58333" stroke-miterlimit="8" fill="none" fill-rule="evenodd"/><path d="M1130.5 885 1179.82 885" stroke="#000000" stroke-width="4.58333" stroke-miterlimit="8" fill="none" fill-rule="evenodd"/><path d="M1426.5 790.5 1451.16 790.5 1451.16 837.493 1475.82 837.493" stroke="#000000" stroke-width="4.58333" stroke-miterlimit="8" fill="none" fill-rule="evenodd"/><path d="M1426.5 790.493 1451.16 790.493 1451.16 743.5 1475.82 743.5" stroke="#000000" stroke-width="4.58333" stroke-miterlimit="8" fill="none" fill-rule="evenodd"/><path d="M1130.5 884.486 1155.16 884.486 1155.16 790.5 1179.82 790.5" stroke="#000000" stroke-width="4.58333" stroke-miterlimit="8" fill="none" fill-rule="evenodd"/><path d="M834.5 1518.91 859.162 1518.91 859.162 884.5 883.824 884.5" stroke="#000000" stroke-width="4.58333" stroke-miterlimit="8" fill="none" fill-rule="evenodd"/><path d="M1130.5 461.5 1155.16 461.5 1155.16 649.473 1179.82 649.473" stroke="#000000" stroke-width="4.58333" stroke-miterlimit="8" fill="none" fill-rule="evenodd"/><path d="M1426.5 555.5 1451.16 555.5 1451.16 602.493 1475.82 602.493" stroke="#000000" stroke-width="4.58333" stroke-miterlimit="8" fill="none" fill-rule="evenodd"/><path d="M1426.5 555.493 1451.16 555.493 1451.16 508.5 1475.82 508.5" stroke="#000000" stroke-width="4.58333" stroke-miterlimit="8" fill="none" fill-rule="evenodd"/><path d="M1130.5 461.5 1155.16 461.5 1155.16 555.486 1179.82 555.486" stroke="#000000" stroke-width="4.58333" stroke-miterlimit="8" fill="none" fill-rule="evenodd"/><path d="M1130.5 462 1179.82 462" stroke="#000000" stroke-width="4.58333" stroke-miterlimit="8" fill="none" fill-rule="evenodd"/><path d="M1130.5 461.486 1155.16 461.486 1155.16 367.5 1179.82 367.5" stroke="#000000" stroke-width="4.58333" stroke-miterlimit="8" fill="none" fill-rule="evenodd"/><path d="M1426.5 273.5 1451.16 273.5 1451.16 320.493 1475.82 320.493" stroke="#000000" stroke-width="4.58333" stroke-miterlimit="8" fill="none" fill-rule="evenodd"/><path d="M1426.5 273.493 1451.16 273.493 1451.16 226.5 1475.82 226.5" stroke="#000000" stroke-width="4.58333" stroke-miterlimit="8" fill="none" fill-rule="evenodd"/><path d="M1130.5 461.473 1155.16 461.473 1155.16 273.5 1179.82 273.5" stroke="#000000" stroke-width="4.58333" stroke-miterlimit="8" fill="none" fill-rule="evenodd"/><path d="M834.5 1518.85 859.162 1518.85 859.162 461.5 883.824 461.5" stroke="#000000" stroke-width="4.58333" stroke-miterlimit="8" fill="none" fill-rule="evenodd"/><path d="M834.5 1519.81 859.162 1519.81 859.162 180.5 883.824 180.5" stroke="#000000" stroke-width="4.58333" stroke-miterlimit="8" fill="none" fill-rule="evenodd"/><path d="M1130.5 86.5001 1155.16 86.5001 1155.16 133.493 1179.82 133.493" stroke="#000000" stroke-width="4.58333" stroke-miterlimit="8" fill="none" fill-rule="evenodd"/><path d="M1130.5 86.4929 1155.16 86.4929 1155.16 39.5 1179.82 39.5" stroke="#000000" stroke-width="4.58333" stroke-miterlimit="8" fill="none" fill-rule="evenodd"/><path d="M834.5 1519.79 859.162 1519.79 859.162 86.5001 883.824 86.5001" stroke="#000000" stroke-width="4.58333" stroke-miterlimit="8" fill="none" fill-rule="evenodd"/><path d="M538.5 1472.5 563.162 1472.5 563.162 1519.49 587.824 1519.49" stroke="#000000" stroke-width="4.58333" stroke-miterlimit="8" fill="none" fill-rule="evenodd"/><path d="M538.5 1472.49 563.162 1472.49 563.162 1425.5 587.824 1425.5" stroke="#000000" stroke-width="4.58333" stroke-miterlimit="8" fill="none" fill-rule="evenodd"/><path d="M242.5 1472 291.824 1472" stroke="#000000" stroke-width="4.58333" stroke-miterlimit="8" fill="none" fill-rule="evenodd"/><rect x="167.5" y="1274.5" width="74.9999" height="396" stroke="#000000" stroke-width="4.58333" stroke-miterlimit="8" fill="#FFFFFF"/><text font-family="DengXian,DengXian_MSFontService,sans-serif" font-weight="400" font-size="55" transform="matrix(-1.83697e-16 -1 1 -1.83697e-16 217.861 1554)">校务长</text><rect x="291.5" y="1434.5" width="247" height="74.9999" stroke="#000000" stroke-width="4.58333" stroke-miterlimit="8" fill="#FFFFFF"/><text font-family="DengXian,DengXian_MSFontService,sans-serif" font-weight="400" font-size="28" transform="matrix(1 0 0 1 387.034 1479)">校长</text><rect x="587.5" y="1387.5" width="247" height="75.0002" stroke="#000000" stroke-width="4.58333" stroke-miterlimit="8" fill="#FFFFFF"/><text font-family="DengXian,DengXian_MSFontService,sans-serif" font-weight="400" font-size="28" transform="matrix(1 0 0 1 669.229 1432)">秘书长</text><rect x="587.5" y="1481.5" width="247" height="74.9999" stroke="#000000" stroke-width="4.58333" stroke-miterlimit="8" fill="#FFFFFF"/><text font-family="DengXian,DengXian_MSFontService,sans-serif" font-weight="400" font-size="28" transform="matrix(1 0 0 1 641.729 1526)">校长办公室</text><rect x="883.5" y="48.5" width="247" height="74.9999" stroke="#000000" stroke-width="4.58333" stroke-miterlimit="8" fill="#FFFFFF"/><text font-family="DengXian,DengXian_MSFontService,sans-serif" font-weight="400" font-size="28" transform="matrix(1 0 0 1 951.423 92)">校务会议</text><rect x="1179.5" y="1.49987" width="247" height="75.0003" stroke="#000000" stroke-width="4.58333" stroke-miterlimit="8" fill="#FFFFFF"/><text font-family="DengXian,DengXian_MSFontService,sans-serif" font-weight="400" font-size="28" transform="matrix(1 0 0 1 1247.37 45)">行政会议</text><rect x="1179.5" y="95.5001" width="247" height="74.9999" stroke="#000000" stroke-width="4.58333" stroke-miterlimit="8" fill="#FFFFFF"/><text font-family="DengXian,DengXian_MSFontService,sans-serif" font-weight="400" font-size="28" transform="matrix(1 0 0 1 1247.37 139)">教务会议</text><rect x="883.5" y="142.5" width="247" height="74.9999" stroke="#000000" stroke-width="4.58333" stroke-miterlimit="8" fill="#FFFFFF"/><text font-family="DengXian,DengXian_MSFontService,sans-serif" font-weight="400" font-size="28" transform="matrix(1 0 0 1 965.173 186)">研究所</text><rect x="883.5" y="424.5" width="247" height="74.9999" stroke="#000000" stroke-width="4.58333" stroke-miterlimit="8" fill="#FFFFFF"/><text font-family="DengXian,DengXian_MSFontService,sans-serif" font-weight="400" font-size="28" transform="matrix(1 0 0 1 965.173 468)">文学院</text><rect x="1179.5" y="236.5" width="247" height="74.9999" stroke="#000000" stroke-width="4.58333" stroke-miterlimit="8" fill="#FFFFFF"/><text font-family="DengXian,DengXian_MSFontService,sans-serif" font-weight="400" font-size="28" transform="matrix(1 0 0 1 1247.37 280)">国文学系</text><rect x="1475.5" y="189.5" width="247" height="74.9999" stroke="#000000" stroke-width="4.58333" stroke-miterlimit="8" fill="#FFFFFF"/><text font-family="DengXian,DengXian_MSFontService,sans-serif" font-weight="400" font-size="28" transform="matrix(1 0 0 1 1515.81 233)">语言文字学组</text><rect x="1475.5" y="283.5" width="247" height="74.9999" stroke="#000000" stroke-width="4.58333" stroke-miterlimit="8" fill="#FFFFFF"/><text font-family="DengXian,DengXian_MSFontService,sans-serif" font-weight="400" font-size="28" transform="matrix(1 0 0 1 1557.06 327)">文学组</text><rect x="1179.5" y="330.5" width="247" height="75.0003" stroke="#000000" stroke-width="4.58333" stroke-miterlimit="8" fill="#FFFFFF"/><text font-family="DengXian,DengXian_MSFontService,sans-serif" font-weight="400" font-size="28" transform="matrix(1 0 0 1 1206.12 374)">西洋语言文学系</text><rect x="1179.5" y="424.5" width="247" height="74.9999" stroke="#000000" stroke-width="4.58333" stroke-miterlimit="8" fill="#FFFFFF"/><text font-family="DengXian,DengXian_MSFontService,sans-serif" font-weight="400" font-size="28" transform="matrix(1 0 0 1 1261.12 468)">史学系</text><rect x="1179.5" y="518.5" width="247" height="75.0003" stroke="#000000" stroke-width="4.58333" stroke-miterlimit="8" fill="#FFFFFF"/><text font-family="DengXian,DengXian_MSFontService,sans-serif" font-weight="400" font-size="28" transform="matrix(1 0 0 1 1219.87 562)">社会经济学系</text><rect x="1475.5" y="471.5" width="247" height="74.9999" stroke="#000000" stroke-width="4.58333" stroke-miterlimit="8" fill="#FFFFFF"/><text font-family="DengXian,DengXian_MSFontService,sans-serif" font-weight="400" font-size="28" transform="matrix(1 0 0 1 1543.31 515)">社会学组</text><rect x="1475.5" y="565.5" width="247" height="74.9999" stroke="#000000" stroke-width="4.58333" stroke-miterlimit="8" fill="#FFFFFF"/><text font-family="DengXian,DengXian_MSFontService,sans-serif" font-weight="400" font-size="28" transform="matrix(1 0 0 1 1543.31 609)">经济学组</text><rect x="1179.5" y="612.5" width="247" height="74.9999" stroke="#000000" stroke-width="4.58333" stroke-miterlimit="8" fill="#FFFFFF"/><text font-family="DengXian,DengXian_MSFontService,sans-serif" font-weight="400" font-size="28" transform="matrix(1 0 0 1 1206.12 639)">日本语言文学系<tspan font-size="28" x="-1.46667" y="33">（</tspan><tspan font-size="28" x="26.0333" y="33">1942</tspan><tspan font-size="28" x="83.9667" y="33">年创立）</tspan></text><rect x="883.5" y="847.5" width="247" height="75.0003" stroke="#000000" stroke-width="4.58333" stroke-miterlimit="8" fill="#FFFFFF"/><text font-family="DengXian,DengXian_MSFontService,sans-serif" font-weight="400" font-size="28" transform="matrix(1 0 0 1 965.173 891)">理学院</text><rect x="1179.5" y="753.5" width="247" height="74.9999" stroke="#000000" stroke-width="4.58333" stroke-miterlimit="8" fill="#FFFFFF"/><text font-family="DengXian,DengXian_MSFontService,sans-serif" font-weight="400" font-size="28" transform="matrix(1 0 0 1 1247.37 797)">数理学系</text><rect x="1475.5" y="706.5" width="247" height="74.9999" stroke="#000000" stroke-width="4.58333" stroke-miterlimit="8" fill="#FFFFFF"/><text font-family="DengXian,DengXian_MSFontService,sans-serif" font-weight="400" font-size="28" transform="matrix(1 0 0 1 1557.06 750)">数学组</text><rect x="1475.5" y="800.5" width="247" height="74.9999" stroke="#000000" stroke-width="4.58333" stroke-miterlimit="8" fill="#FFFFFF"/><text font-family="DengXian,DengXian_MSFontService,sans-serif" font-weight="400" font-size="28" transform="matrix(1 0 0 1 1543.31 844)">物理学组</text><rect x="1179.5" y="847.5" width="247" height="75.0003" stroke="#000000" stroke-width="4.58333" stroke-miterlimit="8" fill="#FFFFFF"/><text font-family="DengXian,DengXian_MSFontService,sans-serif" font-weight="400" font-size="28" transform="matrix(1 0 0 1 1261.12 891)">化学系</text><rect x="1179.5" y="941.5" width="247" height="74.9999" stroke="#000000" stroke-width="4.58333" stroke-miterlimit="8" fill="#FFFFFF"/><text font-family="DengXian,DengXian_MSFontService,sans-serif" font-weight="400" font-size="28" transform="matrix(1 0 0 1 1247.37 985)">生物学系</text><rect x="1475.5" y="894.5" width="247" height="74.9999" stroke="#000000" stroke-width="4.58333" stroke-miterlimit="8" fill="#FFFFFF"/><text font-family="DengXian,DengXian_MSFontService,sans-serif" font-weight="400" font-size="28" transform="matrix(1 0 0 1 1543.31 938)">植物学组</text><rect x="1475.5" y="988.5" width="247" height="74.9999" stroke="#000000" stroke-width="4.58333" stroke-miterlimit="8" fill="#FFFFFF"/><text font-family="DengXian,DengXian_MSFontService,sans-serif" font-weight="400" font-size="28" transform="matrix(1 0 0 1 1543.31 1032)">动物学组</text><rect x="883.5" y="1176.5" width="247" height="74.9999" stroke="#000000" stroke-width="4.58333" stroke-miterlimit="8" fill="#FFFFFF"/><text font-family="DengXian,DengXian_MSFontService,sans-serif" font-weight="400" font-size="28" transform="matrix(1 0 0 1 951.423 1220)">教育学院</text><rect x="1179.5" y="1035.5" width="247" height="75.0002" stroke="#000000" stroke-width="4.58333" stroke-miterlimit="8" fill="#FFFFFF"/><text font-family="DengXian,DengXian_MSFontService,sans-serif" font-weight="400" font-size="28" transform="matrix(1 0 0 1 1247.37 1079)">教育学系</text><rect x="1179.5" y="1129.5" width="247" height="74.9999" stroke="#000000" stroke-width="4.58333" stroke-miterlimit="8" fill="#FFFFFF"/><text font-family="DengXian,DengXian_MSFontService,sans-serif" font-weight="400" font-size="28" transform="matrix(1 0 0 1 1219.87 1173)">哲学心理学系</text><rect x="1475.5" y="1082.5" width="247" height="74.9999" stroke="#000000" stroke-width="4.58333" stroke-miterlimit="8" fill="#FFFFFF"/><text font-family="DengXian,DengXian_MSFontService,sans-serif" font-weight="400" font-size="28" transform="matrix(1 0 0 1 1557.06 1126)">哲学组</text><rect x="1475.5" y="1176.5" width="247" height="74.9999" stroke="#000000" stroke-width="4.58333" stroke-miterlimit="8" fill="#FFFFFF"/><text font-family="DengXian,DengXian_MSFontService,sans-serif" font-weight="400" font-size="28" transform="matrix(1 0 0 1 1543.31 1220)">心理学组</text><rect x="1179.5" y="1223.5" width="247" height="74.9999" stroke="#000000" stroke-width="4.58333" stroke-miterlimit="8" fill="#FFFFFF"/><text font-family="DengXian,DengXian_MSFontService,sans-serif" font-weight="400" font-size="28" transform="matrix(1 0 0 1 1247.37 1267)">美术学系</text><rect x="1179.5" y="1317.5" width="247" height="74.9999" stroke="#000000" stroke-width="4.58333" stroke-miterlimit="8" fill="#FFFFFF"/><text font-family="DengXian,DengXian_MSFontService,sans-serif" font-weight="400" font-size="28" transform="matrix(1 0 0 1 1247.37 1361)">家政学系</text><rect x="883.5" y="1458.5" width="247" height="74.9999" stroke="#000000" stroke-width="4.58333" stroke-miterlimit="8" fill="#FFFFFF"/><text font-family="DengXian,DengXian_MSFontService,sans-serif" font-weight="400" font-size="28" transform="matrix(1 0 0 1 965.173 1502)">图书馆</text><rect x="1179.5" y="1411.5" width="247" height="74.9999" stroke="#000000" stroke-width="4.58333" stroke-miterlimit="8" fill="#FFFFFF"/><text font-family="DengXian,DengXian_MSFontService,sans-serif" font-weight="400" font-size="28" transform="matrix(1 0 0 1 1233.62 1455)">中文图书课</text><rect x="1179.5" y="1505.5" width="247" height="74.9999" stroke="#000000" stroke-width="4.58333" stroke-miterlimit="8" fill="#FFFFFF"/><text font-family="DengXian,DengXian_MSFontService,sans-serif" font-weight="400" font-size="28" transform="matrix(1 0 0 1 1233.62 1549)">西文图书课</text><rect x="883.5" y="1646.5" width="247" height="74.9999" stroke="#000000" stroke-width="4.58333" stroke-miterlimit="8" fill="#FFFFFF"/><text font-family="DengXian,DengXian_MSFontService,sans-serif" font-weight="400" font-size="28" transform="matrix(1 0 0 1 951.423 1690)">附属中学</text><rect x="1179.5" y="1599.5" width="247" height="74.9999" stroke="#000000" stroke-width="4.58333" stroke-miterlimit="8" fill="#FFFFFF"/><text font-family="DengXian,DengXian_MSFontService,sans-serif" font-weight="400" font-size="28" transform="matrix(1 0 0 1 1261.12 1643)">男中部</text><rect x="1179.5" y="1693.5" width="247" height="74.9999" stroke="#000000" stroke-width="4.58333" stroke-miterlimit="8" fill="#FFFFFF"/><text font-family="DengXian,DengXian_MSFontService,sans-serif" font-weight="400" font-size="28" transform="matrix(1 0 0 1 1261.12 1737)">女中部</text><rect x="883.5" y="1740.5" width="247" height="74.9999" stroke="#000000" stroke-width="4.58333" stroke-miterlimit="8" fill="#FFFFFF"/><text font-family="DengXian,DengXian_MSFontService,sans-serif" font-weight="400" font-size="28" transform="matrix(1 0 0 1 951.423 1784)">附属小学</text><rect x="883.5" y="1834.5" width="247" height="74.9999" stroke="#000000" stroke-width="4.58333" stroke-miterlimit="8" fill="#FFFFFF"/><text font-family="DengXian,DengXian_MSFontService,sans-serif" font-weight="400" font-size="28" transform="matrix(1 0 0 1 965.173 1878)">幼稚园</text><rect x="883.5" y="1928.5" width="247" height="74.9999" stroke="#000000" stroke-width="4.58333" stroke-miterlimit="8" fill="#FFFFFF"/><text font-family="DengXian,DengXian_MSFontService,sans-serif" font-weight="400" font-size="28" transform="matrix(1 0 0 1 965.173 1972)">教务处</text><rect x="1179.5" y="1834.5" width="247" height="74.9999" stroke="#000000" stroke-width="4.58333" stroke-miterlimit="8" fill="#FFFFFF"/><text font-family="DengXian,DengXian_MSFontService,sans-serif" font-weight="400" font-size="28" transform="matrix(1 0 0 1 1261.12 1878)">教务课</text><rect x="1179.5" y="1928.5" width="247" height="74.9999" stroke="#000000" stroke-width="4.58333" stroke-miterlimit="8" fill="#FFFFFF"/><text font-family="DengXian,DengXian_MSFontService,sans-serif" font-weight="400" font-size="28" transform="matrix(1 0 0 1 1261.12 1972)">注册课</text><rect x="1179.5" y="2022.5" width="247" height="74.9999" stroke="#000000" stroke-width="4.58333" stroke-miterlimit="8" fill="#FFFFFF"/><text font-family="DengXian,DengXian_MSFontService,sans-serif" font-weight="400" font-size="28" transform="matrix(1 0 0 1 1261.12 2066)">文牍课</text><rect x="883.5" y="2210.5" width="247" height="75" stroke="#000000" stroke-width="4.58333" stroke-miterlimit="8" fill="#FFFFFF"/><text font-family="DengXian,DengXian_MSFontService,sans-serif" font-weight="400" font-size="28" transform="matrix(1 0 0 1 965.173 2254)">训育处</text><rect x="1179.5" y="2116.5" width="247" height="75" stroke="#000000" stroke-width="4.58333" stroke-miterlimit="8" fill="#FFFFFF"/><text font-family="DengXian,DengXian_MSFontService,sans-serif" font-weight="400" font-size="28" transform="matrix(1 0 0 1 1261.12 2160)">训育课</text><rect x="1179.5" y="2210.5" width="247" height="75" stroke="#000000" stroke-width="4.58333" stroke-miterlimit="8" fill="#FFFFFF"/><text font-family="DengXian,DengXian_MSFontService,sans-serif" font-weight="400" font-size="28" transform="matrix(1 0 0 1 1261.12 2254)">卫生课</text><rect x="1179.5" y="2304.5" width="247" height="75" stroke="#000000" stroke-width="4.58333" stroke-miterlimit="8" fill="#FFFFFF"/><text font-family="DengXian,DengXian_MSFontService,sans-serif" font-weight="400" font-size="28" transform="matrix(1 0 0 1 1261.12 2348)">体育课</text><rect x="883.5" y="2445.5" width="247" height="75" stroke="#000000" stroke-width="4.58333" stroke-miterlimit="8" fill="#FFFFFF"/><text font-family="DengXian,DengXian_MSFontService,sans-serif" font-weight="400" font-size="28" transform="matrix(1 0 0 1 965.173 2489)">事务处</text><rect x="1179.5" y="2398.5" width="247" height="75.0002" stroke="#000000" stroke-width="4.58333" stroke-miterlimit="8" fill="#FFFFFF"/><text font-family="DengXian,DengXian_MSFontService,sans-serif" font-weight="400" font-size="28" transform="matrix(1 0 0 1 1261.12 2442)">会计课</text><rect x="1179.5" y="2492.5" width="247" height="75" stroke="#000000" stroke-width="4.58333" stroke-miterlimit="8" fill="#FFFFFF"/><text font-family="DengXian,DengXian_MSFontService,sans-serif" font-weight="400" font-size="28" transform="matrix(1 0 0 1 1261.12 2536)">庶务课</text><rect x="883.5" y="2539.5" width="247" height="75" stroke="#000000" stroke-width="4.58333" stroke-miterlimit="8" fill="#FFFFFF"/><text font-family="DengXian,DengXian_MSFontService,sans-serif" font-weight="400" font-size="28" transform="matrix(1 0 0 1 937.673 2583)">招考委员会</text><rect x="883.5" y="2633.5" width="247" height="75" stroke="#000000" stroke-width="4.58333" stroke-miterlimit="8" fill="#FFFFFF"/><text font-family="DengXian,DengXian_MSFontService,sans-serif" font-weight="400" font-size="28" transform="matrix(1 0 0 1 937.673 2677)">图书委员会</text><rect x="883.5" y="2727.5" width="247" height="75" stroke="#000000" stroke-width="4.58333" stroke-miterlimit="8" fill="#FFFFFF"/><text font-family="DengXian,DengXian_MSFontService,sans-serif" font-weight="400" font-size="28" transform="matrix(1 0 0 1 937.673 2771)">仪器委员会</text><rect x="883.5" y="2821.5" width="247" height="75" stroke="#000000" stroke-width="4.58333" stroke-miterlimit="8" fill="#FFFFFF"/><text font-family="DengXian,DengXian_MSFontService,sans-serif" font-weight="400" font-size="28" transform="matrix(1 0 0 1 937.673 2865)">编辑委员会</text><rect x="883.5" y="2915.5" width="247" height="75.0002" stroke="#000000" stroke-width="4.58333" stroke-miterlimit="8" fill="#FFFFFF"/><text font-family="DengXian,DengXian_MSFontService,sans-serif" font-weight="400" font-size="28" transform="matrix(1 0 0 1 937.673 2959)">建筑委员会</text></g></svg>