<svg width="1903" height="3029" xmlns="http://www.w3.org/2000/svg" xmlns:xlink="http://www.w3.org/1999/xlink" xml:space="preserve" overflow="hidden"><defs><clipPath id="clip0"><rect x="0" y="-1" width="1903" height="3029"/></clipPath></defs><g clip-path="url(#clip0)" transform="matrix(1 0 0 1 0 1)"><path d="M861.5 1513.5 881.686 1513.5 881.686 2994.41 901.873 2994.41" stroke="#000000" stroke-width="4.58333" stroke-miterlimit="8" fill="none" fill-rule="evenodd"/><path d="M861.5 1513.5 881.686 1513.5 881.686 2917.48 901.873 2917.48" stroke="#000000" stroke-width="4.58333" stroke-miterlimit="8" fill="none" fill-rule="evenodd"/><path d="M861.5 1513.5 881.686 1513.5 881.686 2840.55 901.873 2840.55" stroke="#000000" stroke-width="4.58333" stroke-miterlimit="8" fill="none" fill-rule="evenodd"/><path d="M1104.5 2763.5 1124.69 2763.5 1124.69 2801.97 1144.87 2801.97" stroke="#000000" stroke-width="4.58333" stroke-miterlimit="8" fill="none" fill-rule="evenodd"/><path d="M1104.5 2762.97 1124.69 2762.97 1124.69 2724.5 1144.87 2724.5" stroke="#000000" stroke-width="4.58333" stroke-miterlimit="8" fill="none" fill-rule="evenodd"/><path d="M861.5 1513.5 881.686 1513.5 881.686 2763.62 901.873 2763.62" stroke="#000000" stroke-width="4.58333" stroke-miterlimit="8" fill="none" fill-rule="evenodd"/><path d="M1588.5 2763.5 1608.69 2763.5 1608.69 2801.97 1628.87 2801.97" stroke="#000000" stroke-width="4.58333" stroke-miterlimit="8" fill="none" fill-rule="evenodd"/><path d="M1588.5 2762.97 1608.69 2762.97 1608.69 2724.5 1628.87 2724.5" stroke="#000000" stroke-width="4.58333" stroke-miterlimit="8" fill="none" fill-rule="evenodd"/><path d="M1346.5 2648.5 1366.69 2648.5 1366.69 2763.9 1386.87 2763.9" stroke="#000000" stroke-width="4.58333" stroke-miterlimit="8" fill="none" fill-rule="evenodd"/><path d="M1346.5 2648.5 1366.69 2648.5 1366.69 2686.97 1386.87 2686.97" stroke="#000000" stroke-width="4.58333" stroke-miterlimit="8" fill="none" fill-rule="evenodd"/><path d="M1346.5 2647.97 1366.69 2647.97 1366.69 2609.5 1386.87 2609.5" stroke="#000000" stroke-width="4.58333" stroke-miterlimit="8" fill="none" fill-rule="evenodd"/><path d="M1346.5 2647.9 1366.69 2647.9 1366.69 2532.5 1386.87 2532.5" stroke="#000000" stroke-width="4.58333" stroke-miterlimit="8" fill="none" fill-rule="evenodd"/><path d="M1104.5 2648 1144.87 2648" stroke="#000000" stroke-width="4.58333" stroke-miterlimit="8" fill="none" fill-rule="evenodd"/><path d="M861.5 1513.5 881.686 1513.5 881.686 2648.22 901.873 2648.22" stroke="#000000" stroke-width="4.58333" stroke-miterlimit="8" fill="none" fill-rule="evenodd"/><path d="M1346.5 2378.5 1366.69 2378.5 1366.69 2455.43 1386.87 2455.43" stroke="#000000" stroke-width="4.58333" stroke-miterlimit="8" fill="none" fill-rule="evenodd"/><path d="M1346.5 2379 1386.87 2379" stroke="#000000" stroke-width="4.58333" stroke-miterlimit="8" fill="none" fill-rule="evenodd"/><path d="M1346.5 2378.43 1366.69 2378.43 1366.69 2301.5 1386.87 2301.5" stroke="#000000" stroke-width="4.58333" stroke-miterlimit="8" fill="none" fill-rule="evenodd"/><path d="M1104.5 2340.5 1124.69 2340.5 1124.69 2378.97 1144.87 2378.97" stroke="#000000" stroke-width="4.58333" stroke-miterlimit="8" fill="none" fill-rule="evenodd"/><path d="M1104.5 2339.97 1124.69 2339.97 1124.69 2301.5 1144.87 2301.5" stroke="#000000" stroke-width="4.58333" stroke-miterlimit="8" fill="none" fill-rule="evenodd"/><path d="M861.5 1513.5 881.686 1513.5 881.686 2340.5 901.873 2340.5" stroke="#000000" stroke-width="4.58333" stroke-miterlimit="8" fill="none" fill-rule="evenodd"/><path d="M1346.5 2148.5 1366.69 2148.5 1366.69 2225.43 1386.87 2225.43" stroke="#000000" stroke-width="4.58333" stroke-miterlimit="8" fill="none" fill-rule="evenodd"/><path d="M1346.5 2148 1386.87 2148" stroke="#000000" stroke-width="4.58333" stroke-miterlimit="8" fill="none" fill-rule="evenodd"/><path d="M1346.5 2148.43 1366.69 2148.43 1366.69 2071.5 1386.87 2071.5" stroke="#000000" stroke-width="4.58333" stroke-miterlimit="8" fill="none" fill-rule="evenodd"/><path d="M1104.5 2148 1144.87 2148" stroke="#000000" stroke-width="4.58333" stroke-miterlimit="8" fill="none" fill-rule="evenodd"/><path d="M861.5 1513.5 881.686 1513.5 881.686 2148.17 901.873 2148.17" stroke="#000000" stroke-width="4.58333" stroke-miterlimit="8" fill="none" fill-rule="evenodd"/><path d="M1104.5 1994 1144.87 1994" stroke="#000000" stroke-width="4.58333" stroke-miterlimit="8" fill="none" fill-rule="evenodd"/><path d="M861.5 1513.5 881.686 1513.5 881.686 1994.31 901.873 1994.31" stroke="#000000" stroke-width="4.58333" stroke-miterlimit="8" fill="none" fill-rule="evenodd"/><path d="M861.5 1513.5 881.686 1513.5 881.686 1917.38 901.873 1917.38" stroke="#000000" stroke-width="4.58333" stroke-miterlimit="8" fill="none" fill-rule="evenodd"/><path d="M861.5 1513.5 881.686 1513.5 881.686 1840.45 901.873 1840.45" stroke="#000000" stroke-width="4.58333" stroke-miterlimit="8" fill="none" fill-rule="evenodd"/><path d="M1104.5 1763 1144.87 1763" stroke="#000000" stroke-width="4.58333" stroke-miterlimit="8" fill="none" fill-rule="evenodd"/><path d="M861.5 1513.5 881.686 1513.5 881.686 1763.52 901.873 1763.52" stroke="#000000" stroke-width="4.58333" stroke-miterlimit="8" fill="none" fill-rule="evenodd"/><path d="M1104.5 1532.5 1124.69 1532.5 1124.69 1686.36 1144.87 1686.36" stroke="#000000" stroke-width="4.58333" stroke-miterlimit="8" fill="none" fill-rule="evenodd"/><path d="M1346.5 1609.5 1366.69 1609.5 1366.69 1647.96 1386.87 1647.96" stroke="#000000" stroke-width="4.58333" stroke-miterlimit="8" fill="none" fill-rule="evenodd"/><path d="M1346.5 1609.97 1366.69 1609.97 1366.69 1571.5 1386.87 1571.5" stroke="#000000" stroke-width="4.58333" stroke-miterlimit="8" fill="none" fill-rule="evenodd"/><path d="M1104.5 1532.5 1124.69 1532.5 1124.69 1609.43 1144.87 1609.43" stroke="#000000" stroke-width="4.58333" stroke-miterlimit="8" fill="none" fill-rule="evenodd"/><path d="M1346.5 1455.5 1366.69 1455.5 1366.69 1493.96 1386.87 1493.96" stroke="#000000" stroke-width="4.58333" stroke-miterlimit="8" fill="none" fill-rule="evenodd"/><path d="M1346.5 1455.97 1366.69 1455.97 1366.69 1417.5 1386.87 1417.5" stroke="#000000" stroke-width="4.58333" stroke-miterlimit="8" fill="none" fill-rule="evenodd"/><path d="M1104.5 1532.43 1124.69 1532.43 1124.69 1455.5 1144.87 1455.5" stroke="#000000" stroke-width="4.58333" stroke-miterlimit="8" fill="none" fill-rule="evenodd"/><path d="M1104.5 1532.36 1124.69 1532.36 1124.69 1378.5 1144.87 1378.5" stroke="#000000" stroke-width="4.58333" stroke-miterlimit="8" fill="none" fill-rule="evenodd"/><path d="M861.5 1513 881.686 1513 881.686 1532.23 901.873 1532.23" stroke="#000000" stroke-width="4.58333" stroke-miterlimit="8" fill="none" fill-rule="evenodd"/><path d="M1346.5 1301.5 1366.69 1301.5 1366.69 1339.96 1386.87 1339.96" stroke="#000000" stroke-width="4.58333" stroke-miterlimit="8" fill="none" fill-rule="evenodd"/><path d="M1346.5 1301.97 1366.69 1301.97 1366.69 1263.5 1386.87 1263.5" stroke="#000000" stroke-width="4.58333" stroke-miterlimit="8" fill="none" fill-rule="evenodd"/><path d="M1104.5 1224.5 1124.69 1224.5 1124.69 1301.43 1144.87 1301.43" stroke="#000000" stroke-width="4.58333" stroke-miterlimit="8" fill="none" fill-rule="evenodd"/><path d="M1104.5 1225 1144.87 1225" stroke="#000000" stroke-width="4.58333" stroke-miterlimit="8" fill="none" fill-rule="evenodd"/><path d="M1346.5 1147.5 1366.69 1147.5 1366.69 1185.96 1386.87 1185.96" stroke="#000000" stroke-width="4.58333" stroke-miterlimit="8" fill="none" fill-rule="evenodd"/><path d="M1346.5 1147.97 1366.69 1147.97 1366.69 1109.5 1386.87 1109.5" stroke="#000000" stroke-width="4.58333" stroke-miterlimit="8" fill="none" fill-rule="evenodd"/><path d="M1104.5 1224.43 1124.69 1224.43 1124.69 1147.5 1144.87 1147.5" stroke="#000000" stroke-width="4.58333" stroke-miterlimit="8" fill="none" fill-rule="evenodd"/><path d="M861.5 1512.99 881.686 1512.99 881.686 1224.5 901.873 1224.5" stroke="#000000" stroke-width="4.58333" stroke-miterlimit="8" fill="none" fill-rule="evenodd"/><path d="M1104.5 782.5 1124.69 782.5 1124.69 1032.52 1144.87 1032.52" stroke="#000000" stroke-width="4.58333" stroke-miterlimit="8" fill="none" fill-rule="evenodd"/><path d="M1104.5 782.5 1124.69 782.5 1124.69 955.593 1144.87 955.593" stroke="#000000" stroke-width="4.58333" stroke-miterlimit="8" fill="none" fill-rule="evenodd"/><path d="M1104.5 782.5 1124.69 782.5 1124.69 878.663 1144.87 878.663" stroke="#000000" stroke-width="4.58333" stroke-miterlimit="8" fill="none" fill-rule="evenodd"/><path d="M1104.5 783 1124.69 783 1124.69 802.232 1144.87 802.232" stroke="#000000" stroke-width="4.58333" stroke-miterlimit="8" fill="none" fill-rule="evenodd"/><path d="M1346.5 724.5 1366.69 724.5 1366.69 801.43 1386.87 801.43" stroke="#000000" stroke-width="4.58333" stroke-miterlimit="8" fill="none" fill-rule="evenodd"/><path d="M1346.5 725 1386.87 725" stroke="#000000" stroke-width="4.58333" stroke-miterlimit="8" fill="none" fill-rule="evenodd"/><path d="M1346.5 724.43 1366.69 724.43 1366.69 647.5 1386.87 647.5" stroke="#000000" stroke-width="4.58333" stroke-miterlimit="8" fill="none" fill-rule="evenodd"/><path d="M1104.5 782.198 1124.69 782.198 1124.69 724.5 1144.87 724.5" stroke="#000000" stroke-width="4.58333" stroke-miterlimit="8" fill="none" fill-rule="evenodd"/><path d="M1346.5 532.5 1366.69 532.5 1366.69 570.965 1386.87 570.965" stroke="#000000" stroke-width="4.58333" stroke-miterlimit="8" fill="none" fill-rule="evenodd"/><path d="M1346.5 532.965 1366.69 532.965 1366.69 494.5 1386.87 494.5" stroke="#000000" stroke-width="4.58333" stroke-miterlimit="8" fill="none" fill-rule="evenodd"/><path d="M1104.5 782.523 1124.69 782.523 1124.69 532.5 1144.87 532.5" stroke="#000000" stroke-width="4.58333" stroke-miterlimit="8" fill="none" fill-rule="evenodd"/><path d="M861.5 1513.34 881.686 1513.34 881.686 782.5 901.873 782.5" stroke="#000000" stroke-width="4.58333" stroke-miterlimit="8" fill="none" fill-rule="evenodd"/><path d="M1104.5 340.5 1124.69 340.5 1124.69 417.43 1144.87 417.43" stroke="#000000" stroke-width="4.58333" stroke-miterlimit="8" fill="none" fill-rule="evenodd"/><path d="M1104.5 340 1144.87 340" stroke="#000000" stroke-width="4.58333" stroke-miterlimit="8" fill="none" fill-rule="evenodd"/><path d="M1104.5 340.43 1124.69 340.43 1124.69 263.5 1144.87 263.5" stroke="#000000" stroke-width="4.58333" stroke-miterlimit="8" fill="none" fill-rule="evenodd"/><path d="M861.5 1513.69 881.686 1513.69 881.686 340.5 901.873 340.5" stroke="#000000" stroke-width="4.58333" stroke-miterlimit="8" fill="none" fill-rule="evenodd"/><path d="M1104.5 109.5 1124.69 109.5 1124.69 186.43 1144.87 186.43" stroke="#000000" stroke-width="4.58333" stroke-miterlimit="8" fill="none" fill-rule="evenodd"/><path d="M1104.5 109 1144.87 109" stroke="#000000" stroke-width="4.58333" stroke-miterlimit="8" fill="none" fill-rule="evenodd"/><path d="M1104.5 109.43 1124.69 109.43 1124.69 32.5002 1144.87 32.5002" stroke="#000000" stroke-width="4.58333" stroke-miterlimit="8" fill="none" fill-rule="evenodd"/><path d="M861.5 1513.48 881.686 1513.48 881.686 109.5 901.873 109.5" stroke="#000000" stroke-width="4.58333" stroke-miterlimit="8" fill="none" fill-rule="evenodd"/><path d="M861.5 1513.41 881.686 1513.41 881.686 32.5002 901.873 32.5002" stroke="#000000" stroke-width="4.58333" stroke-miterlimit="8" fill="none" fill-rule="evenodd"/><path d="M619.5 1513 659.873 1513" stroke="#000000" stroke-width="4.58333" stroke-miterlimit="8" fill="none" fill-rule="evenodd"/><path d="M377.5 1513 417.873 1513" stroke="#000000" stroke-width="4.58333" stroke-miterlimit="8" fill="none" fill-rule="evenodd"/><path d="M135.5 1397.5 155.686 1397.5 155.686 1512.9 175.873 1512.9" stroke="#000000" stroke-width="4.58333" stroke-miterlimit="8" fill="none" fill-rule="evenodd"/><path d="M135.5 1397.5 155.686 1397.5 155.686 1435.96 175.873 1435.96" stroke="#000000" stroke-width="4.58333" stroke-miterlimit="8" fill="none" fill-rule="evenodd"/><path d="M135.5 1397.96 155.686 1397.96 155.686 1359.5 175.873 1359.5" stroke="#000000" stroke-width="4.58333" stroke-miterlimit="8" fill="none" fill-rule="evenodd"/><path d="M135.5 1397.9 155.686 1397.9 155.686 1282.5 175.873 1282.5" stroke="#000000" stroke-width="4.58333" stroke-miterlimit="8" fill="none" fill-rule="evenodd"/><rect x="73.5002" y="1235.5" width="61.9999" height="324" stroke="#000000" stroke-width="4.58333" stroke-miterlimit="8" fill="#FFFFFF"/><text font-family="DengXian,DengXian_MSFontService,sans-serif" font-weight="400" font-size="41" transform="matrix(-1.83697e-16 -1 1 -1.83697e-16 114.071 1459)">董事会</text><rect x="175.5" y="1251.5" width="202" height="61.9999" stroke="#000000" stroke-width="4.58333" stroke-miterlimit="8" fill="#FFFFFF"/><text font-family="DengXian,DengXian_MSFontService,sans-serif" font-weight="400" font-size="23" transform="matrix(1 0 0 1 230.14 1288)">校务会议</text><rect x="175.5" y="1328.5" width="202" height="61.9999" stroke="#000000" stroke-width="4.58333" stroke-miterlimit="8" fill="#FFFFFF"/><text font-family="DengXian,DengXian_MSFontService,sans-serif" font-weight="400" font-size="23" transform="matrix(1 0 0 1 230.14 1365)">行政会议</text><rect x="175.5" y="1405.5" width="202" height="61.9999" stroke="#000000" stroke-width="4.58333" stroke-miterlimit="8" fill="#FFFFFF"/><text font-family="DengXian,DengXian_MSFontService,sans-serif" font-weight="400" font-size="23" transform="matrix(1 0 0 1 230.14 1442)">教务会议</text><rect x="175.5" y="1482.5" width="202" height="61.9999" stroke="#000000" stroke-width="4.58333" stroke-miterlimit="8" fill="#FFFFFF"/><text font-family="DengXian,DengXian_MSFontService,sans-serif" font-weight="400" font-size="23" transform="matrix(1 0 0 1 190.036 1519)">校长<tspan font-size="23" x="45.8333" y="0">-</tspan>校长办公室</text><rect x="417.5" y="1482.5" width="202" height="61.9999" stroke="#000000" stroke-width="4.58333" stroke-miterlimit="8" fill="#FFFFFF"/><text font-family="DengXian,DengXian_MSFontService,sans-serif" font-weight="400" font-size="23" transform="matrix(1 0 0 1 420.815 1505)">校务长<tspan font-size="23" x="68.75" y="0">-</tspan><tspan font-size="23" x="80.2083" y="0">校务长办公</tspan><tspan font-size="23" x="85.9375" y="28">室</tspan></text><rect x="660.5" y="1482.5" width="201" height="61.9999" stroke="#000000" stroke-width="4.58333" stroke-miterlimit="8" fill="#FFFFFF"/><text font-family="DengXian,DengXian_MSFontService,sans-serif" font-weight="400" font-size="23" transform="matrix(1 0 0 1 663.054 1505)">秘书长<tspan font-size="23" x="68.75" y="0">-</tspan><tspan font-size="23" x="80.2083" y="0">秘书长办公</tspan><tspan font-size="23" x="85.9375" y="28">室</tspan></text><rect x="902.5" y="1.49987" width="202" height="62.0002" stroke="#000000" stroke-width="4.58333" stroke-miterlimit="8" fill="#FFFFFF"/><text font-family="DengXian,DengXian_MSFontService,sans-serif" font-weight="400" font-size="23" transform="matrix(1 0 0 1 968.312 38)">校友组</text><rect x="902.5" y="78.4999" width="202" height="62.0002" stroke="#000000" stroke-width="4.58333" stroke-miterlimit="8" fill="#FFFFFF"/><text font-family="DengXian,DengXian_MSFontService,sans-serif" font-weight="400" font-size="23" transform="matrix(1 0 0 1 945.396 115)">文科研究所</text><rect x="1144.5" y="1.49987" width="202" height="62.0002" stroke="#000000" stroke-width="4.58333" stroke-miterlimit="8" fill="#FFFFFF"/><text font-family="DengXian,DengXian_MSFontService,sans-serif" font-weight="400" font-size="23" transform="matrix(1 0 0 1 1210.55 38)">史学部</text><rect x="1144.5" y="78.4999" width="202" height="62.0002" stroke="#000000" stroke-width="4.58333" stroke-miterlimit="8" fill="#FFFFFF"/><text font-family="DengXian,DengXian_MSFontService,sans-serif" font-weight="400" font-size="23" transform="matrix(1 0 0 1 1199.09 115)">人类学部</text><rect x="1144.5" y="155.5" width="202" height="62.0002" stroke="#000000" stroke-width="4.58333" stroke-miterlimit="8" fill="#FFFFFF"/><text font-family="DengXian,DengXian_MSFontService,sans-serif" font-weight="400" font-size="23" transform="matrix(1 0 0 1 1199.09 191)">经济学部</text><rect x="902.5" y="309.5" width="202" height="61.0002" stroke="#000000" stroke-width="4.58333" stroke-miterlimit="8" fill="#FFFFFF"/><text font-family="DengXian,DengXian_MSFontService,sans-serif" font-weight="400" font-size="23" transform="matrix(1 0 0 1 945.396 345)">理科研究所</text><rect x="1144.5" y="232.5" width="202" height="61.0002" stroke="#000000" stroke-width="4.58333" stroke-miterlimit="8" fill="#FFFFFF"/><text font-family="DengXian,DengXian_MSFontService,sans-serif" font-weight="400" font-size="23" transform="matrix(1 0 0 1 1199.09 268)">物理学部</text><rect x="1144.5" y="309.5" width="202" height="61.0002" stroke="#000000" stroke-width="4.58333" stroke-miterlimit="8" fill="#FFFFFF"/><text font-family="DengXian,DengXian_MSFontService,sans-serif" font-weight="400" font-size="23" transform="matrix(1 0 0 1 1210.55 345)">化学部</text><rect x="1144.5" y="386.5" width="202" height="61.0002" stroke="#000000" stroke-width="4.58333" stroke-miterlimit="8" fill="#FFFFFF"/><text font-family="DengXian,DengXian_MSFontService,sans-serif" font-weight="400" font-size="23" transform="matrix(1 0 0 1 1199.09 422)">生物学部</text><rect x="902.5" y="751.5" width="202" height="62.0002" stroke="#000000" stroke-width="4.58333" stroke-miterlimit="8" fill="#FFFFFF"/><text font-family="DengXian,DengXian_MSFontService,sans-serif" font-weight="400" font-size="23" transform="matrix(1 0 0 1 968.312 788)">文学院</text><rect x="1144.5" y="501.5" width="202" height="61.9998" stroke="#000000" stroke-width="4.58333" stroke-miterlimit="8" fill="#FFFFFF"/><text font-family="DengXian,DengXian_MSFontService,sans-serif" font-weight="400" font-size="23" transform="matrix(1 0 0 1 1199.09 538)">国文学系</text><rect x="1386.5" y="463.5" width="202" height="61.0002" stroke="#000000" stroke-width="4.58333" stroke-miterlimit="8" fill="#FFFFFF"/><text font-family="DengXian,DengXian_MSFontService,sans-serif" font-weight="400" font-size="23" transform="matrix(1 0 0 1 1418.41 499)">语言文字学组</text><rect x="1386.5" y="540.5" width="202" height="61.0002" stroke="#000000" stroke-width="4.58333" stroke-miterlimit="8" fill="#FFFFFF"/><text font-family="DengXian,DengXian_MSFontService,sans-serif" font-weight="400" font-size="23" transform="matrix(1 0 0 1 1452.79 576)">文学组</text><rect x="1144.5" y="694.5" width="202" height="61.0002" stroke="#000000" stroke-width="4.58333" stroke-miterlimit="8" fill="#FFFFFF"/><text font-family="DengXian,DengXian_MSFontService,sans-serif" font-weight="400" font-size="23" transform="matrix(1 0 0 1 1164.72 730)">西洋语言文学系</text><rect x="1386.5" y="617.5" width="202" height="61.0002" stroke="#000000" stroke-width="4.58333" stroke-miterlimit="8" fill="#FFFFFF"/><text font-family="DengXian,DengXian_MSFontService,sans-serif" font-weight="400" font-size="23" transform="matrix(1 0 0 1 1452.79 653)">英文组</text><rect x="1386.5" y="694.5" width="202" height="61.0002" stroke="#000000" stroke-width="4.58333" stroke-miterlimit="8" fill="#FFFFFF"/><text font-family="DengXian,DengXian_MSFontService,sans-serif" font-weight="400" font-size="23" transform="matrix(1 0 0 1 1452.79 730)">德文组</text><rect x="1386.5" y="770.5" width="202" height="62.0002" stroke="#000000" stroke-width="4.58333" stroke-miterlimit="8" fill="#FFFFFF"/><text font-family="DengXian,DengXian_MSFontService,sans-serif" font-weight="400" font-size="23" transform="matrix(1 0 0 1 1452.79 807)">法文组</text><rect x="1144.5" y="770.5" width="202" height="62.0002" stroke="#000000" stroke-width="4.58333" stroke-miterlimit="8" fill="#FFFFFF"/><text font-family="DengXian,DengXian_MSFontService,sans-serif" font-weight="400" font-size="23" transform="matrix(1 0 0 1 1210.55 807)">史学系</text><rect x="1144.5" y="847.5" width="202" height="62.0002" stroke="#000000" stroke-width="4.58333" stroke-miterlimit="8" fill="#FFFFFF"/><text font-family="DengXian,DengXian_MSFontService,sans-serif" font-weight="400" font-size="23" transform="matrix(1 0 0 1 1199.09 884)">社会学系</text><rect x="1144.5" y="924.5" width="202" height="62.0002" stroke="#000000" stroke-width="4.58333" stroke-miterlimit="8" fill="#FFFFFF"/><text font-family="DengXian,DengXian_MSFontService,sans-serif" font-weight="400" font-size="23" transform="matrix(1 0 0 1 1199.09 961)">经济学系</text><rect x="1144.5" y="1001.5" width="202" height="62.0002" stroke="#000000" stroke-width="4.58333" stroke-miterlimit="8" fill="#FFFFFF"/><text font-family="DengXian,DengXian_MSFontService,sans-serif" font-weight="400" font-size="23" transform="matrix(1 0 0 1 1164.72 1024)">日本语言文学系<tspan font-size="23" x="-1.23755" y="28">（</tspan><tspan font-size="23" x="21.6792" y="28">1945</tspan><tspan font-size="23" x="69.9874" y="28">年撤销）</tspan></text><rect x="902.5" y="1194.5" width="202" height="60.9999" stroke="#000000" stroke-width="4.58333" stroke-miterlimit="8" fill="#FFFFFF"/><text font-family="DengXian,DengXian_MSFontService,sans-serif" font-weight="400" font-size="23" transform="matrix(1 0 0 1 968.312 1230)">理学院</text><rect x="1144.5" y="1117.5" width="202" height="60.9999" stroke="#000000" stroke-width="4.58333" stroke-miterlimit="8" fill="#FFFFFF"/><text font-family="DengXian,DengXian_MSFontService,sans-serif" font-weight="400" font-size="23" transform="matrix(1 0 0 1 1199.09 1153)">数理学系</text><rect x="1386.5" y="1078.5" width="202" height="62.0002" stroke="#000000" stroke-width="4.58333" stroke-miterlimit="8" fill="#FFFFFF"/><text font-family="DengXian,DengXian_MSFontService,sans-serif" font-weight="400" font-size="23" transform="matrix(1 0 0 1 1452.79 1115)">数学组</text><rect x="1386.5" y="1155.5" width="202" height="62.0002" stroke="#000000" stroke-width="4.58333" stroke-miterlimit="8" fill="#FFFFFF"/><text font-family="DengXian,DengXian_MSFontService,sans-serif" font-weight="400" font-size="23" transform="matrix(1 0 0 1 1441.33 1192)">物理学组</text><rect x="1144.5" y="1194.5" width="202" height="60.9999" stroke="#000000" stroke-width="4.58333" stroke-miterlimit="8" fill="#FFFFFF"/><text font-family="DengXian,DengXian_MSFontService,sans-serif" font-weight="400" font-size="23" transform="matrix(1 0 0 1 1210.55 1230)">化学系</text><rect x="1144.5" y="1271.5" width="202" height="60.9999" stroke="#000000" stroke-width="4.58333" stroke-miterlimit="8" fill="#FFFFFF"/><text font-family="DengXian,DengXian_MSFontService,sans-serif" font-weight="400" font-size="23" transform="matrix(1 0 0 1 1199.09 1307)">生物学系</text><rect x="1386.5" y="1232.5" width="202" height="62.0002" stroke="#000000" stroke-width="4.58333" stroke-miterlimit="8" fill="#FFFFFF"/><text font-family="DengXian,DengXian_MSFontService,sans-serif" font-weight="400" font-size="23" transform="matrix(1 0 0 1 1441.33 1268)">生物学组</text><rect x="1386.5" y="1309.5" width="202" height="62.0002" stroke="#000000" stroke-width="4.58333" stroke-miterlimit="8" fill="#FFFFFF"/><text font-family="DengXian,DengXian_MSFontService,sans-serif" font-weight="400" font-size="23" transform="matrix(1 0 0 1 1452.79 1345)">医预组</text><rect x="902.5" y="1501.5" width="202" height="61.9999" stroke="#000000" stroke-width="4.58333" stroke-miterlimit="8" fill="#FFFFFF"/><text font-family="DengXian,DengXian_MSFontService,sans-serif" font-weight="400" font-size="23" transform="matrix(1 0 0 1 956.854 1538)">教育学院</text><rect x="1144.5" y="1347.5" width="202" height="61.9999" stroke="#000000" stroke-width="4.58333" stroke-miterlimit="8" fill="#FFFFFF"/><text font-family="DengXian,DengXian_MSFontService,sans-serif" font-weight="400" font-size="23" transform="matrix(1 0 0 1 1199.09 1384)">教育学系</text><rect x="1144.5" y="1424.5" width="202" height="61.9999" stroke="#000000" stroke-width="4.58333" stroke-miterlimit="8" fill="#FFFFFF"/><text font-family="DengXian,DengXian_MSFontService,sans-serif" font-weight="400" font-size="23" transform="matrix(1 0 0 1 1176.18 1461)">哲学心理学系</text><rect x="1386.5" y="1386.5" width="202" height="61.0002" stroke="#000000" stroke-width="4.58333" stroke-miterlimit="8" fill="#FFFFFF"/><text font-family="DengXian,DengXian_MSFontService,sans-serif" font-weight="400" font-size="23" transform="matrix(1 0 0 1 1452.79 1422)">哲学组</text><rect x="1386.5" y="1463.5" width="202" height="61.0002" stroke="#000000" stroke-width="4.58333" stroke-miterlimit="8" fill="#FFFFFF"/><text font-family="DengXian,DengXian_MSFontService,sans-serif" font-weight="400" font-size="23" transform="matrix(1 0 0 1 1441.33 1499)">心理学组</text><rect x="1144.5" y="1578.5" width="202" height="61.9999" stroke="#000000" stroke-width="4.58333" stroke-miterlimit="8" fill="#FFFFFF"/><text font-family="DengXian,DengXian_MSFontService,sans-serif" font-weight="400" font-size="23" transform="matrix(1 0 0 1 1199.09 1615)">美术学系</text><rect x="1386.5" y="1540.5" width="202" height="61.0002" stroke="#000000" stroke-width="4.58333" stroke-miterlimit="8" fill="#FFFFFF"/><text font-family="DengXian,DengXian_MSFontService,sans-serif" font-weight="400" font-size="23" transform="matrix(1 0 0 1 1452.79 1576)">国画组</text><rect x="1386.5" y="1617.5" width="202" height="61.0002" stroke="#000000" stroke-width="4.58333" stroke-miterlimit="8" fill="#FFFFFF"/><text font-family="DengXian,DengXian_MSFontService,sans-serif" font-weight="400" font-size="23" transform="matrix(1 0 0 1 1452.79 1653)">西画组</text><rect x="1144.5" y="1655.5" width="202" height="61.9999" stroke="#000000" stroke-width="4.58333" stroke-miterlimit="8" fill="#FFFFFF"/><text font-family="DengXian,DengXian_MSFontService,sans-serif" font-weight="400" font-size="23" transform="matrix(1 0 0 1 1199.09 1692)">家政学系</text><rect x="902.5" y="1732.5" width="202" height="61.9999" stroke="#000000" stroke-width="4.58333" stroke-miterlimit="8" fill="#FFFFFF"/><text font-family="DengXian,DengXian_MSFontService,sans-serif" font-weight="400" font-size="23" transform="matrix(1 0 0 1 968.312 1769)">农学院</text><rect x="1144.5" y="1732.5" width="202" height="61.9999" stroke="#000000" stroke-width="4.58333" stroke-miterlimit="8" fill="#FFFFFF"/><text font-family="DengXian,DengXian_MSFontService,sans-serif" font-weight="400" font-size="23" transform="matrix(1 0 0 1 1152.02 1755)">农学系（<tspan font-size="23" x="91.6666" y="0">1946</tspan><tspan font-size="23" x="139.975" y="0">年设</tspan><tspan font-size="23" x="69.9874" y="28">立）</tspan></text><rect x="902.5" y="1809.5" width="202" height="61.9999" stroke="#000000" stroke-width="4.58333" stroke-miterlimit="8" fill="#FFFFFF"/><text font-family="DengXian,DengXian_MSFontService,sans-serif" font-weight="400" font-size="23" transform="matrix(1 0 0 1 899.562 1831)">附属中学（男中部，<tspan font-size="23" x="53.9458" y="28">女中部）</tspan></text><rect x="902.5" y="1886.5" width="202" height="60.9999" stroke="#000000" stroke-width="4.58333" stroke-miterlimit="8" fill="#FFFFFF"/><text font-family="DengXian,DengXian_MSFontService,sans-serif" font-weight="400" font-size="23" transform="matrix(1 0 0 1 956.854 1922)">附属小学</text><rect x="902.5" y="1963.5" width="202" height="60.9999" stroke="#000000" stroke-width="4.58333" stroke-miterlimit="8" fill="#FFFFFF"/><text font-family="DengXian,DengXian_MSFontService,sans-serif" font-weight="400" font-size="23" transform="matrix(1 0 0 1 945.396 1999)">附属幼稚园</text><rect x="1144.5" y="1963.5" width="202" height="60.9999" stroke="#000000" stroke-width="4.58333" stroke-miterlimit="8" fill="#FFFFFF"/><text font-family="DengXian,DengXian_MSFontService,sans-serif" font-weight="400" font-size="23" transform="matrix(1 0 0 1 1187.63 1999)">附属托儿所</text><rect x="902.5" y="2117.5" width="202" height="60.9998" stroke="#000000" stroke-width="4.58333" stroke-miterlimit="8" fill="#FFFFFF"/><text font-family="DengXian,DengXian_MSFontService,sans-serif" font-weight="400" font-size="23" transform="matrix(1 0 0 1 968.312 2153)">教务长</text><rect x="1144.5" y="2117.5" width="202" height="60.9998" stroke="#000000" stroke-width="4.58333" stroke-miterlimit="8" fill="#FFFFFF"/><text font-family="DengXian,DengXian_MSFontService,sans-serif" font-weight="400" font-size="23" transform="matrix(1 0 0 1 1210.55 2153)">教务处</text><rect x="1386.5" y="2040.5" width="202" height="60.9998" stroke="#000000" stroke-width="4.58333" stroke-miterlimit="8" fill="#FFFFFF"/><text font-family="DengXian,DengXian_MSFontService,sans-serif" font-weight="400" font-size="23" transform="matrix(1 0 0 1 1452.79 2076)">教务组</text><rect x="1386.5" y="2117.5" width="202" height="60.9998" stroke="#000000" stroke-width="4.58333" stroke-miterlimit="8" fill="#FFFFFF"/><text font-family="DengXian,DengXian_MSFontService,sans-serif" font-weight="400" font-size="23" transform="matrix(1 0 0 1 1452.79 2153)">注册组</text><rect x="1386.5" y="2194.5" width="202" height="60.9998" stroke="#000000" stroke-width="4.58333" stroke-miterlimit="8" fill="#FFFFFF"/><text font-family="DengXian,DengXian_MSFontService,sans-serif" font-weight="400" font-size="23" transform="matrix(1 0 0 1 1452.79 2230)">文书组</text><rect x="902.5" y="2309.5" width="202" height="61.9998" stroke="#000000" stroke-width="4.58333" stroke-miterlimit="8" fill="#FFFFFF"/><text font-family="DengXian,DengXian_MSFontService,sans-serif" font-weight="400" font-size="23" transform="matrix(1 0 0 1 968.312 2346)">训导长</text><rect x="1144.5" y="2271.5" width="202" height="60.9998" stroke="#000000" stroke-width="4.58333" stroke-miterlimit="8" fill="#FFFFFF"/><text font-family="DengXian,DengXian_MSFontService,sans-serif" font-weight="400" font-size="23" transform="matrix(1 0 0 1 1153.26 2293)">副训导长（女部主<tspan font-size="23" x="68.75" y="28">任）</tspan></text><rect x="1144.5" y="2348.5" width="202" height="60.9998" stroke="#000000" stroke-width="4.58333" stroke-miterlimit="8" fill="#FFFFFF"/><text font-family="DengXian,DengXian_MSFontService,sans-serif" font-weight="400" font-size="23" transform="matrix(1 0 0 1 1210.55 2384)">训导处</text><rect x="1386.5" y="2271.5" width="202" height="60.9998" stroke="#000000" stroke-width="4.58333" stroke-miterlimit="8" fill="#FFFFFF"/><text font-family="DengXian,DengXian_MSFontService,sans-serif" font-weight="400" font-size="23" transform="matrix(1 0 0 1 1452.79 2307)">训育组</text><rect x="1386.5" y="2348.5" width="202" height="60.9998" stroke="#000000" stroke-width="4.58333" stroke-miterlimit="8" fill="#FFFFFF"/><text font-family="DengXian,DengXian_MSFontService,sans-serif" font-weight="400" font-size="23" transform="matrix(1 0 0 1 1452.79 2384)">斋务组</text><rect x="1386.5" y="2424.5" width="202" height="61.9998" stroke="#000000" stroke-width="4.58333" stroke-miterlimit="8" fill="#FFFFFF"/><text font-family="DengXian,DengXian_MSFontService,sans-serif" font-weight="400" font-size="23" transform="matrix(1 0 0 1 1452.79 2461)">体育组</text><rect x="902.5" y="2617.5" width="202" height="60.9998" stroke="#000000" stroke-width="4.58333" stroke-miterlimit="8" fill="#FFFFFF"/><text font-family="DengXian,DengXian_MSFontService,sans-serif" font-weight="400" font-size="23" transform="matrix(1 0 0 1 968.312 2653)">事务长</text><rect x="1144.5" y="2617.5" width="202" height="60.9998" stroke="#000000" stroke-width="4.58333" stroke-miterlimit="8" fill="#FFFFFF"/><text font-family="DengXian,DengXian_MSFontService,sans-serif" font-weight="400" font-size="23" transform="matrix(1 0 0 1 1210.55 2653)">总务处</text><rect x="1386.5" y="2501.5" width="202" height="61.9998" stroke="#000000" stroke-width="4.58333" stroke-miterlimit="8" fill="#FFFFFF"/><text font-family="DengXian,DengXian_MSFontService,sans-serif" font-weight="400" font-size="23" transform="matrix(1 0 0 1 1452.79 2538)">会计组</text><rect x="1386.5" y="2578.5" width="202" height="61.9998" stroke="#000000" stroke-width="4.58333" stroke-miterlimit="8" fill="#FFFFFF"/><text font-family="DengXian,DengXian_MSFontService,sans-serif" font-weight="400" font-size="23" transform="matrix(1 0 0 1 1452.79 2615)">工务组</text><rect x="1386.5" y="2655.5" width="202" height="61.9998" stroke="#000000" stroke-width="4.58333" stroke-miterlimit="8" fill="#FFFFFF"/><text font-family="DengXian,DengXian_MSFontService,sans-serif" font-weight="400" font-size="23" transform="matrix(1 0 0 1 1452.79 2692)">事务组</text><rect x="1386.5" y="2732.5" width="202" height="61.9998" stroke="#000000" stroke-width="4.58333" stroke-miterlimit="8" fill="#FFFFFF"/><text font-family="DengXian,DengXian_MSFontService,sans-serif" font-weight="400" font-size="23" transform="matrix(1 0 0 1 1452.79 2769)">印刷部</text><rect x="1628.5" y="2694.5" width="202" height="60.9998" stroke="#000000" stroke-width="4.58333" stroke-miterlimit="8" fill="#FFFFFF"/><text font-family="DengXian,DengXian_MSFontService,sans-serif" font-weight="400" font-size="23" transform="matrix(1 0 0 1 1695.03 2730)">印刷组</text><rect x="1628.5" y="2771.5" width="202" height="60.9998" stroke="#000000" stroke-width="4.58333" stroke-miterlimit="8" fill="#FFFFFF"/><text font-family="DengXian,DengXian_MSFontService,sans-serif" font-weight="400" font-size="23" transform="matrix(1 0 0 1 1695.03 2807)">售书组</text><rect x="902.5" y="2732.5" width="202" height="61.9998" stroke="#000000" stroke-width="4.58333" stroke-miterlimit="8" fill="#FFFFFF"/><text font-family="DengXian,DengXian_MSFontService,sans-serif" font-weight="400" font-size="23" transform="matrix(1 0 0 1 968.312 2769)">图书馆</text><rect x="1144.5" y="2694.5" width="202" height="60.9998" stroke="#000000" stroke-width="4.58333" stroke-miterlimit="8" fill="#FFFFFF"/><text font-family="DengXian,DengXian_MSFontService,sans-serif" font-weight="400" font-size="23" transform="matrix(1 0 0 1 1187.63 2730)">中文图书馆</text><rect x="1144.5" y="2771.5" width="202" height="60.9998" stroke="#000000" stroke-width="4.58333" stroke-miterlimit="8" fill="#FFFFFF"/><text font-family="DengXian,DengXian_MSFontService,sans-serif" font-weight="400" font-size="23" transform="matrix(1 0 0 1 1187.63 2807)">西文图书馆</text><rect x="902.5" y="2809.5" width="202" height="61.9998" stroke="#000000" stroke-width="4.58333" stroke-miterlimit="8" fill="#FFFFFF"/><text font-family="DengXian,DengXian_MSFontService,sans-serif" font-weight="400" font-size="23" transform="matrix(1 0 0 1 968.312 2846)">出版部</text><rect x="902.5" y="2886.5" width="202" height="61.9998" stroke="#000000" stroke-width="4.58333" stroke-miterlimit="8" fill="#FFFFFF"/><text font-family="DengXian,DengXian_MSFontService,sans-serif" font-weight="400" font-size="23" transform="matrix(1 0 0 1 911.021 2922)">东方人类学博物馆</text><rect x="902.5" y="2963.5" width="202" height="61.9998" stroke="#000000" stroke-width="4.58333" stroke-miterlimit="8" fill="#FFFFFF"/><text font-family="DengXian,DengXian_MSFontService,sans-serif" font-weight="400" font-size="23" transform="matrix(1 0 0 1 968.312 2999)">校医室</text></g></svg>