<?xml version="1.0" encoding="utf-8"?>
<!-- Generator: Adobe Illustrator 26.0.2, SVG Export Plug-In . SVG Version: 6.00 Build 0)  -->
<svg version="1.1" id="图层_1" xmlns="http://www.w3.org/2000/svg" viewBox="0 0 1903 3029" xml:space="preserve">
<style type="text/css">
	.st0{fill:none;stroke:#FFFFFF;stroke-width:3;stroke-miterlimit:8;}
	.st1{fill:#FFFFFF;font-family:'sans-serif';font-size:23px;}
</style>
    <path class="st0" d="M861.5,1514.5h20.2v1480.9h20.2"/>
    <path class="st0" d="M861.5,1514.5h20.2v1404h20.2"/>
    <path class="st0" d="M861.5,1514.5h20.2v1327.1h20.2"/>
    <path class="st0" d="M1104.5,2764.5h20.2v38.5h20.2"/>
    <path class="st0" d="M1104.5,2764h20.2v-38.5h20.2"/>
    <path class="st0" d="M861.5,1514.5h20.2v1250.1h20.2"/>
    <path class="st0" d="M1588.5,2764.5h20.2v38.5h20.2"/>
    <path class="st0" d="M1588.5,2764h20.2v-38.5h20.2"/>
    <path class="st0" d="M1346.5,2649.5h20.2v115.4h20.2"/>
    <path class="st0" d="M1346.5,2649.5h20.2v38.5h20.2"/>
    <path class="st0" d="M1346.5,2649h20.2v-38.5h20.2"/>
    <path class="st0" d="M1346.5,2648.9h20.2v-115.4h20.2"/>
    <path class="st0" d="M1104.5,2649h40.4"/>
    <path class="st0" d="M861.5,1514.5h20.2v1134.7h20.2"/>
    <path class="st0" d="M1346.5,2379.5h20.2v76.9h20.2"/>
    <path class="st0" d="M1346.5,2380h40.4"/>
    <path class="st0" d="M1346.5,2379.4h20.2v-76.9h20.2"/>
    <path class="st0" d="M1104.5,2341.5h20.2v38.5h20.2"/>
    <path class="st0" d="M1104.5,2341h20.2v-38.5h20.2"/>
    <path class="st0" d="M861.5,1514.5h20.2v827h20.2"/>
    <path class="st0" d="M1346.5,2149.5h20.2v76.9h20.2"/>
    <path class="st0" d="M1346.5,2149h40.4"/>
    <path class="st0" d="M1346.5,2149.4h20.2v-76.9h20.2"/>
    <path class="st0" d="M1104.5,2149h40.4"/>
    <path class="st0" d="M861.5,1514.5h20.2v634.7h20.2"/>
    <path class="st0" d="M1104.5,1995h40.4"/>
    <path class="st0" d="M861.5,1514.5h20.2v480.8h20.2"/>
    <path class="st0" d="M861.5,1514.5h20.2v403.9h20.2"/>
    <path class="st0" d="M861.5,1514.5h20.2v326.9h20.2"/>
    <path class="st0" d="M1104.5,1764h40.4"/>
    <path class="st0" d="M861.5,1514.5h20.2v250h20.2"/>
    <path class="st0" d="M1104.5,1533.5h20.2v153.9h20.2"/>
    <path class="st0" d="M1346.5,1610.5h20.2v38.5h20.2"/>
    <path class="st0" d="M1346.5,1611h20.2v-38.5h20.2"/>
    <path class="st0" d="M1104.5,1533.5h20.2v76.9h20.2"/>
    <path class="st0" d="M1346.5,1456.5h20.2v38.5h20.2"/>
    <path class="st0" d="M1346.5,1457h20.2v-38.5h20.2"/>
    <path class="st0" d="M1104.5,1533.4h20.2v-76.9h20.2"/>
    <path class="st0" d="M1104.5,1533.4h20.2v-153.9h20.2"/>
    <path class="st0" d="M861.5,1514h20.2v19.2h20.2"/>
    <path class="st0" d="M1346.5,1302.5h20.2v38.5h20.2"/>
    <path class="st0" d="M1346.5,1303h20.2v-38.5h20.2"/>
    <path class="st0" d="M1104.5,1225.5h20.2v76.9h20.2"/>
    <path class="st0" d="M1104.5,1226h40.4"/>
    <path class="st0" d="M1346.5,1148.5h20.2v38.5h20.2"/>
    <path class="st0" d="M1346.5,1149h20.2v-38.5h20.2"/>
    <path class="st0" d="M1104.5,1225.4h20.2v-76.9h20.2"/>
    <path class="st0" d="M861.5,1514h20.2v-288.5h20.2"/>
    <path class="st0" d="M1104.5,783.5h20.2v250h20.2"/>
    <path class="st0" d="M1104.5,783.5h20.2v173.1h20.2"/>
    <path class="st0" d="M1104.5,783.5h20.2v96.2h20.2"/>
    <path class="st0" d="M1104.5,784h20.2v19.2h20.2"/>
    <path class="st0" d="M1346.5,725.5h20.2v76.9h20.2"/>
    <path class="st0" d="M1346.5,726h40.4"/>
    <path class="st0" d="M1346.5,725.4h20.2v-76.9h20.2"/>
    <path class="st0" d="M1104.5,783.2h20.2v-57.7h20.2"/>
    <path class="st0" d="M1346.5,533.5h20.2V572h20.2"/>
    <path class="st0" d="M1346.5,534h20.2v-38.5h20.2"/>
    <path class="st0" d="M1104.5,783.5h20.2v-250h20.2"/>
    <path class="st0" d="M861.5,1514.3h20.2V783.5h20.2"/>
    <path class="st0" d="M1104.5,341.5h20.2v76.9h20.2"/>
    <path class="st0" d="M1104.5,341h40.4"/>
    <path class="st0" d="M1104.5,341.4h20.2v-76.9h20.2"/>
    <path class="st0" d="M861.5,1514.7h20.2V341.5h20.2"/>
    <path class="st0" d="M1104.5,110.5h20.2v76.9h20.2"/>
    <path class="st0" d="M1104.5,110h40.4"/>
    <path class="st0" d="M1104.5,110.4h20.2V33.5h20.2"/>
    <path class="st0" d="M861.5,1514.5h20.2v-1404h20.2"/>
    <path class="st0" d="M861.5,1514.4h20.2V33.5h20.2"/>
    <path class="st0" d="M619.5,1514h40.4"/>
    <path class="st0" d="M377.5,1514h40.4"/>
    <path class="st0" d="M135.5,1398.5h20.2v115.4h20.2"/>
    <path class="st0" d="M135.5,1398.5h20.2v38.5h20.2"/>
    <path class="st0" d="M135.5,1399h20.2v-38.5h20.2"/>
    <path class="st0" d="M135.5,1398.9h20.2v-115.4h20.2"/>
    <rect x="73.5" y="1236.5" class="st0" width="62" height="324"/>
    <text transform="matrix(-1.836970e-16 -1 1 -1.836970e-16 113.3689 1433.0635)" class="st1">董事会</text>
    <rect x="175.5" y="1252.5" class="st0" width="202" height="62"/>
    <text transform="matrix(1 0 0 1 230.14 1289)" class="st1">校务会议</text>
    <rect x="175.5" y="1329.5" class="st0" width="202" height="62"/>
    <text transform="matrix(1 0 0 1 230.14 1366)" class="st1">行政会议</text>
    <rect x="175.5" y="1406.5" class="st0" width="202" height="62"/>
    <text transform="matrix(1 0 0 1 230.14 1443)" class="st1">教务会议</text>
    <rect x="175.5" y="1483.5" class="st0" width="202" height="62"/>
    <text transform="matrix(1 0 0 1 190.036 1520)" class="st1">校长</text>
    <text transform="matrix(1 0 0 1 235.8693 1520)" class="st1">-</text>
    <text transform="matrix(1 0 0 1 243.5285 1520)" class="st1">校长办公室</text>
    <rect x="417.5" y="1483.5" class="st0" width="202" height="62"/>
    <text transform="matrix(1 0 0 1 420.815 1506)" class="st1">校务长</text>
    <text transform="matrix(1 0 0 1 489.565 1506)" class="st1">-</text>
    <text transform="matrix(1 0 0 1 501.0233 1506)" class="st1">校务长办公</text>
    <text transform="matrix(1 0 0 1 506.7525 1534)" class="st1">室</text>
    <rect x="660.5" y="1483.5" class="st0" width="201" height="62"/>
    <text transform="matrix(1 0 0 1 663.054 1506)" class="st1">秘书长</text>
    <text transform="matrix(1 0 0 1 731.804 1506)" class="st1">-</text>
    <text transform="matrix(1 0 0 1 743.2623 1506)" class="st1">秘书长办公</text>
    <text transform="matrix(1 0 0 1 748.9915 1534)" class="st1">室</text>
    <rect x="902.5" y="2.5" class="st0" width="202" height="62"/>
    <text transform="matrix(1 0 0 1 968.312 39)" class="st1">校友组</text>
    <rect x="902.5" y="79.5" class="st0" width="202" height="62"/>
    <text transform="matrix(1 0 0 1 945.396 116)" class="st1">文科研究所</text>
    <rect x="1144.5" y="2.5" class="st0" width="202" height="62"/>
    <text transform="matrix(1 0 0 1 1210.55 39)" class="st1">史学部</text>
    <rect x="1144.5" y="79.5" class="st0" width="202" height="62"/>
    <text transform="matrix(1 0 0 1 1199.09 116)" class="st1">人类学部</text>
    <rect x="1144.5" y="156.5" class="st0" width="202" height="62"/>
    <text transform="matrix(1 0 0 1 1199.09 192)" class="st1">经济学部</text>
    <rect x="902.5" y="310.5" class="st0" width="202" height="61"/>
    <text transform="matrix(1 0 0 1 945.396 346)" class="st1">理科研究所</text>
    <rect x="1144.5" y="233.5" class="st0" width="202" height="61"/>
    <text transform="matrix(1 0 0 1 1199.09 269)" class="st1">物理学部</text>
    <rect x="1144.5" y="310.5" class="st0" width="202" height="61"/>
    <text transform="matrix(1 0 0 1 1210.55 346)" class="st1">化学部</text>
    <rect x="1144.5" y="387.5" class="st0" width="202" height="61"/>
    <text transform="matrix(1 0 0 1 1199.09 423)" class="st1">生物学部</text>
    <rect x="902.5" y="752.5" class="st0" width="202" height="62"/>
    <text transform="matrix(1 0 0 1 968.312 789)" class="st1">文学院</text>
    <rect x="1144.5" y="502.5" class="st0" width="202" height="62"/>
    <text transform="matrix(1 0 0 1 1199.09 539)" class="st1">国文学系</text>
    <rect x="1386.5" y="464.5" class="st0" width="202" height="61"/>
    <text transform="matrix(1 0 0 1 1418.41 500)" class="st1">语言文字学组</text>
    <rect x="1386.5" y="541.5" class="st0" width="202" height="61"/>
    <text transform="matrix(1 0 0 1 1452.79 577)" class="st1">文学组</text>
    <rect x="1144.5" y="695.5" class="st0" width="202" height="61"/>
    <text transform="matrix(1 0 0 1 1164.72 731)" class="st1">西洋语言文学系</text>
    <rect x="1386.5" y="618.5" class="st0" width="202" height="61"/>
    <text transform="matrix(1 0 0 1 1452.79 654)" class="st1">英文组</text>
    <rect x="1386.5" y="695.5" class="st0" width="202" height="61"/>
    <text transform="matrix(1 0 0 1 1452.79 731)" class="st1">德文组</text>
    <rect x="1386.5" y="771.5" class="st0" width="202" height="62"/>
    <text transform="matrix(1 0 0 1 1452.79 808)" class="st1">法文组</text>
    <rect x="1144.5" y="771.5" class="st0" width="202" height="62"/>
    <text transform="matrix(1 0 0 1 1210.55 808)" class="st1">史学系</text>
    <rect x="1144.5" y="848.5" class="st0" width="202" height="62"/>
    <text transform="matrix(1 0 0 1 1199.09 885)" class="st1">社会学系</text>
    <rect x="1144.5" y="925.5" class="st0" width="202" height="62"/>
    <text transform="matrix(1 0 0 1 1199.09 962)" class="st1">经济学系</text>
    <rect x="1144.5" y="1002.5" class="st0" width="202" height="62"/>
    <text transform="matrix(1 0 0 1 1164.72 1025)" class="st1">日本语言文学系</text>
    <text transform="matrix(1 0 0 1 1163.4824 1053)" class="st1">（</text>
    <text transform="matrix(1 0 0 1 1186.3992 1053)" class="st1">1945</text>
    <text transform="matrix(1 0 0 1 1234.7074 1053)" class="st1">年撤销）</text>
    <rect x="902.5" y="1195.5" class="st0" width="202" height="61"/>
    <text transform="matrix(1 0 0 1 968.312 1231)" class="st1">理学院</text>
    <rect x="1144.5" y="1118.5" class="st0" width="202" height="61"/>
    <text transform="matrix(1 0 0 1 1199.09 1154)" class="st1">数理学系</text>
    <rect x="1386.5" y="1079.5" class="st0" width="202" height="62"/>
    <text transform="matrix(1 0 0 1 1452.79 1116)" class="st1">数学组</text>
    <rect x="1386.5" y="1156.5" class="st0" width="202" height="62"/>
    <text transform="matrix(1 0 0 1 1441.33 1193)" class="st1">物理学组</text>
    <rect x="1144.5" y="1195.5" class="st0" width="202" height="61"/>
    <text transform="matrix(1 0 0 1 1210.55 1231)" class="st1">化学系</text>
    <rect x="1144.5" y="1272.5" class="st0" width="202" height="61"/>
    <text transform="matrix(1 0 0 1 1199.09 1308)" class="st1">生物学系</text>
    <rect x="1386.5" y="1233.5" class="st0" width="202" height="62"/>
    <text transform="matrix(1 0 0 1 1441.33 1269)" class="st1">生物学组</text>
    <rect x="1386.5" y="1310.5" class="st0" width="202" height="62"/>
    <text transform="matrix(1 0 0 1 1452.79 1346)" class="st1">医预组</text>
    <rect x="902.5" y="1502.5" class="st0" width="202" height="62"/>
    <text transform="matrix(1 0 0 1 956.854 1539)" class="st1">教育学院</text>
    <rect x="1144.5" y="1348.5" class="st0" width="202" height="62"/>
    <text transform="matrix(1 0 0 1 1199.09 1385)" class="st1">教育学系</text>
    <rect x="1144.5" y="1425.5" class="st0" width="202" height="62"/>
    <text transform="matrix(1 0 0 1 1176.1801 1462)" class="st1">哲学心理学系</text>
    <rect x="1386.5" y="1387.5" class="st0" width="202" height="61"/>
    <text transform="matrix(1 0 0 1 1452.79 1423)" class="st1">哲学组</text>
    <rect x="1386.5" y="1464.5" class="st0" width="202" height="61"/>
    <text transform="matrix(1 0 0 1 1441.33 1500)" class="st1">心理学组</text>
    <rect x="1144.5" y="1579.5" class="st0" width="202" height="62"/>
    <text transform="matrix(1 0 0 1 1199.09 1616)" class="st1">美术学系</text>
    <rect x="1386.5" y="1541.5" class="st0" width="202" height="61"/>
    <text transform="matrix(1 0 0 1 1452.79 1577)" class="st1">国画组</text>
    <rect x="1386.5" y="1618.5" class="st0" width="202" height="61"/>
    <text transform="matrix(1 0 0 1 1452.79 1654)" class="st1">西画组</text>
    <rect x="1144.5" y="1656.5" class="st0" width="202" height="62"/>
    <text transform="matrix(1 0 0 1 1199.09 1693)" class="st1">家政学系</text>
    <rect x="902.5" y="1733.5" class="st0" width="202" height="62"/>
    <text transform="matrix(1 0 0 1 968.312 1770)" class="st1">农学院</text>
    <rect x="1144.5" y="1733.5" class="st0" width="202" height="62"/>
    <text transform="matrix(1 0 0 1 1152.02 1756)" class="st1">农学系（</text>
    <text transform="matrix(1 0 0 1 1243.6866 1756)" class="st1">1946</text>
    <text transform="matrix(1 0 0 1 1291.995 1756)" class="st1">年设</text>
    <text transform="matrix(1 0 0 1 1222.0074 1784)" class="st1">立）</text>
    <rect x="902.5" y="1810.5" class="st0" width="202" height="62"/>
    <text transform="matrix(1 0 0 1 899.562 1832)" class="st1">附属中学（男中部，</text>
    <text transform="matrix(1 0 0 1 953.5078 1860)" class="st1">女中部）</text>
    <rect x="902.5" y="1887.5" class="st0" width="202" height="61"/>
    <text transform="matrix(1 0 0 1 956.854 1923)" class="st1">附属小学</text>
    <rect x="902.5" y="1964.5" class="st0" width="202" height="61"/>
    <text transform="matrix(1 0 0 1 945.396 2000)" class="st1">附属幼稚园</text>
    <rect x="1144.5" y="1964.5" class="st0" width="202" height="61"/>
    <text transform="matrix(1 0 0 1 1187.63 2000)" class="st1">附属托儿所</text>
    <rect x="902.5" y="2118.5" class="st0" width="202" height="61"/>
    <text transform="matrix(1 0 0 1 968.312 2154)" class="st1">教务长</text>
    <rect x="1144.5" y="2118.5" class="st0" width="202" height="61"/>
    <text transform="matrix(1 0 0 1 1210.55 2154)" class="st1">教务处</text>
    <rect x="1386.5" y="2041.5" class="st0" width="202" height="61"/>
    <text transform="matrix(1 0 0 1 1452.79 2077)" class="st1">教务组</text>
    <rect x="1386.5" y="2118.5" class="st0" width="202" height="61"/>
    <text transform="matrix(1 0 0 1 1452.79 2154)" class="st1">注册组</text>
    <rect x="1386.5" y="2195.5" class="st0" width="202" height="61"/>
    <text transform="matrix(1 0 0 1 1452.79 2231)" class="st1">文书组</text>
    <rect x="902.5" y="2310.5" class="st0" width="202" height="62"/>
    <text transform="matrix(1 0 0 1 968.312 2347)" class="st1">训导长</text>
    <rect x="1144.5" y="2272.5" class="st0" width="202" height="61"/>
    <text transform="matrix(1 0 0 1 1153.26 2294)" class="st1">副训导长（女部主</text>
    <text transform="matrix(1 0 0 1 1222.01 2322)" class="st1">任）</text>
    <rect x="1144.5" y="2349.5" class="st0" width="202" height="61"/>
    <text transform="matrix(1 0 0 1 1210.55 2385)" class="st1">训导处</text>
    <rect x="1386.5" y="2272.5" class="st0" width="202" height="61"/>
    <text transform="matrix(1 0 0 1 1452.79 2308)" class="st1">训育组</text>
    <rect x="1386.5" y="2349.5" class="st0" width="202" height="61"/>
    <text transform="matrix(1 0 0 1 1452.79 2385)" class="st1">斋务组</text>
    <rect x="1386.5" y="2425.5" class="st0" width="202" height="62"/>
    <text transform="matrix(1 0 0 1 1452.79 2462)" class="st1">体育组</text>
    <rect x="902.5" y="2618.5" class="st0" width="202" height="61"/>
    <text transform="matrix(1 0 0 1 968.312 2654)" class="st1">事务长</text>
    <rect x="1144.5" y="2618.5" class="st0" width="202" height="61"/>
    <text transform="matrix(1 0 0 1 1210.55 2654)" class="st1">总务处</text>
    <rect x="1386.5" y="2502.5" class="st0" width="202" height="62"/>
    <text transform="matrix(1 0 0 1 1452.79 2539)" class="st1">会计组</text>
    <rect x="1386.5" y="2579.5" class="st0" width="202" height="62"/>
    <text transform="matrix(1 0 0 1 1452.79 2616)" class="st1">工务组</text>
    <rect x="1386.5" y="2656.5" class="st0" width="202" height="62"/>
    <text transform="matrix(1 0 0 1 1452.79 2693)" class="st1">事务组</text>
    <rect x="1386.5" y="2733.5" class="st0" width="202" height="62"/>
    <text transform="matrix(1 0 0 1 1452.79 2770)" class="st1">印刷部</text>
    <rect x="1628.5" y="2695.5" class="st0" width="202" height="61"/>
    <text transform="matrix(1 0 0 1 1695.03 2731)" class="st1">印刷组</text>
    <rect x="1628.5" y="2772.5" class="st0" width="202" height="61"/>
    <text transform="matrix(1 0 0 1 1695.03 2808)" class="st1">售书组</text>
    <rect x="902.5" y="2733.5" class="st0" width="202" height="62"/>
    <text transform="matrix(1 0 0 1 968.312 2770)" class="st1">图书馆</text>
    <rect x="1144.5" y="2695.5" class="st0" width="202" height="61"/>
    <text transform="matrix(1 0 0 1 1187.63 2731)" class="st1">中文图书馆</text>
    <rect x="1144.5" y="2772.5" class="st0" width="202" height="61"/>
    <text transform="matrix(1 0 0 1 1187.63 2808)" class="st1">西文图书馆</text>
    <rect x="902.5" y="2810.5" class="st0" width="202" height="62"/>
    <text transform="matrix(1 0 0 1 968.312 2847)" class="st1">出版部</text>
    <rect x="902.5" y="2887.5" class="st0" width="202" height="62"/>
    <text transform="matrix(1 0 0 1 911.021 2923)" class="st1">东方人类学博物馆</text>
    <rect x="902.5" y="2964.5" class="st0" width="202" height="62"/>
    <text transform="matrix(1 0 0 1 968.312 3000)" class="st1">校医室</text>
</svg>
