<?xml version="1.0" encoding="utf-8"?>
<!-- Generator: Adobe Illustrator 26.0.2, SVG Export Plug-In . SVG Version: 6.00 Build 0)  -->
<svg version="1.1" id="图层_1" xmlns="http://www.w3.org/2000/svg" viewBox="0 0 1927 2932" xml:space="preserve">
<style type="text/css">
	.st0{fill:none;stroke:#FFFFFF;stroke-width:3;stroke-miterlimit:8;}
	.st1{fill:#FFFFFF;font-family:'sans-serif';font-size:32px;}
	.st4{enable-background:new;}
</style>
    <path class="st0" d="M477.5,1466.5h30.2v976.9h30.2"/>
    <path class="st0" d="M477.5,1466.5h30.2v862h30.2"/>
    <path class="st0" d="M839.5,2214h60.3"/>
    <path class="st0" d="M477.5,1466.5h30.2v747.1h30.2"/>
    <path class="st0" d="M1563.5,2099h60.3"/>
    <path class="st0" d="M1201.5,2099h60.3"/>
    <path class="st0" d="M839.5,2099h60.3"/>
    <path class="st0" d="M477.5,1466.5h30.2v632.1h30.2"/>
    <path class="st0" d="M839.5,1868.5h30.2v114.9h30.2"/>
    <path class="st0" d="M839.5,1869h60.3"/>
    <path class="st0" d="M839.5,1868.4h30.2v-114.9h30.2"/>
    <path class="st0" d="M477.5,1466.5h30.2v402.3h30.2"/>
    <path class="st0" d="M839.5,1409.5h30.2v229.9h30.2"/>
    <path class="st0" d="M839.5,1409.5h30.2v114.9h30.2"/>
    <path class="st0" d="M839.5,1409h60.3"/>
    <path class="st0" d="M839.5,1409.4h30.2v-114.9h30.2"/>
    <path class="st0" d="M839.5,1409.4h30.2v-229.9h30.2"/>
    <path class="st0" d="M477.5,1467h30.2v-57.5h30.2"/>
    <path class="st0" d="M1201.5,1064.5h30.2v57.5h30.2"/>
    <path class="st0" d="M1201.5,1064h30.2v-57.5h30.2"/>
    <path class="st0" d="M839.5,834.5h30.2v229.9h30.2"/>
    <path class="st0" d="M839.5,834.5h30.2v114.9h30.2"/>
    <path class="st0" d="M839.5,834h60.3"/>
    <path class="st0" d="M839.5,834.4h30.2V719.5h30.2"/>
    <path class="st0" d="M839.5,834.4h30.2V604.5h30.2"/>
    <path class="st0" d="M477.5,1466.6h30.2V834.5h30.2"/>
    <path class="st0" d="M477.5,1466.6h30.2V719.5h30.2"/>
    <path class="st0" d="M477.5,1466.5h30.2v-862h30.2"/>
    <path class="st0" d="M477.5,1466.4h30.2V489.5h30.2"/>
    <path class="st0" d="M115.5,1409.5h30.2v57.5h30.2"/>
    <path class="st0" d="M115.5,1409h30.2v-57.5h30.2"/>
    <rect x="23.5" y="1167.5" class="st0" width="92" height="484"/>
    <g>
	<text transform="matrix(-1.836970e-16 -1 1 -1.836970e-16 79.7013 1491.3828)" class="st1">中央教育部</text>
</g>
    <rect x="175.5" y="1305.5" class="st0" width="302" height="92"/>
    <text transform="matrix(1 0 0 1 245.854 1359)" class="st1">中共党支部</text>
    <rect x="175.5" y="1420.5" class="st0" width="302" height="92"/>
    <text transform="matrix(1 0 0 1 293.979 1474)" class="st1">校长</text>
    <rect x="537.5" y="443.5" class="st0" width="302" height="92"/>
    <text transform="matrix(1 0 0 1 639.836 497)" class="st1">秘书长</text>
    <rect x="537.5" y="558.5" class="st0" width="302" height="92"/>
    <text transform="matrix(1 0 0 1 607.753 612)" class="st1">教务委员会</text>
    <rect x="537.5" y="673.5" class="st0" width="302" height="92"/>
    <text transform="matrix(1 0 0 1 607.753 727)" class="st1">工务委员会</text>
    <rect x="537.5" y="788.5" class="st0" width="302" height="92"/>
    <text transform="matrix(1 0 0 1 639.836 842)" class="st1">文学院</text>
    <rect x="899.5" y="558.5" class="st0" width="302" height="92"/>
    <text transform="matrix(1 0 0 1 985.693 612)" class="st1">中文学系</text>
    <rect x="899.5" y="673.5" class="st0" width="302" height="92"/>
    <text transform="matrix(1 0 0 1 1001.735 727)" class="st1">史学系</text>
    <rect x="899.5" y="788.5" class="st0" width="302" height="92"/>
    <text transform="matrix(1 0 0 1 985.693 842)" class="st1">外文学系</text>
    <rect x="899.5" y="903.5" class="st0" width="302" height="92"/>
    <text transform="matrix(1 0 0 1 985.693 957)" class="st1">社会学系</text>
    <rect x="899.5" y="1018.5" class="st0" width="302" height="92"/>
    <text transform="matrix(1 0 0 1 985.693 1072)" class="st1">经济学系</text>
    <rect x="1261.5" y="960.5" class="st0" width="302" height="92"/>
    <text transform="matrix(1 0 0 1 1331.55 1014)" class="st1">贸易专修科</text>
    <rect x="1261.5" y="1075.5" class="st0" width="302" height="92"/>
    <text transform="matrix(1 0 0 1 1331.55 1129)" class="st1">保险专修科</text>
    <rect x="537.5" y="1363.5" class="st0" width="302" height="92"/>
    <text transform="matrix(1 0 0 1 639.836 1417)" class="st1">理学院</text>
    <rect x="899.5" y="1133.5" class="st0" width="302" height="92"/>
    <text transform="matrix(1 0 0 1 1001.735 1187)" class="st1">数学系</text>
    <rect x="899.5" y="1248.5" class="st0" width="302" height="92"/>
    <text transform="matrix(1 0 0 1 985.693 1302)" class="st1">物理学系</text>
    <rect x="899.5" y="1363.5" class="st0" width="302" height="92"/>
    <text transform="matrix(1 0 0 1 1001.735 1417)" class="st1">化学系</text>
    <rect x="899.5" y="1478.5" class="st0" width="302" height="92"/>
    <text transform="matrix(1 0 0 1 985.693 1531)" class="st1">生物学系</text>
    <rect x="899.5" y="1593.5" class="st0" width="302" height="91"/>
    <text transform="matrix(1 0 0 1 910.022 1627)" class="st4">
        <tspan x="0" y="0" class="st1">医预科（</tspan>
        <tspan x="128" y="0" class="st1">1949</tspan>
    </text>
    <text transform="matrix(1 0 0 1 1106.005 1627)" class="st1">-</text>
    <text transform="matrix(1 0 0 1 1122.047 1627)" class="st1">1950</text>
    <text transform="matrix(1 0 0 1 1001.7345 1666)" class="st1">设立）</text>
    <rect x="537.5" y="1822.5" class="st0" width="302" height="92"/>
    <text transform="matrix(1 0 0 1 623.795 1876)" class="st1">教育学院</text>
    <rect x="899.5" y="1707.5" class="st0" width="302" height="92"/>
    <text transform="matrix(1 0 0 1 985.693 1761)" class="st1">教育学系</text>
    <rect x="899.5" y="1822.5" class="st0" width="302" height="92"/>
    <text transform="matrix(1 0 0 1 1001.735 1876)" class="st1">哲学系</text>
    <rect x="899.5" y="1937.5" class="st0" width="302" height="92"/>
    <text transform="matrix(1 0 0 1 985.693 1991)" class="st1">心理学系</text>
    <rect x="537.5" y="2052.5" class="st0" width="302" height="92"/>
    <text transform="matrix(1 0 0 1 623.795 2106)" class="st1">附属中学</text>
    <rect x="899.5" y="2052.5" class="st0" width="302" height="92"/>
    <text transform="matrix(1 0 0 1 985.693 2106)" class="st1">附属小学</text>
    <rect x="1261.5" y="2052.5" class="st0" width="302" height="92"/>
    <text transform="matrix(1 0 0 1 1331.55 2106)" class="st1">附属幼稚园</text>
    <rect x="1623.5" y="2052.5" class="st0" width="301" height="92"/>
    <text transform="matrix(1 0 0 1 1693.45 2106)" class="st1">附属托儿所</text>
    <rect x="537.5" y="2167.5" class="st0" width="302" height="92"/>
    <text transform="matrix(1 0 0 1 639.836 2221)" class="st1">教务长</text>
    <rect x="899.5" y="2167.5" class="st0" width="302" height="92"/>
    <text transform="matrix(1 0 0 1 985.693 2221)" class="st1">副教务长</text>
    <rect x="537.5" y="2282.5" class="st0" width="302" height="92"/>
    <text transform="matrix(1 0 0 1 639.836 2336)" class="st1">总务长</text>
    <rect x="537.5" y="2397.5" class="st0" width="302" height="92"/>
    <text transform="matrix(1 0 0 1 607.753 2451)" class="st1">图书馆馆长</text>
</svg>
