<svg width="1927" height="2932" xmlns="http://www.w3.org/2000/svg" xmlns:xlink="http://www.w3.org/1999/xlink" xml:space="preserve" overflow="hidden"><defs><clipPath id="clip0"><rect x="-22" y="0" width="1927" height="2932"/></clipPath></defs><g clip-path="url(#clip0)" transform="translate(22 0)"><path d="M455.5 1466.5 485.658 1466.5 485.658 2443.42 515.816 2443.42" stroke="#000000" stroke-width="4.58333" stroke-miterlimit="8" fill="none" fill-rule="evenodd"/><path d="M455.5 1466.5 485.658 1466.5 485.658 2328.49 515.816 2328.49" stroke="#000000" stroke-width="4.58333" stroke-miterlimit="8" fill="none" fill-rule="evenodd"/><path d="M817.5 2214 877.816 2214" stroke="#000000" stroke-width="4.58333" stroke-miterlimit="8" fill="none" fill-rule="evenodd"/><path d="M455.5 1466.5 485.658 1466.5 485.658 2213.56 515.816 2213.56" stroke="#000000" stroke-width="4.58333" stroke-miterlimit="8" fill="none" fill-rule="evenodd"/><path d="M1541.5 2099 1601.82 2099" stroke="#000000" stroke-width="4.58333" stroke-miterlimit="8" fill="none" fill-rule="evenodd"/><path d="M1179.5 2099 1239.82 2099" stroke="#000000" stroke-width="4.58333" stroke-miterlimit="8" fill="none" fill-rule="evenodd"/><path d="M817.5 2099 877.816 2099" stroke="#000000" stroke-width="4.58333" stroke-miterlimit="8" fill="none" fill-rule="evenodd"/><path d="M455.5 1466.5 485.658 1466.5 485.658 2098.63 515.816 2098.63" stroke="#000000" stroke-width="4.58333" stroke-miterlimit="8" fill="none" fill-rule="evenodd"/><path d="M817.5 1868.5 847.658 1868.5 847.658 1983.43 877.816 1983.43" stroke="#000000" stroke-width="4.58333" stroke-miterlimit="8" fill="none" fill-rule="evenodd"/><path d="M817.5 1869 877.816 1869" stroke="#000000" stroke-width="4.58333" stroke-miterlimit="8" fill="none" fill-rule="evenodd"/><path d="M817.5 1868.43 847.658 1868.43 847.658 1753.5 877.816 1753.5" stroke="#000000" stroke-width="4.58333" stroke-miterlimit="8" fill="none" fill-rule="evenodd"/><path d="M455.5 1466.5 485.658 1466.5 485.658 1868.76 515.816 1868.76" stroke="#000000" stroke-width="4.58333" stroke-miterlimit="8" fill="none" fill-rule="evenodd"/><path d="M817.5 1409.5 847.658 1409.5 847.658 1639.36 877.816 1639.36" stroke="#000000" stroke-width="4.58333" stroke-miterlimit="8" fill="none" fill-rule="evenodd"/><path d="M817.5 1409.5 847.658 1409.5 847.658 1524.43 877.816 1524.43" stroke="#000000" stroke-width="4.58333" stroke-miterlimit="8" fill="none" fill-rule="evenodd"/><path d="M817.5 1409 877.816 1409" stroke="#000000" stroke-width="4.58333" stroke-miterlimit="8" fill="none" fill-rule="evenodd"/><path d="M817.5 1409.43 847.658 1409.43 847.658 1294.5 877.816 1294.5" stroke="#000000" stroke-width="4.58333" stroke-miterlimit="8" fill="none" fill-rule="evenodd"/><path d="M817.5 1409.36 847.658 1409.36 847.658 1179.5 877.816 1179.5" stroke="#000000" stroke-width="4.58333" stroke-miterlimit="8" fill="none" fill-rule="evenodd"/><path d="M455.5 1466.97 485.658 1466.97 485.658 1409.5 515.816 1409.5" stroke="#000000" stroke-width="4.58333" stroke-miterlimit="8" fill="none" fill-rule="evenodd"/><path d="M1179.5 1064.5 1209.66 1064.5 1209.66 1121.97 1239.82 1121.97" stroke="#000000" stroke-width="4.58333" stroke-miterlimit="8" fill="none" fill-rule="evenodd"/><path d="M1179.5 1063.97 1209.66 1063.97 1209.66 1006.5 1239.82 1006.5" stroke="#000000" stroke-width="4.58333" stroke-miterlimit="8" fill="none" fill-rule="evenodd"/><path d="M817.5 834.5 847.658 834.5 847.658 1064.36 877.816 1064.36" stroke="#000000" stroke-width="4.58333" stroke-miterlimit="8" fill="none" fill-rule="evenodd"/><path d="M817.5 834.5 847.658 834.5 847.658 949.432 877.816 949.432" stroke="#000000" stroke-width="4.58333" stroke-miterlimit="8" fill="none" fill-rule="evenodd"/><path d="M817.5 834 877.816 834" stroke="#000000" stroke-width="4.58333" stroke-miterlimit="8" fill="none" fill-rule="evenodd"/><path d="M817.5 834.432 847.658 834.432 847.658 719.5 877.816 719.5" stroke="#000000" stroke-width="4.58333" stroke-miterlimit="8" fill="none" fill-rule="evenodd"/><path d="M817.5 834.364 847.658 834.364 847.658 604.5 877.816 604.5" stroke="#000000" stroke-width="4.58333" stroke-miterlimit="8" fill="none" fill-rule="evenodd"/><path d="M455.5 1466.63 485.658 1466.63 485.658 834.5 515.816 834.5" stroke="#000000" stroke-width="4.58333" stroke-miterlimit="8" fill="none" fill-rule="evenodd"/><path d="M455.5 1466.56 485.658 1466.56 485.658 719.5 515.816 719.5" stroke="#000000" stroke-width="4.58333" stroke-miterlimit="8" fill="none" fill-rule="evenodd"/><path d="M455.5 1466.49 485.658 1466.49 485.658 604.5 515.816 604.5" stroke="#000000" stroke-width="4.58333" stroke-miterlimit="8" fill="none" fill-rule="evenodd"/><path d="M455.5 1466.42 485.658 1466.42 485.658 489.5 515.816 489.5" stroke="#000000" stroke-width="4.58333" stroke-miterlimit="8" fill="none" fill-rule="evenodd"/><path d="M93.5 1409.5 123.658 1409.5 123.658 1466.97 153.816 1466.97" stroke="#000000" stroke-width="4.58333" stroke-miterlimit="8" fill="none" fill-rule="evenodd"/><path d="M93.5 1408.97 123.658 1408.97 123.658 1351.5 153.816 1351.5" stroke="#000000" stroke-width="4.58333" stroke-miterlimit="8" fill="none" fill-rule="evenodd"/><rect x="1.49987" y="1167.5" width="92.0001" height="484" stroke="#000000" stroke-width="4.58333" stroke-miterlimit="8" fill="#FFFFFF"/><text font-family="DengXian,DengXian_MSFontService,sans-serif" font-weight="400" font-size="64" transform="matrix(-1.83697e-16 -1 1 -1.83697e-16 61.7864 1569)">中央教育部</text><rect x="153.5" y="1305.5" width="302" height="91.9998" stroke="#000000" stroke-width="4.58333" stroke-miterlimit="8" fill="#FFFFFF"/><text font-family="DengXian,DengXian_MSFontService,sans-serif" font-weight="400" font-size="32" transform="matrix(1 0 0 1 223.854 1359)">中共党支部</text><rect x="153.5" y="1420.5" width="302" height="92.0001" stroke="#000000" stroke-width="4.58333" stroke-miterlimit="8" fill="#FFFFFF"/><text font-family="DengXian,DengXian_MSFontService,sans-serif" font-weight="400" font-size="32" transform="matrix(1 0 0 1 271.979 1474)">校长</text><rect x="515.5" y="443.5" width="302" height="92.0001" stroke="#000000" stroke-width="4.58333" stroke-miterlimit="8" fill="#FFFFFF"/><text font-family="DengXian,DengXian_MSFontService,sans-serif" font-weight="400" font-size="32" transform="matrix(1 0 0 1 617.836 497)">秘书长</text><rect x="515.5" y="558.5" width="302" height="91.9998" stroke="#000000" stroke-width="4.58333" stroke-miterlimit="8" fill="#FFFFFF"/><text font-family="DengXian,DengXian_MSFontService,sans-serif" font-weight="400" font-size="32" transform="matrix(1 0 0 1 585.753 612)">教务委员会</text><rect x="515.5" y="673.5" width="302" height="92.0001" stroke="#000000" stroke-width="4.58333" stroke-miterlimit="8" fill="#FFFFFF"/><text font-family="DengXian,DengXian_MSFontService,sans-serif" font-weight="400" font-size="32" transform="matrix(1 0 0 1 585.753 727)">工务委员会</text><rect x="515.5" y="788.5" width="302" height="91.9998" stroke="#000000" stroke-width="4.58333" stroke-miterlimit="8" fill="#FFFFFF"/><text font-family="DengXian,DengXian_MSFontService,sans-serif" font-weight="400" font-size="32" transform="matrix(1 0 0 1 617.836 842)">文学院</text><rect x="877.5" y="558.5" width="302" height="91.9998" stroke="#000000" stroke-width="4.58333" stroke-miterlimit="8" fill="#FFFFFF"/><text font-family="DengXian,DengXian_MSFontService,sans-serif" font-weight="400" font-size="32" transform="matrix(1 0 0 1 963.693 612)">中文学系</text><rect x="877.5" y="673.5" width="302" height="92.0001" stroke="#000000" stroke-width="4.58333" stroke-miterlimit="8" fill="#FFFFFF"/><text font-family="DengXian,DengXian_MSFontService,sans-serif" font-weight="400" font-size="32" transform="matrix(1 0 0 1 979.735 727)">史学系</text><rect x="877.5" y="788.5" width="302" height="91.9998" stroke="#000000" stroke-width="4.58333" stroke-miterlimit="8" fill="#FFFFFF"/><text font-family="DengXian,DengXian_MSFontService,sans-serif" font-weight="400" font-size="32" transform="matrix(1 0 0 1 963.693 842)">外文学系</text><rect x="877.5" y="903.5" width="302" height="92.0001" stroke="#000000" stroke-width="4.58333" stroke-miterlimit="8" fill="#FFFFFF"/><text font-family="DengXian,DengXian_MSFontService,sans-serif" font-weight="400" font-size="32" transform="matrix(1 0 0 1 963.693 957)">社会学系</text><rect x="877.5" y="1018.5" width="302" height="92.0002" stroke="#000000" stroke-width="4.58333" stroke-miterlimit="8" fill="#FFFFFF"/><text font-family="DengXian,DengXian_MSFontService,sans-serif" font-weight="400" font-size="32" transform="matrix(1 0 0 1 963.693 1072)">经济学系</text><rect x="1239.5" y="960.5" width="302" height="92.0002" stroke="#000000" stroke-width="4.58333" stroke-miterlimit="8" fill="#FFFFFF"/><text font-family="DengXian,DengXian_MSFontService,sans-serif" font-weight="400" font-size="32" transform="matrix(1 0 0 1 1309.55 1014)">贸易专修科</text><rect x="1239.5" y="1075.5" width="302" height="91.9998" stroke="#000000" stroke-width="4.58333" stroke-miterlimit="8" fill="#FFFFFF"/><text font-family="DengXian,DengXian_MSFontService,sans-serif" font-weight="400" font-size="32" transform="matrix(1 0 0 1 1309.55 1129)">保险专修科</text><rect x="515.5" y="1363.5" width="302" height="91.9998" stroke="#000000" stroke-width="4.58333" stroke-miterlimit="8" fill="#FFFFFF"/><text font-family="DengXian,DengXian_MSFontService,sans-serif" font-weight="400" font-size="32" transform="matrix(1 0 0 1 617.836 1417)">理学院</text><rect x="877.5" y="1133.5" width="302" height="92.0001" stroke="#000000" stroke-width="4.58333" stroke-miterlimit="8" fill="#FFFFFF"/><text font-family="DengXian,DengXian_MSFontService,sans-serif" font-weight="400" font-size="32" transform="matrix(1 0 0 1 979.735 1187)">数学系</text><rect x="877.5" y="1248.5" width="302" height="92.0001" stroke="#000000" stroke-width="4.58333" stroke-miterlimit="8" fill="#FFFFFF"/><text font-family="DengXian,DengXian_MSFontService,sans-serif" font-weight="400" font-size="32" transform="matrix(1 0 0 1 963.693 1302)">物理学系</text><rect x="877.5" y="1363.5" width="302" height="91.9998" stroke="#000000" stroke-width="4.58333" stroke-miterlimit="8" fill="#FFFFFF"/><text font-family="DengXian,DengXian_MSFontService,sans-serif" font-weight="400" font-size="32" transform="matrix(1 0 0 1 979.735 1417)">化学系</text><rect x="877.5" y="1478.5" width="302" height="92.0001" stroke="#000000" stroke-width="4.58333" stroke-miterlimit="8" fill="#FFFFFF"/><text font-family="DengXian,DengXian_MSFontService,sans-serif" font-weight="400" font-size="32" transform="matrix(1 0 0 1 963.693 1531)">生物学系</text><rect x="877.5" y="1593.5" width="302" height="90.9998" stroke="#000000" stroke-width="4.58333" stroke-miterlimit="8" fill="#FFFFFF"/><text font-family="DengXian,DengXian_MSFontService,sans-serif" font-weight="400" font-size="32" transform="matrix(1 0 0 1 888.022 1627)">医预科（1949<tspan font-size="32" x="195.983" y="0">-</tspan><tspan font-size="32" x="212.025" y="0">1950</tspan><tspan font-size="32" x="91.7125" y="39">设立）</tspan></text><rect x="515.5" y="1822.5" width="302" height="91.9998" stroke="#000000" stroke-width="4.58333" stroke-miterlimit="8" fill="#FFFFFF"/><text font-family="DengXian,DengXian_MSFontService,sans-serif" font-weight="400" font-size="32" transform="matrix(1 0 0 1 601.795 1876)">教育学院</text><rect x="877.5" y="1707.5" width="302" height="92.0001" stroke="#000000" stroke-width="4.58333" stroke-miterlimit="8" fill="#FFFFFF"/><text font-family="DengXian,DengXian_MSFontService,sans-serif" font-weight="400" font-size="32" transform="matrix(1 0 0 1 963.693 1761)">教育学系</text><rect x="877.5" y="1822.5" width="302" height="91.9998" stroke="#000000" stroke-width="4.58333" stroke-miterlimit="8" fill="#FFFFFF"/><text font-family="DengXian,DengXian_MSFontService,sans-serif" font-weight="400" font-size="32" transform="matrix(1 0 0 1 979.735 1876)">哲学系</text><rect x="877.5" y="1937.5" width="302" height="92.0001" stroke="#000000" stroke-width="4.58333" stroke-miterlimit="8" fill="#FFFFFF"/><text font-family="DengXian,DengXian_MSFontService,sans-serif" font-weight="400" font-size="32" transform="matrix(1 0 0 1 963.693 1991)">心理学系</text><rect x="515.5" y="2052.5" width="302" height="92.0002" stroke="#000000" stroke-width="4.58333" stroke-miterlimit="8" fill="#FFFFFF"/><text font-family="DengXian,DengXian_MSFontService,sans-serif" font-weight="400" font-size="32" transform="matrix(1 0 0 1 601.795 2106)">附属中学</text><rect x="877.5" y="2052.5" width="302" height="92.0002" stroke="#000000" stroke-width="4.58333" stroke-miterlimit="8" fill="#FFFFFF"/><text font-family="DengXian,DengXian_MSFontService,sans-serif" font-weight="400" font-size="32" transform="matrix(1 0 0 1 963.693 2106)">附属小学</text><rect x="1239.5" y="2052.5" width="302" height="92.0002" stroke="#000000" stroke-width="4.58333" stroke-miterlimit="8" fill="#FFFFFF"/><text font-family="DengXian,DengXian_MSFontService,sans-serif" font-weight="400" font-size="32" transform="matrix(1 0 0 1 1309.55 2106)">附属幼稚园</text><rect x="1601.5" y="2052.5" width="301" height="92.0002" stroke="#000000" stroke-width="4.58333" stroke-miterlimit="8" fill="#FFFFFF"/><text font-family="DengXian,DengXian_MSFontService,sans-serif" font-weight="400" font-size="32" transform="matrix(1 0 0 1 1671.45 2106)">附属托儿所</text><rect x="515.5" y="2167.5" width="302" height="92.0002" stroke="#000000" stroke-width="4.58333" stroke-miterlimit="8" fill="#FFFFFF"/><text font-family="DengXian,DengXian_MSFontService,sans-serif" font-weight="400" font-size="32" transform="matrix(1 0 0 1 617.836 2221)">教务长</text><rect x="877.5" y="2167.5" width="302" height="92.0002" stroke="#000000" stroke-width="4.58333" stroke-miterlimit="8" fill="#FFFFFF"/><text font-family="DengXian,DengXian_MSFontService,sans-serif" font-weight="400" font-size="32" transform="matrix(1 0 0 1 963.693 2221)">副教务长</text><rect x="515.5" y="2282.5" width="302" height="92.0002" stroke="#000000" stroke-width="4.58333" stroke-miterlimit="8" fill="#FFFFFF"/><text font-family="DengXian,DengXian_MSFontService,sans-serif" font-weight="400" font-size="32" transform="matrix(1 0 0 1 617.836 2336)">总务长</text><rect x="515.5" y="2397.5" width="302" height="91.9998" stroke="#000000" stroke-width="4.58333" stroke-miterlimit="8" fill="#FFFFFF"/><text font-family="DengXian,DengXian_MSFontService,sans-serif" font-weight="400" font-size="32" transform="matrix(1 0 0 1 585.753 2451)">图书馆馆长</text></g></svg>