<svg version="1.2" baseProfile="tiny" xmlns="http://www.w3.org/2000/svg" viewBox="0 0 512 512" xml:space="preserve">
<path fill="#808080" d="M318.1,24.2C190.1-10.1,58.5,65.9,24.2,193.9s41.7,259.6,169.7,293.9s259.6-41.7,293.9-169.7
	S446.1,58.5,318.1,24.2z M163.3,231.2c-13.7,51.2-35.2,89.9-48,86.5c-12.8-3.4-12.1-47.7,1.7-98.9c13.7-51.2,35.2-89.9,48-86.5
	C177.7,135.6,177,179.9,163.3,231.2z M302.4,268.4c-27.4,102.4-70.5,179.9-96.1,173s-24.1-95.5,3.3-197.9s70.5-179.9,96.1-173
	S329.8,166,302.4,268.4z M395.1,293.3c-13.7,51.2-35.2,89.9-48,86.5c-12.8-3.4-12.1-47.7,1.7-98.9s35.2-89.9,48-86.5
	C409.6,197.8,408.8,242.1,395.1,293.3z"/>
</svg>
