<?xml version="1.0" encoding="utf-8"?>
<!-- Generator: Adobe Illustrator 26.0.2, SVG Export Plug-In . SVG Version: 6.00 Build 0)  -->
<svg version="1.1" xmlns="http://www.w3.org/2000/svg" viewBox="0 0 128 128"
     style="enable-background:new 0 0 128 128;" xml:space="preserve">
<style type="text/css">
	.white{fill:#FFFFFF;}
	.red{fill:#AF1E24;}
</style>
    <g>
		<path class="white" d="M86.5,102.4L86.5,102.4l0.2,0.3C86.7,102.5,86.7,102.5,86.5,102.4z"/>
        <path class="white" d="M85.1,100.6l0.1,0.1c0-0.1,0.1-0.1,0.1-0.1L85.1,100.6C85.1,100.6,85.1,100.6,85.1,100.6z"/>
        <path class="white" d="M90.2,99.6v0.1C90.2,99.7,90.3,99.7,90.2,99.6L90.2,99.6z"/>
        <path class="red" d="M101.8,97.6c0,0.1,0.1,0.2,0.2,0.3c0.1,0.3,0.1,0.7,0.2,1.1c0,0.3,0,0.5,0.1,0.8c0.1,0.3,0.1,0.5,0.2,0.8
			c0,0.2,0.3,0.5,0.3,0.7s0,0.6,0.1,0.8c0.1,0.2,0.2,0.5,0.3,0.7c0,0.3,0.1,0.6,0.2,1c0.1,0.3,0.1,0.6,0.2,0.9
			c0.1,0.6,0.2,1.2,0.2,1.8c0,0.4,0.2,0.7,0.2,1c0,0.4,0,0.8,0,1.2c0.2,0.9,0.3,1.7,0.3,2.6c0,0.7,0.2,1.6,0,2.3
			c-0.2,0.5-0.7,0.9-1.3,1c-0.8,0.1-1.7,0-2.5,0c-0.4,0-0.7,0-1.1,0c-0.7,0.1-0.9,0.2-1.5,0c-0.6-0.2-1.7,0-2.4,0h-3.7
			c-0.4,0-0.9,0.1-1.3,0.2c-0.4,0-0.6-0.2-1-0.4c-0.3-0.1-0.6-0.1-0.8,0c-0.7,0.2-1.3-0.8-2-0.4c-0.7,0.4-0.2,0.2-0.5,0.2
			c-0.2,0-0.3-0.1-0.5-0.1c-0.4-0.2-0.4-0.4-0.4-0.9c0-0.3-0.1-0.7-0.2-1c-0.1-0.4-0.1-0.9-0.1-1.3c0-0.7-0.4-1.3-0.4-2.1
			s-0.1-0.5-0.1-0.8c0-0.2-0.1-0.4-0.2-0.6c-0.1-0.2-0.2-0.4-0.3-0.6c-0.1-0.3-0.2-0.5-0.3-0.8c-0.1-0.3,0-0.1,0-0.2
			c0-0.1-0.1-0.1-0.1-0.2c-0.1-0.1-0.2-0.2-0.2-0.4c0-0.2,0-0.2-0.1-0.4c-0.2-0.2-0.4-0.4-0.5-0.6c-0.1-0.3,0-0.7-0.1-1
			c-0.1-0.3-0.3-0.5-0.5-0.7c-0.1-0.1-0.2-0.2-0.3-0.3c-0.1-0.2,0-0.4-0.1-0.5c-0.1-0.2-0.8-0.5-1.2-0.8c-0.1-0.1-0.3-0.3-0.4-0.4
			l-0.4-0.2c-0.2-0.2-0.4-0.4-0.5-0.6c0-0.2-0.1-0.4-0.1-0.6c-0.4-0.1-0.7-0.4-1.1-0.6c-0.3-0.3-0.7-0.4-1.1-0.5c-0.2,0-0.5,0-0.7,0
			c-0.1,0-0.2-0.1-0.4-0.2l-0.3-0.1c-0.3-0.2-0.6-0.4-0.7-0.8c-0.2-0.4-0.5-0.2-0.8-0.3s-0.1-0.1-0.3-0.1c-0.1,0-0.2,0-0.4,0h-0.6
			l-0.6-0.1c-0.2,0-0.3-0.1-0.4-0.1c-0.2-0.1-0.4-0.2-0.6-0.1c-0.2,0-0.4,0-0.6-0.1c-0.6-0.3-1.3-0.4-2-0.4c-0.8,0-1.6,0.1-2.3-0.4
			c-0.3-0.3-0.7-0.4-1-0.3h-1C63.8,95,63.4,95,63,95c-0.2,0-0.2,0.2-0.4,0.3c-0.2,0.1-0.4,0-0.5,0c-0.2,0-0.4,0-0.6,0
			c-0.2,0-0.3,0.2-0.5,0.2c-0.3,0-0.6,0-0.8-0.1c-0.1-0.1-0.3,0-0.4-0.2c-0.1-0.1-0.2-0.2-0.3-0.2L59,95.2c-0.2,0.1-0.3,0.1-0.3,0.4
			c0,0.2,0.2,0.2,0,0.4c-0.1,0.1-0.3,0.1-0.5,0.1c-0.2,0.1-0.3,0.1-0.5,0.1c-0.2,0-0.2,0.1-0.4,0.1c-0.3,0.2-0.6,0.3-0.9,0.4
			c-0.3,0.1-0.7-0.1-1,0c-0.3,0.1-0.5,0.4-0.8,0.5l-1.1,0.5c-0.2,0.1-0.4,0.2-0.6,0.2c-0.1,0-0.4,0-0.5,0c-0.3,0-0.5,0.1-0.8,0.2
			c-0.3,0.2-0.5,0.6-0.8,0.8l-0.5,0.3c-0.2,0.1-0.2,0-0.4,0.1c-0.2,0.1-0.4,0.5-0.6,0.7c-0.2,0.1-0.4,0.3-0.6,0.5
			c-0.3,0.3-0.6,0.4-1,0.7s-0.3,0.5-0.4,0.8c-0.3,0.8-0.8,1.4-1.4,2l-0.5,0.4c-0.1,0-0.2,0.1-0.3,0.2c-0.1,0.1-0.1,0.3-0.2,0.5
			c-0.1,0.2-0.3,0.5-0.4,0.7c-0.2,0.6-0.4,1.3-0.5,1.9c-0.1,0.3-0.1,0.6-0.1,0.9c0,0.2-0.1,0.5-0.2,0.8c-0.1,0.3-0.1,0.6-0.1,0.8
			c0,0.4,0.1,0.8,0.1,1.3c0,0.5,0.1,1.6-0.2,2c-0.3,0.5-0.7,0.6-1.2,0.6h-0.9c-0.2,0-0.4,0.2-0.6,0.2l-2.7,0.5
			c-0.7,0.1-1.5-0.2-2.2-0.2c-0.9-0.1-1.9,0-2.8,0.1l-1.5,0.2c-0.2,0-0.5-0.1-0.7,0l-0.4,0.1c-0.6,0.1-1.2,0.1-1.7-0.1
			c-0.7-0.2-1.5,0-2.3-0.1c-0.3,0-0.5-0.1-0.8-0.1c-0.1,0-0.2-0.1-0.4,0l-0.2,0.1c-0.1,0-0.3,0-0.4,0c-0.1,0-1,0.1-1.4-0.1
			c-0.1-0.1-0.2-0.1-0.2-0.2c-0.1-0.1,0-0.2-0.1-0.3c-0.1-0.2-0.2-0.4-0.4-0.5c0,0,0,0,0,0c0,0,0-0.2,0-0.4c0-0.1,0-0.4,0.1-0.6
			s0.2-1.1,0.3-1.7l0.2-0.8c0-0.3,0-0.6,0-0.8l0.1-0.4c0-0.2,0-0.3,0-0.5c0.1-0.3,0.1-0.6,0.2-0.9c0.1-0.6,0.2-1.2,0.4-1.7
			c0.2-0.6,0.3-1.3,0.4-2c0.1-0.6,0.2-1.3,0.3-1.9s0.1-0.9,0.2-1.3s0-0.8,0-1.2c0.1-0.4,0.2-0.8,0.2-1.2c0-0.6,0.1-1.2,0.2-1.7
			c0.1-0.7,0.1-1.4,0.1-2.1c0-0.3,0-0.6,0.1-1c0-0.3,0.1-0.6,0.1-1c0-0.2,0.4-0.8,0.4-1.1c0-0.4,0-0.9,0.2-1.3
			c0.2-1,0.3-1.9,0.5-2.9l0.5-2.9c0.1-0.8,0.2-1.6,0.3-2.4c0-0.3,0-0.6,0-0.9c0.1-0.2,0.1-0.3,0.1-0.5c0-0.4,0.1-0.7,0.1-1.1
			c0-0.5,0.1-0.9,0.2-1.4c0.1-0.6,0.2-1.1,0.3-1.7c0.2-0.5,0.4-1.1,0.5-1.7c0.2-0.8,0.3-1.7,0.4-2.5c0.2-1.4,0.4-2.8,0.6-4.2
			c0-0.2,0.1-0.5,0-0.7c0-0.1-0.1-0.2-0.1-0.4c0-0.1,0.2-0.8,0.3-1.3c0-0.1,0-0.2,0-0.4l0.1-0.4c0-0.1,0-0.2,0.1-0.4
			c0-0.1,0-0.2,0-0.4s0.1-0.5,0.2-0.7c0-0.1,0-0.2,0.1-0.4v-0.5c0.1-0.4,0.2-0.8,0.2-1.2c0-0.2,0.1-0.5,0.1-0.7
			c0.1-0.3,0.2-0.7,0.3-1l0.2-0.6l0.1-0.5c0-0.1,0.1-0.2,0.1-0.3c0-0.1,0-0.2,0-0.3c0.1-0.3,0.1-0.6,0.2-0.9c0-0.4,0.1-0.8,0.1-1.2
			c0-0.4,0-0.2,0-0.3c0-0.1,0.1-0.1,0.1-0.2c0-0.1,0-0.5,0-0.7c0-0.2,0.1-0.3,0.1-0.5v-0.8c0-0.3,0.1-0.6,0.1-1
			c0.1-0.4,0.2-0.7,0.4-1.1c0-0.1,0.1-0.2,0.1-0.3c0-0.1,0-0.1,0-0.2c0-0.1,0-0.2,0-0.4c0-0.2,0-0.3,0.1-0.5v-0.6
			c0-0.6,0.1-1.2,0.2-1.8c0-0.2,0.1-0.5,0.1-0.8c0-0.2,0-0.3,0.1-0.5c0.1-0.3,0.1-0.7,0.2-1c0.1-0.2,0.1-0.5,0.2-0.7
			c0-0.2,0.1-0.4,0.1-0.5s0-0.2,0-0.3l0.1-0.2c0.1-0.5,0-1,0.1-1.4c0.1-0.5,0.1-0.7,0.1-1.1c0-0.4,0.1-0.5,0.1-0.7
			c0-0.2,0-0.2,0-0.4c0-0.1,0.1-0.2,0.1-0.3c0-0.2,0.1-0.5,0.1-0.7c0-0.5,0.1-1,0.3-1.5c0.1-0.4,0.2-0.8,0.3-1.1
			c0.1-0.1,0.1-0.3,0.1-0.5c0.2-1,0.3-2,0.4-3c0.1-0.4,0.2-0.7,0.5-1l0.4-0.5c0.1-0.1,0.2-0.4,0.3-0.5H37c0.2-0.2,0.7-0.5,0.8-0.9
			c0-0.2,0-0.3,0-0.5c0-0.2,0.2-0.3,0.3-0.4c0.1-0.1,0.4-0.6,0.7-0.6h0.6c0.2,0,0.4,0.1,0.6,0.1h0.6c0.1,0,0.3-0.2,0.5-0.2
			c0.2-0.1,0.2-0.2,0.4-0.2c0.2,0,0.4-0.1,0.6,0c0.2,0,0.4,0,0.6-0.1c0.2,0,0.3-0.1,0.5-0.2c0.1-0.1,0.2-0.2,0.4-0.2
			c0.3-0.1,0.4-0.3,0.6-0.5c0.1-0.1,0.2-0.1,0.3-0.1l0.2-0.1c0.4-0.1,0.8-0.1,1.2-0.3l0.6-0.3l0.3-0.2l0.5-0.1
			c0.3,0,0.6-0.1,0.8-0.2c0.2-0.2,0.5-0.3,0.7-0.4c0,0,0.1,0,0.2,0l0.1-0.1h0.4c0.3,0,0.5-0.1,0.7-0.2c0.2-0.1,0.5-0.2,0.8-0.2h1
			c0.1,0,0.2-0.1,0.3-0.1h0.4c0.1-0.1,0.3-0.1,0.4-0.1h0.5c0.1,0,0.1-0.1,0.2-0.1c0.1,0,0.3,0,0.4,0c0.5,0,0.9-0.1,1.3-0.3
			c0.3-0.2,0.7-0.3,1-0.4c0.2-0.1,0.4-0.3,0.6-0.6c0-0.1,0.1-0.2,0.1-0.4s-0.2-0.2-0.2-0.1c0.1-0.2,0.2-0.5,0.3-0.7
			c0.1-0.3,0-0.6,0-1c0.1-0.4,0.1-0.4,0.2-0.6c0-0.2-0.4-0.9-0.5-1.4c-0.1-0.2-0.1-0.3-0.1-0.5c0-0.2,0-0.4-0.1-0.6
			c0-0.2,0-0.5-0.1-0.6c-0.1-0.2-0.2-0.2-0.2-0.5c0-0.3,0.2-0.6,0.4-0.8c0.2-0.1,0.4-0.2,0.6-0.2l0.4-0.1c0.6-0.1,1.2-0.2,1.8-0.2
			h0.4c0.2,0,0.3-0.1,0.5-0.1h0.8l0.4-0.1c0.2,0,0.4,0,0.5,0c0.2,0,0.2-0.1,0.4-0.1h1.1c0.1,0,0.1,0.1,0.2,0.1c0.1,0,0.6-0.1,0.9,0
			l0.3,0.1c0.2,0.1,0.4,0.1,0.6,0.1c0.3,0,0.6,0,0.8,0.1c0.3,0.1,0.6,0.1,0.8,0.1c0.3,0,0.6,0,0.8,0.1c0.2,0,0.1,0,0.3,0.1
			c0.2,0.2,0.4,0.5,0.5,0.7c0.1,0.3,0.2,0.6,0.2,0.8c0,0.4,0,0.8-0.1,1.2c-0.1,0.6-0.4,1.5-0.2,2.2c0.1,0.2,0.2,0.5,0.2,0.7
			c0,0.3,0,0.7,0,1c0,0.3-0.1,0.8,0.1,1c0.2,0.2,0.5,0.2,0.7,0.3l0.3,0.1c0.2,0,0.4,0.1,0.6,0.1c0.5,0.1,1.1,0.2,1.6,0.1
			c0.2,0,0.4,0.1,0.6,0.2c0.3,0.1,0.6,0.1,0.8,0c0.3,0,0.5,0,0.8,0.1c0.3,0.1,0.6,0.2,0.9,0.2c0.3,0,0.5,0,0.8,0l0.5,0.1h0.2
			c0.1,0,0.1,0.1,0.2,0.1c0.3,0,0.6,0.1,1,0.2c0.3,0.2,0.7,0.3,1.1,0.4c0.1,0,0.3,0.1,0.4,0.1c0.3,0,0.6,0,0.9,0l0.3,0.1
			c0.1,0,0.3,0,0.4,0c0.3,0,0.5,0.1,0.7,0.3c0.7,0.4,1.6,0.4,2.3,0.8c0.2,0.2,0.5,0.3,0.8,0.3c0.2,0,0.4,0,0.6,0.1l0.6,0.2l0.5,0.1
			l0.6,0.2c0.2,0,0.4,0,0.5,0.1c0.8,0.3,1.4,0.8,1.9,1.4c0.3,0.4,0.6,0.9,0.8,1.3c0.1,0.2,0.3,0.4,0.4,0.7c0.1,0.3,0.1,0.7,0.2,1
			c0.1,0.5,0.2,0.4,0.5,0.7s0.2,0.6,0.3,0.9c0.1,0.3,0.1,1.4,0.5,2.1c0.2,0.3,0.3,0.6,0.3,0.9c0,0.4,0,0.8,0,1.1
			c0.1,0.3,0.2,0.5,0.3,0.8c0.1,0.4,0,0.7,0,1.1c0,0.4,0.6,1.1,0.8,1.7c0.1,0.6-0.1,1.5,0.1,2.2c0.2,0.7,0.6,1.1,0.7,1.8
			s-0.1,0.9,0,1.3c0,0.2,0.1,0.4,0.1,0.6c0,0.5,0,1,0,1.4s0.2,0.9,0.2,1.4s0,0.8,0,1.2c0,0.4,0.2,0.6,0.2,1c0,0.4,0.2,0.8,0.2,1.2
			c0,0.4,0,0.7,0.2,1.1c0.7,1.6,0.3,3.5,0.6,5.2c0.1,0.3,0.1,0.6,0.1,0.9c0,0.5,0.1,1,0.3,1.5c0.2,0.7,0.3,1.5,0.4,2.2
			c0.1,0.3,0.1,0.7,0.2,1c0.1,0.7,0.2,1.5,0.4,2.2c0,0.3,0.1,0.6,0.2,1c0.1,0.2,0.2,0.5,0.3,0.8c0.1,0.3,0.1,1.4,0.4,2.1
			c0.2,0.9,0.3,1.8,0.4,2.7c0,0.9,0.1,1.3,0.5,2.1c0.2,0.4,0.3,0.9,0.3,1.3c0,0.7,0,1.4,0,2.2c0,0.6,0.1,1.1,0.2,1.7
			c0.1,0.6,0.2,1.2,0.4,1.7c0.1,0.2,0.2,0.5,0.2,0.7c0,0.3,0.1,0.6,0.2,0.9c0,0.3,0,0.6,0,0.9c0,0.4,0.1,0.7,0.2,1
			c0.1,0.5,0.2,1.1,0.2,1.7c0,0.3,0.1,0.5,0.2,0.8c0,0.3,0,0.3,0,0.4c0,0.1,0.2,0.2,0.2,0.4s-0.1,0.6,0,0.9c0.1,0.2,0.2,0.5,0.2,0.7
			c0,0.3,0.1,0.6,0.2,0.9c0,0.4,0,0.8,0,1.2c0,0.3,0,0.5,0,0.8c0,0.3,0.1,0.4,0.2,0.7c0,0.3-0.1,1.4,0,2L101.8,97.6z"/>
        <path class="white" d="M72.3,79.7c0.2,0,0.2-0.1,0.1-0.2L72.3,79.7z"/>
        <path class="white" d="M62.5,66.7c0-0.2,0-0.4,0-0.7v-0.1c-0.1-0.2-0.4-0.3-0.5-0.4c-0.2,0-0.4,0-0.6,0l-0.8,0.1c-0.3,0-0.7,0-1,0.1
			c-0.5,0.1-0.9,0.1-1.3,0.2h-0.1c-0.5,0.2-1,0.2-1.5,0.2h-0.1l-0.9,0.2l-1.9,0.3c-0.3,0.1-0.6,0.1-0.9,0.1
			c-0.6-0.1-1.1,0.2-1.7,0.2c-0.3,0-0.6,0.1-0.9,0.2c-0.1,0-0.2,0.1-0.3,0.1c-0.3,0-0.6,0-0.8,0.1l-1.5,0.4C47.4,67.9,47.2,68,47,68
			c-0.3,0-0.6,0.1-0.8,0.2c-0.6,0.2-1.2,0.2-1.7,0.6h-0.2c-0.4,0.1-0.9,0.2-1.3,0.4l-1.1,0.4c-0.2,0.1-0.3,0.1-0.5,0.2
			c-0.2,0-0.5,0.1-0.7,0.2c-0.3,0.1-0.6,0.2-0.9,0.3c-0.3,0.1-0.5,0.1-0.6,0.3H39l-1.2,0.4l-0.1,0.1c-0.1,0.2-0.3,0.3-0.5,0.3
			l-0.7,0.3l-0.7,0.4L35,72.3l-0.4,0.1H34c-0.2-0.1-0.5-0.1-0.7,0l-0.8,0.3l-0.1,0.1c0,0.2-0.2,0.3-0.3,0.4c-0.1,0.3-0.1,0.6,0,0.9
			c0.1,0.2,0.1,0.4,0,0.6c-0.1,0.1,0,0.2,0,0.4s-0.2,0.3,0,0.7c0.3,0.4-0.4,0.2-0.1,0.5v0.1c-0.1,0.2,0,0.5,0.1,0.7
			c0.1,0.1,0.1,0.3,0,0.5c0,0,0,0.1,0,0.1l0.4,0.2c0.1,0.1,0.2,0.3,0.4,0.4c0.2,0.1,0.4,0.1,0.6,0c0.5-0.1,0.9-0.3,1.3-0.5l0.8-0.5
			c0.1-0.1,0.3-0.1,0.4-0.3l0.1-0.1l0.4-0.2l0.3-0.2l0.3-0.1l0.3-0.2l0.4-0.2c0.3-0.2,0.7-0.4,1.1-0.5l0.1-0.1
			c0.2-0.2,0.3-0.3,0.6-0.3l0.4-0.1l0.2-0.1c0.1-0.1,0.2-0.2,0.3-0.2c0.3-0.2,0.7-0.4,1-0.5l0.2-0.1h0.2l0.8-0.3
			c0.4-0.1,0.8-0.2,1.3-0.3H44c0.2-0.2,0.5-0.2,0.7-0.2c0,0.2-0.1,0.3-0.2,0.5c-0.1,0.1-0.1,0.2-0.1,0.4s0,0.4-0.1,0.5
			c-0.1,0.1,0.1,0.2,0.1,0.4c-0.1,0.3,0,0.6,0.1,0.8c0.1,0.1,0,0.3-0.1,0.3c0,0,0,0,0,0l-0.7,0.2l-0.2,0.1c-0.1,0.1-0.2,0.2-0.4,0.2
			l-0.5,0.2c-0.1,0-0.3,0.1-0.4,0.2c-0.1,0.1-0.3,0-0.4,0.2h-0.1c-0.1,0-0.2,0.1-0.4,0.2l-0.2,0.1c-0.6,0.3-1.2,0.5-1.8,0.9
			l-1.5,0.8h-0.1l-1,0.4l-0.1,0.1c-0.1,0.1-0.2,0.2-0.3,0.2L36,80l-0.2,0.1l-0.5,0.3c-0.1,0-0.1,0.1-0.2,0.1l-0.8,0.3L34,80.6
			l-0.5-0.2l-0.1,0.1l-0.8,0.4c-0.2,0.1-0.3,0.1-0.5,0.2c-0.3,0.1-0.5,0.2-0.6,0.5L31.2,82c0,0.1,0,0.2,0.1,0.3
			c-0.2,0.2-0.2,0.4-0.2,0.6c0,0.1,0,0.2,0,0.3c0,0.1-0.1,0.2,0,0.2c0,0-0.1,0.2-0.2,0.4c-0.1,0.1,0,0.7,0.2,1c0.2,0.3,0,0.7-0.4,1
			s0.2,0.3,0.1,0.5c-0.1,0.1-0.2,0.3-0.2,0.5c0,0.4-0.1,0.8-0.2,1.2c0,0.6,0,1.2-0.2,1.8c-0.1,0.2-0.2,0.4-0.2,0.6
			c0,0.1,0,0.3,0,0.4c0,0.3,0,0.7,0,1c-0.1,0.8-0.2,1.7-0.4,2.5c-0.2,0.8-0.4,0.8-0.3,1.2c0,0.1,0,0.2-0.1,0.2l-0.1,0.3
			c0,0.2,0,0.4,0,0.6c0.1,0.5,0,0.9-0.1,1.4c0,0,0,0.1,0,0.1c0,0.1,0,0.2,0,0.3c-0.1,0.3-0.4,0.6-0.2,1s0,0,0,0s0,0.5-0.2,0.7
			c-0.2,0.2,0,0.1,0,0.1c0,0.1,0,0.1,0,0.2l-0.3,0.8l0.1,0.2l-0.3,0.1c0.1,0.2,0.1,0.4,0,0.6c0,0.1,0,0.2-0.1,0.3
			c-0.1,0.1,0,0.1,0,0.1v0.8h-0.1c0,0.2,0,0.3,0,0.5c-0.2,0.5-0.2,1-0.2,1.4c0,0.3-0.1,0.6-0.1,0.9c0,0.4,0.1,0.8-0.1,1.2
			s0,0.1,0,0.1c0,0.2-0.1,0.4-0.1,0.5c-0.1,0.1-0.1,0.3-0.1,0.4c0,0.3,0.2,0.6,0.1,0.9h0c0.2,0.4,0.6,0.6,1.1,0.6l1.1-0.4
			c0.1,0,0.3,0,0.4-0.1c0.1-0.2,0,0,0.1,0s0.8-0.2,1.2-0.2l0.2-0.1c0.4,0,0.7-0.1,1.1-0.1c0.4,0,1.6-0.2,2.3,0.1
			c0.7,0.4,0.4,0.2,0.6,0.2c0.2-0.1,0.3-0.1,0.5-0.2h0.5l0.7-0.2c0.1-0.1,0.2-0.1,0.2-0.1h0.4c0.2-0.1,0.5-0.1,0.7-0.1
			c0.2,0.1,0.4,0.1,0.6,0.1h0.4l0.3,0.1c0.2,0,0.2-0.2,0.4-0.4c0.1-0.1,0.2-0.3,0.2-0.6l-0.1-0.3v-0.4c0-0.2,0-0.4,0.1-0.6l0.2-0.5
			c0.2-0.4,0.5-0.9,0.5-1.3c0-0.4,0-0.9,0-1.3c0.1-0.5,0.5-0.8,0.6-1.4l0.1-0.1c0.1-0.2,0.4-0.3,0.4-0.6V101l0.5-0.6
			c0.2-0.2,0.3-0.5,0.5-0.6c0.3-0.4,0.6-0.7,0.8-1.1c0.1-0.3,0.3-0.5,0.6-0.7c0.2-0.1,0.4-0.3,0.5-0.5c0.2-0.2,0.4-0.4,0.6-0.6
			c0.3-0.2,0.5-0.4,0.6-0.7c0-0.1,0-0.1,0.1-0.2h0.5l0.4-0.5c0-0.1,0.2-0.2,0.3-0.2c0.1,0,0.2,0,0.3-0.2l0.1-0.1
			c0.4,0,0.5-0.4,0.9-0.6c0.4-0.1,0.3-0.4,0.6-0.6c0.2-0.2,0.5-0.3,0.7-0.5h0.1c0.7-0.6,1.6-0.6,2.3-1.2c0.2-0.2,0.4-0.3,0.6-0.5
			c0.3-0.1,0.5-0.1,0.8-0.1c0.4,0,0.4-0.3,0.7-0.5c0.3-0.1,0.5-0.2,0.8-0.2c0.2-0.1,0.4-0.2,0.6-0.3c0.3-0.2,0.6-0.2,1-0.3l3-0.5
			c0.6-0.1,1.8,0,2.2-0.6c0.2-0.2,0.3-0.5,0.2-0.8c0-0.1-0.1-0.1-0.1-0.3c0-0.3,0.1-0.5,0.2-0.8c0.1-0.3,0.1-0.7,0-1
			c0,0,0-0.1,0-0.2c0.1-0.2,0.1-0.4,0-0.6C62,85.4,62,85.1,62,84.8c0-0.2,0.1-0.4,0-0.6c0-0.1,0-0.2,0-0.3v-0.1
			c-0.1-0.2-0.1-0.4,0-0.6v-0.1c-0.1-0.2-0.1-0.5,0.1-0.7c0,0,0-0.1,0-0.1s-0.1-0.4,0.1-0.6v-0.1c-0.1-0.1,0-0.4-0.1-0.6
			c-0.1-0.2,0.1-0.2,0.1-0.4v-0.4c0-0.1,0-0.2,0-0.3c-0.1-0.1-0.1-0.3,0-0.4c0-0.1,0.1-0.3,0.1-0.4c0-0.1-0.1-0.5-0.1-0.7
			s0-0.1,0-0.1c0.1-0.2,0.1-0.4,0.1-0.5c0-0.1,0-0.3,0-0.4c0-0.4,0.1-0.8,0-1.2c0-0.2,0-0.4,0.1-0.6c0.1-0.2,0.2-0.4,0-0.6
			c-0.2-0.1-0.1-1.8-0.2-1.7c-0.1,0-1-0.7-1.6-0.5c-0.7,0.2-0.5,0.4-0.7,0.5c-0.3,0.1-1.3-0.2-1.9-0.2l-1.6,0.2
			c-0.4,0-0.8,0.1-1.2,0.2c-0.4,0-0.8,0.1-1.2,0c-0.2,0-0.4,0-0.5,0c-0.3,0-0.4,0.3-0.6,0c-0.4,0.4-0.5,0.4-1,0.4
			c-0.3,0-0.6,0.1-0.9,0.2c-0.7,0.2-1.5,0.3-2.2,0.2c0-0.1,0.1-0.2,0.2-0.3c0,0,0-0.1,0-0.1h-0.1l-0.1-0.6l0.3-0.3
			c0-0.2,0-0.4-0.1-0.6l0.2-0.4c0-0.1,0.1-0.2,0.2-0.2l0.7-0.1l1.2-0.2l1.4-0.3l1.1-0.2H54l1.6-0.3l0.9-0.1h1.2
			c0.4,0,0.7-0.3,1.1-0.1h0.1l0.6-0.2h0.2c0.3-0.2,0.6-0.3,0.9-0.2c0.1-0.2,0.2-0.4,0.5-0.5c0.2,0,0.3-0.2,0.4-0.4
			c0.1-0.1,0.2-0.3,0.5-0.3s0.2-0.1,0.2-0.2c0.2-0.3,0.4-0.7,0.4-1c0-0.2,0-0.4,0-0.6C62.4,67,62.4,66.8,62.5,66.7z M57.7,85.1
			c0,0.1,0,0.1,0,0.2c0,0.2-0.3,0.2-0.5,0.3h-0.4l-0.8,0.2c-0.1,0-0.2,0-0.4,0l-0.3,0.2L55,86.3h-0.4c-0.1,0-0.2,0.2-0.3,0.2
			c-0.1,0.1-0.3,0.1-0.4,0.1l-0.2,0.1h-0.2c-0.1,0-0.3,0.1-0.4,0.2L52.9,87l-0.1,0.1c-0.3,0.2-0.6,0.6-1,0.6l-0.4-0.1
			c-0.4,0-0.7,0.4-1.1,0.5c-0.3,0.1-0.6,0.2-0.8,0.3L48.8,89l-0.4,0.3L48,89.4c-0.3,0.1-0.6,0.3-0.8,0.6c-0.2,0.2-0.4,0.3-0.6,0.6
			c-0.2,0.2-0.4,0.4-0.6,0.5c-0.3,0.2-0.6,0.4-0.9,0.5c-0.3,0-0.6,0.2-0.7,0.4l-0.2,0.4l-0.3,0.2c-0.2,0.1-0.4,0.3-0.5,0.5
			c-0.1,0.2-0.2,0.4-0.4,0.6l-0.7,0.6c-0.2,0.2-0.4,0.3-0.6,0.5c-0.2,0.2-0.3,0.5-0.5,0.7c-0.1,0.1-0.2,0.2-0.4,0.2l-0.2,0.2
			c-0.2,0.2-0.4,0.4-0.5,0.6l-0.2,0.4c0,0-0.1,0.1-0.1,0.1c0,0.1,0,0.2-0.1,0.2c0,0.1-0.6,0.6-0.8,1.1c-0.2,0.6-0.4,1.1-0.7,1.7
			c-0.2,0.3-0.3,0.6-0.3,1c0,0.2,0,0.4,0,0.6c0,0.1-0.1,0.2-0.2,0.3c-0.1,0.4-0.2,0.7-0.4,1.1c-0.1,0.1-0.2,0.2-0.3,0.3
			c-0.1,0.1,0,0.4,0,0.6c0,0.2-0.4,0.4-0.7,0.4c-0.3,0-0.7,0-1,0.1c-0.4,0.1-0.7,0.2-1.1,0.2h-0.4c-0.2,0-0.5,0.1-0.7,0.1
			c-0.3,0-0.5,0-0.8,0c-0.1,0-0.1,0-0.2-0.1c0,0,0-0.1,0-0.1c0-0.3,0-0.7,0.1-1c0-0.1,0-0.2,0-0.4c0.1-0.2,0.1-0.5,0.1-0.7
			c0.1-0.4,0.1-0.8,0.2-1.2c0-0.4,0.1-0.7,0.2-1.1c0.1-0.4,0-0.3-0.1-0.4c-0.2-0.1,0.2-0.5,0.3-0.8c0-0.3,0.1-0.6,0.1-1
			c0.1-0.3,0.2-0.6,0.3-0.8c0,0,0.1-0.1,0.1-0.2c0-0.1,0-0.1,0-0.2c0-0.1,0-0.1,0.1-0.2v-0.2c0,0,0,0,0-0.1c0,0,0-0.1,0-0.2
			c0-0.1,0.1-0.3,0.1-0.4c0-0.2,0-0.3,0-0.5c0-0.1,0-0.3,0.1-0.4l0.1-0.4c0.1-0.1,0.1-0.2,0.1-0.4c0-0.1,0-0.2,0.1-0.4
			c0-0.2,0.1-0.3,0.1-0.5c0-0.3,0-0.6,0.1-0.9c0-0.2,0-0.2,0.2-0.1l0.2,0.1h0.2c0.1,0,0.2,0.1,0.2,0.2c0.1,0.2,0.1,0.3,0.1,0.5
			c0,0.1,0,0.1,0,0.2l0.2,0.1c0.2,0.1,0.4,0.1,0.6,0.1h0.3c0.2-0.1,0.4-0.2,0.6-0.4c0.1-0.1,0.2-0.2,0.3-0.2
			c0.2-0.1,0.4-0.3,0.6-0.5l0.7-0.5c0.1,0,0.2-0.1,0.2-0.2c0.2-0.3,0.5-0.4,0.8-0.5h0.1c0.2-0.2,0.4-0.4,0.7-0.5
			c0.1-0.1,0.2-0.2,0.4-0.2c0.2,0,0.3-0.1,0.5-0.2c0.1-0.2,0.3-0.4,0.5-0.6c0.1-0.1,0.2-0.2,0.3-0.3l0.1-0.2l0.2-0.2
			c0.2-0.1,0.3-0.1,0.5-0.1c0.2,0,0.3-0.1,0.4-0.3c0.3-0.3,0.6-0.5,0.9-0.6l0.4-0.2l0.3-0.3c0.2-0.2,0.6-0.1,0.9-0.4
			s0.3-0.4,0.5-0.5l0.5-0.2l0.6-0.3l1-0.5l0.3-0.2c0.2-0.1,0.4,0,0.6-0.2c0.1-0.1,0.3-0.2,0.5-0.2H50c0.2,0,0.4-0.2,0.6-0.2h0.1
			l0.2-0.1c0.1,0,0.2-0.1,0.2-0.2c0.1-0.1,0.2,0,0.4,0h0.4c0.1,0,0.2-0.1,0.3-0.1c0.1,0,0.4-0.3,0.6-0.3h0.7
			c0.4-0.1,0.8-0.2,1.3-0.2c0.4,0,0.8-0.1,1.2-0.4c0.2-0.2,0.6-0.2,0.8-0.1H57l0.2-0.1c0.2-0.1,0.5,0.1,0.5,0.3
			c0.1,0.5,0.1,1.1,0,1.6C57.7,84.8,57.7,85,57.7,85.1L57.7,85.1z M49.1,78.1l0.3-0.1v0.1h0.4c0-0.1,0.1-0.1,0.2-0.2
			c0.3-0.2,0.7-0.2,1.1,0c0.3-0.3,0.6-0.3,1-0.2L52,77.9c0.2-0.1,0.4-0.2,0.7-0.2l0.5-0.1c0.2-0.1,0.5-0.1,0.7,0.1l0.4-0.2
			c0.4-0.1,0.8-0.1,1.1,0.1h0.1c0.1-0.2,0.4-0.1,0.6-0.1h1c0.1,0,0.1,0,0.1-0.1c0-0.1,0.1-0.2,0.1-0.2V77h0.1c0-0.1,0.1-0.1,0.1-0.2
			v-0.1c0,0,0-0.1,0-0.1c0,0,0-0.1,0.1-0.1v-0.1c0.1-0.1,0.1-0.1,0.1-0.2v-0.3c0-0.1,0-0.2,0-0.3l0.1-0.1c0,0,0-0.1,0-0.1
			c0-0.1,0-0.1,0.1-0.1c0,0,0.2,0,0.2,0c0,0,0.1,0.1,0.1,0.1c0,0,0,0.1,0,0.1c0,0.1-0.1,0.3,0,0.4s0.1,0.1,0.1,0.2l-0.1,0.2
			c0,0.1-0.1,0.3,0,0.5c0,0.2,0,0.4,0,0.5c0,0.1-0.1,0.1-0.1,0.2c0,0.1-0.1,0.1,0,0.2s0,0.1,0,0.2c0,0.1,0,0.2-0.1,0.2
			c0,0.1,0,0.1,0,0.2c0,0.1-0.1,0.1-0.1,0.2c0,0.2,0,0.4,0,0.5c0,0.1,0,0.2,0,0.3v0.6c0,0.1,0,0.2-0.1,0.2c0,0.1,0,0.2,0,0.3
			c0,0.2,0,0.5,0,0.7c0,0.2,0,0.5-0.1,0.7c-0.1,0.2-0.1,0.4-0.2,0.5c-0.1,0.1-0.2,0.1-0.2,0c0,0,0,0,0-0.1c0-0.2,0-0.4,0-0.6
			c0-0.2,0-0.3,0-0.5c0-0.3-0.2-0.6-0.2-0.9c0-0.4,0-0.2-0.1-0.3c-0.1-0.1-0.5,0-0.7,0C56.1,80,56,80,55.9,80l-0.9,0.3l-1.8,0.4
			l-0.7,0.2h-0.5c-0.1,0-0.2,0-0.4,0.1l-0.2,0.1h-0.2l-0.5,0.1l-0.4,0.1l-0.1,0.1L50,81.4h-1.1c-0.2,0.1-0.4,0.2-0.6,0.3
			c-0.1,0.1-0.4,0.1-0.6,0.1c-0.2,0-0.3,0.2-0.5,0.2h-0.1l-0.1,0.1c-0.1,0.1-0.2,0.2-0.3,0.2c-0.2,0.1-0.4,0.1-0.6,0
			c-0.2,0.1-0.3,0.1-0.5,0.2c-0.1,0.1-0.3,0.2-0.5,0.2L44.9,83l-0.3,0.1l-0.5,0.2c-0.2,0.1-0.3,0.2-0.4,0.3
			c-0.1,0.1-0.3,0.2-0.5,0.2c-0.2,0-0.4,0.1-0.5,0.2l-0.2,0.2l-0.2,0.2l-0.2,0.1H42c-0.2,0.1-0.4,0.3-0.5,0.4L41.2,85h0
			c-0.1,0.1-0.4,0.1-0.5,0.2c-0.2,0.2-0.4,0.3-0.6,0.4c-0.3,0.1-0.6,0.3-0.9,0.5c-0.1,0.1-0.2,0.2-0.3,0.2l-0.1,0.1
			c0,0.1-0.2,0.2-0.3,0.2c0,0,0,0,0,0c-0.2,0-0.3,0-0.4,0.2L38,87c-0.3,0.1-0.5,0.4-0.8,0.5L37,87.6l-0.3,0.1L36.2,88h-0.1
			c-0.1,0.2-0.4,0.4-0.6,0.5l-0.2,0.2c-0.1,0.1-0.2,0.2-0.2,0.3c-0.1,0.2-0.2,0.4-0.2,0.6c0,0.2,0,0.5-0.1,0.7c0,0.1,0,0.2-0.1,0.3
			L34.4,91v0.1c0,0.1,0,0.1-0.1,0.1c-0.1-0.1-0.1-0.2-0.1-0.3c0-0.2,0.1-0.4,0.1-0.6c0-0.2,0-0.4,0-0.6c0-0.2,0-0.3-0.1-0.5
			c0-0.2,0.1-0.4,0.2-0.6c0.1-0.1,0.1-0.3,0.1-0.4c0-0.2,0.1-0.4,0.1-0.5c0-0.2,0-0.3,0-0.5c0-0.2,0-0.3,0-0.5l0.1-0.4
			c0.1-0.1,0.1-0.3,0.2-0.4v-0.7c0-0.1,0-0.1,0-0.2c0-0.2,0-0.3,0-0.5c0-0.2,0-0.3,0-0.5c0-0.1-0.1-0.1-0.1-0.2c0-0.1,0-0.2,0-0.2
			c0-0.1,0.1-0.2,0.1-0.4c0.1-0.1,0.1-0.2,0.2-0.1c0,0.1,0,0.1,0,0.2v0.2c0,0.1,0,0.1,0,0.2c0.1,0.1,0.2,0.2,0.2,0.4
			c0.1,0.1,0,0.1,0.1,0.1c0,0,0.2,0,0.2,0h0.8l0.2-0.1c0.2-0.2,0.4-0.5,0.6-0.6c0.2-0.2,0.5-0.4,0.8-0.5l0.9-0.6
			c0.3-0.2,0.6-0.4,1-0.5l0.2-0.1c0.3-0.3,0.7-0.4,1-0.6l0.2-0.1l0.6-0.2c0.2-0.1,0.4-0.2,0.7-0.2l0.2-0.1c0.3-0.2,0.6-0.3,0.9-0.4
			c0.5-0.2,1-0.3,1.4-0.5c0.2-0.1,0.5-0.2,0.7-0.2l0.2-0.1l0.8-0.3c0.1,0,0.1-0.1,0.2-0.1c0.1,0,0.2-0.2,0.4-0.1
			c0.2,0,0.3-0.1,0.5-0.1C48.5,78.4,48.8,78.1,49.1,78.1z"/>
        <path class="white" d="M99.7,103.1c-0.1-0.9-0.2-1.6-0.4-2.5c-0.1-0.9-0.6-1.6-0.7-2.4c0-0.8,0.6-1.6-0.4-2.2c0-0.7-0.1-1.4-0.2-2
			c-0.1-0.3-0.1-0.6-0.2-1c0-0.1,0-0.1,0-0.2c0-0.1,0-0.1,0-0.2c-0.1-0.4-0.2-0.7-0.2-1.1c0-0.3,0-0.5-0.1-0.7
			c-0.1-0.1-0.1-0.2-0.1-0.4c0-0.2,0-0.5-0.1-0.6c0,0-0.1-0.1-0.1-0.1c0.1-0.4-0.1-0.7-0.1-1.1c0-0.2,0-0.3-0.2-0.5
			c0-0.1,0-0.1,0-0.2c0-0.3-0.1-0.6-0.2-0.9v-0.1c0.1-0.3,0.1-0.6,0-0.9c-0.1-0.4-0.2-0.8-0.1-1.2c0-0.4-0.1-0.7-0.1-1.1
			s0-0.2-0.1-0.4l-0.1-0.7c0-0.2,0-0.3-0.1-0.5c-0.1-0.1,0-0.1-0.1-0.1c0-0.1-0.1-0.3-0.1-0.4c0-0.1,0-0.3,0-0.4
			c0-0.1,0-0.1-0.1-0.1l-0.1-0.1c0-0.1,0-0.4,0.1-0.4s0.5,0.1,0.6,0.2c0.2,0.1,0.4,0.2,0.6,0.2c0.1,0,0.1,0,0.1-0.1
			c0-0.1,0-0.1,0-0.2c-0.1-0.3-0.1-0.6-0.1-1c0-0.1,0-0.2,0-0.2C97,79.3,97,79.2,97,79.1c0-0.2,0-0.4,0-0.5c0-0.2-0.2-0.3-0.2-0.4
			c-0.1-0.1-0.1-0.2-0.1-0.3c0-0.3,0-0.5,0-0.8c0-0.2-0.1-0.4-0.2-0.6c-0.1-0.2,0-0.4-0.2-0.6s-0.2-0.3-0.4-0.4
			c-0.1,0-0.2,0-0.3-0.1l-0.2-0.3l-0.4-0.4c-0.2-0.2-0.4-0.3-0.6-0.6L94,73.7l-0.1-0.3c-0.1-0.5,0-1-0.1-1.5
			c-0.2-0.5-0.2-0.4-0.3-0.6c-0.1-0.2-0.1-1.5-0.2-2.2c-0.1-0.7,0-0.7,0-1.1s-0.2-1.1-0.7-1.2c-0.6,0-1.2,0.2-1.9,0.6
			c-0.7,0.4-1.3,0.3-1.9,0.5c0.1,0.2,0.1,0.4,0.1,0.6c0,0.1,0,0.2,0,0.4c0,0.4,0,0.9,0,1.3c0,0.1-0.1,0.3,0,0.4s0.2,0.1,0.2,0.2
			c0.1,0.2,0.2,0.5,0.2,0.7c0.1,0.2,0.2,0.5,0.3,0.7c0.1,0.3,0.1,0.6,0.1,0.9c0,0.2,0,0.4-0.2,0.3c-0.2,0-0.1-0.2-0.2-0.3
			c0-0.3-0.1-0.5-0.4-0.6l-0.7-0.2c-0.2-0.1-0.5,0-0.6-0.2c-0.2-0.1-0.3-0.3-0.5-0.4c-0.2-0.1-0.5-0.2-0.7-0.2
			c-0.2,0-0.2-0.1-0.4-0.1h-0.4c-0.2,0-0.3-0.2-0.5-0.3l-0.4-0.1l-0.3-0.1c-0.2,0-0.4-0.1-0.6-0.1c-0.2,0-0.4-0.1-0.6-0.2
			c-0.2-0.1-0.3-0.3-0.5-0.4L82.5,70c-0.1,0-0.3,0.1-0.4,0c-0.1,0-0.3-0.3-0.5-0.4c-0.2-0.1-0.4-0.2-0.7-0.2c-0.2,0-0.5,0-0.7-0.1
			l-0.5-0.2H79c-0.1,0-0.3,0-0.4-0.1l-0.2-0.1c-0.4-0.2-0.9-0.1-1.3-0.1c-0.4,0-0.7,0-1.1,0l-0.3-0.1h-0.3l-0.5-0.1
			c-0.2-0.1-0.4-0.1-0.6-0.1h-1.7c-0.2,0-0.3,0.1-0.5,0.1h-0.4c-0.2,0-0.1-0.1-0.2-0.3c-0.1-0.4-0.1-0.7-0.1-1.1v-0.5
			c0-0.2,0.1-0.3,0.1-0.5s0.1-0.2,0.1-0.3c0-0.1,0-0.3,0-0.4c0-0.2,0-0.3,0-0.5c0-0.1-0.1-0.4-0.2-0.4c-0.2-0.1-0.4-0.2-0.7-0.1
			c-0.2,0.1-0.5,0.2-0.7,0.3c-0.1,0-0.3,0-0.4,0.1h-0.4c-0.1,0.1-0.2,0.1-0.3,0.1l-0.4,0.1c-0.2,0.1-0.5,0-0.8,0.1
			c-0.3,0-0.5,0.1-0.7,0.3L67,65.8c-0.1,0.2-0.4,0.5-0.4,0.7c0,0.2,0,0.1,0.1,0.2c0.1,0,0.2,0.5,0.2,0.7v0.6c0,0.2,0,0.4,0,0.6
			c0,0.2,0.1,0.3,0,0.5c-0.1,0.2-0.4,0.2-0.5,0.2L66,69.5c-0.1,0.1-0.4,0.2-0.4,0.4c0,0.2,0,0.4,0,0.6c0,0.2,0,0.4-0.1,0.6
			c0,0.1,0,0.2,0,0.2c0,0.1,0,0.1-0.1,0.2v0.3c0,0.1,0,0.2-0.1,0.3c0,0.2,0,0.4,0,0.6c0,0.2,0,0.3,0.2,0.4c0.2,0.1,0.4,0.1,0.6,0.1
			h0.3l0.3-0.1c0.3,0,0.4,0.2,0.4,0.5V74c0,0.2,0.1,0.4,0.1,0.6v0.9L67.2,76c0,0.6,0,1.2,0,1.8c0,0.5,0,1-0.1,1.5c0,0.4,0,0.8,0,1.2
			c0,0.4,0.1,0.6,0,0.9s0,0.1,0,0.1v1c0,0,0,0.1,0,0.1c0,0,0,0,0,0c0,0.2,0,0.5-0.1,0.7c0,0.2,0,0.4-0.1,0.6c-0.1,0.2,0,0.5-0.2,0.6
			c0,0.1-0.1,0.2-0.1,0.4c0.1,0.1,0.2,0.3,0.1,0.5c-0.1,0.2-0.1,0.5-0.1,0.7l0,0c-0.2,0.4,0.1,0.5,0.1,0.9c0,0.2,0,0.4-0.1,0.6
			c0,0.1-0.1,0.3,0,0.5c0,0.1,0,0.3,0,0.4c0,0.1,0,0.4,0,0.5c0,0.1,0.1,0.1,0.2,0.1l0.5,0.1c0.4,0,0.8,0,1.2,0c0.2,0,0.5,0,0.7,0.1
			c0.1,0,0.1,0.1,0.2,0.1h0.4l0.3,0.1h0.4c0.2,0,0.4,0,0.6,0.1c0.2,0.1,0.4,0.2,0.6,0.3c0.2,0,0.4,0.1,0.6,0H73l0.5,0.2l1.2,0.5
			l0.6,0.1c0.2,0.1,0.4,0.2,0.6,0.2c0.5,0,0.9,0.3,1.3,0.6c0.4,0.2,0.7,0.4,1,0.7c0.3,0.3,0.6,0.6,0.9,0.8c0.3,0.2,0.7,0.4,1,0.8
			c0.2,0.4,0,0,0.1,0.1l0.9,0.7c0,0,0.1,0,0.1,0.1l0,0c0.1,0.1,0.1,0.2,0.2,0.3l0.9,0.8c0.2,0.2,0.3,0.4,0.5,0.6
			c0.2,0.2,0.4,0.2,0.6,0.5c0.2,0.1,0.4,0.3,0.6,0.5c0.1,0.1,0.2,0.2,0.1,0.4c-0.1,0.2,0,0.4,0.2,0.4c0.2,0.1,0.3,0.3,0.4,0.5
			c0,0,0.1,0.1,0.1,0.1h0.1c0.2-0.2,0.2-0.2,0.4,0.1c0,0.1,0.1,0.1,0.2,0.1l0.6,0.1c0,0,0,0,0,0l0,0v0.2h-0.4c0,0.2,0.1,0.3,0.2,0.5
			c0,0.1,0.1,0.1,0.2,0.1c0.1,0,0.1-0.1,0.2-0.2v-0.1c0.2,0.1,0.2,0.1,0.1,0.4l-0.2,0.1c0,0.1,0,0.2,0,0.4c-0.1,0-0.3-0.2-0.3-0.3
			c0-0.1-0.1-0.1-0.1-0.1c0,0-0.1,0.1,0,0.2c0,0.1,0.1,0.2,0.2,0.3c0.1,0.1,0.2,0.1,0.3,0.1l0.1-0.1c0.2,0.3,0.2,0.3,0.1,0.6
			c0,0.1,0,0.1,0,0.2l0.4-0.1c0,0.1,0,0.2,0,0.2c0,0.1,0.4-0.1,0.5-0.3s0,0.5-0.3,0.5L87,102c0,0.2,0,0.4,0,0.6c0,0.2-0.1,0.4,0,0.6
			c0.3-0.2,0.4-0.5,0.3-0.8c0,0,0-0.1,0-0.1c0-0.1,0.1-0.2,0.2-0.2c0,0,0,0,0.1,0c-0.3,0.3-0.1,0.6,0,1c-0.1,0.1-0.2,0.2-0.2,0.2
			l0.1,0.3c0,0,0,0-0.1,0.1h0c0,0.1,0.1,0.2,0.1,0.3c0,0.2,0,0.2,0.2,0.2c0.2,0,0-0.2,0.2-0.2c0.2,0,0.1,0,0.2-0.1l-0.1-0.1v-0.1
			l0.2,0.1c0,0.1,0.1,0.2,0.1,0.2c0,0.2,0,0.4,0,0.7c-0.3-0.1-0.1-0.4-0.2-0.6s-0.2,0-0.3,0.2c0,0.1,0,0.3,0.1,0.4
			c0.1,0.1,0.1,0.3,0,0.4l0.3-0.2c0.3,0.2-0.1,0.4,0.1,0.5c0.1,0.1,0.3-0.4,0.4-0.2c0.1,0.2-0.2,0.6-0.2,0.8s0.1,0.4,0.2,0.6
			c0.1,0.2-0.2,0.9-0.1,1.3c0,0.2,0.1,0.3,0.1,0.5c0,0.3-0.1,0.9,0.2,0.9c0.4,0.1,0.8,0.1,1.1,0c0.3-0.1,0.5-0.4,0.8-0.5
			s0.6,0.1,0.9,0.2c0.3,0,0.8-0.2,1.2-0.1h0.1c0.2-0.1,0.4-0.3,0.4-0.5l0.4,0.5l0.3-0.1h0.7c0.3,0.1,0.7,0.1,1,0
			c0.4,0.2,0.9,0.2,1.3,0.1c0.4-0.1,0.7-0.1,1.1,0c0.4,0.1,0.7,0.4,1.1,0.4c0.2,0,0.4,0,0.6,0c0.2,0,0.4,0.2,0.6,0.2
			c0.2,0,0.2,0,0.3,0c0,0,0.1-0.1,0.1-0.2c0.1-0.2,0.1-0.4,0.1-0.7c0-0.2,0-0.4-0.1-0.6c-0.1-0.2-0.2-0.3-0.3-0.5
			c-0.1-0.2,0-0.5,0-0.7c-0.1-0.1-0.1-0.2-0.1-0.2c0-0.1,0-0.2-0.1-0.4l-0.1-0.2c0-0.1,0-0.3,0-0.4v-0.7c0-0.2,0-0.5,0-0.7
			c0-0.2-0.1-0.4-0.2-0.6C99.8,103.6,99.7,103.3,99.7,103.1z M89.2,98L89.2,98l0.2,0.5C89.4,98.4,89.3,98.2,89.2,98L89.2,98z
			 M95.4,103.9c-0.2,0.4-0.8,0.5-1.2,0.5c-1.1,0.1-1.6,0.2-2.2-0.9c0-0.1-0.1-0.1-0.1-0.3s0-0.4-0.2-0.5c-0.2-0.1,0-0.2-0.1-0.3
			l-0.2-0.1c0.1-0.1,0.1-0.2,0.1-0.2l-0.1-0.1c0.1-0.2,0-0.3-0.1-0.5c-0.2-0.3-0.3-0.6-0.5-0.8l-0.2-0.4c0-0.2-0.2-0.2-0.2-0.4
			l-0.1-0.1c-0.1,0-0.1,0.1,0,0.2v0.1c-0.2-0.1-0.2-0.3,0-0.7c0.2-0.5-0.3-0.3-0.2-0.5l-0.2-0.1c-0.1,0-0.1,0-0.2,0v-0.1l0.2-0.1
			l-0.1-0.1l-0.3-0.1c0.1-0.1,0.1-0.3,0-0.4C89.5,98,89.4,98,89.3,98C89,98,89,97.9,89,97.7c-0.1-0.2-0.2-0.4-0.4-0.6
			c0,0-0.1,0-0.1,0c-0.1,0-0.2-0.1-0.2-0.2s0-0.2,0-0.4L88,96.4c0-0.2-0.3-1-0.5-0.6c-0.2,0.4-0.3-0.2-0.3-0.3c0-0.1,0-0.2,0.1-0.3
			c0-0.1,0-0.3,0-0.4c-0.1-0.2-0.3-0.4-0.6-0.5c-0.3-0.2-0.6-0.5-0.8-0.8c-0.3-0.3-0.6-0.7-0.9-1c-0.2-0.3-0.4-0.6-0.6-0.9
			c-0.1-0.2-0.4-0.4-0.7-0.5L83.6,91l-0.1-0.2c-0.1-0.2-0.4-0.2-0.6-0.3c-0.2-0.1-0.3-0.3-0.5-0.5c-0.3-0.2-0.7-0.2-1-0.5
			c-0.1-0.1-0.3-0.2-0.4-0.4L81,89c-0.1-0.1-0.2,0-0.3-0.1c-0.2-0.1-0.3-0.1-0.5-0.2c-0.1-0.1-0.3-0.2-0.4-0.4
			c-0.1-0.2-0.2-0.3-0.5-0.3l-0.5-0.1c-0.2-0.1-0.5-0.4-0.7-0.5l-0.4-0.2h-0.2L77.5,87l-0.2-0.1c-0.1-0.2-0.2-0.1-0.4-0.2
			c-0.1-0.1-0.6-0.3-1-0.4c-0.4-0.1-0.5-0.2-0.7-0.3h-0.5c-0.1,0-0.3,0-0.4-0.1c-0.1,0-0.3-0.1-0.4-0.2c-0.1,0-0.2-0.1-0.2-0.1
			c-0.3-0.1-0.6-0.1-0.8,0h-0.3c-0.1,0-0.8-0.2-0.8-0.5c0-0.2,0-0.3,0-0.5s0-0.2,0.1-0.4v-0.1c-0.2-0.2,0-0.3,0-0.4s-0.2-0.4,0-0.6
			c0-0.1,0-0.1,0-0.2c-0.1-0.2,0-0.4,0-0.6v-0.5c0-0.1,0.1-0.3,0-0.5c-0.1-0.2,0-0.1,0-0.1l0.1-0.6l-0.2-0.1l0.1-0.3h-0.1
			c0,0-0.1,0-0.1,0c0,0,0,0,0,0l0.2-0.2c0.1-0.1,0.2-0.1,0.2,0.1v-0.3c-0.2,0-0.4-0.1-0.5-0.4s0-0.1,0-0.1s0.1-0.5,0.4-0.5
			c0.2-0.1,0-0.1,0.1-0.1c0,0-0.1,0.1-0.2,0v-0.3l-0.1,0.1c-0.1-0.2-0.1-0.4,0-0.6c0-0.1,0.1-0.2,0.1-0.3c0.1-0.2,0-0.3-0.2-0.4
			v-0.1c0.1-0.1,0.3-0.2,0.4-0.2v-0.1h-0.2c-0.1-0.1,0.1-0.4-0.2-0.5c-0.3-0.1,0.2-0.4,0.1-0.7c-0.2-0.2,0-0.1,0-0.2l0.1-0.4
			c-0.2-0.1-0.2-0.3-0.1-0.5v-0.1c-0.1-0.3,0-0.6,0.2-0.8l-0.4,0.1c0.2-0.1-0.1-1,0.2-1.2c0.1,0,0.3,0,0.4,0.1
			c0.5,0.2,1,0.2,1.5,0.1h0.2c0.1,0,0.2,0.2,0.4,0.2c0.3,0.1,0.7,0.1,1,0h0.5c0.2,0,0.4,0.1,0.6,0.1c0.7,0.1,1.3,0.6,2,0.6
			c0.2,0,0.3,0,0.5,0c0.2,0,0.4,0.1,0.5,0.1l0.5,0.1c0.2,0,0.3,0.1,0.4,0.2l0.2,0.1l0.2,0.1c0.2,0,0.3,0.1,0.5,0
			c0.2-0.1,0.3-0.1,0.5-0.1c0.2,0,0.4,0.1,0.6,0.2l0.8,0.5c0.1,0.1,0.2,0.2,0.4,0.3c0.2,0,0.4,0,0.6,0h0.5l0.4,0.2l0.5,0.4
			c0.1,0.1,0.3,0.2,0.5,0.2c0.3,0,0.6,0.1,0.9,0.2c0.3,0.1,0.5,0.4,0.7,0.6c0.1,0.1,0.2,0.2,0.3,0.2l0.6,0.1
			c0.2,0.1,0.4,0.3,0.6,0.4c0.2,0.1,0.8,0.4,1.1,0.2l0.1-0.1c0.1-0.1,0-0.1,0.1-0.2c0-0.1,0.1-0.3,0-0.4c0-0.1,0-0.1,0-0.2v-0.3
			c0-0.1-0.1-0.4,0.1-0.4s0.2,0.2,0.2,0.4c0,0.1,0.1,0.2,0.1,0.3v0.2c0.1,0.2,0.1,0.2,0.3,0.3c0.1,0,0,0.2,0,0.3s0,0.2,0.1,0.3
			l0.1,0.3c0.1,0.1,0,0.1,0.1,0.2c0,0.1,0.2,0.4,0.2,0.6c0,0.2,0,0.1,0,0.2s0,0.1,0,0.1s0,0.3,0,0.4c0,0.1,0,0.1,0,0.1v0.2l0.1,0.1
			v0.2l0.1,0.1v0.2c0,0.1,0,0.3,0,0.4l0.1,0.2c0,0.1,0,0.2,0.1,0.3c0,0.1,0,0.1,0,0.2c0,0.1,0,0.1,0,0.2s0,0.1,0.1,0.1
			c0,0,0,0.2,0,0.2c0,0.1,0.1,0.2,0.1,0.2c0,0.1,0.1,0.2,0.1,0.2c0,0.1,0.1,0.3,0.1,0.4c0,0.1,0,0.2,0,0.4c0,0.1,0,0.3,0,0.4
			c0,0.1,0.1,0.1,0.2,0.2c0.1,0.2,0.1,0.5,0.1,0.7c0,0.1,0,0.3,0,0.4c0,0.1,0,0.2,0.1,0.3c0,0.1,0,0.1,0.1,0.1c0,0.1,0,0.2,0,0.2
			c0,0.1,0,0.3,0,0.4c0.1,0.3,0.1,0.5,0.1,0.8v0.6c0,0.2,0.1,0.4,0.2,0.6l0.1,0.7c0.1,0.4,0.2,0.7,0.2,1.1c0.1,0.3,0.1,0.5,0.1,0.8
			c0,0.1,0,0.3,0.1,0.4c0.1,0.4,0.2,0.8,0.2,1.2l0.1,0.5c0.1,0.6,0.1,1.1,0.2,1.6l0.1,0.6c0,0.1,0.1,0.2,0.1,0.2l0.1,0.5v0.2
			c-0.1,0.4,0,0.9,0.3,1.2c-0.1,0.3-0.1,0.6,0.1,0.8c0.1,0.2,0.1,0.3,0.1,0.5c0,0.2,0,0.4,0.1,0.6c0,0.3,0.1,0.6,0.2,1
			c0.1,0.3,0,0.7,0.2,1c0.2,0.3,0,0.1,0,0.1c0,0,0,0.3,0,0.4s0.1,0.4,0.1,0.5v0.2C95.6,103,95.6,103.5,95.4,103.9L95.4,103.9z"/>
        <path class="white" d="M33.8,67.4L33.8,67.4c0,0.1,0,0.3,0.1,0.4c0,0.1,0,0.1,0,0.2c0.2,0.1,0.4,0,0.6-0.1c0.1-0.1,0.3-0.2,0.4-0.4
			c0.1-0.1,0.2-0.2,0.4-0.2l0.2,0.1h1c0.2,0,0.3,0,0.5-0.1c0.2-0.1,0.4-0.1,0.6-0.1c0.2,0,0.4-0.2,0.6-0.2c0.2-0.1,0.4,0,0.6-0.1
			c0.2-0.1,0.1-0.1,0.2-0.2c0.1,0,0.4,0.1,0.6,0c0.2-0.1,0.2-0.1,0.3-0.2c0.1,0,0.6,0,0.9-0.1c0.3-0.1,0.6-0.9,1.1-0.9
			c0.3,0,0.6-0.1,0.9-0.2c0.3-0.1,0.6-0.3,0.8-0.5c0.2-0.2,0.5-0.3,0.8-0.4c0.3-0.1,0.6-0.1,0.8-0.2c0.2-0.1,0.5-0.2,0.7-0.2
			c0.1,0,0.3,0,0.4,0c0.2,0,0.2-0.1,0.4-0.2l0.4-0.2c0.2,0,0.3-0.1,0.5,0l0.3-0.1h0.5c0.3,0,0.6-0.1,0.8-0.2
			c0.3-0.2,0.6-0.3,0.9-0.2c0.3,0,0.5-0.1,0.8-0.1h0.9l0.2-0.1h0.3c0.1,0,0.2-0.2,0.4-0.2c1-0.4,2.1-0.1,3.1-0.5
			c0.4-0.1,0.7-0.4,1-0.4h0.7c0.3,0,0.5-0.2,0.8-0.2c0.2,0,0.3,0,0.5-0.1l0.6-0.2l0.3-0.1H60c0.4-0.1,0.6-0.6,0.7-1
			c0-0.2,0.1-0.4,0.1-0.6c0-0.2,0-0.3,0.1-0.5c0.1-0.1,0.2-0.3,0.2-0.5c0-0.1,0-0.2,0-0.4v-0.5c0-0.2,0-0.4,0-0.7
			c0-0.1,0.1-0.1,0.1-0.2c0-0.1,0-0.3,0-0.4v-0.7c0-0.1,0.1-0.4,0-0.5c-0.1-0.1-0.1-0.1-0.1-0.1c0-0.1,0-0.2,0-0.3V54
			c0-0.1,0-0.3-0.1-0.4c-0.1-0.1-0.2-0.1-0.3-0.1c-0.1,0-0.5-0.2-0.7-0.1c-0.2,0.1-0.3,0.1-0.5,0.1c-0.1,0-0.2-0.1-0.3-0.1l-0.2-0.2
			c-0.1-0.1-0.2-0.1-0.4-0.1c-0.3-0.1-0.6-0.1-0.9-0.1c-0.2,0-0.4,0-0.5,0c-0.2,0.1-0.2,0-0.4,0c-0.3,0-0.5,0.1-0.8,0.1
			c-0.2,0-0.4,0.2-0.7,0.1h0c-0.1,0.2-0.3,0.2-0.4,0.2H54l-0.5,0.2c-0.1,0.1-0.3,0-0.4-0.1c0,0,0-0.1,0-0.1c-0.2,0-0.3,0-0.5,0
			l-0.4,0.2c0-0.1-0.1-0.2-0.1-0.3c-0.1,0.4-0.3,0.3-0.5,0.4c-0.1,0-0.3,0-0.4-0.2l-0.1,0.1c-0.2-0.4-0.4-0.3-0.6-0.1l-0.3-0.1
			l0.1,0.2c-0.2,0-0.4,0-0.6,0c-0.2-0.1-0.4-0.1-0.6,0c-0.2,0.1-0.5,0.2-0.7,0.2c-0.1,0-0.1,0.1-0.2,0.2c-0.1,0.1-0.3-0.1-0.5,0.1
			s-0.5,0-0.7,0.1c-0.2,0.1-0.1,0-0.1,0s-0.4-0.1-0.6,0.2c-0.1,0.1-0.2,0.1-0.3,0.1c0,0,0,0,0,0c-0.1-0.1-0.3-0.1-0.5,0l-0.5,0.2
			l-0.3,0.1c-0.2,0-0.4-0.1-0.5,0.1h-0.1c-0.2-0.1-0.3,0-0.5,0c-0.4,0.1-0.8,0.2-1.2,0.5c0,0-0.1,0.1-0.1,0s-0.2,0-0.4,0.1
			c-0.4,0.3-0.9,0.5-1.4,0.6c-0.4,0.1-0.7,0.2-1,0.1c-0.3-0.2-0.1-0.6-0.1-0.8l0.1-0.1c0.1-0.2,0.1-0.2,0.1-0.4c0-0.2,0-0.3,0-0.5
			c0.1-0.2,0.1-0.4,0.2-0.6l0.2-0.5l0.1-0.5c0-0.1,0-0.1,0.1-0.2c0-0.1,0.1-0.1,0.1-0.1c0,0,0.1-0.1,0.1-0.2s0.1,0,0.1-0.1
			s0-0.1,0-0.2c0,0,0.1-0.1,0.2-0.1c0.1,0.1,0,0.1,0,0.2c0,0.1,0,0.4,0.2,0.4c0.2,0,0.3,0,0.5-0.1c0.2,0,0.3,0,0.5-0.1
			c0.2-0.2,0.3-0.3,0.5-0.4h1l0.2-0.1h0.3c0.4-0.1,0.6-0.5,1-0.5s0.7,0,1-0.2c0.3-0.2,0.6-0.3,0.9-0.4l0.5-0.1c0.1,0,0.2,0,0.3,0
			c0.1,0,0.2-0.1,0.3-0.2l0.5-0.2c0.2-0.1,0.3-0.1,0.5-0.1h0.5l0.5-0.1l1.1-0.3c0.3-0.1,0.7-0.1,1-0.1h0.5c0.2,0,0.3,0,0.5-0.1
			c1.4-0.4,2.8-0.8,4.3-1c0.3-0.1,0.7-0.1,1-0.2c0.3-0.1,0.6-0.1,1-0.2h0.5c0.1,0,0.3,0.1,0.4,0c0.3-0.2,0.5-0.4,0.6-0.6
			c0.1-0.3,0.2-0.6,0.2-0.9c0-0.1,0.1-0.2,0.1-0.4c0-0.2,0.1-0.5,0.1-0.7c0.1-0.5,0.4-1,0.3-1.4c0-0.2-0.1-0.4-0.1-0.5
			c0-0.2,0-0.5,0-0.7c0.1-0.4,0.2-0.9,0.3-1.3c0-0.4,0-0.8,0-1.1v-1c0-0.2,0-0.3,0-0.5c0-0.2,0.1-0.5,0.1-0.8c0-0.3-0.1-0.5-0.3-0.7
			c-0.4-0.5-1.1-0.6-1.7-0.7c-0.6-0.1-3-0.9-4-0.3h-0.1c-0.2-0.1-0.3,0-0.5,0h-0.1c-0.2,0-0.5,0-0.7,0.1l-0.1,0.1
			c-0.3-0.1-0.7-0.1-1,0c-0.2,0-0.5,0.1-0.7,0.1c-0.1,0-0.3,0.1-0.4,0.2c0,0.1-0.2,0.1-0.3,0.1c-0.1,0-0.2-0.1-0.3,0
			c-0.1,0.1-0.2,0.1-0.3,0c-0.2-0.1-0.3-0.1-0.5,0c-0.1,0-0.1,0.1-0.2,0c-0.3,0-0.6,0-0.8,0.1h-0.1l-0.8,0.2
			c-0.2,0.1-0.3,0.1-0.5,0.1c-0.4,0-0.7,0.3-1.1,0.3h-0.1l-0.4,0.1l-1.3,0.4L44.5,39c-0.5,0.1-0.9,0.3-1.4,0.5h-0.2
			c-0.4,0.1-0.9,0.3-1.2,0.5c-0.3,0.1-0.5,0.2-0.8,0.2c-0.1,0-0.2,0-0.2-0.1c-0.3-0.2-0.6-0.3-0.9-0.2c-0.1,0-0.2,0-0.2,0.1
			c-0.2,0.2-0.4,0.4-0.6,0.6c-0.3-0.1-0.5,0.1-0.7,0.2c-0.1,0-0.2,0.2-0.2,0.3c0,0.1-0.2,0.2-0.2,0.3l-0.2,0.1v0.5
			c-0.2,0.1-0.3,0.3-0.3,0.5c0,0,0,0.1,0,0.1c0,0-0.1,0.3-0.1,0.5h0.1c0.1,0.3-0.2,0.4-0.2,0.6l0.2,0.2c-0.2,0.2,0.1,0.5-0.1,0.7
			l0,0l0.2,0.1L37,44.8c0.1,0.2,0.2,0.4,0.1,0.6c0,0.1-0.1,0.3-0.1,0.4L36.7,46l0.2,0.4l-0.1,0.3L36.7,47c0,0.1,0,0.2,0,0.3
			c0,0.2-0.1,0.3-0.2,0.4c0,0.1-0.1,0.2,0,0.2c0.1,0.3-0.1,0.4-0.2,0.6c0.1,0.3,0,0.6-0.2,0.8c0.1,0.2,0.1,0.4,0,0.5
			c0,0.1,0,0.2,0,0.3c0.1,0.1,0.1,0.3-0.1,0.3c0,0,0,0,0,0c-0.1,0-0.2,0.2-0.1,0.3c0,0,0,0,0,0.1c0.1,0.2,0,0.5,0,0.7
			c0,0.1,0,0.1,0,0.2c0,0.2,0,0.4-0.1,0.5c-0.1,0.1-0.1,0.2,0,0.3c0,0.1,0,0.2,0,0.3c-0.1,0.4,0.1,0.7-0.1,1.1c0,0,0,0.1,0,0.1
			c0,0,0,0,0,0c0.1,0.2,0,0.3-0.1,0.4c0.1,0.3,0.1,0.6-0.1,0.9c0.2,0.2,0.2,0.5,0,0.6c-0.1,0.1-0.2,0.3-0.2,0.5
			c-0.1,0.3,0,0.6-0.3,0.8c-0.2,0.2-0.1,0.2,0.1,0.3l0.1,0.1c-0.3,0.3-0.5,0.6-0.4,1c-0.1,0.1-0.1,0.1-0.1,0.5c0,0.3,0,0,0,0.1
			c0,0.3-0.1,0.6-0.1,0.9c-0.1,0.2-0.1,0.4-0.1,0.7c0,0.1-0.1,0.2,0,0.4s0,0.1-0.1,0.1l-0.1,0.1c0,0.1,0,0.2,0,0.3
			c-0.1,0.3,0,0.6,0.2,0.8v0.1l-0.1,0.1C34.2,63,34,63.1,34,63.3s-0.3,0.7-0.2,1.2c0.1,0.4,0,0.1,0,0.1c0,0,0,0.2,0,0.3
			c0,0.1,0,0.2,0,0.3c-0.1,0.3-0.1,0.7-0.1,1c0,0.1,0,0.1,0,0.2c0,0.1-0.1,0.4-0.2,0.7L33.8,67.4z M40.9,47.3l0.3-0.8
			c0.2-0.1,0.4-0.1,0.4-0.3c0.1-0.2,0.2-0.1,0.2-0.1l-0.1-0.2c0.1-0.1,0.3-0.2,0.3-0.5l0.1-0.1l0.1-0.1c0.1-0.1,0.3-0.2,0.5-0.1
			c0.1-0.4,0.5-0.7,0.8-0.8l0.9-0.5c0.2-0.1,0.5-0.2,0.7-0.3l1.3-0.6l0.4-0.1h0.1c0.2-0.2,0.5-0.2,0.8-0.3c0.3,0,0.5-0.1,0.8-0.2
			c0.5-0.2,1-0.1,1.5-0.4c0.3-0.1,0.5-0.2,0.8-0.2l0.8-0.1l1.3-0.2c0.6-0.1,1.1-0.2,1.7-0.3c0.6-0.1,1,0.1,1.4,0l0.4-0.1
			c0.2-0.1,0.4-0.1,0.6,0c0.2,0.1,0.1,0.3,0.1,0.5v1.3c0,0.1,0,0.2-0.1,0.4c-0.1,0.2-0.1,0.3-0.2,0.5c-0.1,0.3-0.6,1-0.9,1l-0.4,0.1
			h-0.2l-0.4,0.1h-0.4l-0.5,0.1c-0.2,0.1-0.4,0.2-0.7,0.3c-0.2,0-0.5,0.1-0.7,0c-0.3,0-0.6,0-0.9,0.1c-0.1,0.1-0.3,0.2-0.4,0.2
			c-0.2,0.1-0.4,0.1-0.6,0.1c-0.3,0-0.6,0-0.9,0.1c-0.1,0-0.3,0.1-0.4,0.1L49.5,46L49,46.1l-0.3,0.2c-0.4,0.1-0.7,0.2-1.1,0.1H47
			c-0.3,0-0.6,0-0.9,0.1l-1,0.2l-0.2,0.1l-0.2,0.1l-0.3,0.1h-0.1l-0.7,0.2l-0.2,0.1c-0.1,0.1-0.3,0.2-0.4,0.2s-0.2,0-0.4,0.1h-0.2
			c-0.2,0-0.3,0.1-0.5,0.2c-0.2,0.1-0.5,0.1-0.6-0.1c0,0,0,0,0,0l-0.2-0.2V47.3z M38.2,63.3c0-0.1,0-0.1,0-0.2c0-0.1,0-0.2,0.1-0.3
			v-0.1c0,0,0-0.1,0-0.1s0-0.1,0-0.2s0,0,0-0.1c0-0.1,0.1-0.2,0.1-0.3c0-0.2,0.1-0.3,0.2-0.5c0-0.1,0-0.2,0.1-0.2c0,0,0-0.1,0-0.1
			V61c0-0.1,0.1-0.1,0.1-0.2c0-0.1,0-0.2,0-0.2s0.2-0.3,0.2-0.5l0.1-0.2c0,0,0-0.1,0-0.1c0,0,0-0.1,0-0.1c0,0,0-0.1,0-0.2v-0.1
			l0.1-0.2c0-0.1,0-0.2,0.1-0.3c0,0,0.1-0.1,0.1-0.2s0-0.2,0-0.3c0-0.1,0.1-0.2,0.1-0.2v-0.3c0-0.1,0-0.2,0.1-0.2s0.2,0.2,0.3,0.3
			c0.1,0.1,0.1,0.1,0.1,0.2v0.3c0,0.1,0,0.2,0,0.3c0.1,0.1,0.1,0.1,0.1,0.1s0.1,0.3,0.1,0.4v0.2l0.1,0.1l0.1,0.1
			c0.1,0.1,0.2,0.1,0.2,0.1h0.7l0.2-0.1l1.4-0.5l1.4-0.4c0.4-0.1,0.7-0.1,1.1-0.2l0.3-0.1c0.3-0.1,0.7,0,1-0.1h0.3
			c0.1,0,0.1-0.1,0.2-0.1c0.2-0.1,0.4-0.1,0.7-0.1c0.2,0,0.5,0,0.7-0.1l0.4-0.3c0.3-0.2,0.7-0.4,1-0.5c0.3-0.2,0.7-0.1,1.1-0.1
			c0.4,0,0.4-0.1,0.6-0.1c0.3,0,0.6,0.1,0.9,0.1l0.5-0.1c0.3,0,0.8,0.1,1,0s0.3-0.3,0.6-0.3h1.2c0.2,0,0.5-0.3,0.8-0.3h0.2
			c0.1,0,0.1,0.1,0.1,0.2c0,0.1,0.2,0.1,0.2,0.2c0,0.2,0,0.3,0,0.5v0.5c0,0.2,0,0.3,0,0.5l-0.1,0.4c0,0.1,0,0.1,0,0.2
			c-0.1,0-0.1,0.1-0.1,0.2c-0.1,0.2-0.2,0.3-0.4,0.5l-0.4,0.2c-0.4,0.1-0.9,0.2-1.3,0.2c-0.5,0-0.9,0.1-1.4,0.1
			c-0.2,0-0.4,0.1-0.6,0.1l-0.6,0.1c-0.2,0-0.4,0.1-0.6,0.2h-0.6v0.2h-0.2c-0.2-0.2-0.5-0.1-0.7-0.1s-0.5,0-0.7,0.1
			c-0.2,0.1-0.5-0.1-0.7,0.1H49c-0.1,0-0.3,0-0.3,0.2c0,0,0,0,0,0l-0.4-0.2L48.2,61c-0.1-0.2-0.4-0.3-0.6-0.2c0,0-0.1,0-0.1,0.1
			h-0.2c-0.4,0-0.8,0.1-1.2,0.3c-0.2,0.1-0.5,0.2-0.7,0.3h-1.1c-0.5,0.2-1,0.3-1.5,0.4c-0.7,0.2-1.5,0.4-2.2,0.7h-0.1l-0.9,0.3
			l-0.7,0.4c-0.2,0.1-0.4,0.2-0.6,0.1C38.2,63.5,38.2,63.4,38.2,63.3z"/>
        <path class="white" d="M65.7,60.4c0,0.4,0,0.7,0.1,1.1c0,0.2,0,0.5,0.1,0.5h0.6c0.2-0.1,0.4-0.1,0.6-0.1h0.6c0.3,0,0.5-0.3,0.7-0.4
			c0.2-0.1,0.4-0.1,0.5-0.4c0.1-0.2,0.2-0.4,0.2-0.6c0.1-0.2,0.1-0.5,0.2-0.7c0-0.1,0.1-0.3,0.1-0.4c0.1-0.1,0.1-0.1,0.1-0.2
			c0-0.4,0-0.8,0-1.2V57c0-0.6,0-1.2,0-1.8c0-0.6-0.1-0.5-0.1-0.7v-1.9c0-0.3,0.1-0.7,0.2-1c0-0.3,0-0.5,0-0.8
			c-0.1-0.3-0.2-0.4-0.2-0.7c0-0.2,0.1-0.4,0.3-0.6c0.1-0.1,0.2-0.3,0.2-0.4c0.1-0.3,0-0.3,0.4-0.3c0.4,0,0.9,0.1,1.3,0.2
			c0.5,0.2,1,0.1,1.4,0.3l0.4,0.2c0.2,0,0.4,0.1,0.6,0.1l0.6,0.2C75.1,50,75,50.7,75,51c0,0.3,0.1,1.2,0.1,1.8
			c0,0.6,0.2,1.2,0.2,1.8v4.2c0,0.3-0.1,0.6-0.1,0.9c0,0.4,0,0.9,0.1,1.3c0.1,0.2,0.2,0.4,0.2,0.7v0.7c0,0.6,1,0.7,1.4,0.6
			c0.4,0,0.5-0.2,0.8-0.1c0.3,0.1,0.6,0.1,0.8,0l0.4-0.1h0.4c0.2-0.1,0.2-0.2,0.2-0.5c0-0.6,0-1.1-0.1-1.7c-0.1-0.4-0.1-0.8-0.2-1.2
			c0-0.2,0-0.4,0-0.5V57c0-0.4-0.1-0.8-0.2-1.2c-0.1-0.5-0.1-0.9-0.1-1.4v-3c0-0.3,0-0.5,0.2-0.7c0.2-0.2,0.4-0.3,0.6-0.4
			c0.4-0.2,1,0.2,1.3,0.2c0.4,0,0.7,0.2,1,0.3c0.3,0.1,0.6,0.2,1,0.4h0.3l1.1,0.4c0.1,0,0.3,0,0.4,0.1c0.3,0.1,0.6,0.3,0.9,0.4
			c0.2,0,0.3,0.1,0.4,0.2l0.2,0.1h0.2c0.1,0.1,0.2,0.2,0.3,0.4c0,0.2,0.2,0.4,0.2,0.6c0,0.2,0.2,1,0.4,1.5c0.1,0.5,0.3,1.1,0.4,1.7
			c0,0.3,0.1,0.5,0.2,0.7c0,0.3,0,0.5,0.1,0.8c0.1,0.3,0.1,0.6,0.1,1c0,0.2,0.1,0.3,0.1,0.5c0,0.1,0,0.2,0,0.3
			c0.2,0.4,0.1,0.8,0.3,1.2l0,0c0,0.4,0.1,0.9,0.1,1.3c0,0.2,0,0.4,0.1,0.6V63c-0.1,0.2,0,0.3,0.1,0.4c0,0.1,0.1,0.2,0,0.2
			c-0.1,0.2,0,0.4,0.1,0.6c0.1,0.2,0.2,0.5,0.4,0.6c0.2,0.1,0.6-0.1,0.8-0.1c0.3,0,0.6-0.1,0.9-0.2c0.5-0.1,0.9-0.3,1.2-0.6
			c0.2-0.1,0.3-0.3,0.4-0.5c0-0.1,0-0.9,0-0.9l0.2-0.1l-0.1-0.1c0-0.3-0.1-0.7-0.2-1h0c0,0.1-0.1,0.2-0.1,0.3
			c-0.1-0.3-0.1-0.3,0.1-0.5c0-0.2,0-0.4,0.2-0.6h-0.2l0.1-0.2h-0.2l0.2-0.1l-0.4-0.6c0.1-0.2,0.1-0.4-0.2-0.6l0.3-0.4h-0.2
			c0-0.1,0-0.2,0.1-0.3c0.1-0.1,0.1-0.3,0.1-0.4c0-0.1,0-0.2,0-0.4v-0.1l-0.2,0.1c0-0.4,0.2-0.6,0.1-1c-0.2,0.2,0,0.5-0.2,0.5
			L91.9,57l0.1-0.1c0.1-0.1,0-0.2,0-0.2l0.2-0.2c0-0.1-0.1-0.2-0.1-0.2l0.1-0.5c-0.1,0.1-0.2,0.3-0.4,0.2c0.1-0.2,0.1-0.3,0.1-0.5
			c0.2-0.2,0-0.2-0.1-0.3v-0.7c0-0.5,0-1-0.1-1.5s0-0.2,0-0.2c0,0,0-0.3,0-0.4c-0.1-0.1-0.1-0.3-0.1-0.4c0-0.2-0.1-0.4-0.1-0.6
			c0.1-0.2,0-0.4-0.1-0.6c0-0.1,0-0.2,0-0.2c0.1-0.2,0-0.3-0.1-0.4c0,0,0,0-0.1,0l0.3-0.2c-0.1-0.2-0.2-0.3-0.4-0.4v-0.1
			c0-0.2-0.1-0.2-0.3-0.2c-0.1,0-0.1,0-0.2-0.1c-0.3-0.3-0.6-0.5-1-0.6l-0.3-0.1c-0.2,0-0.4-0.3-0.6,0c-0.1-0.1-0.1-0.2-0.2-0.3
			c-0.1,0.1-0.3,0.1-0.4,0h-0.1c-0.4,0-0.7-0.1-1.1-0.2c-0.4-0.1-0.8-0.3-1.2-0.4c-0.4-0.1-0.9-0.2-1.3-0.4c-0.4-0.1-0.3,0-0.4-0.1
			c-0.1-0.1-0.4-0.1-0.6-0.2c-0.2-0.1-0.5-0.2-0.7-0.2H83l-0.2-0.1L82.1,46C82,46,81.8,46,81.7,46h-0.2l-0.7-0.2l-0.7-0.2
			c-0.4-0.1-0.8-0.4-1.2-0.3h-0.1c-0.3-0.2-0.6-0.3-1-0.2c-0.2,0-0.4-0.2-0.4-0.5s0-0.2-0.1-0.4l0.2-0.2c0-0.1-0.1-0.3-0.1-0.4
			s-0.1-0.4-0.2-0.6l-0.1-0.1c0-0.1,0-0.1,0-0.1s-0.1-0.2-0.1-0.2l-0.2-0.1l-0.2-0.2l-0.2-0.1C76.3,42,76.1,42,75.9,42h-0.2
			c-0.1,0-0.1-0.1-0.1-0.2s0-0.1,0.1-0.1h0.2l0.1,0.1c0.2,0,0.4-0.1,0.6,0h0.6c0.3,0,0.6,0,0.8,0c0.4-0.1,0.8-0.1,1.2,0.1
			c0.1,0,0.1,0.3,0.2,0.4c0.1,0.1,0.2-0.1,0.5,0c0.5,0,1.1,0.1,1.6,0.2c0.2,0,0.6,0.2,0.8,0.3l0.8,0.1c0.5,0,1.1,0.2,1.6,0.4
			c0.4,0.2,0.6,0.1,1,0.1s0.6,0.4,1,0.4c0.4,0,0.6,0.4,1,0.5c0.4,0.1,0.6,0.5,0.9,0.5v0.1c0-0.2,0-0.4,0-0.5c-0.1,0.5,0.6,1,1,0.9
			c0.2,0,0.4-0.2,0.4-0.5c0,0,0-0.1,0-0.1c0,0,0,0,0,0C90,44.4,90,44.2,90.1,44c0.1-0.3,0-0.6,0-0.8c-0.1-0.4-0.2-0.9-0.6-1.2
			c-0.3-0.3-0.6-0.5-0.9-0.7c0,0,0,0-0.1-0.1c0,0-0.4-0.5-0.4-0.8c0-0.2-0.1-0.3-0.3-0.4c-0.1,0-0.2,0-0.2-0.1
			c-0.1-0.2-0.3-0.3-0.6-0.3c-0.1,0-0.2-0.1-0.3-0.1c-0.2-0.1-0.4-0.2-0.6-0.3c-0.2-0.1-0.4-0.2-0.7-0.2c-0.4-0.1-0.7-0.2-1-0.3
			c-0.2-0.1-0.4-0.1-0.6-0.1c-0.2,0-0.5,0-0.6-0.1L83,38.3c-0.4,0-0.8-0.2-1.3-0.1h-0.1l-0.7-0.1c-0.5-0.1-1-0.1-1.5-0.2
			c-0.3-0.1-0.7-0.1-1.1-0.1c-0.6,0-1.2-0.2-1.8-0.2c-0.4,0-0.8,0-1.1-0.2c0,0,0,0-0.1,0h-0.6v0.1L74.7,37c-0.3,0.3-0.8,0-1.2,0.1
			c-0.3,0-0.5,0.2-0.9,0.1c-0.5-0.2-1-0.3-1.6-0.4c-0.2,0-0.5,0.1-0.7,0.1c-0.9-0.1-1.7,0-2.7-0.1c-0.3,0-0.6,0-1,0L66.5,37
			c-0.2,0.3-0.4,0.7-0.5,1c0,0.2-0.1,0.5,0,0.7c0,0.2,0,0.5-0.1,0.7c-0.1,0.3-0.4,0.5-0.4,0.8c-0.1,0.2,0,0.5,0.1,0.7
			c0.1,0.1,0.1,0.1,0.3,0.1c0.1,0.1,0.3,0.1,0.4,0.1l0.6-0.2c0.3,0,0.6,0,0.8,0l0.7-0.1c0.1-0.1,0.3-0.1,0.4-0.1l0.6,0.1h0.3
			c0.4,0,0.8,0,1.2,0.2l0.4,0.1c0.2,0.1,0.4,0.1,0.6,0.1h1.2l0.2,0.1h0.5l0.1,0.1H74c0,0,0.1,0,0.1,0.1c0,0,0,0.1-0.1,0.2
			s-0.3,0.1-0.5,0.1c-0.1,0-0.3,0-0.4,0.1c-0.1,0.1-0.3,0.2-0.4,0.3s0,0.1,0,0.1c0,0,0,0.1,0,0.1c0,0,0,0.1,0,0.2
			c0,0.2,0.1,0.5,0.1,0.7c0,0.2,0.1,0.3,0.1,0.5s0,0.3-0.2,0.3c-0.2,0-0.3-0.1-0.5-0.1c-0.2,0-0.3,0.1-0.5,0.2
			c-0.2,0.2-0.3,0.1-0.6,0.1c-0.3,0-0.5,0-0.8,0.1c-0.1,0-0.2,0.1-0.2,0c-0.2-0.1-0.4-0.1-0.6,0c-0.2,0-0.4,0-0.6,0
			c-0.2,0-0.7-0.1-1.1,0.1h-0.1c-0.4-0.1-1.3-0.1-1.6,0.3c-0.2,0.3-0.3,0.6-0.4,1c-0.1,0.4-0.1,0.9,0,1.3c0,0.6-0.3,1.1-0.2,1.7
			c0.1,0.3,0.1,0.5,0.2,0.8c0,0.6,0,1.2,0,1.7v2.9c0,1,0.1,2,0.1,3c0,0.6,0,1.2-0.1,1.8C65.9,59.4,65.9,59.9,65.7,60.4
			C65.6,60.7,65.7,60.3,65.7,60.4z"/>
        <path class="white" d="M40.7,36.8l0.5-0.1l0.4-0.2l0.3-0.1c0.1,0,0.1-0.1,0.2-0.1c0.1,0,0.5,0,0.7,0c0.2,0,0.4,0,0.6-0.1l0.8-0.7
			c0.2-0.1,0.5-0.2,0.7-0.2c0.2-0.1,0.4-0.1,0.7-0.1c0.3,0,0.6-0.1,0.8-0.2l0.7-0.3c0.5-0.2,1.1,0,1.6-0.1c0.1,0,0.3,0,0.4-0.1
			c0.5-0.2,0.7-0.6,1.2-0.5c0.5,0.1,1.1-0.2,1.5-0.4l0.4-0.2l0.3-0.1l0.3-0.1c0.3-0.2,0.6-0.3,1-0.4c0.5-0.2,1-0.3,1.4-0.3h0.2
			c0.2-0.1,0.5-0.2,0.8-0.2h0.1l0.4-0.2l0.7-0.2c0.1,0,0.3-0.1,0.5-0.1c0.4,0,0.8,0,1.2-0.1c0.2-0.1,0.4-0.1,0.6-0.2
			c0.2-0.1,0.4-0.2,0.6-0.4c0.4-0.2,0.8-0.6,1.1-1c0.2-0.4,0.6-0.7,0.8-1.1c0.1-0.2,0.2-0.5,0.3-0.7c0-0.2,0-0.3,0-0.5
			c0-0.1,0-0.3,0.1-0.4c0.1-0.2,0.2-0.4,0.2-0.6c0.1-0.3-0.1-0.7,0.2-0.8c0.1,0,0.3-0.1,0.4,0c0.1,0,0.1,0.1,0.1,0.2
			c0,0.1,0.3,0.5,0.4,0.7c0.1,0.1,0.1,0.2,0.2,0.4c0,0.1,0,0.3,0,0.4c0,0.1,0.1,0.2,0.1,0.4c0,0.2,0.1,0.3,0.1,0.4
			c0.1,0.2,0.2,0.3,0.4,0.5c0.1,0.2,0.2,0.5,0.4,0.7c0.2,0.2,0.4,0.2,0.6,0.4c0.2,0.1,0.4,0.4,0.6,0.7c0.2,0.2,0.3,0.3,0.6,0.4
			c0.9,0.4,1.9,0.6,3,0.7l0.7-0.1l0.6,0.1l0.2-0.1c0.3,0,0.7,0,1,0.1c0.2,0,0.3,0.1,0.5,0.1l1.3,0.3l0.5,0.1c0.1,0,0.3,0.2,0.4,0
			h0.1c0.3,0.1,0.5,0.2,0.8,0.3c0.2,0.1,0.4,0.2,0.6,0.3c0.1,0.1,0.3,0.2,0.5,0.2c0.3,0,0.5,0.1,0.7,0.2c0.6,0.4,0.8,0.1,1.4,0.2
			c0.6,0.1,1,0.5,1.5,0.6c0.5,0.1,0.5,0,0.8,0l0.4,0.2c0.2,0,0.4,0,0.6,0.1c0.3,0.2,0.6,0.3,1,0.4h1.1c0.3,0,0.6,0,1,0.1l0.7,0.2
			c0.2,0.1,0.2,0.3,0.3,0.6c0.1,0.3,0.6,0.3,1,0.4c0.4,0.1,0.1,0.1,0.2,0.2l0.2,0.1c0.1,0.1,0.3,0.1,0.4,0.1c0.2,0,0.3,0,0.5,0.1
			l0.4,0.2c0.4,0.2,0.6,0.2,0.6-0.4c0.1-0.4,0-0.9-0.2-1.3c-0.1-0.2-0.2-0.5-0.4-0.7s-0.3-0.2-0.5-0.3c-0.1-0.1-0.2-1-0.7-1.1
			c-0.2,0-0.5-0.1-0.7-0.2c-0.2-0.1-0.4-0.2-0.5-0.3l-0.2-0.1l-0.3-0.2c-0.1-0.1-0.2-0.2-0.3-0.2c-0.1,0-0.5-0.1-0.7-0.3
			C85.1,31.6,84.6,31,84,31h-0.4c-0.4,0-0.8-0.2-1.1-0.4c-0.6-0.4-1.2-0.6-1.9-0.7c-0.7-0.1-1.4-0.5-2.2-0.7
			c-0.7-0.2-1.7-0.4-2.4-0.7c-1.8-0.9-3.8-1-5.8-1.5l-1.3-0.3c-0.5,0-0.9-0.1-1.3-0.2c-0.2,0-0.2-0.1-0.4-0.2
			c-0.2-0.2-0.3-0.3-0.5-0.4c-0.2-0.2-0.3-0.3-0.5-0.5L66.2,25L66,24.7c-0.1-0.2-0.2-0.5-0.2-0.7c-0.1-0.2-0.1-0.5-0.2-0.8
			c-0.1-0.3-0.3-0.6-0.4-0.8c0-0.1-0.1-0.3-0.1-0.5c0-0.2-0.1-0.3-0.1-0.5c0-0.1,0-0.2,0.1-0.3v-0.2c0-0.1,0-0.2,0-0.2
			c0.1-0.2,0.1-0.4,0.1-0.7c0-0.1,0-0.2,0-0.3l0.1-0.2c0-0.2,0.1-0.4,0.2-0.5c0.1-0.1,0.1-0.3,0.1-0.4c-0.1-0.2-0.1-0.2-0.3-0.2
			l-0.4-0.1c-0.1,0-0.3,0-0.4,0.1l-0.4,0.1c-0.1,0-0.3-0.1-0.4-0.1c-0.1-0.1-0.2-0.1-0.4-0.1h-2.1L61,18.2c-0.1,0-0.1,0-0.2,0
			c-0.2,0.2-0.3,0.4-0.3,0.7c0,0.1,0.1,0,0.1,0.1c0,0.1,0,0.2,0,0.2l0.1,0.4c0.1,0.2,0.2,0.3,0.2,0.5c0,0.1,0,0.2,0,0.3L61,20.6
			c0,0.2-0.1,0.4,0,0.6v0.5c0,0.1,0.1,0.2,0.1,0.3c0,0.1,0,0.1,0,0.2c0,0.2-0.1,0.4-0.1,0.5c0,0.2,0,0.3,0,0.5
			c0,0.2-0.1,0.4-0.2,0.6c-0.1,0.2-0.2,0.5-0.3,0.7c0,0.2-0.1,0.3-0.1,0.5c-0.1,0.4-0.2,0.8-0.3,1.2c-0.1,0.4-0.5,0.5-0.8,0.6h-0.4
			c-0.6,0.1-1.2,0.3-1.8,0.6c-0.5,0.2-0.7,0.1-1.1,0.1c-0.4,0-0.8,0.3-1.2,0.4s-0.7,0.2-1,0.4c-0.3,0.1-0.5,0.2-0.8,0.3l-0.6,0.2
			c-0.1,0-0.1,0.1-0.2,0.1c-0.1,0-0.4,0.4-0.6,0.3s-0.8,0.5-1.3,0.5c-0.2,0-0.4,0-0.5,0c-0.1,0-0.1,0.1-0.2,0.2l-0.2,0.1
			c-0.1,0-0.1,0.1-0.2,0.1h-0.3c-0.2,0-0.4,0-0.6,0c-0.1,0.1-0.2,0.2-0.4,0.2l-0.5,0.2c-0.1,0-0.2,0-0.3,0l-0.1,0.1
			c-0.3,0.1-0.6,0.2-0.8,0.4l-0.5,0.2L45,31.4l-0.6,0.4c-0.2,0.1-0.4,0.1-0.6,0.1c-0.3,0.1-0.6,0.3-1,0.4c-0.2,0.1-0.5,0.2-0.7,0.4
			c-0.2,0.2-0.5,0.4-0.7,0.5c-0.2,0.1-0.4-0.1-0.5,0.2c-0.1,0.1-0.2,0.2-0.3,0.3h-0.1c-0.1,0-0.1,0.1-0.1,0.1h-0.2
			c-0.1,0-0.4-0.1-0.5,0c-0.1,0.1-0.1,0.1-0.2,0.2l-0.2,0.2c-0.1,0-0.1,0.1-0.2,0.2h-0.3c-0.2,0-0.2,0-0.4,0.2c0,0.2,0,0.3,0,0.5
			c0,0.2,0,0.4-0.1,0.7c-0.1,0.4,0,0.9,0.1,1.3c0.1,0.3,0.4,0.4,0.7,0.4c0.1,0,0.3,0,0.4-0.1c0.2-0.1,0.3-0.4,0.5-0.4
			C40.3,36.8,40.5,36.8,40.7,36.8L40.7,36.8z"/>
        <path class="white" d="M71.9,78.6c0.2,0,0.1-0.1,0.1-0.2C72,78.4,71.9,78.5,71.9,78.6z"/>
</g>
</svg>
