<svg version="1.2" baseProfile="tiny"
     xmlns="http://www.w3.org/2000/svg" x="0px" y="0px" viewBox="0 0 256 256"
     xml:space="preserve">
<path fill="#808080" d="M75.1,132.7c0,5.3,0.2,10.6,0,15.9c-0.2,5.3,3.7,6.2,7.4,7.1c2.7,0.6,5.8,1.8,7.2-2c1.4-3.9-0.8-7.1-3.8-8.4
	c-7.1-3.2-3.2-5,0.5-7.2c7.2-4.2,14.5-3.7,21.8-0.8c2.4,1,3.7,1.3,2.5,5.7c-5.2,18.8-6.4,38.7-2.8,57.5c2.4,12.6-3,23.4-1.7,35.2
	c0.7,6.7-6.3,3.8-10.1,4.1c-6.8,0.6-4.7-3.7-3.7-7.5c0.6-2.3,0.5-4.8,0.7-7.2c0.3-4.8-0.3-8.4-6.7-8.4c-5.9,0-9.7,1.6-8.4,8
	c3.5,17.7-6.1,19.7-20.1,18.3c-6.3-0.6-8.5-1.6-6.3-8.5c1.5-4.6,4.2-11.4-1.9-14.1c-4.3-1.9-11-1.7-15.3,0.4c-5.3,2.5-1,8.5-1.2,13
	c-0.1,3.9,5.4,11.1-3.3,10.7c-5.6-0.3-13.4,1.6-15.2-10.1c-2.6-16.8,3.7-32.2,3.6-48.3c-0.1-8.1,0.4-16.2-3-23.9
	c-1.5-3.3-3.9-6.3,0.7-9.9c3.6-2.7,3-6.8-0.6-9.8c-2.5-2.1-7.6-5-6.1-6.9c2.2-2.7,7.3-4,11.2-4.2c4.1-0.3,8.4,2,12.6,2.1
	c10.2,0.4,8.6,5.3,3.6,10c-2.6,2.4-5.6,3.7-4.1,7.7c1.6,4.4,5.7,2.3,8.7,2.8c13,2.3,20.3-1.6,17.5-16.5c-0.5-2.8-0.5-5.9,0-8.6
	c3-16.1-3.6-21.6-19.3-19.3c-5.4,0.8-12.8,2.9-12.7-8c0.1-10.7,7.1-7.9,12.9-8.1c3.8-0.1,7.7,0.3,11.5-0.2c5.3-0.7,9.2-4.4,9.2-9.4
	c0-5.5-5.1-5.8-9.6-5.9c-11.4-0.2-23.4,0.9-29.1-12.8c-0.5-1.3-3.4-1.4-5-2.4c-3.3-2-13.8-23.4-14.2-26.6C2,31,5,33.5,6.6,34.1
	c41.6,14.8,83.5,4.7,125.4,2.2c39.8-2.4,77.3-12.9,113.5-29.1c2.2-1,5.1-4.3,7.4-1.3c2.1,2.6-0.4,5.5-2,7.8
	c-2.5,3.4-3.4,6.9-1.2,10.7c7.3,12.4,2.7,17.6-10.5,19.8c-7.8,1.3-14.6,4.8-19.5,13c-6.1,10.3-18,9.7-28.6,9.2
	c-7.7-0.4-14.1,1.5-13.6,9.7c0.5,7.3,8.1,8.2,14.1,8.3c5.2,0.1,10.4-1.7,15.7-1.8c4.1-0.1,11.3-4,11,3.9c-0.2,6,1.1,15.6-10.5,14.8
	c-3.8-0.3-7.7,0.3-11.5,0.7c-21.6,2.4-23.4,4.7-20.3,26.6c0.8,5.7,2.2,11.3,3.5,16.9c1.1,5,2.7,9.5,9.2,8.5
	c3.5-0.6,8.1,1.9,10.3-2.5c3.2-6.3-5.1-6.9-6.3-11.3c-0.6-2.1-6.1-1.7-4.8-5.5c0.3-1,4.4-0.8,6.8-1.2c3.8-0.7,7.6-2.4,11.2-2.2
	c5.7,0.4,11.2,2.2,16.8,3.4c-1.8,4.3-7.2,8.5-7.4,10.8c-0.7,11-1.1,22-1.7,33.1c-1.1,19.3,3,38.5,2.1,57.9c-0.3,7.2-2.7,9.3-9.2,9.4
	c-5.8,0.1-10.7,0-9.8-8.1c0.4-3.8-0.3-7.9,0.6-11.5c1.5-5.9-1.5-6.4-5.9-6.6c-4.7-0.2-7.5,1.2-6.9,6.5c0.2,1.4,0.2,2.9,0.4,4.3
	c2.7,18.6,2.5,17.9-15.4,18.5c-12,0.4-10-6.6-10.4-13.7c-0.3-4.2,3-10.4-3.8-12.2c-3-0.8-7.5-0.7-9.5,1c-3.8,3.2-1.2,7.9,0,12
	c1.3,4.7,3.1,10.7-0.4,13.7c-4.7,4-10.9-0.4-16.4-1.2c-7.3-1.1-2.9-7.8-4.4-11.7c-6.1-16.1,3.6-31.2,2.8-46.8
	c-0.4-8.6,3.2-18-5.1-25.4c-1.5-1.3-1.6-6.6-0.3-8.3c7-8.7,5.5-15-3.6-20.8c-4.7-3-0.3-4.2,1.9-5.4c10-5.6,20.3-5,30,0.2
	c7.7,4.1-0.4,6.7-2.3,7.8c-3.8,2.4-7.9,4-6.6,9.6c1.1,4.8,5.3,2.9,8.3,3.3c5.8,0.8,7.9-3.1,8.2-7.7c0.7-11,0.9-22.1,1.1-33.2
	c0.1-7.8-6-6.1-10.4-5.9c-19.6,1.2-39.2,3.3-58.9,3.8c-12.4,0.3-17.3,5-15.1,17.3C75.4,127.8,75,130.3,75.1,132.7L75.1,132.7z
	 M31.8,186.9c1.5,6.1-4.9,16.3,10.8,16.8c16.3,0.5,9.2-9.7,10.2-16.6c0.3-2.4,0-5,0.9-7.1c2.7-6.6,0.5-9.3-6.3-10.8
	C32.6,166,31.8,166.5,31.8,186.9z M199.7,186.4c0.1,0,0.1,0,0.2,0c0-1.9-0.1-3.8,0-5.8c0.4-7.6,0.8-14.4-10.7-13.1
	c-12.1,1.3-5.1,8.6-5.1,13.7c0,5.7,0.3,11.5,0.6,17.2c0.2,3.2-0.5,7.6,4.7,6.8c4-0.6,9.3-0.1,10.1-5.9
	C200.1,195.1,199.7,190.7,199.7,186.4z M90.2,185.7c0-3.8-0.1-7.6,0-11.5c0.2-5-2.3-6.6-6.9-6.6c-4.8,0-8.4,0.6-8.3,6.7
	c0.2,7.6,0.1,15.3,0.1,22.9c-0.1,5.5,3.5,5.8,7.6,5.9c4.2,0,7.6-0.6,7.5-6C90.1,193.3,90.2,189.5,90.2,185.7z M144.2,185.6
	c0,4.5,0.2,7.8,0,11.2c-0.5,6.2,1,9.9,8.5,9.4c8-0.6,6-5.2,5-9.9c-0.7-3.3-0.2-6.8-1.2-9.9c-2-6.2,5.5-18.1-6.3-17.8
	C137.8,168.7,147.5,180.8,144.2,185.6z M137.7,89.7c8.7-1.6,18.6-2.8,20.3-13.5c0.7-4.5-4.4-6.8-10.4-6.5
	c-10.9,0.4-16.1,5.5-16.9,16C130.3,91.6,134.7,89.3,137.7,89.7z M88.2,75.3c-7.4-1.8-12.6,1.9-12.2,9c0.4,6.3,7.2,8.9,12.8,8
	c5-0.8,14.1,2.3,13.7-7.5C102.2,76.8,96.3,73.7,88.2,75.3z"/>
</svg>
