<?xml version="1.0" encoding="utf-8"?>
<!-- Generator: Adobe Illustrator 26.0.2, SVG Export Plug-In . SVG Version: 6.00 Build 0)  -->
<svg version="1.1" xmlns="http://www.w3.org/2000/svg" viewBox="0 0 1903 1093" xml:space="preserve">
<style type="text/css">
	.st0{fill:none;stroke:black;stroke-width:3;stroke-miterlimit:8;}
	.st1{fill:black;font-family:sans-serif;font-size:64px;}
</style>
    <path class="st0" d="M1133.5,511.5v497.4h39.7"/>
    <path class="st0" d="M1133.5,511.5v309.6h39.7"/>
    <path class="st0" d="M1133.5,511.5v121.7h39.7"/>
    <path class="st0" d="M919.5,324.5v27.8h320.2v27.8"/>
    <path class="st0" d="M813.5,511.5v497.4h39.7"/>
    <path class="st0" d="M813.5,511.5v309.6h39.7"/>
    <path class="st0" d="M813.5,511.5v121.7h39.7"/>
    <path class="st0" d="M919,324.5v55.6"/>
    <path class="st0" d="M493.5,511.5v497.4h39.7"/>
    <path class="st0" d="M493.5,511.5v309.6h39.7"/>
    <path class="st0" d="M493.5,511.5v121.7h39.7"/>
    <path class="st0" d="M918.7,324.5v27.8H598.5v27.8"/>
    <path class="st0" d="M919,136.5v55.6"/>
    <rect x="786.5" y="3.5" class="st0" width="265" height="133"/>
    <text transform="matrix(1 0 0 1 855.488 95)" class="st1">学部</text>
    <rect x="786.5" y="191.5" class="st0" width="265" height="133"/>
    <text transform="matrix(1 0 0 1 855.488 283)" class="st1">监督</text>
    <rect x="466.5" y="379.5" class="st0" width="265" height="132"/>
    <text transform="matrix(1 0 0 1 503.244 471)" class="st1">斋务长</text>
    <rect x="532.5" y="567.5" class="st0" width="265" height="132"/>
    <text transform="matrix(1 0 0 1 601.477 659)" class="st1">检查</text>
    <rect x="532.5" y="755.5" class="st0" width="265" height="132"/>
    <text transform="matrix(1 0 0 1 601.477 847)" class="st1">监学</text>
    <rect x="532.5" y="943.5" class="st0" width="265" height="132"/>
    <text transform="matrix(1 0 0 1 537.31 1035)" class="st1">卫生检查</text>
    <rect x="786.5" y="379.5" class="st0" width="265" height="132"/>
    <text transform="matrix(1 0 0 1 823.404 471)" class="st1">教务长</text>
    <rect x="853.5" y="567.5" class="st0" width="264" height="132"/>
    <text transform="matrix(1 0 0 1 921.636 659)" class="st1">管书</text>
    <rect x="853.5" y="755.5" class="st0" width="264" height="132"/>
    <text transform="matrix(1 0 0 1 921.636 847)" class="st1">教员</text>
    <rect x="853.5" y="943.5" class="st0" width="264" height="132"/>
    <text transform="matrix(1 0 0 1 889.553 1035)" class="st1">副教员</text>
    <rect x="1107.5" y="379.5" class="st0" width="264" height="132"/>
    <text transform="matrix(1 0 0 1 1143.5601 471)" class="st1">庶务长</text>
    <rect x="1173.5" y="567.5" class="st0" width="264" height="132"/>
    <text transform="matrix(1 0 0 1 1241.8 659)" class="st1">杂务</text>
    <rect x="1173.5" y="755.5" class="st0" width="264" height="132"/>
    <text transform="matrix(1 0 0 1 1241.8 847)" class="st1">会计</text>
    <rect x="1173.5" y="943.5" class="st0" width="264" height="132"/>
    <text transform="matrix(1 0 0 1 1241.8 1035)" class="st1">文案</text>
</svg>
