<?xml version="1.0" encoding="utf-8"?>
<!-- Generator: Adobe Illustrator 26.0.2, SVG Export Plug-In . SVG Version: 6.00 Build 0)  -->
<svg version="1.1" xmlns="http://www.w3.org/2000/svg" viewBox="0 0 2370 2270" xml:space="preserve">
<style type="text/css">
	.st0{fill:none;stroke:black;stroke-width:3;stroke-miterlimit:8;}
	.st1{fill:black;font-family:sans-serif;font-size:50px;}
</style>
    <path class="st0" d="M2023.5,486.5v1199.6h44.9"/>
    <path class="st0" d="M2023.5,486.5v987.2h44.9"/>
    <path class="st0" d="M2023.5,486.5v774.8h44.9"/>
    <path class="st0" d="M2023.5,486.5v562.4h44.9"/>
    <path class="st0" d="M2023.5,486.5v350h44.9"/>
    <path class="st0" d="M2023.5,486.5v137.6h44.9"/>
    <path class="st0" d="M1185.5,273.5v31.4h958.1v31.4"/>
    <path class="st0" d="M1661.5,486.5v562.4h44.9"/>
    <path class="st0" d="M1661.5,486.5v350h44.9"/>
    <path class="st0" d="M1661.5,486.5v137.6h44.9"/>
    <path class="st0" d="M1185.5,273.5v31.4h596.1v31.4"/>
    <path class="st0" d="M1299.5,486.5v987.2h44.9"/>
    <path class="st0" d="M1299.5,486.5v774.8h44.9"/>
    <path class="st0" d="M1299.5,486.5v562.4h44.9"/>
    <path class="st0" d="M1299.5,486.5v350h44.9"/>
    <path class="st0" d="M1299.5,486.5v137.6h44.9"/>
    <path class="st0" d="M1185.5,273.5v31.4h234.1v31.4"/>
    <path class="st0" d="M876,486.5v1624.4h31.4"/>
    <path class="st0" d="M875.9,486.5v1624.4H482.5"/>
    <path class="st0" d="M937.5,1548.5v350h44.9"/>
    <path class="st0" d="M937.5,1548.5v137.6h44.9"/>
    <path class="st0" d="M876,486.5v987.2h31.4"/>
    <path class="st0" d="M875.9,486.5v987.2H482.5"/>
    <path class="st0" d="M937.5,698.5v562.4h44.9"/>
    <path class="st0" d="M937.5,698.5v350h44.9"/>
    <path class="st0" d="M937.5,698.5v137.6h44.9"/>
    <path class="st0" d="M876,486.5v137.6h31.4"/>
    <path class="st0" d="M514,698.5v562.4h31.4"/>
    <path class="st0" d="M514.4,698.5v562.4H483"/>
    <path class="st0" d="M514,698.5v350h31.4"/>
    <path class="st0" d="M514.4,698.5v350H483"/>
    <path class="st0" d="M514,698.5v137.6h31.4"/>
    <path class="st0" d="M514.4,698.5v137.6H483"/>
    <path class="st0" d="M875.9,486.5v137.6H663.5"/>
    <path class="st0" d="M1185.4,273.5v31.4H876.5v31.4"/>
    <path class="st0" d="M346.4,486.5v137.6h-44.9"/>
    <path class="st0" d="M1184.6,273.5v31.4H226.5v31.4"/>
    <rect x="942.5" y="85.5" class="st0" width="485" height="188"/>
    <text transform="matrix(1 0 0 1 985.833 199)" class="st1">北京高等师范学校</text>
    <rect x="77.5" y="336.5" class="st0" width="299" height="150"/>
    <text transform="matrix(1 0 0 1 179.018 430)" class="st1">校训</text>
    <rect x="2.5" y="549.5" class="st0" width="299" height="149"/>
    <text transform="matrix(1 0 0 1 53.8111 643)" class="st1">诚勤勇爱</text>
    <rect x="726.5" y="336.5" class="st0" width="299" height="150"/>
    <text transform="matrix(1 0 0 1 828.199 430)" class="st1">学科</text>
    <rect x="364.5" y="549.5" class="st0" width="299" height="149"/>
    <text transform="matrix(1 0 0 1 390.588 643)" class="st1">本科及预科</text>
    <rect x="183.5" y="761.5" class="st0" width="299" height="150"/>
    <text transform="matrix(1 0 0 1 260.012 855)" class="st1">国文部</text>
    <rect x="545.5" y="761.5" class="st0" width="299" height="150"/>
    <text transform="matrix(1 0 0 1 621.997 855)" class="st1">英语部</text>
    <rect x="183.5" y="973.5" class="st0" width="299" height="150"/>
    <text transform="matrix(1 0 0 1 260.012 1068)" class="st1">史地部</text>
    <rect x="545.5" y="973.5" class="st0" width="299" height="150"/>
    <text transform="matrix(1 0 0 1 621.997 1068)" class="st1">数理部</text>
    <rect x="183.5" y="1186.5" class="st0" width="299" height="149"/>
    <text transform="matrix(1 0 0 1 260.012 1280)" class="st1">理化部</text>
    <rect x="545.5" y="1186.5" class="st0" width="299" height="149"/>
    <text transform="matrix(1 0 0 1 621.997 1280)" class="st1">博物部</text>
    <rect x="907.5" y="549.5" class="st0" width="299" height="149"/>
    <text transform="matrix(1 0 0 1 933.566 612)" class="st1">师范教员养</text>
    <text transform="matrix(1 0 0 1 1009.191 673)" class="st1">成所</text>
    <rect x="982.5" y="761.5" class="st0" width="299" height="150"/>
    <text transform="matrix(1 0 0 1 1083.98 855)" class="st1">国文</text>
    <rect x="982.5" y="973.5" class="st0" width="299" height="150"/>
    <text transform="matrix(1 0 0 1 1083.98 1068)" class="st1">历史</text>
    <rect x="982.5" y="1186.5" class="st0" width="299" height="149"/>
    <text transform="matrix(1 0 0 1 1083.98 1280)" class="st1">地理</text>
    <rect x="183.5" y="1398.5" class="st0" width="299" height="150"/>
    <text transform="matrix(1 0 0 1 260.012 1492)" class="st1">补习科</text>
    <rect x="907.5" y="1398.5" class="st0" width="299" height="150"/>
    <text transform="matrix(1 0 0 1 933.566 1492)" class="st1">教育专攻科</text>
    <rect x="982.5" y="1611.5" class="st0" width="299" height="149"/>
    <text transform="matrix(1 0 0 1 1083.98 1705)" class="st1">德语</text>
    <rect x="982.5" y="1823.5" class="st0" width="299" height="150"/>
    <text transform="matrix(1 0 0 1 1083.98 1917)" class="st1">教育</text>
    <rect x="183.5" y="2035.5" class="st0" width="299" height="150"/>
    <text transform="matrix(1 0 0 1 209.595 2099)" class="st1">手工图画专</text>
    <text transform="matrix(1 0 0 1 285.22 2160)" class="st1">修科</text>
    <rect x="907.5" y="2035.5" class="st0" width="299" height="150"/>
    <text transform="matrix(1 0 0 1 933.566 2130)" class="st1">体育专修科</text>
    <rect x="1269.5" y="336.5" class="st0" width="299" height="150"/>
    <text transform="matrix(1 0 0 1 1320.76 430)" class="st1">行政组织</text>
    <rect x="1344.5" y="549.5" class="st0" width="299" height="149"/>
    <text transform="matrix(1 0 0 1 1420.76 643)" class="st1">教务课</text>
    <rect x="1344.5" y="761.5" class="st0" width="299" height="150"/>
    <text transform="matrix(1 0 0 1 1420.76 855)" class="st1">斋务课</text>
    <rect x="1344.5" y="973.5" class="st0" width="299" height="150"/>
    <text transform="matrix(1 0 0 1 1420.76 1068)" class="st1">庶务课</text>
    <rect x="1344.5" y="1186.5" class="st0" width="299" height="149"/>
    <text transform="matrix(1 0 0 1 1420.76 1280)" class="st1">会计课</text>
    <rect x="1344.5" y="1398.5" class="st0" width="299" height="150"/>
    <text transform="matrix(1 0 0 1 1420.76 1492)" class="st1">卫生课</text>
    <rect x="1631.5" y="336.5" class="st0" width="299" height="150"/>
    <text transform="matrix(1 0 0 1 1682.75 430)" class="st1">议事机关</text>
    <rect x="1706.5" y="549.5" class="st0" width="299" height="149"/>
    <text transform="matrix(1 0 0 1 1757.54 643)" class="st1">职员会议</text>
    <rect x="1706.5" y="761.5" class="st0" width="299" height="150"/>
    <text transform="matrix(1 0 0 1 1757.54 855)" class="st1">教务会议</text>
    <rect x="1706.5" y="973.5" class="st0" width="299" height="150"/>
    <text transform="matrix(1 0 0 1 1757.54 1068)" class="st1">训育会议</text>
    <rect x="1993.5" y="336.5" class="st0" width="299" height="150"/>
    <text transform="matrix(1 0 0 1 2069.9399 430)" class="st1">校友会</text>
    <rect x="2068.5" y="549.5" class="st0" width="299" height="149"/>
    <text transform="matrix(1 0 0 1 2144.73 643)" class="st1">总务部</text>
    <rect x="2068.5" y="761.5" class="st0" width="299" height="150"/>
    <text transform="matrix(1 0 0 1 2144.73 855)" class="st1">智育部</text>
    <rect x="2068.5" y="973.5" class="st0" width="299" height="150"/>
    <text transform="matrix(1 0 0 1 2144.73 1068)" class="st1">德育部</text>
    <rect x="2068.5" y="1186.5" class="st0" width="299" height="149"/>
    <text transform="matrix(1 0 0 1 2144.73 1280)" class="st1">体育部</text>
    <rect x="2068.5" y="1398.5" class="st0" width="299" height="150"/>
    <text transform="matrix(1 0 0 1 2144.73 1492)" class="st1">编辑部</text>
    <rect x="2068.5" y="1611.5" class="st0" width="299" height="149"/>
    <text transform="matrix(1 0 0 1 2144.73 1705)" class="st1">游艺部</text>
</svg>
