<?xml version="1.0" encoding="utf-8"?>
<!-- Generator: Adobe Illustrator 26.0.2, SVG Export Plug-In . SVG Version: 6.00 Build 0)  -->
<svg version="1.1" xmlns="http://www.w3.org/2000/svg" viewBox="0 0 2383 3005" xml:space="preserve">
<style type="text/css">
	.st0{fill:none;stroke:black;stroke-width:3;stroke-miterlimit:8;}
	.st1{fill:black;font-family:sans-serif;font-size:46px;}
</style>
    <path class="st0" d="M2013.5,352.5v1874.3h41.8"/>
    <path class="st0" d="M2013.5,352.5v1676.3h41.8"/>
    <path class="st0" d="M2013.5,352.5v1478.2h41.8"/>
    <path class="st0" d="M2013.5,352.5v1280.2h41.8"/>
    <path class="st0" d="M2013.5,352.5v1082.1h41.8"/>
    <path class="st0" d="M2013.5,352.5v884.1h41.8"/>
    <path class="st0" d="M2013.5,352.5v670.1h41.8"/>
    <path class="st0" d="M2013.5,352.5v430.1h41.8"/>
    <path class="st0" d="M2013.5,352.5v167.1h41.8"/>
    <path class="st0" d="M1189.5,154.5v29.3h935.9v29.3"/>
    <path class="st0" d="M1675.5,946.5v1712.7h41.8"/>
    <path class="st0" d="M1675.5,946.5v1514.7h41.8"/>
    <path class="st0" d="M1675.5,946.5v1316.6h41.8"/>
    <path class="st0" d="M1675.5,946.5v1118.6h41.8"/>
    <path class="st0" d="M1675.5,946.5V1867h41.8"/>
    <path class="st0" d="M1675.5,946.5V1669h41.8"/>
    <path class="st0" d="M1675.5,946.5v524.4h41.8"/>
    <path class="st0" d="M1675.5,946.5v326.4h41.8"/>
    <path class="st0" d="M1675.5,946.5v128.3h41.8"/>
    <path class="st0" d="M1606.5,550.5v326.4h41.8"/>
    <path class="st0" d="M1606.5,550.5v128.3h41.8"/>
    <path class="st0" d="M1718,352.5v58.6"/>
    <path class="st0" d="M1189.5,154.5v29.3h528.6v29.3"/>
    <path class="st0" d="M1194.5,352.5v1118.6h46.4"/>
    <path class="st0" d="M1194.5,352.5V1273h46.4"/>
    <path class="st0" d="M1194.5,352.5V1075h46.4"/>
    <path class="st0" d="M1194.5,352.5v524.4h46.4"/>
    <path class="st0" d="M1194.5,352.5v326.4h46.4"/>
    <path class="st0" d="M1194.5,352.5v128.3h46.4"/>
    <path class="st0" d="M1189.5,154.5v29.3h128.9v29.3"/>
    <path class="st0" d="M847.5,625.5v2306.9h55.8"/>
    <path class="st0" d="M847.5,625.5v2108.8h55.8"/>
    <path class="st0" d="M847.5,625.5v1910.8h55.8"/>
    <path class="st0" d="M847.5,625.5v1712.7h55.8"/>
    <path class="st0" d="M847.5,625.5v1514.7h55.8"/>
    <path class="st0" d="M847.5,625.5v1316.6h55.8"/>
    <path class="st0" d="M847.5,625.5v1118.6h55.8"/>
    <path class="st0" d="M847.5,625.5V1546h55.8"/>
    <path class="st0" d="M847.5,625.5V1348h55.8"/>
    <path class="st0" d="M847.5,625.5v524.4h55.8"/>
    <path class="st0" d="M847.5,625.5v326.4h55.8"/>
    <path class="st0" d="M847.5,625.5v128.3h55.8"/>
    <path class="st0" d="M781,352.5v165.9h29.3"/>
    <path class="st0" d="M715.3,621.5v1712.7h-54.8"/>
    <path class="st0" d="M715.3,621.5v1514.7h-54.8"/>
    <path class="st0" d="M715.3,621.5v1316.6h-54.8"/>
    <path class="st0" d="M715.3,621.5v1118.6h-54.8"/>
    <path class="st0" d="M715.3,621.5V1542h-54.8"/>
    <path class="st0" d="M715.3,621.5V1344h-54.8"/>
    <path class="st0" d="M715.3,621.5v524.4h-54.8"/>
    <path class="st0" d="M715.3,621.5v326.4h-54.8"/>
    <path class="st0" d="M715.3,621.5v128.3h-54.8"/>
    <path class="st0" d="M781.3,352.5v163.9H752"/>
    <path class="st0" d="M1188.6,154.5v29.3H780.5v29.3"/>
    <path class="st0" d="M364.3,352.5v261h-41.8"/>
    <path class="st0" d="M1189.4,154.5v29.3H253.5v29.3"/>
    <rect x="936.5" y="2.5" class="st0" width="505" height="152"/>
    <text transform="matrix(1 0 0 1 1005.214 90)" class="st1">北京高等师范学校</text>
    <rect x="113.5" y="213.5" class="st0" width="279" height="139"/>
    <text transform="matrix(1 0 0 1 206.806 294)" class="st1">宗旨</text>
    <rect x="15.5" y="411.5" class="st0" width="307" height="405"/>
    <text transform="matrix(1 0 0 1 31.0703 513)" class="st1">以研究专门学</text>
    <text transform="matrix(1 0 0 1 31.0703 569)" class="st1">术造就师范与</text>
    <text transform="matrix(1 0 0 1 31.0703 624)" class="st1">中等学校教师</text>
    <text transform="matrix(1 0 0 1 31.0703 680)" class="st1">及教育行政人</text>
    <text transform="matrix(1 0 0 1 76.9036 736)" class="st1">员为宗旨</text>
    <rect x="641.5" y="213.5" class="st0" width="279" height="139"/>
    <text transform="matrix(1 0 0 1 734.627 294)" class="st1">学系</text>
    <rect x="386.5" y="411.5" class="st0" width="365" height="210"/>
    <text transform="matrix(1 0 0 1 499.884 489)" class="st1">四年科</text>
    <text transform="matrix(1 0 0 1 440.7361 566)" class="st1">（</text>
    <text transform="matrix(1 0 0 1 486.5694 566)" class="st1">180</text>
    <text transform="matrix(1 0 0 1 559.0319 566)" class="st1">学分）</text>
    <rect x="381.5" y="680.5" class="st0" width="279" height="140"/>
    <text transform="matrix(1 0 0 1 451.679 761)" class="st1">教育系</text>
    <rect x="381.5" y="878.5" class="st0" width="279" height="140"/>
    <text transform="matrix(1 0 0 1 451.679 959)" class="st1">国文系</text>
    <rect x="381.5" y="1076.5" class="st0" width="279" height="140"/>
    <text transform="matrix(1 0 0 1 451.679 1157)" class="st1">英文系</text>
    <rect x="381.5" y="1274.5" class="st0" width="279" height="140"/>
    <text transform="matrix(1 0 0 1 405.845 1355)" class="st1">历史地理系</text>
    <rect x="381.5" y="1472.5" class="st0" width="279" height="140"/>
    <text transform="matrix(1 0 0 1 405.845 1553)" class="st1">数学物理系</text>
    <rect x="381.5" y="1670.5" class="st0" width="279" height="140"/>
    <text transform="matrix(1 0 0 1 405.845 1751)" class="st1">物理化学系</text>
    <rect x="381.5" y="1868.5" class="st0" width="279" height="140"/>
    <text transform="matrix(1 0 0 1 405.845 1949)" class="st1">生物地质系</text>
    <rect x="381.5" y="2066.5" class="st0" width="279" height="140"/>
    <text transform="matrix(1 0 0 1 451.679 2147)" class="st1">体育系</text>
    <rect x="381.5" y="2264.5" class="st0" width="279" height="140"/>
    <text transform="matrix(1 0 0 1 451.679 2346)" class="st1">工艺系</text>
    <rect x="810.5" y="411.5" class="st0" width="371" height="214"/>
    <text transform="matrix(1 0 0 1 926.833 491)" class="st1">六年科</text>
    <text transform="matrix(1 0 0 1 867.6851 568)" class="st1">（</text>
    <text transform="matrix(1 0 0 1 913.5184 568)" class="st1">236</text>
    <text transform="matrix(1 0 0 1 985.981 568)" class="st1">学分）</text>
    <rect x="903.5" y="684.5" class="st0" width="279" height="140"/>
    <text transform="matrix(1 0 0 1 973.39 765)" class="st1">教育系</text>
    <rect x="903.5" y="882.5" class="st0" width="279" height="140"/>
    <text transform="matrix(1 0 0 1 973.39 963)" class="st1">国文系</text>
    <rect x="903.5" y="1080.5" class="st0" width="279" height="140"/>
    <text transform="matrix(1 0 0 1 973.39 1161)" class="st1">英文系</text>
    <rect x="903.5" y="1278.5" class="st0" width="279" height="140"/>
    <text transform="matrix(1 0 0 1 973.39 1359)" class="st1">历史系</text>
    <rect x="903.5" y="1476.5" class="st0" width="279" height="140"/>
    <text transform="matrix(1 0 0 1 973.39 1557)" class="st1">地理系</text>
    <rect x="903.5" y="1674.5" class="st0" width="279" height="140"/>
    <text transform="matrix(1 0 0 1 973.39 1755)" class="st1">数学系</text>
    <rect x="903.5" y="1872.5" class="st0" width="279" height="140"/>
    <text transform="matrix(1 0 0 1 973.39 1953)" class="st1">化学系</text>
    <rect x="903.5" y="2070.5" class="st0" width="279" height="140"/>
    <text transform="matrix(1 0 0 1 973.39 2151)" class="st1">物理系</text>
    <rect x="903.5" y="2268.5" class="st0" width="279" height="140"/>
    <text transform="matrix(1 0 0 1 973.39 2349)" class="st1">生物系</text>
    <rect x="903.5" y="2467.5" class="st0" width="279" height="139"/>
    <text transform="matrix(1 0 0 1 950.474 2548)" class="st1">地质学系</text>
    <rect x="903.5" y="2665.5" class="st0" width="279" height="139"/>
    <text transform="matrix(1 0 0 1 973.39 2746)" class="st1">体育系</text>
    <rect x="903.5" y="2863.5" class="st0" width="279" height="139"/>
    <text transform="matrix(1 0 0 1 973.39 2944)" class="st1">工艺系</text>
    <rect x="1163.5" y="213.5" class="st0" width="309" height="139"/>
    <text transform="matrix(1 0 0 1 1179.99 294)" class="st1">公共必修科目</text>
    <rect x="1240.5" y="411.5" class="st0" width="279" height="139"/>
    <text transform="matrix(1 0 0 1 1333.83 492)" class="st1">英文</text>
    <rect x="1240.5" y="609.5" class="st0" width="279" height="139"/>
    <text transform="matrix(1 0 0 1 1333.83 690)" class="st1">国文</text>
    <rect x="1240.5" y="807.5" class="st0" width="279" height="139"/>
    <text transform="matrix(1 0 0 1 1333.83 888)" class="st1">数学</text>
    <rect x="1240.5" y="1005.5" class="st0" width="279" height="140"/>
    <text transform="matrix(1 0 0 1 1333.83 1086)" class="st1">教育</text>
    <rect x="1240.5" y="1203.5" class="st0" width="279" height="140"/>
    <text transform="matrix(1 0 0 1 1333.83 1284)" class="st1">体育</text>
    <rect x="1240.5" y="1401.5" class="st0" width="308" height="140"/>
    <text transform="matrix(1 0 0 1 1279.48 1482)" class="st1">第二外国语</text>
    <rect x="1578.5" y="213.5" class="st0" width="279" height="139"/>
    <text transform="matrix(1 0 0 1 1625.53 294)" class="st1">行政组织</text>
    <rect x="1578.5" y="411.5" class="st0" width="279" height="139"/>
    <text transform="matrix(1 0 0 1 1648.4399 492)" class="st1">校长室</text>
    <rect x="1647.5" y="609.5" class="st0" width="279" height="139"/>
    <text transform="matrix(1 0 0 1 1718.1801 690)" class="st1">教务处</text>
    <rect x="1647.5" y="807.5" class="st0" width="279" height="139"/>
    <text transform="matrix(1 0 0 1 1718.1801 888)" class="st1">总务处</text>
    <rect x="1717.5" y="1005.5" class="st0" width="279" height="140"/>
    <text transform="matrix(1 0 0 1 1787.92 1086)" class="st1">庶务部</text>
    <rect x="1717.5" y="1203.5" class="st0" width="279" height="140"/>
    <text transform="matrix(1 0 0 1 1787.92 1284)" class="st1">会计部</text>
    <rect x="1717.5" y="1401.5" class="st0" width="279" height="140"/>
    <text transform="matrix(1 0 0 1 1787.92 1482)" class="st1">舍务部</text>
    <rect x="1717.5" y="1599.5" class="st0" width="279" height="140"/>
    <text transform="matrix(1 0 0 1 1787.92 1680)" class="st1">介绍部</text>
    <rect x="1717.5" y="1797.5" class="st0" width="279" height="140"/>
    <text transform="matrix(1 0 0 1 1787.92 1878)" class="st1">注册部</text>
    <rect x="1717.5" y="1995.5" class="st0" width="279" height="140"/>
    <text transform="matrix(1 0 0 1 1787.92 2076)" class="st1">仪器部</text>
    <rect x="1717.5" y="2193.5" class="st0" width="279" height="140"/>
    <text transform="matrix(1 0 0 1 1787.92 2274)" class="st1">出版部</text>
    <rect x="1717.5" y="2391.5" class="st0" width="279" height="140"/>
    <text transform="matrix(1 0 0 1 1787.92 2472)" class="st1">图书馆</text>
    <rect x="1717.5" y="2589.5" class="st0" width="279" height="140"/>
    <text transform="matrix(1 0 0 1 1810.83 2670)" class="st1">医院</text>
    <rect x="1985.5" y="213.5" class="st0" width="279" height="139"/>
    <text transform="matrix(1 0 0 1 2055.71 294)" class="st1">委员会</text>
    <rect x="2055.5" y="411.5" class="st0" width="318" height="217"/>
    <text transform="matrix(1 0 0 1 2076.5601 475)" class="st1">学生自治及社</text>
    <text transform="matrix(1 0 0 1 2076.5601 531)" class="st1">会服务指导委</text>
    <text transform="matrix(1 0 0 1 2168.2268 586)" class="st1">员会</text>
    <rect x="2055.5" y="687.5" class="st0" width="279" height="191"/>
    <text transform="matrix(1 0 0 1 2079.6101 766)" class="st1">图书仪器委</text>
    <text transform="matrix(1 0 0 1 2148.3601 822)" class="st1">员会</text>
    <rect x="2055.5" y="937.5" class="st0" width="279" height="171"/>
    <text transform="matrix(1 0 0 1 2079.6101 1034)" class="st1">出版委员会</text>
    <rect x="2055.5" y="1167.5" class="st0" width="279" height="139"/>
    <text transform="matrix(1 0 0 1 2079.6101 1220)" class="st1">预算及审计</text>
    <text transform="matrix(1 0 0 1 2125.4434 1276)" class="st1">委员会</text>
    <rect x="2055.5" y="1365.5" class="st0" width="279" height="139"/>
    <text transform="matrix(1 0 0 1 2079.6101 1446)" class="st1">聘任委员会</text>
    <rect x="2055.5" y="1563.5" class="st0" width="279" height="139"/>
    <text transform="matrix(1 0 0 1 2079.6101 1616)" class="st1">教生实习委</text>
    <text transform="matrix(1 0 0 1 2148.3601 1672)" class="st1">员会</text>
    <rect x="2055.5" y="1761.5" class="st0" width="279" height="139"/>
    <text transform="matrix(1 0 0 1 2079.6101 1842)" class="st1">考试委员会</text>
    <rect x="2055.5" y="1959.5" class="st0" width="279" height="139"/>
    <text transform="matrix(1 0 0 1 2079.6101 2012)" class="st1">体育卫生委</text>
    <text transform="matrix(1 0 0 1 2148.3601 2068)" class="st1">员会</text>
    <rect x="2055.5" y="2157.5" class="st0" width="279" height="139"/>
    <text transform="matrix(1 0 0 1 2079.6101 2210)" class="st1">选科指导委</text>
    <text transform="matrix(1 0 0 1 2148.3601 2266)" class="st1">员会</text>
</svg>
