<?xml version="1.0" encoding="utf-8"?>
<!-- Generator: Adobe Illustrator 26.0.2, SVG Export Plug-In . SVG Version: 6.00 Build 0)  -->
<svg version="1.1" id="图层_1" xmlns="http://www.w3.org/2000/svg" viewBox="0 0 2542 2670" xml:space="preserve">
<style type="text/css">
	.st0{fill:none;stroke:black;stroke-width:2;stroke-miterlimit:8;}
	.st1{fill:black;font-family:sans-serif;font-size:37px;}
</style>
    <path class="st0" d="M2205.5,346.5v2214.4h37"/>
    <path class="st0" d="M2205.5,346.5v2039.3h37"/>
    <path class="st0" d="M2205.5,346.5v1864.2h37"/>
    <path class="st0" d="M2205.5,346.5v1689.1h37"/>
    <path class="st0" d="M2205.5,346.5v1514.1h37"/>
    <path class="st0" d="M2205.5,346.5v1339h37"/>
    <path class="st0" d="M2205.5,346.5v1163.9h37"/>
    <path class="st0" d="M2205.5,346.5v988.8h37"/>
    <path class="st0" d="M2205.5,346.5v813.7h37"/>
    <path class="st0" d="M2205.5,346.5v638.7h37"/>
    <path class="st0" d="M2205.5,346.5v463.6h37"/>
    <path class="st0" d="M2205.5,346.5V635h37"/>
    <path class="st0" d="M2205.5,346.5v113.4h37"/>
    <path class="st0" d="M1215.5,171.5v25.9h1089v25.9"/>
    <path class="st0" d="M1907.5,346.5v813.7h37"/>
    <path class="st0" d="M1907.5,346.5v638.7h37"/>
    <path class="st0" d="M1907.5,346.5v463.6h37"/>
    <path class="st0" d="M1907.5,346.5V635h37"/>
    <path class="st0" d="M1907.5,346.5v113.4h37"/>
    <path class="st0" d="M1215.5,171.5v25.9h790.6v25.9"/>
    <path class="st0" d="M1608.5,1747.5v463.6h37"/>
    <path class="st0" d="M1608.5,1747.5V2036h37"/>
    <path class="st0" d="M1608.5,1747.5v113.4h37"/>
    <path class="st0" d="M1547.5,521.5v1163.9h37"/>
    <path class="st0" d="M1608.5,697.5v813.7h37"/>
    <path class="st0" d="M1608.5,697.5v638.7h37"/>
    <path class="st0" d="M1608.5,697.5v463.6h37"/>
    <path class="st0" d="M1608.5,697.5V986h37"/>
    <path class="st0" d="M1608.5,697.5v113.4h37"/>
    <path class="st0" d="M1547.5,521.5v113.4h37"/>
    <path class="st0" d="M1646,346.5v51.8"/>
    <path class="st0" d="M1215.5,171.5v25.9h430.6v25.9"/>
    <path class="st0" d="M1310.5,697.5V986h37"/>
    <path class="st0" d="M1310.5,697.5v113.4h37"/>
    <path class="st0" d="M1110.5,521.5v25.9h298.4v25.9"/>
    <path class="st0" d="M1012.5,697.5v813.7h37"/>
    <path class="st0" d="M1012.5,697.5v638.7h37"/>
    <path class="st0" d="M1012.5,697.5v463.6h37"/>
    <path class="st0" d="M1012.5,697.5V986h37"/>
    <path class="st0" d="M1012.5,697.5v113.4h37"/>
    <path class="st0" d="M1111,521.5v51.8"/>
    <path class="st0" d="M713.5,697.5v463.6h37"/>
    <path class="st0" d="M713.5,697.5V986h37"/>
    <path class="st0" d="M713.5,697.5v113.4h37"/>
    <path class="st0" d="M1110.9,521.5v25.9H812.5v25.9"/>
    <path class="st0" d="M781.5,346.5v25.9h329.2v25.9"/>
    <path class="st0" d="M353.5,521.5v1514.1h37"/>
    <path class="st0" d="M353.5,521.5v1339h37"/>
    <path class="st0" d="M353.5,521.5v1163.9h37"/>
    <path class="st0" d="M415.5,1047.5v463.6h37"/>
    <path class="st0" d="M415.5,1047.5V1336h37"/>
    <path class="st0" d="M415.5,1047.5v113.4h37"/>
    <path class="st0" d="M353.5,521.5v463.6h37"/>
    <path class="st0" d="M353.5,521.5V810h37"/>
    <path class="st0" d="M353.5,521.5v113.4h37"/>
    <path class="st0" d="M781.7,346.5v25.9H452.5v25.9"/>
    <path class="st0" d="M1215.2,171.5v25.9H781.5v25.9"/>
    <path class="st0" d="M27.5,346.5v291.3h37"/>
    <path class="st0" d="M1215.5,171.5v25.9h-1089v25.9"/>
    <rect x="1019.5" y="48.5" class="st0" width="392" height="123"/>
    <text transform="matrix(1 0 0 1 1068 123)" class="st1">国立北平师范大学</text>
    <rect x="2.5" y="223.5" class="st0" width="247" height="123"/>
    <text transform="matrix(1 0 0 1 88.9908 298)" class="st1">总则</text>
    <rect x="64.5" y="398.5" class="st0" width="213" height="479"/>
    <text transform="matrix(1 0 0 1 78.6997 450)" class="st1">以造就中等</text>
    <text transform="matrix(1 0 0 1 78.6997 494)" class="st1">学校与师范</text>
    <text transform="matrix(1 0 0 1 78.6997 539)" class="st1">学校师资为</text>
    <text transform="matrix(1 0 0 1 78.6997 584)" class="st1">主，并以造</text>
    <text transform="matrix(1 0 0 1 78.6997 628)" class="st1">就教育行政</text>
    <text transform="matrix(1 0 0 1 78.6997 673)" class="st1">人员，及研</text>
    <text transform="matrix(1 0 0 1 78.6997 718)" class="st1">究教育学术</text>
    <text transform="matrix(1 0 0 1 78.6997 763)" class="st1">与适用于教</text>
    <text transform="matrix(1 0 0 1 78.6997 807)" class="st1">育之专门学</text>
    <text transform="matrix(1 0 0 1 115.3664 852)" class="st1">术为辅</text>
    <rect x="658.5" y="223.5" class="st0" width="246" height="123"/>
    <text transform="matrix(1 0 0 1 707.662 298)" class="st1">机构院系</text>
    <rect x="329.5" y="398.5" class="st0" width="246" height="123"/>
    <text transform="matrix(1 0 0 1 415.134 473)" class="st1">机构</text>
    <rect x="390.5" y="573.5" class="st0" width="247" height="124"/>
    <text transform="matrix(1 0 0 1 458.447 648)" class="st1">研究所</text>
    <rect x="390.5" y="748.5" class="st0" width="247" height="124"/>
    <text transform="matrix(1 0 0 1 421.78 823)" class="st1">特种师范班</text>
    <rect x="390.5" y="923.5" class="st0" width="247" height="124"/>
    <text transform="matrix(1 0 0 1 421.78 998)" class="st1">附属中学校</text>
    <rect x="452.5" y="1099.5" class="st0" width="246" height="123"/>
    <text transform="matrix(1 0 0 1 520.094 1173)" class="st1">男生部</text>
    <rect x="452.5" y="1274.5" class="st0" width="246" height="123"/>
    <text transform="matrix(1 0 0 1 520.094 1348)" class="st1">女生部</text>
    <rect x="452.5" y="1449.5" class="st0" width="246" height="123"/>
    <text transform="matrix(1 0 0 1 520.094 1523)" class="st1">师范部</text>
    <rect x="390.5" y="1624.5" class="st0" width="247" height="123"/>
    <text transform="matrix(1 0 0 1 421.78 1698)" class="st1">附属小学校</text>
    <rect x="390.5" y="1799.5" class="st0" width="247" height="123"/>
    <text transform="matrix(1 0 0 1 421.78 1874)" class="st1">附属幼稚班</text>
    <rect x="390.5" y="1974.5" class="st0" width="303" height="123"/>
    <text transform="matrix(1 0 0 1 413.428 2049)" class="st1">乡村教育试验区</text>
    <rect x="987.5" y="398.5" class="st0" width="246" height="123"/>
    <text transform="matrix(1 0 0 1 1073.52 473)" class="st1">院系</text>
    <rect x="689.5" y="573.5" class="st0" width="246" height="124"/>
    <text transform="matrix(1 0 0 1 756.819 648)" class="st1">文学院</text>
    <rect x="750.5" y="748.5" class="st0" width="247" height="124"/>
    <text transform="matrix(1 0 0 1 818.466 823)" class="st1">国文系</text>
    <rect x="750.5" y="923.5" class="st0" width="247" height="124"/>
    <text transform="matrix(1 0 0 1 781.799 998)" class="st1">外国语文系</text>
    <rect x="750.5" y="1099.5" class="st0" width="247" height="123"/>
    <text transform="matrix(1 0 0 1 818.466 1173)" class="st1">历史系</text>
    <rect x="987.5" y="573.5" class="st0" width="246" height="124"/>
    <text transform="matrix(1 0 0 1 1055.1899 648)" class="st1">理学院</text>
    <rect x="1049.5" y="748.5" class="st0" width="246" height="124"/>
    <text transform="matrix(1 0 0 1 1116.84 823)" class="st1">数学系</text>
    <rect x="1049.5" y="923.5" class="st0" width="246" height="124"/>
    <text transform="matrix(1 0 0 1 1116.84 998)" class="st1">物理系</text>
    <rect x="1049.5" y="1099.5" class="st0" width="246" height="123"/>
    <text transform="matrix(1 0 0 1 1116.84 1173)" class="st1">化学系</text>
    <rect x="1049.5" y="1274.5" class="st0" width="246" height="123"/>
    <text transform="matrix(1 0 0 1 1098.5 1348)" class="st1">生物学系</text>
    <rect x="1049.5" y="1449.5" class="st0" width="246" height="123"/>
    <text transform="matrix(1 0 0 1 1116.84 1523)" class="st1">地理系</text>
    <rect x="1285.5" y="573.5" class="st0" width="247" height="124"/>
    <text transform="matrix(1 0 0 1 1335.23 648)" class="st1">教育学院</text>
    <rect x="1347.5" y="748.5" class="st0" width="247" height="124"/>
    <text transform="matrix(1 0 0 1 1415.21 823)" class="st1">教育系</text>
    <rect x="1347.5" y="923.5" class="st0" width="247" height="124"/>
    <text transform="matrix(1 0 0 1 1415.21 998)" class="st1">体育系</text>
    <rect x="1522.5" y="223.5" class="st0" width="247" height="123"/>
    <text transform="matrix(1 0 0 1 1571.95 298)" class="st1">行政组织</text>
    <rect x="1522.5" y="398.5" class="st0" width="247" height="123"/>
    <text transform="matrix(1 0 0 1 1590.29 473)" class="st1">校长室</text>
    <rect x="1584.5" y="573.5" class="st0" width="246" height="124"/>
    <text transform="matrix(1 0 0 1 1651.9301 648)" class="st1">秘书处</text>
    <rect x="1645.5" y="748.5" class="st0" width="247" height="124"/>
    <text transform="matrix(1 0 0 1 1713.58 823)" class="st1">文书课</text>
    <rect x="1645.5" y="923.5" class="st0" width="247" height="124"/>
    <text transform="matrix(1 0 0 1 1713.58 998)" class="st1">斋务课</text>
    <rect x="1645.5" y="1099.5" class="st0" width="247" height="123"/>
    <text transform="matrix(1 0 0 1 1713.58 1173)" class="st1">庶务课</text>
    <rect x="1645.5" y="1274.5" class="st0" width="247" height="123"/>
    <text transform="matrix(1 0 0 1 1713.58 1348)" class="st1">会计课</text>
    <rect x="1645.5" y="1449.5" class="st0" width="247" height="123"/>
    <text transform="matrix(1 0 0 1 1713.58 1523)" class="st1">卫生课</text>
    <rect x="1584.5" y="1624.5" class="st0" width="246" height="123"/>
    <text transform="matrix(1 0 0 1 1651.9301 1698)" class="st1">教务处</text>
    <rect x="1645.5" y="1799.5" class="st0" width="247" height="123"/>
    <text transform="matrix(1 0 0 1 1713.58 1874)" class="st1">注册课</text>
    <rect x="1645.5" y="1974.5" class="st0" width="247" height="123"/>
    <text transform="matrix(1 0 0 1 1713.58 2049)" class="st1">图书课</text>
    <rect x="1645.5" y="2149.5" class="st0" width="247" height="123"/>
    <text transform="matrix(1 0 0 1 1713.58 2224)" class="st1">出版课</text>
    <rect x="1882.5" y="223.5" class="st0" width="247" height="123"/>
    <text transform="matrix(1 0 0 1 1968.64 298)" class="st1">会议</text>
    <rect x="1944.5" y="398.5" class="st0" width="246" height="123"/>
    <text transform="matrix(1 0 0 1 1993.62 473)" class="st1">校务会议</text>
    <rect x="1944.5" y="573.5" class="st0" width="246" height="124"/>
    <text transform="matrix(1 0 0 1 1993.62 648)" class="st1">教务会议</text>
    <rect x="1944.5" y="748.5" class="st0" width="246" height="124"/>
    <text transform="matrix(1 0 0 1 1993.62 823)" class="st1">院务会议</text>
    <rect x="1944.5" y="923.5" class="st0" width="246" height="124"/>
    <text transform="matrix(1 0 0 1 1993.62 998)" class="st1">系务会议</text>
    <rect x="1944.5" y="1099.5" class="st0" width="246" height="123"/>
    <text transform="matrix(1 0 0 1 1993.62 1173)" class="st1">事务会议</text>
    <rect x="2180.5" y="223.5" class="st0" width="247" height="123"/>
    <text transform="matrix(1 0 0 1 2248.6799 298)" class="st1">委员会</text>
    <rect x="2242.5" y="398.5" class="st0" width="247" height="123"/>
    <text transform="matrix(1 0 0 1 2255.3201 473)" class="st1">研究所委员会</text>
    <rect x="2242.5" y="573.5" class="st0" width="247" height="124"/>
    <text transform="matrix(1 0 0 1 2273.6599 648)" class="st1">预算委员会</text>
    <rect x="2242.5" y="748.5" class="st0" width="247" height="124"/>
    <text transform="matrix(1 0 0 1 2273.6599 823)" class="st1">审计委员会</text>
    <rect x="2242.5" y="923.5" class="st0" width="247" height="124"/>
    <text transform="matrix(1 0 0 1 2273.6599 998)" class="st1">出版委员会</text>
    <rect x="2242.5" y="1099.5" class="st0" width="247" height="123"/>
    <text transform="matrix(1 0 0 1 2273.6599 1173)" class="st1">图书委员会</text>
    <rect x="2242.5" y="1274.5" class="st0" width="247" height="123"/>
    <text transform="matrix(1 0 0 1 2273.6599 1348)" class="st1">仪器委员会</text>
    <rect x="2242.5" y="1449.5" class="st0" width="247" height="123"/>
    <text transform="matrix(1 0 0 1 2273.6599 1523)" class="st1">卫生委员会</text>
    <rect x="2242.5" y="1624.5" class="st0" width="247" height="123"/>
    <text transform="matrix(1 0 0 1 2255.3201 1676)" class="st1">学生生活指导</text>
    <text transform="matrix(1 0 0 1 2310.3201 1720)" class="st1">委员会</text>
    <rect x="2242.5" y="1799.5" class="st0" width="293" height="123"/>
    <text transform="matrix(1 0 0 1 2259.99 1874)" class="st1">军事训练委员会</text>
    <rect x="2242.5" y="1974.5" class="st0" width="247" height="123"/>
    <text transform="matrix(1 0 0 1 2255.3201 2026)" class="st1">免费及公费学</text>
    <text transform="matrix(1 0 0 1 2291.9868 2070)" class="st1">额委员会</text>
    <rect x="2242.5" y="2149.5" class="st0" width="263" height="123"/>
    <text transform="matrix(1 0 0 1 2244.9299 2224)" class="st1">建设计划委员会</text>
    <rect x="2242.5" y="2324.5" class="st0" width="290" height="123"/>
    <text transform="matrix(1 0 0 1 2258.6799 2399)" class="st1">附校设计委员会</text>
    <rect x="2242.5" y="2499.5" class="st0" width="247" height="123"/>
    <text transform="matrix(1 0 0 1 2328.6599 2574)" class="st1">其他</text>
</svg>
